<svg xmlns="http://www.w3.org/2000/svg" xmlns:xlink="http://www.w3.org/1999/xlink" width="1080" zoomAndPan="magnify" viewBox="0 0 810 809.999993" height="1080" preserveAspectRatio="xMidYMid meet" version="1.0"><defs><clipPath id="dada50a647"><path d="M 163 160.570312 L 648 160.570312 L 648 649.570312 L 163 649.570312 Z M 163 160.570312 " clip-rule="nonzero"/></clipPath></defs><path fill="#00bc46" d="M 225.695312 335.75 L 463.640625 335.75 C 463.953125 335.835938 464.265625 335.902344 464.585938 335.949219 C 464.902344 335.996094 465.222656 336.027344 465.546875 336.039062 C 465.867188 336.050781 466.191406 336.042969 466.511719 336.019531 C 466.832031 335.992188 467.152344 335.949219 467.46875 335.886719 C 467.78125 335.824219 468.09375 335.746094 468.402344 335.648438 C 468.707031 335.550781 469.007812 335.433594 469.304688 335.300781 C 469.597656 335.167969 469.882812 335.019531 470.160156 334.855469 C 470.433594 334.691406 470.703125 334.511719 470.957031 334.3125 C 471.214844 334.117188 471.457031 333.910156 471.6875 333.683594 C 471.921875 333.460938 472.140625 333.226562 472.34375 332.976562 C 472.550781 332.726562 472.738281 332.46875 472.914062 332.199219 C 473.089844 331.925781 473.246094 331.648438 473.390625 331.359375 C 473.53125 331.070312 473.660156 330.773438 473.765625 330.46875 C 473.875 330.167969 473.96875 329.859375 474.039062 329.542969 C 474.113281 329.230469 474.167969 328.914062 474.207031 328.59375 C 474.242188 328.273438 474.261719 327.953125 474.261719 327.628906 C 474.261719 327.308594 474.242188 326.988281 474.207031 326.667969 C 474.167969 326.347656 474.113281 326.03125 474.039062 325.714844 C 473.96875 325.402344 473.875 325.09375 473.765625 324.789062 C 473.660156 324.488281 473.53125 324.191406 473.390625 323.902344 C 473.246094 323.613281 473.089844 323.332031 472.914062 323.0625 C 472.738281 322.792969 472.550781 322.53125 472.34375 322.285156 C 472.140625 322.035156 471.921875 321.796875 471.6875 321.574219 C 471.457031 321.351562 471.214844 321.140625 470.957031 320.945312 C 470.703125 320.75 470.433594 320.570312 470.160156 320.40625 C 469.882812 320.238281 469.597656 320.089844 469.304688 319.957031 C 469.007812 319.824219 468.707031 319.710938 468.402344 319.613281 C 468.09375 319.515625 467.78125 319.4375 467.464844 319.375 C 467.152344 319.3125 466.832031 319.269531 466.511719 319.242188 C 466.191406 319.21875 465.867188 319.210938 465.546875 319.222656 C 465.222656 319.234375 464.902344 319.261719 464.585938 319.3125 C 464.265625 319.359375 463.953125 319.425781 463.640625 319.511719 L 225.695312 319.511719 C 224.804688 319.753906 223.976562 320.132812 223.210938 320.648438 C 222.441406 321.160156 221.777344 321.785156 221.21875 322.519531 C 220.65625 323.253906 220.230469 324.058594 219.933594 324.933594 C 219.636719 325.808594 219.488281 326.707031 219.488281 327.628906 C 219.488281 328.554688 219.636719 329.453125 219.933594 330.328125 C 220.230469 331.203125 220.65625 332.007812 221.21875 332.742188 C 221.777344 333.472656 222.441406 334.097656 223.210938 334.613281 C 223.976562 335.128906 224.804688 335.507812 225.695312 335.75 Z M 225.695312 335.75 " fill-opacity="1" fill-rule="nonzero"/><path fill="#00bc46" d="M 225.695312 410.378906 L 463.640625 410.378906 C 463.953125 410.464844 464.265625 410.53125 464.585938 410.582031 C 464.902344 410.628906 465.222656 410.660156 465.546875 410.667969 C 465.867188 410.679688 466.191406 410.675781 466.511719 410.648438 C 466.832031 410.625 467.152344 410.578125 467.46875 410.519531 C 467.78125 410.457031 468.09375 410.375 468.402344 410.277344 C 468.707031 410.179688 469.007812 410.066406 469.304688 409.933594 C 469.597656 409.800781 469.882812 409.652344 470.160156 409.488281 C 470.433594 409.320312 470.703125 409.140625 470.957031 408.945312 C 471.214844 408.75 471.457031 408.539062 471.6875 408.316406 C 471.921875 408.09375 472.140625 407.855469 472.34375 407.609375 C 472.550781 407.359375 472.738281 407.097656 472.914062 406.828125 C 473.089844 406.558594 473.246094 406.277344 473.390625 405.988281 C 473.53125 405.699219 473.660156 405.40625 473.765625 405.101562 C 473.875 404.796875 473.96875 404.488281 474.039062 404.175781 C 474.113281 403.863281 474.167969 403.546875 474.207031 403.226562 C 474.242188 402.90625 474.261719 402.582031 474.261719 402.261719 C 474.261719 401.9375 474.242188 401.617188 474.207031 401.296875 C 474.167969 400.976562 474.113281 400.660156 474.039062 400.347656 C 473.96875 400.035156 473.875 399.726562 473.765625 399.421875 C 473.660156 399.117188 473.53125 398.820312 473.390625 398.535156 C 473.246094 398.246094 473.089844 397.964844 472.914062 397.695312 C 472.738281 397.421875 472.550781 397.164062 472.34375 396.914062 C 472.140625 396.667969 471.921875 396.429688 471.6875 396.207031 C 471.457031 395.984375 471.214844 395.773438 470.957031 395.578125 C 470.703125 395.382812 470.433594 395.199219 470.160156 395.035156 C 469.882812 394.871094 469.597656 394.722656 469.304688 394.589844 C 469.007812 394.457031 468.707031 394.34375 468.402344 394.246094 C 468.09375 394.148438 467.78125 394.066406 467.464844 394.003906 C 467.152344 393.941406 466.832031 393.898438 466.511719 393.875 C 466.191406 393.847656 465.867188 393.839844 465.546875 393.851562 C 465.222656 393.863281 464.902344 393.894531 464.585938 393.941406 C 464.265625 393.992188 463.953125 394.058594 463.640625 394.140625 L 225.695312 394.140625 C 224.804688 394.382812 223.976562 394.761719 223.210938 395.277344 C 222.441406 395.792969 221.777344 396.417969 221.21875 397.152344 C 220.65625 397.886719 220.230469 398.6875 219.933594 399.5625 C 219.636719 400.4375 219.488281 401.339844 219.488281 402.261719 C 219.488281 403.183594 219.636719 404.085938 219.933594 404.957031 C 220.230469 405.832031 220.65625 406.636719 221.21875 407.371094 C 221.777344 408.105469 222.441406 408.730469 223.210938 409.246094 C 223.976562 409.761719 224.804688 410.136719 225.695312 410.378906 Z M 225.695312 410.378906 " fill-opacity="1" fill-rule="nonzero"/><path fill="#00bc46" d="M 225.695312 485.011719 L 463.640625 485.011719 C 463.953125 485.097656 464.265625 485.164062 464.585938 485.210938 C 464.902344 485.257812 465.222656 485.289062 465.546875 485.300781 C 465.867188 485.3125 466.191406 485.304688 466.511719 485.28125 C 466.832031 485.253906 467.152344 485.210938 467.46875 485.148438 C 467.78125 485.085938 468.09375 485.007812 468.402344 484.910156 C 468.707031 484.8125 469.007812 484.695312 469.304688 484.5625 C 469.597656 484.433594 469.882812 484.285156 470.160156 484.117188 C 470.433594 483.953125 470.703125 483.773438 470.957031 483.578125 C 471.214844 483.382812 471.457031 483.171875 471.6875 482.949219 C 471.921875 482.722656 472.140625 482.488281 472.34375 482.238281 C 472.550781 481.992188 472.738281 481.730469 472.914062 481.460938 C 473.089844 481.1875 473.246094 480.910156 473.390625 480.621094 C 473.53125 480.332031 473.660156 480.035156 473.765625 479.734375 C 473.875 479.429688 473.96875 479.121094 474.039062 478.808594 C 474.113281 478.492188 474.167969 478.175781 474.207031 477.855469 C 474.242188 477.535156 474.261719 477.214844 474.261719 476.894531 C 474.261719 476.570312 474.242188 476.25 474.207031 475.929688 C 474.167969 475.609375 474.113281 475.292969 474.039062 474.980469 C 473.96875 474.664062 473.875 474.355469 473.765625 474.054688 C 473.660156 473.75 473.53125 473.453125 473.390625 473.164062 C 473.246094 472.875 473.089844 472.597656 472.914062 472.324219 C 472.738281 472.054688 472.550781 471.796875 472.34375 471.546875 C 472.140625 471.296875 471.921875 471.0625 471.6875 470.835938 C 471.457031 470.613281 471.214844 470.402344 470.957031 470.207031 C 470.703125 470.011719 470.433594 469.832031 470.160156 469.667969 C 469.882812 469.503906 469.597656 469.351562 469.304688 469.222656 C 469.007812 469.089844 468.707031 468.972656 468.402344 468.875 C 468.09375 468.777344 467.78125 468.699219 467.464844 468.636719 C 467.152344 468.574219 466.832031 468.53125 466.511719 468.503906 C 466.191406 468.480469 465.867188 468.472656 465.546875 468.484375 C 465.222656 468.496094 464.902344 468.527344 464.585938 468.574219 C 464.265625 468.621094 463.953125 468.6875 463.640625 468.773438 L 225.695312 468.773438 C 224.804688 469.015625 223.976562 469.394531 223.210938 469.910156 C 222.441406 470.425781 221.777344 471.050781 221.21875 471.78125 C 220.65625 472.515625 220.230469 473.320312 219.933594 474.195312 C 219.636719 475.070312 219.488281 475.96875 219.488281 476.894531 C 219.488281 477.816406 219.636719 478.714844 219.933594 479.589844 C 220.230469 480.464844 220.65625 481.269531 221.21875 482.003906 C 221.777344 482.738281 222.441406 483.359375 223.210938 483.875 C 223.976562 484.390625 224.804688 484.769531 225.695312 485.011719 Z M 225.695312 485.011719 " fill-opacity="1" fill-rule="nonzero"/><g clip-path="url(#dada50a647)"><path fill="#00bc46" d="M 624.179688 448.328125 C 622.671875 448.292969 621.179688 448.410156 619.699219 448.683594 C 618.214844 448.953125 616.777344 449.371094 615.382812 449.933594 C 613.984375 450.5 612.660156 451.199219 611.40625 452.03125 C 610.152344 452.867188 609 453.820312 607.9375 454.890625 L 525.484375 536.253906 L 525.484375 231.332031 C 525.484375 230.78125 525.429688 230.234375 525.320312 229.691406 C 525.214844 229.148438 525.054688 228.625 524.84375 228.113281 C 524.632812 227.601562 524.371094 227.117188 524.066406 226.660156 C 523.757812 226.199219 523.410156 225.773438 523.019531 225.382812 C 522.628906 224.992188 522.203125 224.644531 521.742188 224.335938 C 521.285156 224.03125 520.800781 223.769531 520.289062 223.558594 C 519.777344 223.347656 519.253906 223.1875 518.710938 223.082031 C 518.167969 222.972656 517.621094 222.917969 517.070312 222.917969 L 432.425781 222.917969 L 432.425781 210.464844 C 432.425781 209.914062 432.371094 209.367188 432.261719 208.824219 C 432.15625 208.285156 431.996094 207.757812 431.785156 207.246094 C 431.574219 206.734375 431.3125 206.25 431.007812 205.792969 C 430.699219 205.332031 430.351562 204.90625 429.960938 204.515625 C 429.570312 204.125 429.144531 203.777344 428.6875 203.46875 C 428.226562 203.164062 427.742188 202.90625 427.230469 202.691406 C 426.722656 202.480469 426.195312 202.320312 425.652344 202.214844 C 425.109375 202.105469 424.5625 202.050781 424.011719 202.050781 L 388.589844 202.050781 C 388.503906 200.664062 388.351562 199.285156 388.136719 197.914062 C 387.921875 196.539062 387.640625 195.179688 387.296875 193.832031 C 386.953125 192.488281 386.542969 191.160156 386.074219 189.851562 C 385.605469 188.542969 385.074219 187.261719 384.484375 186.003906 C 383.894531 184.746094 383.246094 183.515625 382.539062 182.320312 C 381.832031 181.125 381.070312 179.964844 380.253906 178.839844 C 379.4375 177.714844 378.570312 176.628906 377.652344 175.585938 C 376.734375 174.542969 375.769531 173.546875 374.757812 172.59375 C 373.742188 171.640625 372.6875 170.738281 371.589844 169.886719 C 370.492188 169.035156 369.359375 168.234375 368.183594 167.492188 C 367.011719 166.746094 365.804688 166.058594 364.566406 165.425781 C 363.328125 164.792969 362.066406 164.222656 360.773438 163.710938 C 359.480469 163.199219 358.167969 162.75 356.832031 162.359375 C 355.5 161.972656 354.148438 161.648438 352.78125 161.386719 C 351.417969 161.128906 350.042969 160.933594 348.660156 160.800781 C 347.277344 160.671875 345.890625 160.605469 344.5 160.605469 C 343.109375 160.605469 341.722656 160.671875 340.339844 160.800781 C 338.957031 160.933594 337.582031 161.128906 336.214844 161.386719 C 334.851562 161.648438 333.5 161.972656 332.167969 162.359375 C 330.832031 162.75 329.519531 163.199219 328.226562 163.710938 C 326.933594 164.222656 325.671875 164.792969 324.433594 165.425781 C 323.195312 166.058594 321.988281 166.746094 320.816406 167.492188 C 319.640625 168.234375 318.507812 169.035156 317.410156 169.886719 C 316.3125 170.738281 315.257812 171.640625 314.242188 172.59375 C 313.230469 173.546875 312.265625 174.542969 311.347656 175.585938 C 310.429688 176.628906 309.5625 177.714844 308.746094 178.839844 C 307.929688 179.964844 307.167969 181.125 306.460938 182.320312 C 305.753906 183.515625 305.105469 184.746094 304.515625 186.003906 C 303.925781 187.261719 303.394531 188.542969 302.925781 189.851562 C 302.457031 191.160156 302.046875 192.488281 301.703125 193.832031 C 301.359375 195.179688 301.078125 196.539062 300.863281 197.914062 C 300.648438 199.285156 300.496094 200.664062 300.410156 202.050781 L 265.074219 202.050781 C 264.519531 202.050781 263.972656 202.105469 263.429688 202.214844 C 262.890625 202.320312 262.363281 202.480469 261.851562 202.691406 C 261.34375 202.90625 260.859375 203.164062 260.398438 203.46875 C 259.9375 203.777344 259.515625 204.125 259.125 204.515625 C 258.734375 204.90625 258.382812 205.332031 258.078125 205.792969 C 257.769531 206.25 257.511719 206.734375 257.300781 207.246094 C 257.085938 207.757812 256.929688 208.285156 256.820312 208.824219 C 256.710938 209.367188 256.660156 209.914062 256.660156 210.464844 L 256.660156 223.171875 L 171.761719 223.171875 C 171.210938 223.171875 170.664062 223.226562 170.121094 223.332031 C 169.578125 223.441406 169.054688 223.601562 168.542969 223.8125 C 168.03125 224.023438 167.546875 224.28125 167.089844 224.589844 C 166.628906 224.894531 166.203125 225.246094 165.8125 225.636719 C 165.421875 226.027344 165.074219 226.453125 164.765625 226.910156 C 164.460938 227.371094 164.199219 227.855469 163.988281 228.367188 C 163.777344 228.875 163.617188 229.402344 163.511719 229.945312 C 163.402344 230.484375 163.347656 231.03125 163.347656 231.585938 L 163.347656 641.007812 C 163.347656 641.558594 163.402344 642.105469 163.511719 642.648438 C 163.617188 643.1875 163.777344 643.714844 163.988281 644.226562 C 164.199219 644.734375 164.460938 645.222656 164.765625 645.679688 C 165.074219 646.140625 165.421875 646.566406 165.8125 646.957031 C 166.203125 647.347656 166.628906 647.695312 167.089844 648 C 167.546875 648.308594 168.03125 648.566406 168.542969 648.777344 C 169.054688 648.992188 169.578125 649.148438 170.121094 649.257812 C 170.664062 649.367188 171.210938 649.417969 171.761719 649.417969 L 517.65625 649.417969 C 518.210938 649.417969 518.757812 649.367188 519.300781 649.257812 C 519.839844 649.148438 520.367188 648.992188 520.878906 648.777344 C 521.386719 648.566406 521.875 648.308594 522.332031 648 C 522.792969 647.695312 523.21875 647.347656 523.609375 646.957031 C 524 646.566406 524.347656 646.140625 524.652344 645.679688 C 524.960938 645.222656 525.21875 644.734375 525.429688 644.226562 C 525.644531 643.714844 525.800781 643.1875 525.910156 642.648438 C 526.019531 642.105469 526.070312 641.558594 526.070312 641.007812 L 526.070312 600.367188 L 640.332031 487.367188 C 641.414062 486.328125 642.382812 485.191406 643.234375 483.957031 C 644.085938 482.722656 644.804688 481.414062 645.390625 480.035156 C 645.976562 478.652344 646.417969 477.226562 646.714844 475.753906 C 647.011719 474.285156 647.15625 472.796875 647.148438 471.296875 C 647.152344 470.542969 647.121094 469.792969 647.054688 469.039062 C 646.984375 468.289062 646.878906 467.542969 646.734375 466.804688 C 646.59375 466.0625 646.414062 465.332031 646.195312 464.609375 C 645.980469 463.886719 645.730469 463.179688 645.445312 462.480469 C 645.160156 461.785156 644.839844 461.101562 644.484375 460.4375 C 644.132812 459.769531 643.746094 459.125 643.328125 458.496094 C 642.910156 457.867188 642.464844 457.261719 641.984375 456.679688 C 641.507812 456.097656 641.003906 455.539062 640.46875 455.003906 C 639.9375 454.472656 639.378906 453.96875 638.796875 453.488281 C 638.210938 453.011719 637.605469 452.5625 636.980469 452.144531 C 636.351562 451.730469 635.707031 451.34375 635.039062 450.988281 C 634.375 450.636719 633.691406 450.316406 632.996094 450.03125 C 632.296875 449.746094 631.585938 449.492188 630.863281 449.277344 C 630.140625 449.0625 629.410156 448.882812 628.671875 448.742188 C 627.929688 448.597656 627.183594 448.492188 626.433594 448.421875 C 625.683594 448.355469 624.933594 448.320312 624.179688 448.328125 Z M 273.234375 231.5 L 273.234375 218.628906 L 309.328125 218.628906 C 309.328125 218.628906 309.328125 218.628906 309.835938 218.628906 C 310.339844 218.628906 310.507812 218.628906 310.84375 218.628906 C 311.367188 218.507812 311.871094 218.339844 312.359375 218.125 C 312.828125 217.882812 313.25 217.574219 313.621094 217.199219 C 314.074219 216.929688 314.464844 216.59375 314.800781 216.1875 C 315.128906 215.800781 315.410156 215.378906 315.640625 214.925781 C 315.914062 214.503906 316.140625 214.054688 316.3125 213.578125 C 316.351562 213.046875 316.351562 212.515625 316.3125 211.980469 C 316.355469 211.617188 316.355469 211.25 316.3125 210.886719 C 316.3125 210.886719 316.3125 210.886719 316.3125 210.382812 C 316.3125 209.878906 316.3125 210.382812 316.3125 209.792969 C 316.226562 208.644531 316.226562 207.492188 316.3125 206.34375 C 316.3125 205.421875 316.359375 204.5 316.449219 203.582031 C 316.539062 202.664062 316.675781 201.75 316.855469 200.84375 C 317.035156 199.9375 317.257812 199.046875 317.527344 198.160156 C 317.796875 197.277344 318.105469 196.410156 318.460938 195.558594 C 318.8125 194.703125 319.207031 193.871094 319.640625 193.058594 C 320.078125 192.242188 320.550781 191.453125 321.0625 190.683594 C 321.578125 189.917969 322.125 189.175781 322.710938 188.460938 C 323.296875 187.75 323.917969 187.066406 324.570312 186.414062 C 325.222656 185.761719 325.90625 185.140625 326.617188 184.554688 C 327.332031 183.96875 328.074219 183.421875 328.839844 182.90625 C 329.609375 182.394531 330.398438 181.921875 331.214844 181.484375 C 332.027344 181.050781 332.859375 180.65625 333.714844 180.304688 C 334.566406 179.949219 335.433594 179.640625 336.316406 179.371094 C 337.203125 179.101562 338.09375 178.878906 339 178.699219 C 339.90625 178.519531 340.820312 178.382812 341.738281 178.292969 C 342.65625 178.203125 343.578125 178.15625 344.5 178.15625 C 345.421875 178.15625 346.34375 178.203125 347.261719 178.292969 C 348.179688 178.382812 349.09375 178.519531 350 178.699219 C 350.90625 178.878906 351.796875 179.101562 352.683594 179.371094 C 353.566406 179.640625 354.433594 179.949219 355.285156 180.304688 C 356.140625 180.65625 356.972656 181.050781 357.785156 181.484375 C 358.601562 181.921875 359.390625 182.394531 360.160156 182.90625 C 360.925781 183.421875 361.667969 183.96875 362.382812 184.554688 C 363.09375 185.140625 363.777344 185.761719 364.429688 186.414062 C 365.082031 187.066406 365.703125 187.75 366.289062 188.460938 C 366.875 189.175781 367.421875 189.917969 367.9375 190.683594 C 368.449219 191.453125 368.921875 192.242188 369.359375 193.058594 C 369.792969 193.871094 370.1875 194.703125 370.539062 195.558594 C 370.894531 196.410156 371.203125 197.277344 371.472656 198.160156 C 371.742188 199.046875 371.964844 199.9375 372.144531 200.84375 C 372.324219 201.75 372.460938 202.664062 372.550781 203.582031 C 372.640625 204.5 372.6875 205.421875 372.6875 206.34375 C 372.773438 207.492188 372.773438 208.644531 372.6875 209.792969 C 372.6875 209.792969 372.6875 209.792969 372.6875 210.382812 C 372.6875 210.972656 372.6875 210.382812 372.6875 210.886719 C 372.648438 211.25 372.648438 211.617188 372.6875 211.980469 C 372.648438 212.484375 372.648438 212.992188 372.6875 213.496094 C 372.824219 214.011719 373.050781 214.488281 373.359375 214.925781 C 373.609375 215.367188 373.890625 215.785156 374.199219 216.1875 C 374.503906 216.589844 374.867188 216.929688 375.292969 217.199219 C 375.710938 217.554688 376.160156 217.863281 376.640625 218.125 C 377.101562 218.34375 377.578125 218.511719 378.070312 218.628906 C 378.492188 218.628906 378.746094 218.628906 379.082031 218.628906 L 415.679688 218.628906 L 415.679688 245.550781 L 272.644531 245.550781 Z M 509.496094 633.179688 L 179.925781 633.179688 L 179.925781 239.496094 L 256.910156 239.496094 L 256.910156 253.210938 C 256.910156 253.761719 256.964844 254.308594 257.074219 254.851562 C 257.179688 255.390625 257.339844 255.917969 257.550781 256.429688 C 257.761719 256.9375 258.023438 257.425781 258.328125 257.882812 C 258.636719 258.34375 258.984375 258.769531 259.375 259.160156 C 259.765625 259.550781 260.191406 259.898438 260.652344 260.203125 C 261.109375 260.511719 261.59375 260.769531 262.105469 260.984375 C 262.617188 261.195312 263.140625 261.355469 263.683594 261.460938 C 264.226562 261.570312 264.773438 261.625 265.324219 261.625 L 424.347656 261.625 C 424.898438 261.625 425.449219 261.570312 425.988281 261.460938 C 426.53125 261.355469 427.058594 261.195312 427.566406 260.984375 C 428.078125 260.769531 428.5625 260.511719 429.023438 260.203125 C 429.480469 259.898438 429.90625 259.550781 430.296875 259.160156 C 430.6875 258.769531 431.035156 258.34375 431.34375 257.882812 C 431.652344 257.425781 431.910156 256.9375 432.121094 256.429688 C 432.332031 255.917969 432.492188 255.390625 432.601562 254.851562 C 432.707031 254.308594 432.761719 253.761719 432.761719 253.210938 L 432.761719 239.496094 L 509.832031 239.496094 L 509.832031 552.238281 L 501.417969 560.234375 L 455.898438 512.609375 C 454.871094 511.511719 453.746094 510.527344 452.523438 509.65625 C 451.296875 508.78125 450 508.039062 448.625 507.425781 C 447.253906 506.8125 445.835938 506.339844 444.367188 506.007812 C 442.902344 505.675781 441.417969 505.492188 439.914062 505.457031 C 438.410156 505.402344 436.917969 505.496094 435.433594 505.746094 C 433.949219 505.992188 432.503906 506.386719 431.101562 506.929688 C 429.699219 507.472656 428.363281 508.152344 427.097656 508.964844 C 425.835938 509.78125 424.664062 510.714844 423.589844 511.769531 C 422.507812 512.796875 421.53125 513.917969 420.671875 515.136719 C 419.808594 516.355469 419.074219 517.648438 418.46875 519.011719 C 417.859375 520.378906 417.394531 521.789062 417.066406 523.246094 C 416.738281 524.703125 416.558594 526.175781 416.523438 527.671875 C 416.472656 529.105469 416.5625 530.527344 416.785156 531.945312 C 417.007812 533.363281 417.367188 534.746094 417.855469 536.09375 C 418.347656 537.441406 418.960938 538.730469 419.699219 539.960938 C 420.4375 541.191406 421.285156 542.335938 422.246094 543.40625 L 225.695312 543.40625 C 224.785156 543.632812 223.9375 544.003906 223.152344 544.515625 C 222.367188 545.023438 221.683594 545.652344 221.109375 546.390625 C 220.53125 547.128906 220.089844 547.941406 219.785156 548.828125 C 219.480469 549.714844 219.328125 550.628906 219.328125 551.566406 C 219.328125 552.503906 219.480469 553.417969 219.785156 554.304688 C 220.089844 555.191406 220.53125 556.003906 221.109375 556.742188 C 221.683594 557.480469 222.367188 558.105469 223.152344 558.617188 C 223.9375 559.128906 224.785156 559.5 225.695312 559.726562 L 437.894531 559.726562 L 484.253906 608.527344 C 486.066406 610.476562 488.144531 612.070312 490.496094 613.3125 C 492.847656 614.550781 495.339844 615.371094 497.96875 615.765625 L 501 615.765625 C 503.910156 615.738281 506.714844 615.175781 509.414062 614.082031 Z M 628.972656 475.839844 L 512.105469 591.027344 L 505.792969 597.253906 C 505.191406 597.882812 504.484375 598.363281 503.679688 598.699219 C 502.875 599.035156 502.039062 599.199219 501.167969 599.1875 L 500.324219 599.1875 C 498.785156 599 497.492188 598.324219 496.453125 597.167969 L 447.484375 545.84375 L 434.867188 532.804688 C 434.253906 532.171875 433.789062 531.449219 433.46875 530.632812 C 433.144531 529.816406 432.996094 528.96875 433.015625 528.089844 C 433.042969 527.230469 433.234375 526.410156 433.582031 525.625 C 433.933594 524.835938 434.414062 524.144531 435.035156 523.546875 C 435.65625 522.925781 436.375 522.449219 437.195312 522.128906 C 438.015625 521.808594 438.867188 521.664062 439.746094 521.695312 C 440.621094 521.746094 441.457031 521.949219 442.257812 522.3125 C 443.054688 522.675781 443.761719 523.171875 444.371094 523.800781 L 494.855469 577.480469 C 495.621094 578.261719 496.507812 578.875 497.511719 579.308594 C 498.515625 579.746094 499.566406 579.976562 500.660156 580.003906 C 501.75 580.027344 502.800781 579.835938 503.808594 579.425781 C 504.816406 579.015625 505.703125 578.425781 506.46875 577.648438 L 523.210938 561.578125 L 619.71875 466.5 C 620.25 465.804688 620.90625 465.265625 621.691406 464.882812 C 622.476562 464.496094 623.304688 464.308594 624.179688 464.3125 C 625.054688 464.320312 625.894531 464.496094 626.699219 464.847656 C 627.503906 465.199219 628.207031 465.695312 628.804688 466.332031 C 629.433594 466.9375 629.917969 467.640625 630.253906 468.445312 C 630.589844 469.25 630.75 470.089844 630.742188 470.960938 C 630.78125 471.859375 630.644531 472.730469 630.339844 473.574219 C 630.035156 474.421875 629.578125 475.175781 628.972656 475.839844 Z M 628.972656 475.839844 " fill-opacity="1" fill-rule="nonzero"/></g></svg>