<svg xmlns="http://www.w3.org/2000/svg" xmlns:xlink="http://www.w3.org/1999/xlink" width="1080" zoomAndPan="magnify" viewBox="0 0 810 809.999993" height="1080" preserveAspectRatio="xMidYMid meet" version="1.0"><defs><clipPath id="6e160c9753"><path d="M 319 305 L 588.46875 305 L 588.46875 648 L 319 648 Z M 319 305 " clip-rule="nonzero"/></clipPath><clipPath id="d1d7debe0f"><path d="M 256.21875 480 L 309 480 L 309 595 L 256.21875 595 Z M 256.21875 480 " clip-rule="nonzero"/></clipPath><clipPath id="30c494b44c"><path d="M 191 117.3125 L 619.3125 117.3125 L 619.3125 501 L 191 501 Z M 191 117.3125 " clip-rule="nonzero"/></clipPath></defs><path fill="#ffffff" d="M 451.496094 217.371094 C 451.496094 217.371094 445.460938 199.785156 454.226562 188.96875 C 462.988281 178.152344 479.128906 172.875 482.292969 167.761719 C 485.472656 162.648438 490.59375 195.675781 483.878906 204.183594 C 477.15625 212.683594 473.582031 207.117188 466.355469 209.226562 C 459.136719 211.34375 451.496094 217.371094 451.496094 217.371094 " fill-opacity="1" fill-rule="nonzero"/><path fill="#ffffff" d="M 454.242188 224.796875 C 454.242188 224.796875 457.296875 217.179688 465.550781 214.070312 C 471.664062 211.769531 485.601562 215.746094 491.996094 203.203125 C 491.527344 218.054688 486.304688 233.25 479.800781 237.492188 C 468.25 245.035156 454.675781 246.140625 454.675781 246.140625 C 454.675781 246.140625 456.671875 240.136719 456.621094 234.484375 C 456.550781 228.835938 454.242188 224.796875 454.242188 224.796875 " fill-opacity="1" fill-rule="nonzero"/><path fill="#ffffff" d="M 444.625 255.484375 C 447.066406 251.414062 453.179688 242.761719 452.917969 233.226562 C 452.65625 223.683594 441.382812 218.242188 443.625 195.164062 C 435.160156 198.589844 423.433594 211.953125 425.152344 225.320312 C 427.9375 247.070312 443.933594 242.660156 444.625 255.484375 " fill-opacity="1" fill-rule="nonzero"/><path fill="#ffffff" d="M 436.460938 279.894531 C 438.273438 275.515625 442.070312 259.089844 453.179688 251.042969 C 465.351562 242.242188 469.589844 252.753906 486.785156 237.226562 C 489.074219 246.0625 485.320312 263.449219 473.554688 270.019531 C 454.414062 280.714844 447.183594 272.820312 436.460938 279.894531 " fill-opacity="1" fill-rule="nonzero"/><path fill="#ffffff" d="M 432.964844 277.988281 C 435.027344 274.265625 443.472656 259.46875 438.476562 250.753906 C 429.613281 235.265625 420.382812 241.894531 420.714844 215.929688 C 413.503906 221.527344 404.171875 237.289062 409.460938 249.691406 C 418.050781 269.867188 428.8125 265.832031 432.964844 277.988281 " fill-opacity="1" fill-rule="nonzero"/><path fill="#ffffff" d="M 424.398438 308.566406 C 426.214844 304.1875 429.914062 288.972656 442.007812 282.472656 C 455.496094 275.222656 463.445312 284.027344 480.652344 268.496094 C 482.933594 277.335938 473.605469 294.289062 461.832031 300.867188 C 442.703125 311.5625 435.121094 301.496094 424.398438 308.566406 " fill-opacity="1" fill-rule="nonzero"/><path fill="#ffffff" d="M 420.890625 306.660156 C 422.960938 302.9375 431.285156 286.925781 426.296875 278.199219 C 417.433594 262.722656 405.144531 266.710938 405.480469 240.742188 C 398.277344 246.332031 392.113281 265.964844 397.398438 278.367188 C 405.980469 298.535156 416.753906 294.503906 420.890625 306.660156 " fill-opacity="1" fill-rule="nonzero"/><path fill="#ffffff" d="M 412.699219 335.976562 C 414.511719 331.601562 416.996094 313.234375 430.300781 309.886719 C 445.414062 306.082031 455.019531 312.8125 472.214844 297.28125 C 474.5 306.117188 461.90625 321.699219 450.132812 328.28125 C 430.996094 338.96875 423.417969 328.90625 412.699219 335.976562 " fill-opacity="1" fill-rule="nonzero"/><path fill="#ffffff" d="M 409.199219 334.070312 C 411.261719 330.347656 419.578125 314.335938 414.585938 305.613281 C 405.722656 290.132812 393.445312 294.121094 393.78125 268.160156 C 386.566406 273.75 380.414062 293.375 385.695312 305.777344 C 394.289062 325.945312 405.039062 321.914062 409.199219 334.070312 " fill-opacity="1" fill-rule="nonzero"/><path fill="#ffffff" d="M 401.226562 363.097656 C 403.039062 358.722656 405.515625 340.355469 418.828125 337.003906 C 433.941406 333.203125 443.542969 339.933594 460.746094 324.398438 C 463.027344 333.238281 450.433594 348.820312 438.667969 355.394531 C 419.515625 366.09375 411.945312 356.023438 401.226562 363.097656 " fill-opacity="1" fill-rule="nonzero"/><path fill="#ffffff" d="M 397.71875 361.191406 C 399.789062 357.460938 408.105469 341.457031 403.113281 332.734375 C 394.253906 317.253906 381.972656 321.242188 382.308594 295.269531 C 375.097656 300.867188 368.9375 320.496094 374.222656 332.898438 C 382.8125 353.066406 393.570312 349.035156 397.71875 361.191406 " fill-opacity="1" fill-rule="nonzero"/><path fill="#ffffff" d="M 372.335938 335.417969 C 371.386719 341.226562 367.3125 355.980469 371.988281 362.066406 C 376.683594 368.148438 387.125 370.976562 387.308594 378.921875 C 387.5 386.871094 350.121094 533.25 350.121094 533.25 C 350.121094 533.25 363.011719 517.46875 365.757812 509.308594 C 368.507812 501.136719 383.390625 395.804688 401.820312 382.613281 C 420.25 369.417969 432.300781 372.316406 441.566406 366.988281 C 451.710938 361.148438 450.773438 349.449219 450.773438 349.449219 C 450.773438 349.449219 435.183594 367.414062 412.371094 361.972656 C 402.242188 359.558594 396.558594 372.441406 399.449219 372.925781 C 395.851562 370.503906 397.609375 367.992188 396.925781 364.050781 C 389.6875 348.761719 384.613281 360.335938 372.335938 335.417969 " fill-opacity="1" fill-rule="nonzero"/><path fill="#ffffff" d="M 308.53125 362.734375 C 308.53125 362.734375 300.546875 352.421875 303.910156 343.246094 C 307.277344 334.074219 316.808594 326.910156 317.753906 322.800781 C 318.703125 318.683594 329.59375 339.460938 327.050781 346.625 C 324.515625 353.796875 320.882812 350.910156 316.5625 353.953125 C 312.25 357 308.53125 362.734375 308.53125 362.734375 " fill-opacity="1" fill-rule="nonzero"/><path fill="#ffffff" d="M 312.046875 367.039062 C 312.046875 367.039062 312.34375 361.285156 317.128906 357.351562 C 320.660156 354.441406 330.824219 353.929688 332.242188 344.140625 C 335.28125 354.113281 335.253906 365.390625 331.898438 369.679688 C 325.9375 377.3125 317.175781 381.117188 317.175781 381.117188 C 317.175781 381.117188 317.132812 376.675781 315.808594 372.929688 C 314.492188 369.191406 312.046875 367.039062 312.046875 367.039062 " fill-opacity="1" fill-rule="nonzero"/><path fill="#ffffff" d="M 312.605469 389.597656 C 313.3125 386.34375 315.410156 379.207031 313.074219 372.929688 C 310.738281 366.65625 302.015625 365.601562 298.273438 349.765625 C 293.4375 353.960938 288.664062 365.492188 292.835938 373.980469 C 299.621094 387.792969 309.242188 381.238281 312.605469 389.597656 " fill-opacity="1" fill-rule="nonzero"/><path fill="#ffffff" d="M 312.722656 407.660156 C 312.933594 404.34375 311.730469 392.574219 317.289062 384.710938 C 323.375 376.109375 328.570312 382.132812 336.472656 367.917969 C 339.996094 373.265625 341.433594 385.664062 335.113281 392.695312 C 324.835938 404.144531 318.242188 400.539062 312.722656 407.660156 " fill-opacity="1" fill-rule="nonzero"/><path fill="#ffffff" d="M 309.960938 407.183594 C 310.492188 404.253906 312.75 392.507812 307.457031 387.847656 C 298.0625 379.574219 293.4375 386.070312 287.769531 368.746094 C 284.246094 374.097656 281.617188 386.679688 287.945312 393.726562 C 298.214844 405.171875 304.457031 400.058594 309.960938 407.183594 " fill-opacity="1" fill-rule="nonzero"/><path fill="#ffffff" d="M 311.199219 429.441406 C 311.421875 426.125 310.429688 415.179688 316.992188 408.117188 C 324.304688 400.253906 331.578125 404.296875 339.480469 390.082031 C 343.011719 395.425781 340.652344 408.804688 334.324219 415.835938 C 324.039062 427.285156 316.722656 422.316406 311.199219 429.441406 " fill-opacity="1" fill-rule="nonzero"/><path fill="#ffffff" d="M 308.449219 428.960938 C 308.980469 426.023438 310.875 413.5 305.582031 408.84375 C 296.183594 400.566406 288.929688 406 283.269531 388.679688 C 279.75 394.023438 280.105469 408.460938 286.429688 415.496094 C 296.703125 426.941406 302.941406 421.832031 308.449219 428.960938 " fill-opacity="1" fill-rule="nonzero"/><path fill="#ffffff" d="M 309.636719 450.300781 C 309.851562 446.980469 307.339844 434.21875 315.421875 428.980469 C 324.59375 423.027344 332.496094 425.320312 340.417969 411.105469 C 343.929688 416.460938 339.085938 429.664062 332.761719 436.699219 C 322.472656 448.140625 315.164062 443.171875 309.636719 450.300781 " fill-opacity="1" fill-rule="nonzero"/><path fill="#ffffff" d="M 306.890625 449.820312 C 307.414062 446.886719 309.316406 434.371094 304.023438 429.703125 C 294.621094 421.429688 287.371094 426.859375 281.707031 409.535156 C 278.1875 414.886719 278.542969 429.316406 284.867188 436.351562 C 295.136719 447.808594 301.371094 442.691406 306.890625 449.820312 " fill-opacity="1" fill-rule="nonzero"/><path fill="#ffffff" d="M 308.164062 470.910156 C 308.386719 467.589844 305.863281 454.832031 313.945312 449.589844 C 323.121094 443.640625 331.015625 445.933594 338.933594 431.722656 C 342.453125 437.070312 337.617188 450.277344 331.289062 457.308594 C 321 468.75 313.6875 463.785156 308.164062 470.910156 " fill-opacity="1" fill-rule="nonzero"/><path fill="#ffffff" d="M 305.414062 470.4375 C 305.9375 467.496094 307.839844 454.976562 302.546875 450.316406 C 293.15625 442.042969 285.894531 447.472656 280.234375 430.152344 C 276.71875 435.5 277.074219 449.925781 283.390625 456.960938 C 293.667969 468.417969 299.898438 463.304688 305.414062 470.4375 " fill-opacity="1" fill-rule="nonzero"/><path fill="#ffffff" d="M 282.714844 459.066406 C 283.394531 463.144531 284.027344 473.859375 288.515625 476.847656 C 293.011719 479.824219 300.585938 479.34375 302.507812 484.570312 C 304.4375 489.808594 312.789062 595.503906 312.789062 595.503906 C 312.789062 595.503906 317.773438 582.101562 317.742188 576.058594 C 317.726562 570.011719 303.738281 496.675781 312.992188 483.738281 C 322.238281 470.796875 330.90625 469.988281 335.84375 464.355469 C 341.261719 458.175781 337.980469 450.621094 337.980469 450.621094 C 337.980469 450.621094 331.703125 466.078125 315.316406 467.636719 C 308.039062 468.332031 307.1875 478.171875 309.214844 477.84375 C 306.28125 477.050781 306.875 474.984375 305.535156 472.515625 C 297.253906 464 296.507812 472.835938 282.714844 459.066406 " fill-opacity="1" fill-rule="nonzero"/><g clip-path="url(#6e160c9753)"><path fill="#ffffff" d="M 319.097656 647.214844 C 319.097656 647.214844 321.773438 636.71875 323.367188 621.539062 C 324.957031 606.355469 353.449219 540.734375 353.449219 540.734375 C 353.449219 540.734375 392.96875 459.136719 444.410156 405.722656 C 511.152344 336.425781 588.503906 305.164062 588.503906 305.164062 C 588.503906 305.164062 513.609375 338.667969 443.238281 426.757812 C 419.007812 457.09375 372.078125 549.503906 372.078125 549.503906 C 372.078125 549.503906 369.5625 553.621094 365.464844 553.378906 C 357.609375 552.902344 345.300781 566.949219 337.519531 589.867188 C 333.296875 602.261719 333.4375 628.3125 327.347656 642.421875 C 325.410156 646.882812 319.097656 647.214844 319.097656 647.214844 " fill-opacity="1" fill-rule="nonzero"/></g><path fill="#ffffff" d="M 337.523438 569.515625 L 348.628906 545.714844 C 348.628906 545.714844 344.066406 535.128906 348.828125 501.46875 C 353.589844 467.8125 361.214844 458.515625 361.261719 426.652344 C 361.308594 394.785156 352.714844 361.316406 352.714844 361.316406 C 352.714844 361.316406 351.941406 403.214844 350.539062 427.621094 C 349.144531 452.03125 338.195312 480.625 337.382812 501.546875 C 336.550781 522.472656 337.523438 569.515625 337.523438 569.515625 " fill-opacity="1" fill-rule="nonzero"/><g clip-path="url(#d1d7debe0f)"><path fill="#ffffff" d="M 308.617188 594.808594 C 308.617188 594.808594 308.40625 571.097656 303.40625 548.375 C 298.425781 525.648438 256.234375 480.15625 256.234375 480.15625 C 256.234375 480.15625 288.34375 530.238281 292.207031 550.96875 C 296.070312 571.699219 308.617188 594.808594 308.617188 594.808594 " fill-opacity="1" fill-rule="nonzero"/></g><path fill="#00bc46" d="M 234.238281 565.417969 C 234.238281 549.230469 256.894531 546.566406 281.675781 560.734375 L 290.160156 538.292969 C 281.070312 532.96875 273.972656 529.699219 261.367188 528.601562 L 261.367188 506.871094 C 254.160156 509.460938 247.09375 511.875 239.28125 514.398438 L 239.28125 529.984375 C 220 534.492188 207.042969 548.875 207.042969 568.011719 C 207.042969 590.238281 224.296875 600.890625 245.070312 609.054688 C 288.953125 626.84375 259.023438 666.363281 212.402344 635.261719 L 204.238281 658.054688 C 212.902344 664.234375 222.734375 668.8125 237.789062 670.019531 L 237.789062 691.785156 L 260.089844 691.785156 L 260.089844 668.777344 C 295.558594 660.46875 302.128906 622.691406 284.410156 602.628906 C 266.835938 582.640625 234.238281 583.597656 234.238281 565.417969 " fill-opacity="1" fill-rule="nonzero"/><path fill="#00bc46" d="M 337.277344 474.667969 L 337.277344 692 L 386.242188 692 C 386.242188 661.390625 386.242188 477.683594 386.242188 447.007812 C 370.441406 456.878906 354.320312 465.96875 337.277344 474.667969 " fill-opacity="1" fill-rule="nonzero"/><g clip-path="url(#30c494b44c)"><path fill="#00bc46" d="M 596.507812 117.085938 C 580.03125 126.742188 540.726562 149.785156 529.1875 156.566406 L 548.289062 163.917969 C 555.570312 159.585938 551.699219 161.894531 567.890625 152.273438 C 510.796875 330.726562 336.851562 442.320312 191.3125 474.667969 C 194.6875 490.464844 193.445312 484.609375 196.78125 500.371094 C 240.417969 491.140625 512.144531 413.914062 593.242188 159.300781 C 599.488281 179.433594 597.714844 173.648438 600.910156 183.871094 L 619.585938 191.117188 C 599.027344 125.179688 605.171875 144.851562 596.507812 117.085938 " fill-opacity="1" fill-rule="nonzero"/></g><path fill="#00bc46" d="M 429.769531 692 L 478.734375 692 C 478.734375 652.691406 478.734375 415.371094 478.734375 375.605469 C 463.5 390.160156 447.167969 404.046875 429.769531 417.148438 C 429.769531 535.453125 429.769531 574.507812 429.769531 692 " fill-opacity="1" fill-rule="nonzero"/><path fill="#00bc46" d="M 522.265625 692 L 571.226562 692 C 571.226562 589.386719 571.226562 351.175781 571.226562 254.03125 C 557.414062 280.128906 541.082031 304.914062 522.265625 328.3125 C 522.265625 372.300781 522.265625 648.078125 522.265625 692 " fill-opacity="1" fill-rule="nonzero"/></svg>