<svg xmlns="http://www.w3.org/2000/svg" xmlns:xlink="http://www.w3.org/1999/xlink" width="1080" zoomAndPan="magnify" viewBox="0 0 810 809.999993" height="1080" preserveAspectRatio="xMidYMid meet" version="1.0"><path fill="#00bc46" d="M 312.105469 421.925781 C 312.09375 420.292969 311.0625 417.980469 307.722656 417.800781 C 304.511719 417.621094 303.40625 419.789062 303.136719 422.605469 C 303.019531 423.929688 302.902344 425.253906 302.738281 426.5625 C 301.476562 436.457031 298.199219 445.570312 290.128906 451.839844 C 285.492188 455.425781 279.992188 457.929688 274.75 460.667969 C 271.253906 462.492188 269.890625 466.144531 272.691406 468.097656 C 274.117188 469.085938 276.742188 469.304688 278.460938 468.75 C 298.484375 462.339844 311.449219 444.65625 312.105469 421.925781 Z M 262.15625 280.296875 C 263.15625 282.507812 263.851562 284.011719 264.519531 285.542969 C 276.507812 312.875 289.207031 339.808594 305.0625 365.214844 C 316.164062 383.011719 323.003906 402.585938 322.539062 423.902344 C 322.027344 448.230469 310.550781 466.359375 288.949219 477.167969 C 267.335938 487.976562 245.9375 485.828125 226.753906 471.21875 C 205.484375 455.027344 199.085938 432.925781 204.355469 407.121094 C 207.785156 390.3125 214.09375 374.648438 223.230469 360.125 C 238.40625 336.003906 249.433594 309.855469 260.523438 283.742188 C 260.910156 282.816406 261.371094 281.945312 262.15625 280.296875 " fill-opacity="1" fill-rule="nonzero"/><path fill="#00bc46" d="M 465.796875 231.75 C 465.785156 230.492188 465 228.703125 462.429688 228.574219 C 459.964844 228.433594 459.101562 230.105469 458.910156 232.277344 C 458.804688 233.292969 458.714844 234.308594 458.589844 235.308594 C 457.625 242.917969 455.117188 249.921875 448.898438 254.726562 C 445.339844 257.488281 441.109375 259.417969 437.089844 261.523438 C 434.402344 262.925781 433.363281 265.726562 435.507812 267.230469 C 436.601562 267.988281 438.617188 268.15625 439.941406 267.730469 C 455.324219 262.808594 465.296875 249.214844 465.796875 231.75 Z M 427.414062 122.90625 C 428.171875 124.601562 428.710938 125.757812 429.222656 126.941406 C 438.4375 147.9375 448.191406 168.640625 460.386719 188.171875 C 468.917969 201.847656 474.164062 216.882812 473.816406 233.265625 C 473.417969 251.964844 464.601562 265.894531 448 274.195312 C 431.382812 282.507812 414.949219 280.851562 400.207031 269.632812 C 383.863281 257.179688 378.941406 240.207031 382.988281 220.375 C 385.621094 207.449219 390.480469 195.410156 397.496094 184.253906 C 409.164062 165.722656 417.632812 145.625 426.152344 125.554688 C 426.449219 124.847656 426.808594 124.179688 427.414062 122.90625 " fill-opacity="1" fill-rule="nonzero"/><path fill="#00bc46" d="M 595.367188 288.601562 C 558.078125 257.667969 521.066406 226.957031 483.789062 196.023438 C 490.070312 188.445312 496.136719 181.117188 502.433594 173.523438 C 539.726562 204.46875 576.75 235.179688 614.027344 266.113281 C 607.742188 273.679688 601.679688 280.992188 595.367188 288.601562 Z M 642.59375 252.59375 C 598.695312 216.148438 554.773438 179.707031 510.863281 143.285156 C 503.101562 136.847656 494.96875 137.621094 488.566406 145.328125 C 483.132812 151.871094 477.710938 158.398438 472.339844 164.976562 C 469.769531 168.140625 465.554688 171.328125 465.359375 174.679688 C 465.15625 178.097656 468.867188 181.839844 471.066406 185.308594 C 480.445312 200.148438 486.511719 216.070312 487.207031 233.820312 C 487.257812 235.140625 488.144531 236.800781 489.183594 237.671875 C 508.023438 253.414062 526.941406 269.054688 545.84375 284.730469 C 548.773438 287.160156 551.675781 289.628906 554.761719 292.238281 C 529.972656 322.101562 505.429688 351.683594 480.679688 381.507812 C 458.203125 362.851562 436.007812 344.421875 413.675781 325.878906 C 423.957031 313.453125 433.863281 301.476562 444.234375 288.933594 C 442.113281 288.84375 440.957031 288.765625 439.789062 288.742188 C 430.742188 288.574219 421.796875 287.878906 413.1875 284.71875 C 412.222656 284.371094 410.21875 285.273438 409.433594 286.210938 C 384.425781 316.191406 359.484375 346.234375 334.644531 376.355469 L 334.644531 376.34375 L 331.5625 380.097656 C 331.253906 380.457031 330.945312 380.816406 330.648438 381.1875 C 330.636719 381.1875 330.636719 381.199219 330.636719 381.214844 L 328.695312 383.566406 L 336.238281 417.785156 C 336.289062 418.183594 336.328125 418.597656 336.378906 419.019531 C 356.386719 394.914062 375.753906 371.574219 395.363281 347.957031 C 417.851562 366.617188 440.058594 385.03125 462.40625 403.574219 C 452.84375 415.125 443.589844 426.34375 434.300781 437.539062 C 403.613281 474.496094 372.925781 511.441406 342.238281 548.398438 C 317.398438 578.316406 292.648438 608.292969 267.695312 638.109375 C 255.808594 652.296875 236.570312 657.011719 219.246094 650.507812 C 202.324219 644.160156 191.09375 627.699219 191.195312 609.4375 C 191.257812 598.167969 195.550781 588.644531 202.707031 580.089844 C 225.492188 552.78125 248.148438 525.371094 271.316406 497.445312 C 270.070312 497.253906 269.453125 497.152344 268.835938 497.074219 C 263.734375 496.429688 258.648438 495.761719 253.546875 495.121094 L 237.917969 493.078125 L 236.324219 494.964844 C 236.210938 495.070312 236.105469 495.171875 236.003906 495.289062 C 216.675781 518.394531 197.246094 541.40625 178.304688 564.835938 C 164.414062 582.003906 159.480469 601.960938 163.992188 623.574219 C 170.054688 652.730469 187.957031 672.058594 216.640625 679.460938 C 245.628906 686.964844 271.0625 678.753906 290.347656 655.636719 C 356.746094 576.089844 422.785156 496.226562 488.953125 416.476562 C 517.597656 381.960938 546.214844 347.429688 574.820312 312.886719 C 575.476562 312.089844 575.757812 310.984375 576.222656 309.96875 C 580.820312 313.773438 584.238281 316.703125 587.761719 319.519531 C 594.636719 324.992188 602.925781 324.261719 608.605469 317.488281 C 620.710938 303.042969 632.738281 288.546875 644.714844 273.988281 C 650.625 266.804688 649.738281 258.53125 642.59375 252.59375 " fill-opacity="1" fill-rule="nonzero"/></svg>