<svg xmlns="http://www.w3.org/2000/svg" xmlns:xlink="http://www.w3.org/1999/xlink" width="1080" zoomAndPan="magnify" viewBox="0 0 810 809.999993" height="1080" preserveAspectRatio="xMidYMid meet" version="1.0"><defs><clipPath id="f2c959d02f"><path d="M 76 171 L 740 171 L 740 639.375 L 76 639.375 Z M 76 171 " clip-rule="nonzero"/></clipPath></defs><g clip-path="url(#f2c959d02f)"><path fill="#00bc46" d="M 735.773438 327.808594 C 744.867188 317.929688 736.03125 302.207031 727.585938 294.023438 C 706.925781 271.929688 679.636719 274.917969 650.789062 273.230469 C 610.503906 272.710938 564.632812 265.5625 528.117188 276.867188 C 504.339844 283.367188 475.621094 305.457031 452.621094 308.445312 C 441.964844 310.003906 425.59375 310.65625 419.484375 317.28125 C 415.195312 326.378906 428.582031 328.71875 439.105469 331.835938 C 423.902344 342.492188 411.6875 354.1875 397.785156 368.480469 C 400.640625 353.535156 404.019531 326.117188 406.75 305.714844 C 418.183594 292.980469 449.113281 262.445312 464.1875 246.851562 C 476.660156 233.988281 507.976562 229.957031 530.71875 226.191406 C 553.976562 222.421875 573.46875 226.320312 573.601562 226.449219 C 577.628906 227.488281 580.878906 222.421875 578.40625 219.171875 C 577.757812 218.394531 563.722656 199.292969 534.875 189.804688 C 517.722656 184.21875 474.710938 173.300781 445.992188 193.183594 C 424.683594 208.648438 426.242188 236.714844 423.121094 255.6875 C 421.304688 258.804688 416.625 264.265625 411.6875 270.113281 C 413.636719 259.976562 413.898438 254.648438 416.886719 246.722656 C 418.445312 242.824219 420.132812 238.40625 420.785156 230.347656 C 421.953125 216.3125 410.519531 191.105469 409.21875 188.246094 C 407.789062 184.867188 402.589844 184.605469 400.902344 187.855469 C 400.382812 188.765625 388.167969 209.035156 387.128906 228.527344 C 385.957031 243.734375 389.855469 271.671875 389.988281 286.746094 C 386.996094 280.117188 382.320312 269.980469 381.28125 265.824219 C 383.488281 246.722656 392.976562 220.210938 376.863281 199.292969 C 354.902344 172.132812 310.460938 170.703125 292.527344 171.222656 C 262.121094 172.261719 243.277344 186.554688 242.5 187.207031 C 239.121094 189.675781 240.9375 195.394531 244.96875 195.523438 C 245.226562 195.523438 264.847656 197.210938 286.160156 207.347656 C 306.953125 217.222656 335.929688 229.957031 344.246094 245.8125 C 352.691406 261.796875 373.222656 301.6875 380.628906 317.28125 C 376.210938 335.992188 375.824219 354.964844 372.574219 373.9375 C 369.714844 377.058594 369.714844 382.644531 368.546875 385.894531 C 361.789062 367.050781 355.421875 351.328125 345.804688 335.085938 C 351.652344 335.992188 356.980469 336.773438 361.398438 337.164062 C 362.566406 337.292969 365.816406 337.554688 368.027344 335.605469 C 373.355469 329.625 368.675781 323.910156 343.464844 308.707031 C 333.589844 302.859375 324.105469 291.03125 314.097656 278.429688 C 282.132812 233.207031 246.527344 222.679688 189.351562 199.550781 L 177.65625 194.742188 C 139.0625 178.757812 126.066406 173.433594 104.105469 180.058594 C 79.285156 187.597656 65.121094 206.699219 89.941406 223.460938 C 115.929688 238.925781 213.261719 289.34375 247.304688 301.6875 C 265.367188 309.226562 281.871094 310.785156 297.464844 321.570312 C 315.398438 335.605469 349.183594 398.109375 356.460938 425.265625 C 347.625 446.1875 347.753906 458.53125 347.753906 475.6875 C 315.398438 475.425781 279.402344 497.90625 254.582031 521.167969 C 228.335938 546.507812 227.292969 592.765625 238.082031 614.726562 C 246.917969 630.972656 263.9375 638.765625 289.277344 639.289062 C 325.402344 639.289062 365.558594 620.054688 390.894531 596.40625 C 405.710938 582.5 415.457031 568.726562 418.183594 550.664062 C 422.082031 530.132812 407.269531 502.453125 396.09375 497.386719 C 390.636719 494.917969 383.621094 494.527344 378.160156 494.789062 C 379.460938 464.511719 376.34375 425.398438 398.433594 402.527344 C 416.234375 385.242188 470.292969 342.492188 489.265625 339.371094 C 510.707031 336.382812 526.300781 341.582031 548.519531 342.621094 C 584.253906 343.660156 626.878906 341.453125 671.1875 339.503906 C 684.832031 338.722656 696.917969 338.074219 710.171875 336.902344 C 719.398438 336.125 731.355469 333.914062 735.773438 327.808594 Z M 496.28125 301.429688 C 543.324219 271.929688 595.171875 281.15625 650.527344 282.714844 C 690.8125 284.144531 702.894531 284.664062 717.710938 297.53125 C 725.636719 304.546875 736.292969 316.890625 725.765625 324.167969 C 723.816406 325.339844 721.089844 326.117188 717.449219 326.507812 C 707.574219 328.066406 668.460938 330.277344 644.421875 331.316406 C 606.996094 332.484375 563.203125 335.605469 529.679688 331.445312 C 517.074219 329.757812 504.988281 328.066406 492.125 329.625 C 471.203125 329.238281 454.960938 326.769531 435.207031 320.789062 C 441.316406 319.492188 447.292969 318.710938 453.660156 318.0625 C 466.785156 316.503906 481.078125 309.09375 496.28125 301.429688 Z M 95.011719 215.40625 C 78.507812 205.660156 88.640625 194.484375 106.835938 189.027344 C 125.546875 181.230469 152.445312 194.351562 185.84375 208.128906 C 220.925781 222.421875 262.640625 237.363281 281.613281 255.6875 C 301.234375 272.839844 317.738281 304.027344 338.917969 316.761719 C 344.636719 320.140625 349.183594 323 352.691406 325.46875 C 328.390625 321.441406 304.351562 314.292969 282.523438 302.988281 C 269.398438 297.53125 255.101562 295.191406 241.847656 289.601562 C 213 277.519531 115.671875 228.398438 95.011719 215.40625 Z M 241.199219 587.308594 C 239.378906 554.042969 252.503906 530.652344 279.664062 512.332031 C 287.589844 514.410156 294.476562 515.578125 298.894531 516.230469 C 298.765625 522.078125 295.644531 536.761719 295.386719 537.148438 C 294.867188 539.230469 295.90625 541.4375 297.726562 542.347656 C 298.503906 542.738281 316.566406 552.09375 334.238281 551.3125 C 342.167969 550.925781 348.015625 549.625 352.171875 548.195312 C 350.875 550.925781 347.753906 555.082031 344.636719 558.460938 C 342.035156 561.058594 343.726562 565.867188 347.363281 566.257812 C 348.015625 566.386719 363.996094 568.855469 378.679688 564.570312 C 386.867188 562.230469 397.394531 563.007812 404.019531 563.917969 C 385.957031 599.785156 340.605469 622.65625 300.714844 629.023438 C 267.835938 633.050781 241.457031 621.355469 241.199219 587.308594 Z M 392.195312 505.703125 C 407.398438 519.476562 412.207031 537.019531 407.269531 554.953125 C 400.382812 553.914062 386.738281 552.355469 375.953125 555.601562 C 369.585938 557.550781 362.566406 557.8125 357.371094 557.679688 C 360.230469 553.652344 362.566406 549.105469 362.308594 545.335938 L 361.789062 540.140625 C 361.527344 536.5 356.851562 534.550781 354.121094 536.890625 C 354.121094 536.890625 348.273438 541.4375 333.851562 541.957031 C 322.804688 542.476562 310.851562 537.929688 305.261719 535.589844 C 306.691406 530.394531 308.121094 518.308594 308.511719 513.628906 C 309.289062 510.902344 307.472656 507.914062 304.484375 507.652344 C 304.351562 507.652344 298.375 506.871094 290.058594 505.183594 C 308.378906 493.617188 327.742188 485.5625 347.753906 484.652344 C 347.625 489.328125 347.496094 494.527344 347.234375 499.59375 C 347.234375 499.726562 347.234375 499.855469 347.234375 499.984375 C 347.234375 499.984375 347.234375 500.117188 347.234375 500.117188 C 347.105469 500.375 347.234375 502.324219 347.105469 502.585938 C 346.976562 505.441406 349.832031 507.914062 352.691406 507.390625 C 359.578125 506.09375 366.464844 505.183594 373.484375 504.664062 C 378.160156 503.625 386.089844 503.234375 392.195312 505.703125 Z M 391.9375 395.507812 C 366.726562 421.367188 370.105469 463.082031 368.675781 495.4375 C 364.777344 495.828125 360.75 496.347656 356.71875 496.996094 C 358.410156 471.398438 353.210938 455.285156 365.558594 427.605469 C 365.945312 426.824219 366.078125 425.917969 365.945312 425.007812 C 365.296875 420.847656 364.257812 416.691406 362.828125 412.921875 C 356.71875 397.199219 334.109375 350.417969 315.136719 326.117188 C 321.117188 327.808594 327.222656 329.496094 333.070312 330.925781 C 341.257812 346.128906 349.3125 359.125 355.03125 375.886719 C 356.589844 380.957031 360.097656 389.53125 361.527344 392.910156 C 367.117188 406.554688 367.246094 407.074219 371.144531 406.554688 C 376.082031 405.644531 375.824219 399.40625 377.253906 395.640625 C 382.058594 381.085938 383.75 365.882812 385.4375 351.199219 C 386.738281 339.503906 387.90625 328.585938 390.636719 317.929688 C 390.894531 316.890625 390.765625 315.851562 390.375 314.8125 C 383.621094 300.390625 361.917969 258.027344 353.082031 241.394531 C 343.855469 223.980469 318.125 211.765625 295.515625 201.109375 C 283.820312 195.132812 268.746094 190.066406 259.78125 188.375 C 290.449219 172.261719 354.769531 182.398438 370.105469 205.269531 C 381.152344 218.914062 376.730469 241.261719 374.132812 254.519531 C 372.703125 261.664062 372.054688 265.304688 372.832031 268.03125 C 375.171875 276.738281 383.097656 291.941406 386.996094 302.078125 C 388.425781 305.976562 394.40625 305.976562 395.703125 301.949219 C 398.691406 293.761719 398.953125 292.203125 399.863281 288.042969 C 400.511719 276.867188 395.835938 241.785156 397.003906 228.789062 C 397.523438 218.78125 401.550781 208.257812 404.929688 201.109375 C 410.90625 215.792969 414.675781 230.738281 408.570312 243.082031 C 403.890625 256.855469 403.761719 263.875 400.382812 285.054688 C 399.601562 289.601562 405.96875 292.332031 408.699219 288.5625 C 415.195312 280.117188 427.28125 267.253906 431.570312 260.105469 C 433 257.636719 433.386719 254 434.039062 246.722656 C 435.207031 233.207031 437.285156 210.464844 451.710938 200.460938 C 473.28125 182.789062 537.085938 191.105469 562.292969 215.144531 C 553.199219 214.234375 537.214844 214.882812 524.351562 217.355469 C 499.53125 221.253906 471.460938 225.800781 457.820312 239.964844 C 442.484375 255.6875 409.867188 287.914062 399.082031 300.257812 C 398.433594 300.910156 398.042969 301.816406 397.914062 302.726562 C 394.925781 324.949219 389.988281 368.480469 385.570312 380.304688 C 384.660156 382.382812 385.570312 384.855469 387.386719 386.023438 C 390.636719 388.101562 391.15625 387.710938 401.8125 377.578125 C 404.539062 374.976562 411.167969 368.609375 414.675781 364.84375 C 426.371094 352.496094 438.457031 344.050781 451.449219 334.304688 C 456.777344 335.34375 462.757812 336.382812 469.511719 337.164062 C 441.964844 352.105469 403.761719 384.074219 391.9375 395.507812 Z M 391.9375 395.507812 " fill-opacity="1" fill-rule="nonzero"/></g></svg>