<svg xmlns="http://www.w3.org/2000/svg" xmlns:xlink="http://www.w3.org/1999/xlink" width="1080" zoomAndPan="magnify" viewBox="0 0 810 809.999993" height="1080" preserveAspectRatio="xMidYMid meet" version="1.0"><defs><clipPath id="0a1b5c1367"><path d="M 166 115.9375 L 644 115.9375 L 644 656 L 166 656 Z M 166 115.9375 " clip-rule="nonzero"/></clipPath><clipPath id="3bd84967e2"><path d="M 449 659 L 484 659 L 484 694.1875 L 449 694.1875 Z M 449 659 " clip-rule="nonzero"/></clipPath></defs><g clip-path="url(#0a1b5c1367)"><path fill="#00bc46" d="M 638.242188 147.628906 C 637.800781 147.230469 637.289062 146.914062 636.722656 146.710938 L 594.839844 131.441406 C 594.8125 131.433594 594.777344 131.421875 594.746094 131.410156 L 553.082031 116.222656 C 552.515625 116.015625 551.914062 115.917969 551.328125 115.949219 C 544.960938 116.199219 539.441406 120.1875 537.265625 126.105469 C 535.085938 132.035156 536.71875 138.640625 541.429688 142.9375 C 541.871094 143.339844 542.390625 143.652344 542.953125 143.859375 L 554.742188 148.15625 L 547.011719 169.195312 C 546.445312 170.722656 546.734375 172.429688 547.765625 173.6875 L 558.71875 187.039062 L 486.660156 383.132812 L 478.070312 380.003906 C 475.699219 379.132812 473.066406 380.355469 472.195312 382.734375 L 462.761719 408.410156 L 452.542969 436.199219 L 395.621094 415.453125 C 393.304688 414.613281 390.734375 415.746094 389.800781 418.03125 C 376.226562 451.296875 370.5625 487.75 373.429688 523.453125 C 374.277344 533.980469 375.90625 544.503906 378.199219 554.828125 C 372.121094 556.808594 366.5 560.65625 362.328125 566.0625 C 345.589844 546.632812 319.074219 538.511719 294.292969 545.78125 C 271.433594 552.492188 253.957031 571.773438 248.984375 594.976562 C 240.359375 590.53125 230.292969 589.972656 221.761719 593.773438 C 210.636719 598.742188 203.753906 610.164062 203.515625 622.535156 C 197.132812 620.027344 189.988281 619.867188 183.59375 622.355469 C 172.292969 626.742188 165.179688 638.492188 166.289062 650.929688 C 166.5 653.296875 168.488281 655.109375 170.859375 655.109375 L 540.238281 655.109375 C 542.285156 655.109375 544.078125 653.757812 544.648438 651.792969 C 545.105469 650.199219 548.851562 635.886719 539.007812 623.746094 C 531.308594 614.246094 520.535156 612.558594 514.808594 612.394531 C 512.542969 606.082031 506.9375 595.097656 494.246094 589.046875 C 493.835938 588.855469 493.410156 588.726562 492.996094 588.546875 C 498.894531 583.699219 504.648438 578.652344 510.011719 573.265625 C 535.34375 547.835938 554.644531 516.355469 565.832031 482.230469 C 566.601562 479.875 565.367188 477.339844 563.042969 476.488281 L 506.140625 455.746094 L 516.347656 427.972656 L 525.78125 402.296875 C 526.203125 401.15625 526.152344 399.886719 525.636719 398.78125 C 525.125 397.675781 524.191406 396.820312 523.046875 396.402344 L 514.480469 393.28125 L 586.539062 197.195312 L 603.574219 194.039062 C 605.167969 193.746094 606.484375 192.632812 607.042969 191.113281 L 614.789062 170.054688 L 626.597656 174.355469 C 627.15625 174.558594 627.753906 174.632812 628.351562 174.632812 C 634.71875 174.378906 640.238281 170.394531 642.414062 164.472656 C 644.59375 158.53125 642.957031 151.925781 638.242188 147.628906 Z M 507.003906 618.1875 C 507.574219 620.4375 509.707031 621.9375 512.023438 621.621094 C 512.144531 621.613281 524.34375 620.214844 531.878906 629.511719 C 536.589844 635.324219 536.820312 642.015625 536.414062 645.925781 L 175.503906 645.925781 C 176.351562 639.195312 180.664062 633.324219 186.910156 630.902344 C 193.292969 628.421875 200.839844 629.949219 206.144531 634.792969 C 207.65625 636.175781 209.90625 636.386719 211.644531 635.308594 C 213.386719 634.230469 214.210938 632.128906 213.648438 630.15625 C 210.402344 618.652344 215.496094 606.613281 225.496094 602.148438 C 233.058594 598.769531 242.464844 600.382812 249.457031 606.25 C 250.765625 607.351562 252.570312 607.632812 254.140625 606.984375 C 255.71875 606.335938 256.808594 604.875 256.972656 603.175781 C 259.171875 580.472656 275.207031 560.941406 296.871094 554.582031 C 320.039062 547.785156 344.992188 556.667969 358.980469 576.691406 C 359.910156 578.03125 361.445312 578.78125 363.109375 578.636719 C 364.730469 578.507812 366.167969 577.527344 366.875 576.058594 C 372.628906 564.121094 385.800781 560.160156 394.492188 563.941406 C 401.460938 566.972656 406.136719 574.878906 406.128906 583.621094 C 406.128906 585.433594 407.191406 587.074219 408.847656 587.820312 C 410.503906 588.554688 412.4375 588.246094 413.789062 587.035156 C 420.496094 580.992188 429.835938 579.414062 437.566406 583.011719 C 447.082031 587.4375 449.171875 597.628906 449.382812 598.777344 C 449.664062 600.355469 450.757812 601.671875 452.253906 602.246094 C 453.746094 602.8125 455.4375 602.566406 456.714844 601.578125 C 466.527344 593.949219 479.714844 592.277344 490.300781 597.324219 C 502.679688 603.222656 506.386719 615.742188 507.003906 618.1875 Z M 496.085938 460.402344 C 496.597656 461.507812 497.53125 462.367188 498.675781 462.785156 L 555.683594 483.566406 C 544.761719 514.714844 526.785156 543.410156 503.503906 566.78125 C 496.808594 573.503906 489.582031 579.808594 482.0625 585.621094 C 473.378906 584.597656 464.335938 586.332031 456.417969 590.777344 C 454.238281 585.609375 449.871094 578.613281 441.425781 574.6875 C 434.027344 571.242188 425.667969 571.09375 418.117188 573.890625 C 412.648438 559.367188 409.140625 544.273438 407.90625 528.878906 C 405.96875 504.675781 409.476562 479.992188 418.066406 457.199219 L 487.871094 482.648438 C 490.25 483.515625 492.882812 482.289062 493.753906 479.90625 C 494.621094 477.527344 493.394531 474.894531 491.015625 474.027344 L 417.007812 447.046875 C 414.695312 446.199219 412.121094 447.339844 411.1875 449.625 C 400.886719 474.863281 396.59375 502.523438 398.769531 529.617188 C 399.558594 539.496094 401.273438 549.25 403.734375 558.839844 C 402.027344 557.523438 400.160156 556.40625 398.15625 555.535156 C 394.660156 554.011719 390.972656 553.378906 387.277344 553.386719 C 385.011719 543.304688 383.40625 533.015625 382.574219 522.726562 C 379.945312 489.90625 384.816406 456.429688 396.671875 425.605469 L 453.699219 446.394531 C 456.058594 447.257812 458.699219 446.042969 459.578125 443.664062 L 469.789062 415.871094 L 488.046875 422.527344 C 488.074219 422.535156 488.105469 422.550781 488.136719 422.558594 L 506.148438 429.125 L 495.9375 456.898438 C 495.519531 458.035156 495.570312 459.296875 496.085938 460.402344 Z M 509.3125 420.503906 L 491.054688 413.851562 C 491.027344 413.839844 490.996094 413.828125 490.964844 413.816406 L 472.957031 407.253906 L 479.222656 390.195312 L 497.253906 396.769531 C 497.289062 396.777344 497.320312 396.792969 497.351562 396.800781 L 515.582031 403.445312 Z M 633.796875 161.292969 C 633 163.46875 631.070312 165.011719 628.773438 165.375 L 613.628906 159.851562 C 611.253906 158.976562 608.621094 160.207031 607.75 162.578125 L 599.332031 185.484375 L 582.296875 188.640625 C 580.707031 188.933594 579.386719 190.046875 578.828125 191.570312 L 505.863281 390.132812 L 500.71875 388.261719 C 500.6875 388.246094 500.65625 388.238281 500.621094 388.226562 L 495.277344 386.273438 L 568.234375 187.742188 C 568.800781 186.214844 568.511719 184.507812 567.476562 183.25 L 556.527344 169.898438 L 564.9375 147 C 565.359375 145.859375 565.308594 144.59375 564.792969 143.488281 C 564.28125 142.382812 563.347656 141.523438 562.203125 141.105469 L 547.058594 135.585938 C 545.550781 133.839844 545.082031 131.4375 545.875 129.269531 C 546.675781 127.09375 548.601562 125.550781 550.902344 125.1875 L 591.824219 140.105469 C 591.851562 140.113281 591.886719 140.128906 591.921875 140.136719 L 632.613281 154.972656 C 634.128906 156.730469 634.59375 159.128906 633.796875 161.292969 Z M 633.796875 161.292969 " fill-opacity="1" fill-rule="nonzero"/></g><path fill="#00bc46" d="M 598.292969 161.8125 L 585.628906 157.195312 C 585.597656 157.183594 585.566406 157.175781 585.53125 157.160156 L 572.644531 152.460938 C 570.269531 151.582031 567.640625 152.816406 566.765625 155.191406 L 563.230469 164.816406 C 562.628906 166.453125 563.003906 168.285156 564.203125 169.554688 L 574.117188 180.023438 C 574.683594 180.859375 575.503906 181.492188 576.457031 181.816406 C 576.972656 182.011719 577.515625 182.105469 578.0625 182.105469 C 578.484375 182.105469 578.914062 182.046875 579.320312 181.933594 L 593.695312 180.308594 C 595.421875 180.113281 596.890625 178.964844 597.484375 177.332031 L 601.023438 167.703125 C 601.445312 166.5625 601.394531 165.296875 600.882812 164.1875 C 600.371094 163.082031 599.441406 162.230469 598.292969 161.8125 Z M 589.855469 171.507812 L 579.773438 172.644531 L 572.828125 165.3125 L 573.804688 162.652344 L 582.171875 165.699219 C 582.203125 165.710938 582.234375 165.722656 582.265625 165.734375 L 590.832031 168.859375 Z M 589.855469 171.507812 " fill-opacity="1" fill-rule="nonzero"/><path fill="#00bc46" d="M 305.179688 583.8125 C 294.714844 583.8125 286.199219 592.300781 286.199219 602.734375 C 286.199219 613.167969 294.714844 621.65625 305.179688 621.65625 C 315.648438 621.65625 324.160156 613.167969 324.160156 602.734375 C 324.160156 592.300781 315.648438 583.8125 305.179688 583.8125 Z M 305.179688 612.480469 C 299.777344 612.480469 295.375 608.109375 295.375 602.734375 C 295.375 597.363281 299.773438 592.988281 305.179688 592.988281 C 310.585938 592.988281 314.980469 597.363281 314.980469 602.734375 C 314.980469 608.109375 310.585938 612.480469 305.179688 612.480469 Z M 305.179688 612.480469 " fill-opacity="1" fill-rule="nonzero"/><path fill="#00bc46" d="M 401.121094 612.480469 C 393.304688 612.480469 386.9375 618.828125 386.9375 626.625 C 386.9375 634.425781 393.304688 640.773438 401.121094 640.773438 C 408.945312 640.773438 415.304688 634.425781 415.304688 626.625 C 415.304688 618.828125 408.945312 612.480469 401.121094 612.480469 Z M 401.121094 631.589844 C 398.359375 631.589844 396.117188 629.359375 396.117188 626.621094 C 396.117188 623.882812 398.359375 621.652344 401.121094 621.652344 C 403.882812 621.652344 406.128906 623.882812 406.128906 626.621094 C 406.128906 629.359375 403.882812 631.589844 401.121094 631.589844 Z M 401.121094 631.589844 " fill-opacity="1" fill-rule="nonzero"/><path fill="#00bc46" d="M 578.679688 618.4375 C 569.25 618.4375 561.582031 626.085938 561.582031 635.480469 C 561.582031 644.878906 569.25 652.527344 578.679688 652.527344 C 588.105469 652.527344 595.777344 644.878906 595.777344 635.480469 C 595.777344 626.085938 588.105469 618.4375 578.679688 618.4375 Z M 578.679688 643.355469 C 574.308594 643.355469 570.757812 639.824219 570.757812 635.488281 C 570.757812 631.152344 574.308594 627.617188 578.679688 627.617188 C 583.046875 627.617188 586.601562 631.152344 586.601562 635.488281 C 586.601562 639.824219 583.046875 643.355469 578.679688 643.355469 Z M 578.679688 643.355469 " fill-opacity="1" fill-rule="nonzero"/><path fill="#00bc46" d="M 603.699219 597.675781 C 596.566406 597.675781 590.773438 603.460938 590.773438 610.566406 C 590.773438 617.679688 596.574219 623.464844 603.699219 623.464844 C 610.824219 623.464844 616.628906 617.679688 616.628906 610.566406 C 616.628906 603.460938 610.828125 597.675781 603.699219 597.675781 Z M 603.699219 614.289062 C 601.628906 614.289062 599.949219 612.617188 599.949219 610.566406 C 599.949219 608.515625 601.632812 606.851562 603.699219 606.851562 C 605.765625 606.851562 607.453125 608.515625 607.453125 610.566406 C 607.453125 612.617188 605.765625 614.289062 603.699219 614.289062 Z M 603.699219 614.289062 " fill-opacity="1" fill-rule="nonzero"/><g clip-path="url(#3bd84967e2)"><path fill="#00bc46" d="M 466.101562 659.96875 C 456.671875 659.96875 449.003906 667.617188 449.003906 677.015625 C 449.003906 686.410156 456.671875 694.058594 466.101562 694.058594 C 475.53125 694.058594 483.195312 686.410156 483.195312 677.015625 C 483.195312 667.617188 475.523438 659.96875 466.101562 659.96875 Z M 466.101562 684.882812 C 461.734375 684.882812 458.179688 681.351562 458.179688 677.015625 C 458.179688 672.679688 461.734375 669.144531 466.101562 669.144531 C 470.46875 669.144531 474.019531 672.679688 474.019531 677.015625 C 474.019531 681.351562 470.464844 684.882812 466.101562 684.882812 Z M 466.101562 684.882812 " fill-opacity="1" fill-rule="nonzero"/></g></svg>