<svg xmlns="http://www.w3.org/2000/svg" xmlns:xlink="http://www.w3.org/1999/xlink" width="1080" zoomAndPan="magnify" viewBox="0 0 810 809.999993" height="1080" preserveAspectRatio="xMidYMid meet" version="1.0"><defs><clipPath id="be02c072cd"><path d="M 176.3125 159.101562 L 567 159.101562 L 567 227 L 176.3125 227 Z M 176.3125 159.101562 " clip-rule="nonzero"/></clipPath><clipPath id="137e84ce74"><path d="M 176.421875 583 L 540 583 L 540 650.882812 L 176.421875 650.882812 Z M 176.421875 583 " clip-rule="nonzero"/></clipPath><clipPath id="d65268b7b0"><path d="M 531 367 L 633.8125 367 L 633.8125 650.882812 L 531 650.882812 Z M 531 367 " clip-rule="nonzero"/></clipPath></defs><path fill="#00bc46" d="M 535.699219 354.144531 C 533.574219 354.144531 531.855469 352.421875 531.855469 350.296875 L 531.855469 222.453125 C 531.855469 220.347656 533.574219 218.625 535.699219 218.625 C 537.808594 218.625 539.527344 220.347656 539.527344 222.453125 L 539.527344 350.296875 C 539.527344 352.421875 537.808594 354.144531 535.699219 354.144531 " fill-opacity="1" fill-rule="nonzero"/><path fill="#00bc46" d="M 207.207031 591.375 C 205.101562 591.375 203.382812 589.65625 203.382812 587.53125 L 203.382812 222.453125 C 203.382812 220.347656 205.101562 218.625 207.207031 218.625 C 209.316406 218.625 211.035156 220.347656 211.035156 222.453125 L 211.035156 587.53125 C 211.035156 589.65625 209.316406 591.375 207.207031 591.375 " fill-opacity="1" fill-rule="nonzero"/><g clip-path="url(#be02c072cd)"><path fill="#00bc46" d="M 184.09375 198.351562 C 184.09375 209.523438 193.175781 218.625 204.347656 218.625 L 538.5625 218.625 C 549.730469 218.625 558.816406 209.523438 558.816406 198.351562 L 558.816406 166.773438 L 184.09375 166.773438 Z M 204.347656 226.28125 C 188.945312 226.28125 176.421875 213.757812 176.421875 198.351562 L 176.421875 162.925781 C 176.421875 160.820312 178.140625 159.101562 180.246094 159.101562 L 562.640625 159.101562 C 564.765625 159.101562 566.488281 160.820312 566.488281 162.925781 L 566.488281 198.351562 C 566.488281 213.757812 553.945312 226.28125 538.5625 226.28125 L 204.347656 226.28125 " fill-opacity="1" fill-rule="nonzero"/></g><g clip-path="url(#137e84ce74)"><path fill="#00bc46" d="M 180.246094 650.882812 C 178.140625 650.882812 176.421875 649.160156 176.421875 647.054688 L 176.421875 611.628906 C 176.421875 596.226562 188.945312 583.703125 204.347656 583.703125 L 526.597656 583.703125 C 528.722656 583.703125 530.445312 585.421875 530.445312 587.53125 C 530.445312 589.65625 528.722656 591.375 526.597656 591.375 L 204.347656 591.375 C 193.175781 591.375 184.09375 600.460938 184.09375 611.628906 L 184.09375 643.230469 L 535.699219 643.230469 C 537.808594 643.230469 539.527344 644.949219 539.527344 647.054688 C 539.527344 649.160156 537.808594 650.882812 535.699219 650.882812 L 180.246094 650.882812 " fill-opacity="1" fill-rule="nonzero"/></g><path fill="#00bc46" d="M 547.007812 403.65625 C 544.898438 403.65625 543.179688 401.9375 543.160156 399.832031 C 543.160156 397.726562 544.878906 396.003906 546.988281 395.984375 L 573.058594 395.871094 C 575.183594 395.871094 576.90625 397.570312 576.90625 399.675781 C 576.921875 401.785156 575.203125 403.523438 573.097656 403.523438 L 547.027344 403.65625 L 547.007812 403.65625 " fill-opacity="1" fill-rule="nonzero"/><g clip-path="url(#d65268b7b0)"><path fill="#00bc46" d="M 551.453125 610.933594 C 551.488281 619.613281 554.890625 627.730469 561.054688 633.835938 C 567.164062 639.886719 575.261719 643.230469 583.882812 643.230469 C 601.914062 643.132812 616.386719 628.519531 616.3125 610.644531 L 615.324219 395.695312 L 619.152344 395.675781 C 621.046875 395.65625 622.804688 394.921875 624.136719 393.589844 C 625.453125 392.253906 626.167969 390.476562 626.167969 388.601562 L 626.128906 382.050781 C 626.128906 380.175781 625.394531 378.417969 624.0625 377.085938 C 622.667969 375.710938 621.125 375.035156 619.460938 375.035156 L 618.957031 375.054688 L 546.542969 375.382812 C 544.667969 375.382812 542.890625 376.117188 541.574219 377.46875 C 540.242188 378.804688 539.527344 380.5625 539.527344 382.457031 L 539.566406 388.988281 C 539.585938 392.855469 542.734375 396.003906 546.601562 396.003906 L 550.464844 395.984375 Z M 583.863281 650.882812 C 573.230469 650.882812 563.222656 646.765625 555.664062 639.285156 C 548.050781 631.730469 543.835938 621.679688 543.777344 610.972656 L 542.832031 403.214844 L 541.847656 402.886719 C 535.914062 400.835938 531.914062 395.269531 531.894531 389.027344 L 531.855469 382.476562 C 531.855469 378.554688 533.363281 374.863281 536.125 372.058594 C 538.890625 369.277344 542.582031 367.730469 546.503906 367.710938 L 619.035156 367.382812 C 622.996094 367.382812 626.671875 368.890625 629.453125 371.632812 C 632.234375 374.398438 633.78125 378.089844 633.800781 382.011719 L 633.839844 388.5625 C 633.859375 392.488281 632.332031 396.199219 629.570312 398.980469 C 627.984375 400.585938 626.109375 401.765625 624.023438 402.519531 L 623.035156 402.867188 L 623.984375 610.605469 C 624.082031 632.714844 606.164062 650.785156 584.074219 650.882812 L 583.863281 650.882812 " fill-opacity="1" fill-rule="nonzero"/></g><path fill="#00bc46" d="M 267.835938 288.800781 C 263.5625 304.050781 251.542969 356.714844 276.492188 394.035156 C 292.398438 417.804688 320.519531 431.390625 360.0625 434.425781 L 360.988281 434.503906 L 361.453125 433.691406 C 368.023438 422.539062 388.257812 383.347656 372.894531 347.863281 C 359.945312 317.964844 325.15625 297.75 269.535156 287.757812 L 268.203125 287.503906 Z M 362.824219 442.292969 C 318.992188 439.605469 287.820312 424.78125 270.097656 398.246094 C 238.613281 351.109375 260.957031 284.722656 261.921875 281.921875 C 262.441406 280.375 263.894531 279.332031 265.515625 279.332031 C 265.730469 279.332031 265.941406 279.351562 266.152344 279.390625 C 327.285156 289.554688 365.570312 311.585938 379.949219 344.867188 C 399.488281 390.089844 367.558594 438.5625 366.1875 440.609375 C 365.492188 441.671875 364.292969 442.3125 363.019531 442.3125 L 362.824219 442.292969 " fill-opacity="1" fill-rule="nonzero"/><path fill="#00bc46" d="M 388.605469 440.222656 C 386.730469 440.222656 385.089844 438.8125 384.820312 436.9375 C 384.683594 435.933594 384.933594 434.929688 385.554688 434.097656 C 386.171875 433.285156 387.058594 432.746094 388.066406 432.609375 C 423.953125 427.410156 449.929688 412.335938 465.273438 387.808594 C 492.175781 344.789062 479.210938 284.625 474.589844 267.195312 L 474.261719 265.917969 L 472.945312 266.113281 C 420.554688 273.746094 390.308594 293.84375 374.148438 309.382812 C 373.433594 310.078125 372.488281 310.445312 371.503906 310.445312 C 370.441406 310.445312 369.472656 310.039062 368.738281 309.285156 C 367.269531 307.761719 367.328125 305.324219 368.835938 303.855469 C 386.441406 286.945312 419.394531 265.242188 476.523438 257.898438 C 476.695312 257.859375 476.871094 257.859375 477.023438 257.859375 C 478.6875 257.859375 480.15625 258.921875 480.660156 260.527344 C 481.683594 263.695312 505.125 338.546875 471.769531 391.867188 C 455.1875 418.402344 427.394531 434.65625 389.167969 440.183594 C 388.972656 440.222656 388.800781 440.222656 388.605469 440.222656 " fill-opacity="1" fill-rule="nonzero"/><path fill="#00bc46" d="M 341.449219 560.355469 C 341.0625 560.355469 340.65625 560.300781 340.289062 560.164062 C 339.304688 559.855469 338.511719 559.179688 338.046875 558.269531 C 337.585938 557.359375 337.488281 556.316406 337.796875 555.351562 C 341.179688 544.835938 348.8125 537.070312 356.195312 529.550781 C 360.003906 525.683594 363.558594 522.070312 366.652344 518.070312 C 380.238281 500.386719 382.5 474.257812 372.160156 454.523438 C 371.675781 453.617188 371.578125 452.574219 371.890625 451.605469 C 372.199219 450.621094 372.855469 449.808594 373.765625 449.34375 C 374.324219 449.054688 374.921875 448.902344 375.542969 448.902344 C 376.972656 448.902344 378.265625 449.695312 378.941406 450.96875 C 390.828125 473.621094 388.316406 502.453125 372.71875 522.726562 C 369.355469 527.097656 365.472656 531.058594 361.703125 534.902344 C 354.609375 542.113281 347.925781 548.894531 345.101562 557.691406 C 344.582031 559.292969 343.132812 560.355469 341.449219 560.355469 " fill-opacity="1" fill-rule="nonzero"/><path fill="#00bc46" d="M 401.382812 560.355469 C 399.3125 560.355469 397.59375 558.675781 397.554688 556.609375 C 397.03125 533.378906 372.875 515.65625 372.625 515.480469 C 371.792969 514.902344 371.25 514.011719 371.078125 513.007812 C 370.921875 511.984375 371.15625 510.976562 371.753906 510.148438 C 372.46875 509.140625 373.628906 508.542969 374.867188 508.542969 C 375.675781 508.542969 376.429688 508.792969 377.089844 509.257812 C 378.207031 510.070312 404.589844 529.222656 405.207031 556.433594 C 405.226562 557.457031 404.859375 558.425781 404.144531 559.160156 C 403.449219 559.914062 402.484375 560.316406 401.457031 560.355469 L 401.382812 560.355469 " fill-opacity="1" fill-rule="nonzero"/><path fill="#00bc46" d="M 341.449219 502.398438 C 340.949219 502.398438 340.464844 502.300781 340 502.105469 C 339.054688 501.71875 338.320312 500.984375 337.914062 500.039062 C 337.527344 499.09375 337.507812 498.046875 337.914062 497.101562 C 347.324219 474.0625 366.265625 465.890625 379.640625 465.890625 C 380.375 465.890625 381.070312 465.910156 381.707031 465.964844 C 382.730469 466.042969 383.660156 466.527344 384.316406 467.300781 C 384.992188 468.09375 385.300781 469.078125 385.222656 470.101562 C 385.050781 472.074219 383.386719 473.621094 381.417969 473.621094 C 380.972656 473.601562 380.605469 473.5625 380.027344 473.5625 C 375.96875 473.5625 355.289062 474.835938 345.007812 500 C 344.40625 501.449219 343.015625 502.398438 341.449219 502.398438 " fill-opacity="1" fill-rule="nonzero"/><path fill="#00bc46" d="M 310.023438 372.058594 C 310.46875 354.605469 313.621094 337.253906 319.1875 320.6875 C 308.480469 315.625 295.820312 311.355469 281.265625 307.953125 C 277.539062 327.9375 275.042969 360.578125 291.066406 384.449219 C 296.285156 392.234375 303.359375 398.652344 312.191406 403.714844 C 310.527344 393.261719 309.773438 382.648438 310.023438 372.058594 " fill-opacity="1" fill-rule="nonzero"/><path fill="#00bc46" d="M 568.363281 498.550781 L 568.882812 610.855469 C 568.921875 619.089844 575.648438 625.796875 583.863281 625.796875 L 583.9375 625.796875 C 587.960938 625.777344 591.707031 624.191406 594.53125 621.351562 C 597.351562 618.511719 598.898438 614.742188 598.878906 610.722656 L 598.355469 498.550781 L 568.363281 498.550781 " fill-opacity="1" fill-rule="nonzero"/></svg>