<svg xmlns="http://www.w3.org/2000/svg" xmlns:xlink="http://www.w3.org/1999/xlink" width="1080" zoomAndPan="magnify" viewBox="0 0 810 809.999993" height="1080" preserveAspectRatio="xMidYMid meet" version="1.0"><defs><clipPath id="256792a4b2"><path d="M 156.683594 273 L 361 273 L 361 580.625 L 156.683594 580.625 Z M 156.683594 273 " clip-rule="nonzero"/></clipPath><clipPath id="11177cc084"><path d="M 449 273 L 653.183594 273 L 653.183594 580.625 L 449 580.625 Z M 449 273 " clip-rule="nonzero"/></clipPath></defs><g clip-path="url(#256792a4b2)"><path fill="#009245" d="M 156.714844 580.359375 C 187.78125 569.132812 262.832031 549.273438 360.230469 571.945312 C 329.441406 554.691406 275.792969 538.976562 187.964844 553.28125 L 175.480469 555.320312 L 175.480469 273.921875 C 170.433594 273.882812 163.75 274.035156 156.714844 274.351562 L 156.714844 580.359375 " fill-opacity="1" fill-rule="nonzero"/></g><path fill="#009245" d="M 394.25 568.796875 L 394.25 297.46875 C 385.414062 285.785156 335.03125 229.863281 196.992188 249.671875 L 196.992188 530.191406 C 217.664062 527.34375 236.546875 526.09375 253.730469 526.09375 C 328.941406 526.09375 372.011719 549.988281 394.25 568.796875 " fill-opacity="1" fill-rule="nonzero"/><g clip-path="url(#11177cc084)"><path fill="#009245" d="M 653.28125 580.359375 L 653.28125 274.351562 C 646.242188 274.042969 639.558594 273.890625 634.515625 273.921875 L 634.515625 555.320312 L 622.03125 553.28125 C 534.054688 538.933594 480.402344 554.6875 449.652344 571.972656 C 547.074219 549.257812 622.207031 569.132812 653.28125 580.359375 " fill-opacity="1" fill-rule="nonzero"/></g><path fill="#009245" d="M 613.003906 530.191406 L 613.003906 249.671875 C 474.902344 229.796875 424.710938 285.660156 415.761719 297.472656 L 415.761719 568.796875 C 443.085938 545.703125 501.890625 514.957031 613.003906 530.191406 " fill-opacity="1" fill-rule="nonzero"/></svg>