<svg xmlns="http://www.w3.org/2000/svg" xmlns:xlink="http://www.w3.org/1999/xlink" width="1080" zoomAndPan="magnify" viewBox="0 0 810 809.999993" height="1080" preserveAspectRatio="xMidYMid meet" version="1.0"><defs><clipPath id="2aedd6b6c8"><path d="M 123 339 L 687 339 L 687 711.597656 L 123 711.597656 Z M 123 339 " clip-rule="nonzero"/></clipPath></defs><g clip-path="url(#2aedd6b6c8)"><path fill="#7ed957" d="M 478.632812 632.835938 C 478.632812 632.835938 459.394531 624.027344 454.191406 620.226562 C 433.410156 605.039062 419.886719 600.023438 410.535156 601.488281 L 410.535156 569.367188 C 414.046875 564.414062 418.582031 558.191406 424.375 552.339844 C 431.699219 555.15625 444.203125 557.617188 457.644531 549.910156 C 471.929688 541.71875 480.425781 524.59375 484.019531 515.777344 C 485.207031 512.875 483.386719 509.636719 480.292969 509.132812 C 470.785156 507.570312 451.414062 505.835938 437.089844 514.050781 C 422.597656 522.359375 418.859375 535.6875 417.941406 543.257812 C 415.226562 545.894531 412.765625 548.597656 410.535156 551.257812 L 410.535156 500.007812 C 416.667969 495.210938 425.550781 485.519531 425.613281 469.578125 C 425.679688 453.113281 415.109375 437.183594 409.28125 429.660156 C 407.359375 427.179688 403.652344 427.132812 401.660156 429.554688 C 395.550781 437.007812 384.34375 452.902344 384.28125 469.417969 C 384.214844 485.753906 393.464844 495.597656 399.566406 500.308594 L 399.566406 551.242188 C 397.339844 548.582031 394.886719 545.886719 392.179688 543.257812 C 391.261719 535.6875 387.519531 522.359375 373.03125 514.050781 C 358.703125 505.835938 339.335938 507.570312 329.824219 509.132812 C 326.730469 509.636719 324.914062 512.875 326.097656 515.777344 C 329.691406 524.59375 338.1875 541.71875 352.472656 549.910156 C 365.914062 557.617188 378.417969 555.15625 385.746094 552.339844 C 391.53125 558.183594 396.058594 564.394531 399.566406 569.34375 L 399.566406 606.679688 C 396.289062 608.390625 395.449219 607.339844 389.507812 607.1875 C 381.785156 607.003906 374.035156 612.160156 365.980469 619.457031 C 357.957031 626.742188 340.382812 638.589844 340.253906 638.679688 C 304.003906 616.730469 279.777344 576.917969 279.777344 531.449219 C 279.777344 462.257812 335.867188 406.167969 405.050781 406.167969 C 474.238281 406.167969 530.328125 462.257812 530.328125 531.449219 C 530.328125 573.136719 509.957031 610.066406 478.632812 632.835938 Z M 672.152344 652.332031 C 671.199219 651.59375 670.644531 650.464844 670.695312 649.261719 C 675.699219 535.484375 662.261719 389.15625 651.699219 339.386719 C 587.113281 359.6875 509.488281 369.867188 424.933594 369.867188 C 344.972656 369.867188 258.8125 360.773438 171.566406 342.550781 C 167.378906 341.671875 162.910156 340.644531 158.476562 339.132812 C 147.902344 388.65625 134.410156 535.292969 139.421875 649.261719 C 139.476562 650.464844 138.917969 651.59375 137.96875 652.332031 C 129.480469 658.902344 119.226562 675.78125 125.085938 684.890625 C 131.144531 694.3125 144.605469 688.746094 153.351562 688.480469 C 210.246094 686.742188 267.773438 711.8125 405.058594 711.8125 C 542.347656 711.8125 599.875 686.742188 656.765625 688.480469 C 665.511719 688.746094 678.976562 694.3125 685.03125 684.890625 C 690.890625 675.78125 680.640625 658.902344 672.152344 652.332031 " fill-opacity="1" fill-rule="nonzero"/></g><path fill="#7ed957" d="M 237.769531 180.621094 C 241.863281 179.234375 246.371094 180.777344 247.753906 184.871094 C 249.136719 188.964844 248.234375 192.601562 244.140625 193.980469 C 240.042969 195.367188 235.601562 193.167969 234.214844 189.074219 C 232.835938 184.980469 233.671875 182 237.769531 180.621094 Z M 261.339844 199.472656 C 264.710938 199.472656 268.011719 200.976562 268.011719 205.328125 C 268.011719 209.679688 265.601562 210.855469 263.375 211.195312 C 260.039062 211.703125 255.792969 209.679688 255.792969 205.328125 C 255.792969 200.976562 257.964844 199.472656 261.339844 199.472656 Z M 275.996094 178.203125 C 279.371094 178.203125 282.664062 179.710938 282.664062 184.0625 C 282.664062 188.40625 280.257812 189.585938 278.035156 189.925781 C 274.699219 190.429688 270.445312 188.40625 270.445312 184.0625 C 270.445312 179.710938 272.621094 178.203125 275.996094 178.203125 Z M 296.136719 157.207031 C 300.1875 157.207031 302.347656 159.8125 302.347656 163.863281 C 302.347656 167.910156 300.914062 169.960938 296.863281 169.960938 C 292.816406 169.960938 288.808594 168.582031 288.808594 164.535156 C 288.808594 160.484375 292.089844 157.207031 296.136719 157.207031 Z M 310.082031 205.328125 C 310.082031 209.679688 307.671875 210.855469 305.449219 211.195312 C 302.113281 211.703125 297.863281 209.679688 297.863281 205.328125 C 297.863281 200.976562 300.039062 199.472656 303.414062 199.472656 C 306.789062 199.472656 310.082031 200.976562 310.082031 205.328125 Z M 190.25 201.777344 C 321.230469 240.84375 520.5625 241.65625 625.535156 203.539062 C 627.0625 202.984375 628.605469 202.394531 630.148438 201.792969 C 622.269531 187.519531 606.261719 176.558594 582.40625 169.183594 C 575.828125 167.148438 569.855469 163.554688 565.132812 158.792969 C 543.894531 137.351562 521.554688 119.730469 462.816406 121.015625 C 462.78125 121.015625 462.75 121.015625 462.714844 121.015625 C 459.773438 121.015625 453.6875 118.269531 447.25 115.363281 C 436.574219 110.539062 421.953125 103.933594 405.617188 102.28125 C 405.546875 102.273438 405.46875 102.269531 405.398438 102.261719 C 338.792969 98.226562 303.132812 126.105469 283.96875 141.085938 C 279.890625 144.273438 275.265625 147.890625 273.71875 148.214844 C 264.660156 149.515625 233.734375 154.703125 216.113281 166.902344 C 207.230469 173.050781 199.140625 180.582031 185.070312 199.832031 C 185.992188 200.207031 186.785156 200.523438 187.363281 200.761719 C 188.339844 201.152344 189.28125 201.488281 190.25 201.777344 " fill-opacity="1" fill-rule="nonzero"/><path fill="#7ed957" d="M 143.078125 307.273438 C 143.078125 314.371094 144.59375 319.644531 147.003906 323.636719 C 149.832031 324.628906 152.703125 325.59375 155.316406 326.480469 C 157.644531 327.265625 159.78125 327.984375 161.546875 328.601562 C 165.765625 330.082031 170.085938 331.035156 173.808594 331.816406 C 351.746094 368.984375 524.886719 367.878906 648.835938 328.792969 C 652.425781 327.660156 657.339844 325.910156 662.128906 323.929688 C 663.097656 321.257812 663.527344 318.167969 663.496094 314.671875 C 663.285156 293.046875 644.378906 291.792969 655.832031 267.210938 C 661.199219 255.675781 666.226562 250.003906 663.71875 232.347656 C 662.40625 223.117188 653.214844 212.335938 641.894531 208.808594 C 637.640625 210.648438 633.429688 212.339844 629.28125 213.847656 C 577.847656 232.519531 503.925781 242.792969 421.027344 242.792969 C 420.570312 242.792969 420.128906 242.792969 419.675781 242.789062 C 335.277344 242.679688 252.683594 231.84375 187.117188 212.285156 C 185.816406 211.894531 184.554688 211.453125 183.261719 210.933594 C 180.675781 209.886719 176.308594 208.113281 171.59375 206.132812 C 161.691406 208.292969 151.707031 215.472656 149.984375 232.128906 C 148.765625 243.910156 153.371094 254.847656 159.339844 261.890625 C 162.089844 265.136719 163.324219 269.480469 161.890625 273.488281 C 158.371094 283.339844 143.078125 285.746094 143.078125 307.273438 " fill-opacity="1" fill-rule="nonzero"/></svg>