<svg xmlns="http://www.w3.org/2000/svg" xmlns:xlink="http://www.w3.org/1999/xlink" width="1080" zoomAndPan="magnify" viewBox="0 0 810 809.999993" height="1080" preserveAspectRatio="xMidYMid meet" version="1.0"><defs><clipPath id="0ed19e41c2"><path d="M 668 510 L 702.460938 510 L 702.460938 548 L 668 548 Z M 668 510 " clip-rule="nonzero"/></clipPath><clipPath id="9d06db8006"><path d="M 107.710938 278 L 585 278 L 585 581 L 107.710938 581 Z M 107.710938 278 " clip-rule="nonzero"/></clipPath></defs><path fill="#ff5757" d="M 542.351562 543.085938 C 542.351562 586.542969 507.117188 621.773438 463.6875 621.773438 C 420.230469 621.773438 385 586.542969 385 543.085938 C 385 499.632812 420.230469 464.421875 463.6875 464.421875 C 507.117188 464.421875 542.351562 499.632812 542.351562 543.085938 " fill-opacity="1" fill-rule="nonzero"/><path fill="#ff5757" d="M 245.179688 574.09375 C 245.179688 600.429688 223.835938 621.773438 197.5 621.773438 C 171.160156 621.773438 149.816406 600.429688 149.816406 574.09375 C 149.816406 547.753906 171.160156 526.410156 197.5 526.410156 C 223.835938 526.410156 245.179688 547.753906 245.179688 574.09375 " fill-opacity="1" fill-rule="nonzero"/><path fill="#ff5757" d="M 388.574219 388.636719 L 348.859375 388.636719 C 326.449219 388.636719 306.960938 373.449219 301.480469 351.707031 L 301.269531 350.824219 L 289.332031 290.417969 C 283.992188 269.816406 268.011719 253.324219 247.574219 247.355469 L 179.894531 227.542969 C 177.457031 226.824219 174.878906 227.941406 173.738281 230.214844 L 152.765625 275.992188 L 121.015625 261.453125 L 142.222656 215.164062 C 150.792969 197.375 170.765625 188.480469 189.695312 194.03125 L 257.375 213.820312 C 289.773438 223.316406 315.042969 249.539062 323.3125 282.265625 L 323.496094 283.167969 L 335.4375 343.511719 C 337.132812 349.523438 342.589844 353.707031 348.859375 353.707031 L 388.574219 353.707031 L 388.574219 388.636719 " fill-opacity="1" fill-rule="nonzero"/><path fill="#ff5757" d="M 660.269531 514.984375 L 645.125 506.25 L 652.835938 492.917969 L 636.347656 482.792969 L 645.496094 467.90625 L 676.457031 486.925781 L 660.269531 514.984375 " fill-opacity="1" fill-rule="nonzero"/><path fill="#ff5757" d="M 612.726562 514.984375 L 605.039062 501.652344 L 588.011719 510.875 L 579.699219 495.496094 L 611.65625 478.195312 L 627.84375 506.25 L 612.726562 514.984375 " fill-opacity="1" fill-rule="nonzero"/><path fill="#ff5757" d="M 588.152344 566.753906 L 570.6875 566.289062 L 571.6875 529.964844 L 604.085938 529.964844 L 604.085938 547.429688 L 588.6875 547.40625 L 588.152344 566.753906 " fill-opacity="1" fill-rule="nonzero"/><path fill="#ff5757" d="M 627.496094 609.464844 L 596.515625 590.445312 L 612.726562 562.386719 L 627.84375 571.121094 L 620.132812 584.453125 L 636.625 594.578125 L 627.496094 609.464844 " fill-opacity="1" fill-rule="nonzero"/><path fill="#ff5757" d="M 661.335938 599.175781 L 645.125 571.121094 L 660.246094 562.386719 L 667.957031 575.71875 L 684.957031 566.523438 L 693.273438 581.875 L 661.335938 599.175781 " fill-opacity="1" fill-rule="nonzero"/><g clip-path="url(#0ed19e41c2)"><path fill="#ff5757" d="M 701.308594 547.429688 L 668.910156 547.429688 L 668.910156 529.964844 L 684.308594 529.964844 L 684.816406 510.617188 L 702.285156 511.105469 L 701.308594 547.429688 " fill-opacity="1" fill-rule="nonzero"/></g><path fill="#ff5757" d="M 636.484375 550.195312 C 630.144531 550.195312 624.988281 545.039062 624.988281 538.699219 C 624.988281 532.332031 630.144531 527.175781 636.484375 527.175781 C 642.847656 527.175781 648.003906 532.332031 648.003906 538.699219 C 648.003906 545.039062 642.847656 550.195312 636.484375 550.195312 " fill-opacity="1" fill-rule="nonzero"/><g clip-path="url(#9d06db8006)"><path fill="#ff5757" d="M 564.972656 278.457031 L 446.617188 278.457031 C 423.738281 278.457031 405.183594 297.011719 405.183594 319.890625 L 405.183594 336.242188 L 406.042969 336.242188 L 406.042969 406.078125 L 348.859375 406.078125 C 318.433594 406.078125 292.003906 385.476562 284.546875 355.980469 L 284.152344 354.21875 L 283.664062 351.800781 L 155.019531 351.800781 C 128.890625 351.800781 107.710938 373.007812 107.710938 399.113281 L 107.710938 580.78125 L 132.699219 580.78125 C 132.492188 578.574219 132.351562 576.347656 132.351562 574.09375 C 132.351562 538.164062 161.59375 508.945312 197.5 508.945312 C 233.429688 508.945312 262.648438 538.164062 262.648438 574.09375 C 262.648438 576.347656 262.53125 578.574219 262.320312 580.78125 L 375.246094 580.78125 C 370.296875 569.191406 367.535156 556.464844 367.535156 543.085938 C 367.535156 490.085938 410.664062 446.957031 463.6875 446.957031 C 486.867188 446.957031 508.140625 455.203125 524.769531 468.90625 L 583.414062 303.445312 C 587.246094 291.042969 577.957031 278.457031 564.972656 278.457031 " fill-opacity="1" fill-rule="nonzero"/></g></svg>