<svg xmlns="http://www.w3.org/2000/svg" xmlns:xlink="http://www.w3.org/1999/xlink" width="1080" zoomAndPan="magnify" viewBox="0 0 810 809.999993" height="1080" preserveAspectRatio="xMidYMid meet" version="1.0"><defs><clipPath id="0df1e91ab3"><path d="M 104.105469 104.105469 L 705.605469 104.105469 L 705.605469 705.605469 L 104.105469 705.605469 Z M 104.105469 104.105469 " clip-rule="nonzero"/></clipPath></defs><g clip-path="url(#0df1e91ab3)"><path fill="#1b9ce4" d="M 618.128906 104.105469 C 618.128906 104.105469 580.515625 154.253906 580.515625 191.867188 C 580.515625 212.628906 597.367188 229.476562 618.128906 229.476562 C 638.886719 229.476562 655.738281 212.628906 655.738281 191.867188 C 655.738281 154.253906 618.128906 104.105469 618.128906 104.105469 Z M 191.867188 129.179688 C 191.867188 129.179688 154.253906 179.328125 154.253906 216.941406 C 154.253906 237.703125 171.105469 254.550781 191.867188 254.550781 C 212.628906 254.550781 229.476562 237.703125 229.476562 216.941406 C 229.476562 179.328125 191.867188 129.179688 191.867188 129.179688 Z M 442.609375 129.179688 C 442.609375 129.179688 404.996094 179.328125 404.996094 216.941406 C 404.996094 237.703125 421.847656 254.550781 442.609375 254.550781 C 463.371094 254.550781 480.21875 237.703125 480.21875 216.941406 C 480.21875 179.328125 442.609375 129.179688 442.609375 129.179688 Z M 317.238281 179.328125 C 317.238281 179.328125 279.625 229.476562 279.625 267.089844 C 279.625 287.851562 296.476562 304.699219 317.238281 304.699219 C 338 304.699219 354.847656 287.851562 354.847656 267.089844 C 354.847656 229.476562 317.238281 179.328125 317.238281 179.328125 Z M 605.589844 304.699219 C 505.292969 304.699219 404.996094 354.847656 404.996094 480.21875 C 404.996094 508.929688 409.25 531.257812 416.898438 548.78125 C 411.722656 560.714844 407.253906 572.480469 403.183594 584.089844 C 393.84375 564.289062 382.453125 545.730469 369.246094 528.507812 C 364.429688 522.222656 359.394531 516.082031 354.164062 510.09375 C 354.566406 507.019531 354.847656 503.960938 354.847656 501.082031 C 354.847656 396.621094 271.25 354.847656 187.652344 354.847656 L 104.105469 354.847656 L 104.105469 417.535156 C 104.105469 542.90625 187.652344 605.589844 250.339844 605.589844 C 262.976562 605.589844 274 603.433594 284.230469 600.398438 C 267.078125 575.273438 238.019531 538.042969 197.449219 505.144531 C 186.691406 496.421875 185 480.644531 193.726562 469.886719 C 202.453125 459.128906 218.230469 457.414062 228.988281 466.164062 C 264.753906 495.15625 300.910156 529.664062 319.488281 547.605469 C 322.726562 551.433594 326.433594 555.105469 329.429688 559.015625 C 361.332031 600.625 380.015625 646.445312 379.921875 705.839844 C 379.921875 705.949219 379.921875 706.070312 379.921875 706.179688 L 404.996094 705.886719 L 430.070312 705.9375 C 430.070312 705.820312 430.070312 705.710938 430.070312 705.59375 C 429.640625 668.292969 443.390625 606.023438 474.441406 543.882812 C 482.046875 528.65625 490.699219 513.421875 500.347656 498.4375 C 518.023438 473.222656 536.730469 447.828125 554.070312 430.414062 C 563.847656 420.609375 579.722656 420.535156 589.527344 430.316406 C 599.355469 440.09375 599.402344 455.96875 589.625 465.773438 C 548.152344 507.421875 519.082031 553.347656 501.277344 604.023438 C 510.480469 605.074219 520.164062 605.589844 530.367188 605.589844 C 605.589844 605.589844 705.886719 530.367188 705.886719 379.921875 L 705.886719 304.699219 Z M 605.589844 304.699219 " fill-opacity="1" fill-rule="nonzero"/></g></svg>