<svg xmlns="http://www.w3.org/2000/svg" xmlns:xlink="http://www.w3.org/1999/xlink" width="1080" zoomAndPan="magnify" viewBox="0 0 810 809.999993" height="1080" preserveAspectRatio="xMidYMid meet" version="1.0"><defs><clipPath id="3c2569755b"><path d="M 153 97 L 679.511719 97 L 679.511719 401 L 153 401 Z M 153 97 " clip-rule="nonzero"/></clipPath></defs><path fill="#ff66c4" d="M 667.117188 573.390625 L 560.496094 573.390625 L 549.753906 564.996094 L 535.65625 546.332031 C 534.984375 545.390625 534.042969 544.585938 532.902344 544.117188 L 511.417969 533.238281 C 508.328125 531.828125 504.433594 532.566406 502.152344 535.1875 L 490.871094 548.144531 L 479.726562 548.144531 C 476.640625 548.144531 473.886719 549.890625 472.609375 552.777344 L 459.921875 582.183594 C 459.71875 582.320312 459.71875 582.652344 459.585938 582.855469 L 449.847656 615.015625 C 449.714844 615.21875 449.714844 615.351562 449.714844 615.6875 L 434.472656 683.902344 L 422.589844 697.261719 L 399.628906 697.261719 L 388.953125 688.804688 L 367.332031 622 L 357.597656 587.019531 C 357.328125 586.144531 357.0625 585.675781 356.792969 585.070312 L 340.140625 556.871094 C 338.730469 554.453125 336.246094 552.976562 333.425781 552.976562 L 319.058594 552.976562 L 306.167969 544.855469 C 295.558594 534.3125 292.203125 533.171875 291.0625 532.835938 C 283.945312 530.621094 279.847656 532.835938 266.421875 567.75 L 259.4375 573.390625 L 144.226562 573.390625 C 139.925781 573.390625 136.4375 577.015625 136.4375 581.175781 C 136.4375 585.542969 139.925781 588.898438 144.226562 588.898438 L 262.257812 588.898438 C 264.070312 588.898438 265.816406 588.429688 267.226562 587.355469 L 277.96875 578.558594 C 279.042969 577.753906 279.78125 576.476562 280.320312 575.132812 C 283.476562 566.875 287.503906 557.34375 290.390625 551.367188 C 292 552.976562 293.949219 554.789062 295.761719 556.535156 C 296.230469 557.007812 296.632812 557.34375 297.238281 557.476562 L 312.75 567.347656 C 313.957031 568.015625 315.433594 568.488281 316.84375 568.488281 L 328.996094 568.488281 L 342.761719 592.1875 L 352.359375 626.5625 L 374.785156 695.71875 C 375.324219 697.261719 376.128906 698.472656 377.335938 699.480469 L 392.042969 711.160156 C 393.316406 712.304688 395.128906 712.773438 396.875 712.773438 L 426.082031 712.773438 C 428.363281 712.773438 430.445312 711.96875 431.921875 710.355469 L 447.5 692.628906 C 448.441406 691.757812 449.042969 690.414062 449.3125 689.207031 L 464.890625 619.246094 L 474.421875 587.757812 L 484.898438 563.652344 L 494.296875 563.652344 C 496.714844 563.652344 498.796875 562.644531 500.273438 560.902344 L 510.074219 549.890625 L 524.308594 557.140625 L 537.9375 575.132812 C 538.273438 575.671875 538.742188 576.140625 539.28125 576.613281 L 553.046875 587.285156 C 554.320312 588.429688 556.066406 588.898438 557.878906 588.898438 L 667.117188 588.898438 C 671.347656 588.898438 674.90625 585.542969 674.90625 581.175781 C 674.90625 577.015625 671.28125 573.390625 667.117188 573.390625 Z M 667.117188 573.390625 " fill-opacity="1" fill-rule="nonzero"/><g clip-path="url(#3c2569755b)"><path fill="#ff66c4" d="M 669.535156 217.675781 L 591.582031 248.898438 C 590.441406 249.300781 589.503906 250.039062 588.695312 250.910156 L 523.773438 319.664062 L 441.390625 367.132812 C 428.027344 372.035156 421.246094 365.921875 421.046875 365.722656 C 419.703125 364.445312 419.570312 363.4375 419.570312 362.566406 C 419.636719 358.605469 424 353.101562 426.148438 351.152344 C 426.484375 350.816406 426.6875 350.546875 426.953125 350.210938 L 458.578125 309.257812 C 458.777344 308.988281 458.914062 308.855469 459.113281 308.652344 C 477.378906 280.320312 445.753906 247.621094 444.34375 246.347656 C 444.277344 246.210938 444.210938 246.144531 444.007812 245.941406 C 417.621094 222.375 381.566406 238.085938 380.089844 238.757812 C 379.351562 239.09375 378.679688 239.566406 378.074219 240.167969 L 345.378906 269.375 C 343.902344 270.71875 342.894531 272.597656 342.761719 274.8125 L 339.871094 327.921875 C 339.804688 329.800781 340.410156 331.683594 341.617188 333.226562 L 374.046875 373.445312 C 376.464844 376.667969 377.605469 379.417969 377.269531 381.367188 C 376.933594 382.976562 375.523438 383.984375 375.59375 383.984375 C 375.054688 384.320312 374.519531 384.65625 374.046875 385.058594 C 373.242188 385.796875 368.40625 384.453125 364.246094 381.703125 L 313.21875 334.367188 L 305.96875 255.746094 L 368.003906 180.949219 C 475.699219 177.796875 550.5625 160.539062 551.300781 160.339844 C 551.636719 160.269531 552.171875 160.070312 552.507812 160.003906 L 669.535156 112.265625 C 673.5625 110.585938 675.375 106.089844 673.695312 102.058594 C 672.152344 98.097656 667.585938 96.21875 663.691406 97.761719 L 547.136719 145.300781 C 540.019531 146.84375 467.171875 162.753906 363.976562 165.441406 C 361.828125 165.507812 359.679688 166.582031 358.203125 168.328125 L 351.824219 176.050781 L 178.398438 156.914062 C 178.0625 156.914062 177.796875 156.914062 177.527344 156.914062 C 170.207031 156.914062 155.839844 160.808594 153.558594 175.714844 C 153.558594 175.78125 153.488281 175.847656 153.488281 176.050781 C 152.820312 182.898438 155.839844 197.132812 172.019531 202.167969 C 172.15625 202.167969 172.355469 202.167969 172.625 202.167969 L 283.675781 227.078125 L 194.042969 261.988281 C 193.839844 262.125 193.507812 262.191406 193.304688 262.390625 C 187.464844 265.347656 177.59375 274.613281 181.957031 287.367188 C 181.957031 287.503906 182.09375 287.703125 182.09375 287.839844 C 184.171875 292.875 190.820312 301.265625 202.703125 301.265625 C 204.316406 301.265625 205.925781 301.132812 207.605469 300.863281 C 207.808594 300.796875 208.074219 300.796875 208.277344 300.664062 L 275.484375 282.734375 L 230.433594 325.640625 C 230.097656 325.839844 229.964844 326.042969 229.761719 326.3125 C 225.597656 331.277344 219.890625 343.5 228.820312 353.636719 C 229.023438 353.839844 229.089844 353.90625 229.15625 353.972656 C 231.910156 356.859375 237.75 360.484375 244.867188 360.484375 C 248.828125 360.484375 253.261719 359.34375 257.691406 356.390625 C 257.828125 356.324219 257.960938 356.253906 258.164062 356.1875 L 296.902344 326.78125 L 297.976562 338.796875 C 298.179688 340.746094 299.050781 342.558594 300.527344 343.902344 L 354.175781 393.585938 C 354.308594 393.921875 354.644531 394.054688 354.980469 394.257812 C 356.253906 395.265625 364.714844 400.835938 373.445312 400.835938 C 377.136719 400.835938 380.828125 399.828125 384.1875 397.011719 C 386.199219 395.53125 390.96875 391.636719 392.511719 384.789062 C 393.785156 378.210938 391.839844 371.226562 386.335938 363.84375 L 355.652344 325.707031 L 358.203125 278.773438 L 387.476562 252.523438 C 392.710938 250.574219 416.480469 242.585938 433.46875 257.289062 C 435.480469 259.503906 456.699219 283.003906 446.15625 299.992188 L 415.070312 340.207031 C 412.585938 342.558594 404.195312 351.621094 404.058594 362.230469 C 403.859375 367.738281 405.941406 372.703125 409.902344 376.667969 C 410.4375 377.335938 424 390.429688 447.433594 381.433594 C 447.835938 381.230469 448.304688 381.164062 448.640625 381.03125 L 532.433594 332.554688 C 533.238281 332.21875 533.777344 331.75 534.179688 331.277344 L 598.902344 262.726562 L 675.375 232.179688 C 679.472656 230.566406 681.417969 226.070312 679.738281 222.039062 C 678.128906 218.078125 673.5625 216.132812 669.535156 217.675781 Z M 169 177.726562 C 169.941406 173.296875 175.714844 172.625 177.191406 172.425781 L 339.871094 190.484375 L 316.574219 218.484375 L 176.316406 187.058594 C 169.46875 184.777344 168.933594 179.472656 169 177.726562 Z M 204.515625 285.625 C 199.480469 286.363281 197.398438 283.476562 196.730469 282.199219 C 195.921875 279.175781 199.214844 276.894531 200.289062 276.359375 L 301.132812 237.082031 L 291.867188 248.226562 C 290.589844 249.90625 289.921875 251.851562 290.1875 254 L 290.925781 262.59375 Z M 249.097656 343.429688 C 244.734375 346.25 241.644531 344.238281 240.503906 343.230469 C 238.625 340.945312 240.773438 337.457031 241.578125 336.648438 L 293.277344 287.503906 L 295.15625 308.519531 Z M 249.097656 343.429688 " fill-opacity="1" fill-rule="nonzero"/></g><path fill="#ff66c4" d="M 423.464844 418.761719 C 423.464844 399.628906 418.761719 379.21875 405.605469 379.21875 C 392.511719 379.21875 387.746094 399.628906 387.746094 418.761719 C 387.746094 437.964844 392.445312 458.308594 405.605469 458.308594 C 418.761719 458.308594 423.464844 437.898438 423.464844 418.761719 Z M 405.605469 437.5625 C 404.460938 433.398438 403.457031 426.953125 403.457031 418.761719 C 403.457031 410.640625 404.53125 404.195312 405.671875 399.898438 C 406.8125 404.195312 407.886719 410.707031 407.886719 418.761719 C 407.820312 426.953125 406.8125 433.398438 405.605469 437.5625 Z M 405.605469 437.5625 " fill-opacity="1" fill-rule="nonzero"/><path fill="#ff66c4" d="M 343.5 410.839844 L 299.519531 410.839844 C 295.222656 410.839844 291.734375 414.398438 291.734375 418.695312 C 291.734375 422.992188 295.222656 426.550781 299.519531 426.550781 L 343.429688 426.550781 C 347.726562 426.550781 351.152344 422.992188 351.152344 418.695312 C 351.152344 414.398438 347.796875 410.839844 343.5 410.839844 Z M 343.5 410.839844 " fill-opacity="1" fill-rule="nonzero"/><path fill="#ff66c4" d="M 325.101562 499.132812 C 326.644531 500.742188 328.660156 501.546875 330.609375 501.546875 C 332.621094 501.546875 334.703125 500.742188 336.113281 499.132812 L 367.199219 468.179688 C 370.21875 465.089844 370.21875 460.257812 367.199219 457.167969 C 364.179688 454.078125 359.210938 454.078125 356.121094 457.167969 L 325.101562 488.253906 C 322.011719 491.207031 322.011719 496.042969 325.101562 499.132812 Z M 325.101562 499.132812 " fill-opacity="1" fill-rule="nonzero"/><path fill="#ff66c4" d="M 397.882812 480.867188 L 397.882812 524.777344 C 397.882812 529.007812 401.308594 532.5 405.671875 532.5 C 409.96875 532.5 413.460938 528.941406 413.460938 524.777344 L 413.460938 480.867188 C 413.460938 476.640625 409.96875 473.082031 405.671875 473.082031 C 401.308594 473.082031 397.882812 476.570312 397.882812 480.867188 Z M 397.882812 480.867188 " fill-opacity="1" fill-rule="nonzero"/><path fill="#ff66c4" d="M 444.007812 457.167969 C 440.988281 460.257812 440.988281 465.089844 444.007812 468.179688 L 475.09375 499.132812 C 476.570312 500.742188 478.519531 501.546875 480.601562 501.546875 C 482.546875 501.546875 484.5625 500.742188 486.105469 499.132812 C 489.195312 496.042969 489.195312 491.207031 486.105469 488.253906 L 455.019531 457.167969 C 452.066406 454.078125 447.097656 454.078125 444.007812 457.167969 Z M 444.007812 457.167969 " fill-opacity="1" fill-rule="nonzero"/><path fill="#ff66c4" d="M 511.550781 426.617188 C 515.917969 426.617188 519.542969 423.058594 519.542969 418.761719 C 519.542969 414.464844 515.984375 410.839844 511.550781 410.839844 L 467.84375 410.839844 C 463.480469 410.839844 460.054688 414.398438 460.054688 418.695312 C 460.054688 422.992188 463.410156 426.617188 467.84375 426.617188 Z M 511.550781 426.617188 " fill-opacity="1" fill-rule="nonzero"/></svg>