<svg xmlns="http://www.w3.org/2000/svg" xmlns:xlink="http://www.w3.org/1999/xlink" width="1080" zoomAndPan="magnify" viewBox="0 0 810 809.999993" height="1080" preserveAspectRatio="xMidYMid meet" version="1.0"><defs><clipPath id="ee35cadd86"><path d="M 76.777344 586 L 148 586 L 148 737.644531 L 76.777344 737.644531 Z M 76.777344 586 " clip-rule="nonzero"/></clipPath><clipPath id="a49f8ec140"><path d="M 124.605469 586 L 196 586 L 196 737.644531 L 124.605469 737.644531 Z M 124.605469 586 " clip-rule="nonzero"/></clipPath><clipPath id="79dad94224"><path d="M 709 434.890625 L 733.027344 434.890625 L 733.027344 459 L 709 459 Z M 709 434.890625 " clip-rule="nonzero"/></clipPath><clipPath id="57ef95897e"><path d="M 709 387.0625 L 733.027344 387.0625 L 733.027344 412 L 709 412 Z M 709 387.0625 " clip-rule="nonzero"/></clipPath><clipPath id="ee5a384e9f"><path d="M 709 339.234375 L 733.027344 339.234375 L 733.027344 364 L 709 364 Z M 709 339.234375 " clip-rule="nonzero"/></clipPath><clipPath id="d860af6248"><path d="M 709 530.546875 L 733.027344 530.546875 L 733.027344 555 L 709 555 Z M 709 530.546875 " clip-rule="nonzero"/></clipPath><clipPath id="1c3e8bb6ee"><path d="M 709 482.71875 L 733.027344 482.71875 L 733.027344 507 L 709 507 Z M 709 482.71875 " clip-rule="nonzero"/></clipPath></defs><path fill="#f58634" d="M 494.664062 518.636719 L 399.007812 518.636719 C 395.226562 518.636719 391.675781 516.859375 389.433594 513.824219 L 357.160156 470.808594 L 315.308594 470.808594 L 315.308594 446.894531 L 363.136719 446.894531 C 366.921875 446.894531 370.421875 448.667969 372.710938 451.65625 L 404.988281 494.722656 L 482.707031 494.722656 L 482.707031 470.808594 C 482.707031 466.789062 484.714844 463.054688 488.03125 460.859375 L 508.957031 446.894531 L 488.03125 432.929688 C 484.714844 430.6875 482.707031 426.949219 482.707031 422.980469 L 482.707031 399.066406 L 446.835938 399.066406 L 446.835938 375.152344 L 494.664062 375.152344 C 501.25 375.152344 506.621094 380.476562 506.621094 387.109375 L 506.621094 416.582031 L 537.167969 436.945312 C 540.484375 439.140625 542.492188 442.875 542.492188 446.894531 C 542.492188 450.863281 540.484375 454.601562 537.167969 456.84375 L 506.621094 477.207031 L 506.621094 506.679688 C 506.621094 513.265625 501.25 518.636719 494.664062 518.636719 " fill-opacity="1" fill-rule="nonzero"/><path fill="#f58634" d="M 435.160156 509.152344 L 401.671875 352.546875 L 341.277344 363.007812 C 340.578125 363.148438 339.921875 363.195312 339.222656 363.195312 L 226.050781 363.195312 L 205.6875 393.742188 C 203.445312 397.058594 199.710938 399.066406 195.738281 399.066406 L 135.953125 399.066406 L 135.953125 446.894531 L 195.738281 446.894531 L 195.738281 470.808594 L 123.996094 470.808594 C 117.367188 470.808594 112.039062 465.4375 112.039062 458.851562 L 112.039062 387.109375 C 112.039062 380.476562 117.367188 375.152344 123.996094 375.152344 L 189.339844 375.152344 L 209.703125 344.605469 C 211.898438 341.289062 215.636719 339.28125 219.652344 339.28125 L 338.195312 339.28125 L 408.910156 326.996094 C 415.214844 325.921875 421.289062 329.984375 422.640625 336.292969 L 458.511719 504.15625 L 435.160156 509.152344 " fill-opacity="1" fill-rule="nonzero"/><path fill="#f58634" d="M 245.015625 184.914062 L 295.550781 284.167969 C 298.261719 289.492188 305.453125 292.433594 312.367188 291.125 L 387.9375 276.132812 C 394.710938 274.777344 399.429688 269.59375 398.960938 264.035156 L 388.734375 145.445312 Z M 308.863281 315.367188 C 294.246094 315.367188 280.699219 307.660156 274.253906 295.003906 L 217.085938 182.71875 C 215.449219 179.496094 215.355469 175.714844 216.804688 172.445312 C 218.253906 169.175781 221.101562 166.699219 224.558594 165.765625 L 396.253906 118.589844 C 399.660156 117.609375 403.351562 118.261719 406.246094 120.273438 C 409.191406 122.328125 411.058594 125.550781 411.339844 129.054688 L 422.78125 261.980469 C 424.324219 279.683594 411.339844 295.84375 392.609375 299.578125 L 316.992188 314.574219 C 314.28125 315.132812 311.527344 315.367188 308.863281 315.367188 " fill-opacity="1" fill-rule="nonzero"/><path fill="#f58634" d="M 207.695312 602.332031 L 123.996094 602.332031 C 120.261719 602.332031 116.757812 600.605469 114.46875 597.617188 C 112.226562 594.675781 111.480469 590.796875 112.460938 587.246094 L 148.332031 455.722656 L 171.40625 461.980469 L 139.644531 578.421875 L 198.542969 578.421875 L 232.03125 455.722656 C 233.433594 450.488281 238.148438 446.894531 243.566406 446.894531 L 267.480469 446.894531 L 267.480469 470.808594 L 252.675781 470.808594 L 219.234375 593.507812 C 217.785156 598.738281 213.066406 602.332031 207.695312 602.332031 " fill-opacity="1" fill-rule="nonzero"/><path fill="#f58634" d="M 327.265625 411.023438 C 327.265625 397.804688 316.570312 387.109375 303.351562 387.109375 C 290.132812 387.109375 279.4375 397.804688 279.4375 411.023438 C 279.4375 424.242188 290.132812 434.9375 303.351562 434.9375 C 316.570312 434.9375 327.265625 424.242188 327.265625 411.023438 " fill-opacity="1" fill-rule="nonzero"/><path fill="#f58634" d="M 296.71875 588.367188 L 260.847656 564.453125 C 256.644531 561.652344 254.636719 556.515625 255.851562 551.609375 L 291.722656 408.125 L 314.9375 413.917969 L 281.121094 549.226562 L 309.984375 568.472656 L 296.71875 588.367188 " fill-opacity="1" fill-rule="nonzero"/><g clip-path="url(#ee35cadd86)"><path fill="#f58634" d="M 99.476562 737.644531 L 76.777344 730.078125 L 124.605469 586.59375 L 147.304688 594.160156 L 99.476562 737.644531 " fill-opacity="1" fill-rule="nonzero"/></g><g clip-path="url(#a49f8ec140)"><path fill="#f58634" d="M 147.304688 737.644531 L 124.605469 730.078125 L 172.433594 586.59375 L 195.132812 594.160156 L 147.304688 737.644531 " fill-opacity="1" fill-rule="nonzero"/></g><path fill="#f58634" d="M 387.84375 343.71875 L 374.582031 291.59375 L 397.792969 285.707031 L 411.011719 337.832031 L 387.84375 343.71875 " fill-opacity="1" fill-rule="nonzero"/><path fill="#f58634" d="M 327.59375 353.945312 L 315.636719 303.082031 L 338.894531 297.617188 L 350.851562 348.480469 L 327.59375 353.945312 " fill-opacity="1" fill-rule="nonzero"/><path fill="#f58634" d="M 216.195312 180.476562 L 208.910156 154.507812 C 203.820312 136.292969 214.984375 117.515625 234.320312 111.726562 L 347.863281 77.957031 C 365.753906 72.585938 385.042969 79.917969 393.683594 95.378906 L 409.84375 124.242188 L 389.011719 135.917969 L 372.851562 107.054688 C 369.722656 101.496094 361.734375 98.738281 354.683594 100.84375 L 241.140625 134.65625 C 234.320312 136.667969 230.394531 142.457031 231.9375 148.0625 L 239.222656 174.03125 L 216.195312 180.476562 " fill-opacity="1" fill-rule="nonzero"/><path fill="#f58634" d="M 590.320312 446.894531 C 590.320312 453.480469 584.949219 458.851562 578.363281 458.851562 C 571.777344 458.851562 566.40625 453.480469 566.40625 446.894531 C 566.40625 440.261719 571.777344 434.9375 578.363281 434.9375 C 584.949219 434.9375 590.320312 440.261719 590.320312 446.894531 " fill-opacity="1" fill-rule="nonzero"/><path fill="#f58634" d="M 662.0625 446.894531 C 662.0625 453.480469 656.691406 458.851562 650.105469 458.851562 C 643.519531 458.851562 638.148438 453.480469 638.148438 446.894531 C 638.148438 440.261719 643.519531 434.9375 650.105469 434.9375 C 656.691406 434.9375 662.0625 440.261719 662.0625 446.894531 " fill-opacity="1" fill-rule="nonzero"/><path fill="#f58634" d="M 626.191406 422.980469 C 626.191406 429.566406 620.820312 434.9375 614.234375 434.9375 C 607.648438 434.9375 602.277344 429.566406 602.277344 422.980469 C 602.277344 416.347656 607.648438 411.023438 614.234375 411.023438 C 620.820312 411.023438 626.191406 416.347656 626.191406 422.980469 " fill-opacity="1" fill-rule="nonzero"/><path fill="#f58634" d="M 662.0625 399.066406 C 662.0625 405.652344 656.691406 411.023438 650.105469 411.023438 C 643.519531 411.023438 638.148438 405.652344 638.148438 399.066406 C 638.148438 392.433594 643.519531 387.109375 650.105469 387.109375 C 656.691406 387.109375 662.0625 392.433594 662.0625 399.066406 " fill-opacity="1" fill-rule="nonzero"/><path fill="#f58634" d="M 662.0625 494.722656 C 662.0625 501.308594 656.691406 506.679688 650.105469 506.679688 C 643.519531 506.679688 638.148438 501.308594 638.148438 494.722656 C 638.148438 488.089844 643.519531 482.765625 650.105469 482.765625 C 656.691406 482.765625 662.0625 488.089844 662.0625 494.722656 " fill-opacity="1" fill-rule="nonzero"/><g clip-path="url(#79dad94224)"><path fill="#f58634" d="M 733.804688 446.894531 C 733.804688 453.480469 728.433594 458.851562 721.847656 458.851562 C 715.261719 458.851562 709.890625 453.480469 709.890625 446.894531 C 709.890625 440.261719 715.261719 434.9375 721.847656 434.9375 C 728.433594 434.9375 733.804688 440.261719 733.804688 446.894531 " fill-opacity="1" fill-rule="nonzero"/></g><g clip-path="url(#57ef95897e)"><path fill="#f58634" d="M 733.804688 399.066406 C 733.804688 405.652344 728.433594 411.023438 721.847656 411.023438 C 715.261719 411.023438 709.890625 405.652344 709.890625 399.066406 C 709.890625 392.433594 715.261719 387.109375 721.847656 387.109375 C 728.433594 387.109375 733.804688 392.433594 733.804688 399.066406 " fill-opacity="1" fill-rule="nonzero"/></g><g clip-path="url(#ee5a384e9f)"><path fill="#f58634" d="M 733.804688 351.238281 C 733.804688 357.824219 728.433594 363.195312 721.847656 363.195312 C 715.261719 363.195312 709.890625 357.824219 709.890625 351.238281 C 709.890625 344.605469 715.261719 339.28125 721.847656 339.28125 C 728.433594 339.28125 733.804688 344.605469 733.804688 351.238281 " fill-opacity="1" fill-rule="nonzero"/></g><g clip-path="url(#d860af6248)"><path fill="#f58634" d="M 733.804688 542.550781 C 733.804688 549.136719 728.433594 554.507812 721.847656 554.507812 C 715.261719 554.507812 709.890625 549.136719 709.890625 542.550781 C 709.890625 535.917969 715.261719 530.59375 721.847656 530.59375 C 728.433594 530.59375 733.804688 535.917969 733.804688 542.550781 " fill-opacity="1" fill-rule="nonzero"/></g><g clip-path="url(#1c3e8bb6ee)"><path fill="#f58634" d="M 733.804688 494.722656 C 733.804688 501.308594 728.433594 506.679688 721.847656 506.679688 C 715.261719 506.679688 709.890625 501.308594 709.890625 494.722656 C 709.890625 488.089844 715.261719 482.765625 721.847656 482.765625 C 728.433594 482.765625 733.804688 488.089844 733.804688 494.722656 " fill-opacity="1" fill-rule="nonzero"/></g><path fill="#f58634" d="M 626.191406 470.808594 C 626.191406 477.394531 620.820312 482.765625 614.234375 482.765625 C 607.648438 482.765625 602.277344 477.394531 602.277344 470.808594 C 602.277344 464.175781 607.648438 458.851562 614.234375 458.851562 C 620.820312 458.851562 626.191406 464.175781 626.191406 470.808594 " fill-opacity="1" fill-rule="nonzero"/><path fill="#f58634" d="M 697.933594 422.980469 C 697.933594 429.566406 692.5625 434.9375 685.976562 434.9375 C 679.390625 434.9375 674.019531 429.566406 674.019531 422.980469 C 674.019531 416.347656 679.390625 411.023438 685.976562 411.023438 C 692.5625 411.023438 697.933594 416.347656 697.933594 422.980469 " fill-opacity="1" fill-rule="nonzero"/><path fill="#f58634" d="M 697.933594 375.152344 C 697.933594 381.738281 692.5625 387.109375 685.976562 387.109375 C 679.390625 387.109375 674.019531 381.738281 674.019531 375.152344 C 674.019531 368.519531 679.390625 363.195312 685.976562 363.195312 C 692.5625 363.195312 697.933594 368.519531 697.933594 375.152344 " fill-opacity="1" fill-rule="nonzero"/><path fill="#f58634" d="M 697.933594 470.808594 C 697.933594 477.394531 692.5625 482.765625 685.976562 482.765625 C 679.390625 482.765625 674.019531 477.394531 674.019531 470.808594 C 674.019531 464.175781 679.390625 458.851562 685.976562 458.851562 C 692.5625 458.851562 697.933594 464.175781 697.933594 470.808594 " fill-opacity="1" fill-rule="nonzero"/><path fill="#f58634" d="M 697.933594 518.636719 C 697.933594 525.222656 692.5625 530.59375 685.976562 530.59375 C 679.390625 530.59375 674.019531 525.222656 674.019531 518.636719 C 674.019531 512.003906 679.390625 506.679688 685.976562 506.679688 C 692.5625 506.679688 697.933594 512.003906 697.933594 518.636719 " fill-opacity="1" fill-rule="nonzero"/></svg>