<svg xmlns="http://www.w3.org/2000/svg" xmlns:xlink="http://www.w3.org/1999/xlink" width="1080" zoomAndPan="magnify" viewBox="0 0 810 809.999993" height="1080" preserveAspectRatio="xMidYMid meet" version="1.0"><defs><clipPath id="54431999a3"><path d="M 88.203125 88.203125 L 584 88.203125 L 584 584 L 88.203125 584 Z M 88.203125 88.203125 " clip-rule="nonzero"/></clipPath><clipPath id="18bc280c8c"><path d="M 634 634 L 721.953125 634 L 721.953125 721.953125 L 634 721.953125 Z M 634 634 " clip-rule="nonzero"/></clipPath></defs><path fill="#00bc46" d="M 335.699219 553.472656 C 277.527344 553.472656 222.832031 530.824219 181.699219 489.691406 C 140.554688 448.554688 117.902344 393.871094 117.902344 335.6875 C 117.894531 277.507812 140.554688 222.820312 181.6875 181.6875 C 222.832031 140.554688 277.519531 117.902344 335.699219 117.902344 C 393.878906 117.902344 448.566406 140.554688 489.710938 181.6875 C 574.621094 266.597656 574.621094 404.769531 489.710938 489.679688 C 448.566406 530.824219 393.878906 553.472656 335.699219 553.472656 Z M 335.699219 137.703125 C 282.804688 137.703125 233.085938 158.292969 195.6875 195.6875 C 158.292969 233.078125 137.703125 282.792969 137.703125 335.6875 C 137.703125 388.582031 158.292969 438.300781 195.695312 475.691406 C 233.085938 513.082031 282.8125 533.675781 335.699219 533.675781 C 388.59375 533.675781 438.308594 513.082031 475.710938 475.691406 C 552.910156 398.492188 552.910156 272.894531 475.710938 195.695312 C 438.308594 158.292969 388.59375 137.703125 335.699219 137.703125 Z M 335.699219 137.703125 " fill-opacity="1" fill-rule="nonzero"/><g clip-path="url(#54431999a3)"><path fill="#00bc46" d="M 335.699219 583.183594 C 199.230469 583.164062 88.203125 472.128906 88.203125 335.679688 C 88.203125 199.21875 199.210938 88.203125 335.648438 88.203125 C 472.15625 88.203125 583.183594 199.230469 583.183594 335.699219 C 583.183594 472.15625 472.15625 583.183594 335.699219 583.183594 Z M 335.6875 108.003906 C 210.121094 108.003906 108.003906 210.128906 108.003906 335.679688 C 108.003906 461.21875 210.140625 563.363281 335.699219 563.382812 C 461.246094 563.382812 563.382812 461.246094 563.382812 335.699219 C 563.382812 210.140625 461.246094 108.003906 335.6875 108.003906 Z M 335.6875 108.003906 " fill-opacity="1" fill-rule="nonzero"/></g><path fill="#00bc46" d="M 543.652344 581.550781 C 541.121094 581.550781 538.585938 580.578125 536.65625 578.648438 L 482.125 524.101562 C 478.253906 520.230469 478.253906 513.972656 482.125 510.101562 C 485.996094 506.230469 492.253906 506.230469 496.125 510.101562 L 550.652344 564.652344 C 554.523438 568.523438 554.523438 574.777344 550.652344 578.648438 C 548.722656 580.578125 546.1875 581.550781 543.652344 581.550781 Z M 543.652344 581.550781 " fill-opacity="1" fill-rule="nonzero"/><path fill="#00bc46" d="M 571.648438 553.554688 C 569.117188 553.554688 566.582031 552.582031 564.652344 550.652344 L 510.0625 496.046875 C 506.191406 492.175781 506.191406 485.917969 510.0625 482.046875 C 513.933594 478.175781 520.191406 478.175781 524.0625 482.046875 L 578.648438 536.65625 C 582.519531 540.523438 582.519531 546.78125 578.648438 550.652344 C 576.71875 552.582031 574.183594 553.554688 571.648438 553.554688 Z M 571.648438 553.554688 " fill-opacity="1" fill-rule="nonzero"/><path fill="#00bc46" d="M 529.65625 595.546875 C 527.121094 595.546875 524.585938 594.578125 522.65625 592.648438 C 518.785156 588.777344 518.785156 582.519531 522.65625 578.648438 L 578.648438 522.636719 C 582.519531 518.765625 588.777344 518.765625 592.648438 522.636719 C 596.519531 526.507812 596.519531 532.765625 592.648438 536.632812 L 536.65625 592.648438 C 534.722656 594.578125 532.191406 595.546875 529.65625 595.546875 Z M 529.65625 595.546875 " fill-opacity="1" fill-rule="nonzero"/><path fill="#00bc46" d="M 644.292969 710.1875 C 641.761719 710.1875 639.226562 709.21875 637.296875 707.285156 L 522.65625 592.648438 C 518.785156 588.777344 518.785156 582.519531 522.65625 578.648438 C 526.527344 574.777344 532.785156 574.777344 536.65625 578.648438 L 651.292969 693.289062 C 655.164062 697.160156 655.164062 703.417969 651.292969 707.285156 C 649.363281 709.21875 646.828125 710.1875 644.292969 710.1875 Z M 644.292969 710.1875 " fill-opacity="1" fill-rule="nonzero"/><path fill="#00bc46" d="M 700.289062 654.195312 C 697.753906 654.195312 695.21875 653.222656 693.289062 651.292969 L 578.648438 536.632812 C 574.777344 532.765625 574.777344 526.507812 578.648438 522.636719 C 582.519531 518.765625 588.777344 518.765625 592.648438 522.636719 L 707.285156 637.296875 C 711.15625 641.167969 711.15625 647.421875 707.285156 651.292969 C 705.355469 653.222656 702.820312 654.195312 700.289062 654.195312 Z M 700.289062 654.195312 " fill-opacity="1" fill-rule="nonzero"/><g clip-path="url(#18bc280c8c)"><path fill="#00bc46" d="M 672.300781 721.789062 C 659.074219 721.789062 646.640625 716.632812 637.296875 707.285156 C 633.425781 703.417969 633.425781 697.160156 637.296875 693.289062 C 641.167969 689.417969 647.421875 689.417969 651.292969 693.289062 C 662.511719 704.496094 682.082031 704.535156 693.277344 693.289062 C 698.890625 687.683594 701.992188 680.222656 701.992188 672.28125 C 701.992188 664.351562 698.902344 656.898438 693.289062 651.304688 C 689.417969 647.433594 689.417969 641.175781 693.277344 637.296875 C 697.148438 633.425781 703.417969 633.433594 707.285156 637.285156 C 716.632812 646.632812 721.789062 659.054688 721.789062 672.28125 C 721.789062 685.507812 716.632812 697.941406 707.285156 707.285156 C 697.953125 716.632812 685.527344 721.789062 672.300781 721.789062 Z M 672.300781 721.789062 " fill-opacity="1" fill-rule="nonzero"/></g><path fill="#00bc46" d="M 404.671875 395.167969 L 266.152344 395.167969 C 260.679688 395.167969 256.253906 390.742188 256.253906 385.265625 L 256.253906 355.566406 C 256.253906 350.09375 260.679688 345.667969 266.152344 345.667969 L 404.671875 345.667969 C 410.144531 345.667969 414.570312 350.09375 414.570312 355.566406 L 414.570312 385.265625 C 414.570312 390.742188 410.144531 395.167969 404.671875 395.167969 Z M 276.050781 375.367188 L 394.769531 375.367188 L 394.769531 365.46875 L 276.050781 365.46875 Z M 276.050781 375.367188 " fill-opacity="1" fill-rule="nonzero"/><path fill="#00bc46" d="M 374.953125 484.226562 L 295.890625 484.226562 C 291.25 484.226562 287.238281 481.007812 286.21875 476.472656 L 266.398438 387.414062 C 265.757812 384.484375 266.46875 381.425781 268.339844 379.070312 C 270.210938 376.734375 273.0625 375.367188 276.0625 375.367188 L 394.761719 375.367188 C 397.769531 375.367188 400.613281 376.734375 402.484375 379.070312 C 404.355469 381.414062 405.078125 384.484375 404.421875 387.414062 L 384.605469 476.472656 C 383.605469 481.007812 379.59375 484.226562 374.953125 484.226562 Z M 303.820312 464.425781 L 367.011719 464.425781 L 382.425781 395.167969 L 288.417969 395.167969 Z M 303.820312 464.425781 " fill-opacity="1" fill-rule="nonzero"/><path fill="#00bc46" d="M 335.511719 365.46875 C 330.035156 365.46875 325.609375 361.042969 325.609375 355.566406 L 325.609375 266.480469 C 325.609375 261.003906 330.035156 256.578125 335.511719 256.578125 C 340.984375 256.578125 345.410156 261.003906 345.410156 266.480469 L 345.410156 355.566406 C 345.410156 361.042969 340.984375 365.46875 335.511719 365.46875 Z M 335.511719 365.46875 " fill-opacity="1" fill-rule="nonzero"/><path fill="#00bc46" d="M 335.519531 276.390625 C 308.226562 276.390625 286.023438 254.183594 286.023438 226.890625 C 286.023438 199.597656 308.226562 177.390625 335.519531 177.390625 C 362.8125 177.390625 385.019531 199.597656 385.019531 226.890625 C 385.019531 254.183594 362.8125 276.390625 335.519531 276.390625 Z M 335.519531 197.191406 C 319.144531 197.191406 305.820312 210.515625 305.820312 226.890625 C 305.820312 243.265625 319.144531 256.589844 335.519531 256.589844 C 351.894531 256.589844 365.21875 243.265625 365.21875 226.890625 C 365.21875 210.515625 351.90625 197.191406 335.519531 197.191406 Z M 335.519531 197.191406 " fill-opacity="1" fill-rule="nonzero"/><path fill="#00bc46" d="M 335.808594 236.78125 C 330.332031 236.78125 325.859375 232.355469 325.859375 226.878906 C 325.859375 221.40625 330.234375 216.980469 335.699219 216.980469 L 335.808594 216.980469 C 341.273438 216.980469 345.707031 221.40625 345.707031 226.878906 C 345.707031 232.355469 341.273438 236.78125 335.808594 236.78125 Z M 335.808594 236.78125 " fill-opacity="1" fill-rule="nonzero"/><path fill="#00bc46" d="M 335.519531 365.457031 C 330.046875 365.457031 325.621094 361.03125 325.621094 355.558594 C 325.621094 311.859375 361.179688 276.300781 404.878906 276.300781 C 410.351562 276.300781 414.777344 280.726562 414.777344 286.199219 C 414.777344 291.675781 410.351562 296.101562 404.878906 296.101562 C 372.089844 296.101562 345.421875 322.769531 345.421875 355.558594 C 345.421875 361.03125 340.996094 365.457031 335.519531 365.457031 Z M 335.519531 365.457031 " fill-opacity="1" fill-rule="nonzero"/><path fill="#00bc46" d="M 335.519531 365.457031 C 330.046875 365.457031 325.621094 361.03125 325.621094 355.558594 C 325.621094 350.082031 330.046875 345.65625 335.519531 345.65625 C 368.308594 345.65625 394.980469 318.988281 394.980469 286.199219 C 394.980469 280.726562 399.402344 276.300781 404.878906 276.300781 C 410.351562 276.300781 414.777344 280.726562 414.777344 286.199219 C 414.777344 329.898438 379.21875 365.457031 335.519531 365.457031 Z M 335.519531 365.457031 " fill-opacity="1" fill-rule="nonzero"/><path fill="#00bc46" d="M 335.511719 365.46875 C 330.035156 365.46875 325.609375 361.042969 325.609375 355.566406 C 325.609375 322.78125 298.941406 296.109375 266.152344 296.109375 C 260.679688 296.109375 256.253906 291.683594 256.253906 286.210938 C 256.253906 280.734375 260.679688 276.308594 266.152344 276.308594 C 309.851562 276.308594 345.410156 311.871094 345.410156 355.566406 C 345.410156 361.042969 340.984375 365.46875 335.511719 365.46875 Z M 335.511719 365.46875 " fill-opacity="1" fill-rule="nonzero"/><path fill="#00bc46" d="M 335.511719 365.46875 C 291.8125 365.46875 256.253906 329.90625 256.253906 286.210938 C 256.253906 280.734375 260.679688 276.308594 266.152344 276.308594 C 271.628906 276.308594 276.050781 280.734375 276.050781 286.210938 C 276.050781 318.996094 302.722656 345.667969 335.511719 345.667969 C 340.984375 345.667969 345.410156 350.09375 345.410156 355.566406 C 345.410156 361.042969 340.984375 365.46875 335.511719 365.46875 Z M 335.511719 365.46875 " fill-opacity="1" fill-rule="nonzero"/></svg>