<svg xmlns="http://www.w3.org/2000/svg" xmlns:xlink="http://www.w3.org/1999/xlink" width="1080" zoomAndPan="magnify" viewBox="0 0 810 809.999993" height="1080" preserveAspectRatio="xMidYMid meet" version="1.0"><defs><clipPath id="7ade1780cd"><path d="M 137 314 L 673 314 L 673 754.609375 L 137 754.609375 Z M 137 314 " clip-rule="nonzero"/></clipPath><clipPath id="311e6a10e7"><path d="M 41.527344 428 L 161 428 L 161 640 L 41.527344 640 Z M 41.527344 428 " clip-rule="nonzero"/></clipPath><clipPath id="b671c2f409"><path d="M 649 428 L 768.277344 428 L 768.277344 640 L 649 640 Z M 649 428 " clip-rule="nonzero"/></clipPath><clipPath id="bda8fe4a84"><path d="M 324 55.613281 L 759 55.613281 L 759 462 L 324 462 Z M 324 55.613281 " clip-rule="nonzero"/></clipPath></defs><g clip-path="url(#7ade1780cd)"><path fill="#00bc46" d="M 554.234375 754.253906 L 255.761719 754.253906 C 190.820312 754.253906 137.988281 701.421875 137.988281 636.480469 L 137.988281 431.953125 C 137.988281 367.015625 190.820312 314.183594 255.761719 314.183594 L 337.632812 314.183594 C 342.871094 314.183594 347.433594 317.765625 348.671875 322.859375 C 353.179688 341.425781 370.289062 354.902344 389.347656 354.902344 L 421.175781 354.90625 C 424.1875 354.90625 427.078125 356.097656 429.207031 358.238281 C 431.332031 360.367188 432.53125 363.257812 432.53125 366.269531 L 432.511719 425.953125 L 516.636719 357.457031 C 518.660156 355.804688 521.199219 354.90625 523.808594 354.90625 L 637.804688 354.90625 C 641.285156 354.90625 644.574219 356.496094 646.726562 359.222656 C 663.269531 380.191406 672.011719 405.339844 672.011719 431.949219 L 672.011719 636.464844 C 672.011719 701.421875 619.179688 754.25 554.238281 754.25 Z M 255.761719 336.90625 C 203.351562 336.90625 160.703125 379.542969 160.703125 431.960938 L 160.703125 636.480469 C 160.703125 688.890625 203.34375 731.535156 255.761719 731.535156 L 554.234375 731.535156 C 606.648438 731.535156 649.292969 688.890625 649.292969 636.480469 L 649.292969 431.953125 C 649.292969 412.304688 643.367188 393.628906 632.109375 377.621094 L 527.847656 377.621094 L 428.3125 458.664062 C 424.917969 461.433594 420.226562 461.980469 416.269531 460.113281 C 412.304688 458.230469 409.785156 454.234375 409.785156 449.847656 L 409.808594 377.625 L 389.347656 377.628906 C 362.53125 377.628906 339.003906 361.269531 329.351562 336.90625 Z M 255.761719 336.90625 " fill-opacity="1" fill-rule="evenodd"/></g><g clip-path="url(#311e6a10e7)"><path fill="#00bc46" d="M 149.347656 639.527344 L 106.109375 639.527344 C 70.503906 639.527344 41.542969 610.566406 41.542969 574.960938 L 41.542969 493.484375 C 41.542969 457.875 70.503906 428.914062 106.109375 428.914062 L 149.347656 428.914062 C 155.625 428.914062 160.703125 433.996094 160.703125 440.273438 L 160.703125 628.175781 C 160.703125 634.445312 155.625 639.527344 149.347656 639.527344 Z M 106.113281 451.628906 C 83.039062 451.628906 64.265625 470.40625 64.265625 493.484375 L 64.265625 574.957031 C 64.265625 598.035156 83.039062 616.808594 106.113281 616.808594 L 137.996094 616.8125 L 137.996094 451.628906 Z M 106.113281 451.628906 " fill-opacity="1" fill-rule="evenodd"/></g><g clip-path="url(#b671c2f409)"><path fill="#00bc46" d="M 703.882812 639.527344 L 660.644531 639.527344 C 654.367188 639.527344 649.289062 634.445312 649.289062 628.167969 L 649.289062 440.273438 C 649.289062 433.996094 654.367188 428.914062 660.644531 428.914062 L 703.882812 428.914062 C 739.488281 428.914062 768.449219 457.875 768.449219 493.484375 L 768.449219 574.957031 C 768.449219 610.566406 739.488281 639.527344 703.882812 639.527344 Z M 672.007812 616.8125 L 703.886719 616.8125 C 726.960938 616.8125 745.738281 598.035156 745.738281 574.960938 L 745.742188 493.484375 C 745.742188 470.40625 726.964844 451.628906 703.890625 451.628906 L 672.007812 451.628906 Z M 672.007812 616.8125 " fill-opacity="1" fill-rule="evenodd"/></g><path fill="#00bc46" d="M 298.585938 528.46875 C 292.308594 528.46875 287.226562 523.386719 287.226562 517.109375 L 287.226562 464.121094 C 287.226562 457.84375 292.308594 452.761719 298.585938 452.761719 C 304.859375 452.761719 309.941406 457.84375 309.941406 464.121094 L 309.941406 517.109375 C 309.941406 523.378906 304.855469 528.46875 298.585938 528.46875 Z M 298.585938 528.46875 " fill-opacity="1" fill-rule="evenodd"/><path fill="#00bc46" d="M 511.414062 528.140625 C 505.136719 528.140625 500.054688 523.058594 500.054688 516.785156 L 500.054688 464.445312 C 500.054688 458.167969 505.136719 453.085938 511.414062 453.085938 C 517.691406 453.085938 522.773438 458.167969 522.773438 464.445312 L 522.773438 516.789062 C 522.773438 523.0625 517.691406 528.140625 511.414062 528.140625 Z M 511.414062 528.140625 " fill-opacity="1" fill-rule="evenodd"/><path fill="#00bc46" d="M 460.699219 615.675781 L 349.296875 615.675781 C 343.023438 615.675781 337.941406 610.59375 337.941406 604.316406 C 337.941406 598.039062 343.023438 592.960938 349.296875 592.960938 L 460.699219 592.960938 C 466.976562 592.960938 472.058594 598.039062 472.058594 604.316406 C 472.058594 610.59375 466.976562 615.675781 460.699219 615.675781 Z M 460.699219 615.675781 " fill-opacity="1" fill-rule="evenodd"/><g clip-path="url(#bda8fe4a84)"><path fill="#00bc46" d="M 421.140625 461.210938 C 419.484375 461.210938 417.816406 460.84375 416.269531 460.109375 C 412.304688 458.230469 409.785156 454.230469 409.785156 449.847656 L 409.808594 377.625 L 389.347656 377.625 C 353.746094 377.625 324.785156 348.664062 324.785156 313.058594 L 324.785156 120.175781 C 324.785156 84.570312 353.746094 55.609375 389.347656 55.609375 L 693.636719 55.605469 C 729.242188 55.605469 758.199219 84.570312 758.199219 120.171875 L 758.199219 313.054688 C 758.199219 348.664062 729.238281 377.625 693.636719 377.625 L 527.847656 377.625 L 428.3125 458.664062 C 426.253906 460.34375 423.710938 461.210938 421.140625 461.210938 Z M 389.347656 78.320312 C 366.269531 78.320312 347.5 97.097656 347.5 120.175781 L 347.5 313.054688 C 347.5 336.132812 366.269531 354.910156 389.347656 354.910156 L 421.171875 354.910156 C 424.1875 354.910156 427.078125 356.105469 429.199219 358.242188 C 431.332031 360.371094 432.53125 363.265625 432.53125 366.277344 L 432.511719 425.957031 L 516.636719 357.460938 C 518.660156 355.8125 521.199219 354.914062 523.808594 354.914062 L 693.636719 354.910156 C 716.707031 354.910156 735.484375 336.132812 735.484375 313.058594 L 735.484375 120.175781 C 735.484375 97.101562 716.707031 78.324219 693.636719 78.324219 Z M 389.347656 78.320312 " fill-opacity="1" fill-rule="evenodd"/></g><path fill="#00bc46" d="M 432.578125 257.90625 C 409.808594 257.90625 391.292969 239.386719 391.292969 216.625 C 391.292969 193.855469 409.816406 175.339844 432.578125 175.339844 C 455.339844 175.339844 473.863281 193.859375 473.863281 216.625 C 473.867188 239.386719 455.347656 257.90625 432.578125 257.90625 Z M 432.578125 198.046875 C 422.339844 198.046875 414.003906 206.382812 414.003906 216.625 C 414.003906 226.863281 422.332031 235.191406 432.578125 235.191406 C 442.824219 235.191406 451.152344 226.863281 451.152344 216.625 C 451.152344 206.382812 442.824219 198.046875 432.578125 198.046875 Z M 432.578125 198.046875 " fill-opacity="1" fill-rule="evenodd"/><path fill="#00bc46" d="M 541.488281 257.90625 C 518.71875 257.90625 500.203125 239.386719 500.203125 216.625 C 500.203125 193.855469 518.726562 175.339844 541.488281 175.339844 C 564.25 175.339844 582.773438 193.859375 582.773438 216.625 C 582.777344 239.386719 564.257812 257.90625 541.488281 257.90625 Z M 541.488281 198.046875 C 531.25 198.046875 522.914062 206.382812 522.914062 216.625 C 522.914062 226.863281 531.242188 235.191406 541.488281 235.191406 C 551.734375 235.191406 560.0625 226.863281 560.0625 216.625 C 560.0625 206.382812 551.734375 198.046875 541.488281 198.046875 Z M 541.488281 198.046875 " fill-opacity="1" fill-rule="evenodd"/><path fill="#00bc46" d="M 650.402344 257.90625 C 627.632812 257.90625 609.117188 239.386719 609.117188 216.625 C 609.117188 193.855469 627.636719 175.339844 650.402344 175.339844 C 673.164062 175.339844 691.683594 193.859375 691.683594 216.625 C 691.691406 239.386719 673.171875 257.90625 650.402344 257.90625 Z M 650.402344 198.046875 C 640.160156 198.046875 631.824219 206.382812 631.824219 216.625 C 631.824219 226.863281 640.152344 235.191406 650.402344 235.191406 C 660.648438 235.191406 668.976562 226.863281 668.976562 216.625 C 668.976562 206.382812 660.644531 198.046875 650.402344 198.046875 Z M 650.402344 198.046875 " fill-opacity="1" fill-rule="evenodd"/><path fill="#00bc46" d="M 106.113281 451.628906 C 99.839844 451.628906 94.757812 446.546875 94.757812 440.273438 L 94.757812 289.214844 C 94.757812 282.9375 99.839844 277.855469 106.113281 277.855469 C 112.390625 277.855469 117.472656 282.9375 117.472656 289.214844 L 117.472656 440.273438 C 117.472656 446.542969 112.386719 451.628906 106.113281 451.628906 Z M 106.113281 451.628906 " fill-opacity="1" fill-rule="evenodd"/><path fill="#00bc46" d="M 106.113281 300.570312 C 73.835938 300.570312 47.574219 274.3125 47.574219 242.03125 C 47.574219 209.75 73.835938 183.492188 106.113281 183.492188 C 138.394531 183.492188 164.65625 209.75 164.65625 242.03125 C 164.65625 274.3125 138.390625 300.570312 106.113281 300.570312 Z M 106.113281 206.214844 C 86.363281 206.214844 70.289062 222.285156 70.289062 242.039062 C 70.289062 261.789062 86.363281 277.863281 106.113281 277.863281 C 125.867188 277.863281 141.9375 261.789062 141.9375 242.039062 C 141.9375 222.285156 125.867188 206.214844 106.113281 206.214844 Z M 106.113281 206.214844 " fill-opacity="1" fill-rule="evenodd"/></svg>