<svg xmlns="http://www.w3.org/2000/svg" xmlns:xlink="http://www.w3.org/1999/xlink" width="1080" zoomAndPan="magnify" viewBox="0 0 810 809.999993" height="1080" preserveAspectRatio="xMidYMid meet" version="1.0"><path fill="#00bc46" d="M 193.65625 138.628906 C 227.011719 136.960938 260.363281 136.050781 293.871094 136.503906 C 331.316406 137.871094 369.066406 139.234375 405.753906 147.570312 C 418.488281 188.808594 424.707031 231.714844 428.648438 274.464844 C 429.40625 287.65625 430.921875 300.84375 430.464844 314.035156 C 435.015625 314.339844 439.410156 313.730469 443.960938 313.277344 C 443.960938 273.101562 443.808594 232.925781 443.960938 192.75 C 453.054688 193.507812 462 193.660156 470.945312 192.75 L 472.007812 194.113281 C 472.308594 233.683594 471.703125 273.101562 472.308594 312.671875 C 502.328125 312.367188 532.195312 315.097656 561.910156 317.976562 C 599.660156 322.375 637.40625 327.226562 674.550781 335.261719 C 680.007812 336.777344 686.527344 337.382812 690.015625 342.386719 C 696.230469 350.722656 700.019531 360.425781 703.507812 370.128906 C 710.9375 392.566406 716.089844 415.761719 719.882812 439.109375 C 701.6875 432.894531 682.285156 429.253906 662.878906 431.378906 C 632.253906 433.652344 602.992188 448.207031 582.222656 470.492188 C 558.726562 495.050781 546.140625 529.164062 547.203125 562.972656 C 547.203125 571.460938 549.023438 579.953125 550.082031 588.441406 C 545.082031 588.894531 540.078125 589.65625 535.074219 590.109375 C 531.890625 579.496094 529.160156 568.582031 525.675781 558.121094 C 510.210938 558.121094 494.59375 558.121094 479.132812 558.121094 C 478.070312 567.824219 477.765625 577.675781 477.464844 587.378906 C 467.609375 589.199219 457.453125 588.289062 447.445312 588.894531 C 416.519531 589.957031 385.742188 590.867188 354.816406 591.171875 C 351.023438 581.769531 344.65625 572.976562 342.535156 563.273438 C 352.84375 526.132812 350.570312 485.652344 335.5625 450.175781 C 320.398438 413.640625 292.050781 382.710938 256.726562 364.671875 C 221.703125 346.480469 180.011719 341.777344 141.503906 351.179688 C 110.882812 358.757812 82.378906 374.980469 60.699219 398.023438 C 58.878906 399.996094 56.757812 401.816406 54.636719 403.484375 C 48.269531 398.175781 41.75 393.171875 35.382812 387.714844 C 50.996094 363.457031 76.316406 347.539062 102.089844 335.867188 C 113.761719 330.257812 126.34375 327.074219 138.472656 322.375 C 138.472656 268.25 143.476562 214.277344 153.632812 161.214844 C 149.085938 155.304688 144.539062 149.542969 139.839844 143.628906 C 157.425781 140.296875 175.769531 140.296875 193.65625 138.628906 Z M 153.785156 317.523438 C 166.976562 315.246094 180.316406 313.730469 193.65625 313.582031 C 192.898438 284.015625 185.015625 255.363281 177.738281 226.863281 C 177.132812 224.285156 176.527344 221.554688 176.980469 218.976562 C 181.832031 218.976562 186.683594 218.675781 191.382812 218.675781 C 194.871094 222.921875 198.207031 227.46875 199.417969 232.925781 C 205.027344 252.484375 211.546875 271.890625 217.003906 291.597656 C 229.132812 292.960938 241.414062 291.902344 253.542969 292.660156 C 263.699219 294.628906 267.339844 306.304688 266.429688 315.246094 C 259.453125 320.097656 250.8125 318.28125 242.929688 318.582031 C 253.542969 321.464844 264.304688 324.34375 274.765625 328.132812 C 274.765625 275.679688 274.3125 223.375 274.160156 170.917969 C 274.160156 168.644531 274.007812 166.523438 273.707031 164.25 C 238.230469 164.398438 202.753906 164.25 167.277344 164.25 C 159.09375 214.886719 153.785156 266.28125 153.785156 317.523438 Z M 284.46875 164.398438 C 284.773438 219.28125 284.621094 274.164062 284.773438 329.042969 C 284.316406 332.226562 288.410156 332.984375 290.382812 334.652344 C 334.804688 359.667969 371.492188 400.300781 387.105469 449.265625 C 396.65625 449.570312 406.210938 449.417969 415.761719 449.417969 C 415.761719 444.566406 417.730469 439.109375 414.246094 435.015625 C 388.167969 397.113281 362.699219 358.910156 336.320312 321.3125 C 337.683594 319.339844 339.046875 317.523438 340.414062 315.550781 C 335.105469 308.578125 328.285156 302.816406 323.128906 295.691406 C 327.222656 291.902344 331.164062 287.957031 334.804688 283.714844 C 323.433594 292.507812 314.792969 304.636719 303.269531 313.125 C 301.90625 312.824219 299.328125 312.214844 297.960938 311.914062 C 297.960938 309.488281 296.902344 306.304688 299.328125 304.636719 C 313.882812 290.382812 329.195312 276.589844 343.746094 262.335938 C 346.023438 260.519531 348.144531 257.484375 351.480469 258.246094 C 354.359375 259.457031 356.179688 263.855469 353.300781 265.976562 C 347.839844 271.738281 341.929688 277.195312 335.863281 282.5 C 341.929688 289.171875 347.992188 295.691406 354.058594 302.210938 C 361.789062 295.691406 368.003906 287.503906 376.039062 281.441406 C 384.074219 277.800781 388.925781 286.441406 393.777344 290.992188 C 401.660156 298.570312 408.484375 307.363281 417.125 314.035156 C 413.941406 264.15625 407.269531 214.277344 396.050781 165.613281 C 384.53125 164.25 372.855469 164.855469 361.335938 164.550781 C 336.015625 164.703125 310.242188 164.25 284.46875 164.398438 Z M 527.644531 332.984375 C 530.527344 350.875 534.164062 368.765625 537.804688 386.503906 C 543.5625 386.957031 549.324219 387.714844 555.085938 388.320312 C 552.207031 370.585938 549.324219 352.847656 546.292969 335.109375 C 540.078125 333.742188 533.859375 333.59375 527.644531 332.984375 Z M 575.25 338.292969 C 577.980469 354.96875 581.464844 371.644531 583.890625 388.472656 C 589.957031 389.988281 596.171875 391.203125 602.386719 392.414062 C 600.417969 374.828125 596.929688 357.546875 594.351562 340.113281 C 587.832031 339.503906 581.464844 338.898438 575.25 338.292969 Z M 621.640625 344.355469 C 623.613281 359.667969 627.097656 374.980469 629.222656 390.292969 C 629.828125 392.265625 629.523438 395.902344 632.253906 396.207031 C 653.78125 401.664062 675.15625 407.574219 696.6875 412.730469 C 694.109375 392.871094 687.742188 373.464844 677.886719 356.03125 C 659.238281 351.9375 640.441406 347.84375 621.640625 344.355469 Z M 621.640625 344.355469 " fill-opacity="1" fill-rule="nonzero"/><path fill="#00bc46" d="M 453.207031 154.699219 C 456.390625 154.699219 459.421875 154.699219 462.605469 154.699219 C 462.757812 167.433594 462.605469 180.015625 462.605469 192.75 C 459.421875 192.75 456.390625 192.75 453.207031 192.75 C 453.207031 180.167969 453.207031 167.433594 453.207031 154.699219 Z M 453.207031 154.699219 " fill-opacity="1" fill-rule="nonzero"/><path fill="#00bc46" d="M 153.785156 357.242188 C 171.070312 354.363281 188.804688 353.453125 206.242188 356.484375 C 207.152344 358.605469 208.210938 360.882812 209.273438 363.003906 C 214.882812 364.214844 220.492188 365.734375 226.101562 366.792969 C 225.496094 369.976562 225.039062 373.011719 224.433594 376.195312 C 227.464844 371.949219 229.132812 366.1875 233.53125 363.003906 C 251.875 368.765625 268.550781 378.769531 283.257812 390.746094 C 287.046875 393.171875 283.710938 397.570312 283.558594 400.90625 C 287.652344 405.300781 291.898438 409.699219 295.992188 414.09375 C 293.414062 416.519531 290.988281 418.945312 288.410156 421.371094 C 293.871094 418.492188 299.480469 415.914062 305.089844 413.335938 C 315.246094 425.464844 323.28125 439.414062 329.042969 454.117188 C 331.011719 458.515625 324.191406 460.636719 324.796875 464.882812 C 326.160156 470.339844 328.585938 475.648438 329.496094 481.257812 C 326.3125 482.164062 323.28125 483.226562 320.25 484.289062 C 326.011719 484.136719 331.769531 484.289062 337.53125 484.289062 C 341.472656 501.875 341.171875 520.066406 338.746094 537.804688 C 336.320312 539.320312 332.832031 539.925781 331.46875 542.503906 C 330.253906 547.8125 329.496094 553.421875 328.585938 558.726562 C 325.707031 558.421875 322.976562 557.96875 320.097656 557.664062 C 323.886719 560.394531 327.980469 562.667969 332.074219 564.941406 C 328.132812 578.132812 321.765625 590.5625 314.183594 602.085938 C 310.546875 601.78125 306.90625 601.328125 303.117188 601.175781 C 298.570312 605.117188 295.386719 610.574219 291.59375 615.125 C 288.714844 612.851562 285.835938 610.574219 283.257812 608 C 287.046875 614.214844 291.140625 620.128906 294.324219 626.644531 C 282.042969 638.773438 268.097656 649.386719 252.480469 656.664062 C 249.296875 654.238281 245.960938 651.8125 242.777344 649.539062 C 237.167969 651.660156 231.710938 653.933594 226.101562 656.058594 C 224.890625 653.785156 223.828125 651.359375 222.464844 649.082031 C 222.464844 655.453125 223.222656 661.820312 222.917969 668.1875 C 209.273438 670.914062 195.175781 673.945312 181.226562 672.128906 C 178.648438 669.398438 177.738281 665.304688 175.617188 662.273438 C 169.855469 660.757812 163.792969 661.363281 157.878906 660.453125 C 157.878906 657.875 157.726562 655.300781 157.574219 652.570312 C 154.695312 658.179688 152.875 664.246094 149.390625 669.398438 C 137.109375 665.910156 124.828125 661.96875 113.457031 656.210938 C 113.15625 652.265625 113.761719 648.023438 112.398438 644.230469 C 107.847656 640.898438 102.695312 638.320312 97.84375 635.4375 C 99.207031 632.253906 101.027344 629.222656 102.996094 626.191406 C 97.691406 630.585938 92.6875 635.4375 87.230469 639.382812 C 77.832031 631.496094 68.886719 623.007812 61.304688 613.304688 C 62.820312 610.121094 64.488281 606.9375 65.550781 603.601562 C 63.429688 597.992188 59.03125 593.445312 56 588.289062 C 58.121094 586.46875 60.246094 584.804688 62.214844 582.984375 C 56.453125 584.195312 50.695312 585.863281 45.085938 587.53125 C 38.109375 576.160156 34.320312 563.273438 30.683594 550.691406 C 33.5625 548.113281 36.59375 545.535156 39.476562 543.113281 C 39.019531 536.894531 38.109375 530.679688 37.351562 524.464844 C 40.082031 524.160156 42.808594 523.855469 45.539062 523.707031 C 39.476562 521.734375 33.109375 520.671875 26.738281 519.765625 C 25.832031 506.574219 27.5 493.535156 29.621094 480.5 C 33.5625 479.4375 37.65625 478.679688 41.597656 477.464844 C 44.78125 472.3125 45.539062 465.945312 47.511719 460.335938 C 50.085938 460.941406 52.511719 461.394531 55.089844 462.003906 C 50.390625 457.605469 45.234375 453.664062 39.777344 450.175781 C 44.476562 435.925781 53.269531 423.34375 62.519531 411.667969 C 65.246094 411.972656 68.128906 413.335938 70.855469 412.578125 C 74.949219 408.636719 78.742188 404.390625 82.835938 400.601562 C 84.804688 402.421875 86.777344 404.242188 88.898438 405.90625 C 86.625 401.058594 84.046875 396.207031 82.378906 391.203125 C 95.71875 380.285156 110.425781 371.191406 126.496094 364.671875 C 129.074219 366.339844 131.195312 368.917969 134.230469 369.675781 C 139.6875 368.308594 144.992188 366.1875 150.601562 364.824219 C 151.511719 367.855469 152.574219 370.886719 153.632812 373.917969 C 153.179688 368.765625 153.332031 363.003906 153.785156 357.242188 Z M 168.1875 422.128906 C 148.328125 424.859375 129.378906 434.257812 115.277344 448.660156 C 97.84375 465.792969 87.6875 489.898438 87.230469 514.15625 C 86.625 535.378906 93.296875 556.605469 106.03125 573.734375 C 123.160156 597.082031 151.664062 611.941406 180.773438 611.636719 C 205.332031 612.09375 229.738281 601.632812 247.023438 584.195312 C 265.367188 566.003906 275.828125 540.078125 274.765625 514.15625 C 274.617188 487.320312 261.878906 461.246094 241.71875 443.808594 C 221.707031 426.527344 194.265625 418.035156 168.1875 422.128906 Z M 168.1875 422.128906 " fill-opacity="1" fill-rule="nonzero"/><path fill="#00bc46" d="M 172.128906 439.867188 C 189.566406 437.746094 207.757812 441.992188 222.3125 451.691406 C 240.351562 463.519531 253.085938 483.226562 256.121094 504.605469 C 259.304688 524.160156 254.453125 545.082031 242.929688 561.304688 C 231.710938 577.222656 214.277344 588.746094 195.175781 592.230469 C 176.375 596.023438 156.058594 591.929688 140.140625 581.316406 C 122.707031 569.945312 110.273438 551.296875 106.484375 530.832031 C 102.542969 510.0625 107.546875 487.625 120.128906 470.492188 C 132.257812 453.511719 151.511719 442.292969 172.128906 439.867188 Z M 168.339844 460.636719 C 153.179688 464.277344 139.6875 474.433594 132.105469 488.078125 C 124.070312 502.027344 122.554688 519.460938 127.710938 534.773438 C 133.621094 552.8125 149.238281 567.367188 167.886719 571.917969 C 191.230469 577.980469 217.460938 566.609375 229.285156 545.6875 C 237.015625 533.105469 238.535156 517.792969 235.957031 503.542969 C 231.863281 485.652344 218.824219 470.039062 201.691406 463.367188 C 191.230469 458.820312 179.253906 458.820312 168.339844 460.636719 Z M 168.339844 460.636719 " fill-opacity="1" fill-rule="nonzero"/><path fill="#00bc46" d="M 650.445312 439.566406 C 660.90625 437.898438 671.671875 437.140625 682.285156 438.199219 C 686.527344 438.046875 688.652344 441.992188 691.984375 443.808594 C 694.867188 445.023438 697.898438 445.78125 700.929688 446.539062 C 701.234375 447.75 701.6875 450.175781 701.992188 451.390625 C 703.507812 448.8125 705.023438 446.234375 706.691406 443.65625 C 720.183594 447.75 732.464844 455.332031 743.378906 463.972656 C 742.320312 470.945312 747.171875 475.796875 751.71875 480.195312 C 750.507812 481.710938 749.292969 483.378906 748.082031 485.046875 C 751.566406 483.226562 755.207031 481.558594 758.84375 480.042969 C 765.667969 489.140625 772.335938 498.84375 775.671875 509.910156 C 772.1875 515.519531 773.550781 521.582031 775.671875 527.34375 C 774.308594 528.253906 772.792969 529.164062 771.425781 530.074219 C 774.914062 530.527344 778.554688 530.679688 782.039062 530.984375 C 782.796875 536.289062 783.40625 541.445312 783.859375 546.75 L 783.859375 559.941406 C 784.164062 568.882812 774.761719 573.585938 775.21875 582.679688 C 774.15625 583.136719 772.1875 584.046875 771.125 584.5 C 773.398438 586.015625 775.519531 587.378906 777.796875 588.894531 C 774.609375 597.691406 770.972656 606.484375 765.515625 614.0625 C 762.484375 615.125 759.300781 614.667969 756.117188 614.972656 C 753.992188 617.703125 751.71875 620.429688 749.597656 623.3125 C 747.777344 622.855469 746.109375 622.554688 744.289062 622.097656 C 746.5625 625.585938 748.6875 629.070312 750.960938 632.558594 C 742.472656 641.351562 732.464844 648.324219 721.699219 654.238281 C 718.972656 652.722656 716.394531 651.054688 713.664062 649.539062 C 710.027344 650.75 706.390625 652.117188 702.75 653.480469 C 701.539062 652.417969 700.476562 651.207031 699.261719 650.144531 C 699.414062 654.390625 699.566406 658.484375 699.566406 662.726562 C 689.863281 664.851562 679.859375 666.214844 669.851562 665.910156 C 668.488281 663.488281 667.273438 660.910156 665.457031 658.785156 C 661.664062 657.269531 657.421875 657.421875 653.328125 656.96875 C 653.175781 655.601562 652.71875 652.875 652.570312 651.507812 C 650.902344 655.300781 649.234375 659.242188 647.566406 663.183594 C 638.773438 661.820312 629.980469 659.089844 622.097656 654.542969 C 620.578125 651.8125 620.730469 648.628906 620.125 645.597656 C 616.941406 643.625 613.757812 641.65625 610.726562 639.683594 C 610.878906 637.863281 611.027344 636.199219 611.332031 634.378906 C 608.300781 637.257812 605.117188 639.835938 601.78125 642.109375 C 595.566406 636.652344 589.652344 630.890625 584.195312 624.675781 C 584.800781 621.644531 585.710938 618.761719 586.46875 615.882812 C 584.347656 612.546875 582.375 609.210938 580.253906 606.027344 C 581.617188 604.511719 582.832031 602.996094 584.195312 601.632812 C 579.949219 603.148438 575.703125 604.359375 571.308594 605.269531 C 567.972656 597.539062 564.335938 589.957031 562.515625 581.769531 C 561.300781 577.828125 566.152344 575.707031 568.125 572.824219 C 567.667969 568.882812 567.367188 564.941406 566.910156 560.847656 C 568.730469 560.242188 570.703125 559.636719 572.519531 559.03125 C 567.820312 558.273438 563.121094 557.363281 558.574219 556.148438 C 558.574219 546.902344 559.332031 537.804688 561 528.707031 C 563.878906 527.800781 566.910156 527.042969 569.792969 526.132812 C 571.308594 522.191406 572.671875 518.398438 574.1875 514.457031 C 575.703125 514.609375 578.585938 514.914062 580.101562 515.214844 C 576.007812 512.488281 572.066406 509.453125 568.125 506.421875 C 572.21875 497.476562 576.765625 488.382812 583.4375 481.105469 C 585.863281 480.195312 588.289062 479.738281 590.714844 478.980469 C 594.65625 476.554688 597.839844 471.25 603.144531 473.371094 C 601.628906 470.644531 600.265625 467.761719 598.75 465.035156 C 607.085938 457.605469 616.636719 451.542969 626.796875 447.296875 C 630.132812 445.628906 633.617188 447.902344 636.953125 448.359375 C 640.59375 447.902344 644.230469 446.992188 647.867188 446.234375 C 648.476562 448.207031 648.929688 450.027344 649.535156 451.996094 C 649.6875 447.75 649.992188 443.65625 650.445312 439.566406 Z M 654.84375 487.167969 C 631.34375 492.476562 611.636719 511.578125 605.269531 534.925781 C 600.265625 552.207031 602.386719 571.308594 611.332031 586.925781 C 621.1875 604.816406 639.53125 617.851562 659.695312 621.035156 C 686.074219 625.585938 713.96875 611.941406 727.460938 589.046875 C 736.710938 574.34375 738.832031 556.148438 735.800781 539.320312 C 732.160156 522.191406 721.699219 506.574219 707.148438 496.871094 C 691.835938 486.714844 672.582031 483.074219 654.84375 487.167969 Z M 654.84375 487.167969 " fill-opacity="1" fill-rule="nonzero"/><path fill="#00bc46" d="M 660.300781 499.449219 C 688.652344 493.535156 718.367188 514.761719 723.21875 542.960938 C 729.886719 571.765625 709.117188 603.300781 679.859375 608 C 651.960938 614.0625 622.398438 594.050781 616.789062 566.308594 C 609.210938 536.894531 630.28125 503.996094 660.300781 499.449219 Z M 656.660156 515.0625 C 637.40625 521.433594 625.734375 543.261719 630.433594 562.820312 C 634.222656 581.316406 652.113281 595.71875 671.066406 594.65625 C 691.683594 594.503906 710.027344 576.160156 710.027344 555.695312 C 711.089844 540.535156 702.597656 525.523438 689.558594 518.097656 C 679.707031 512.335938 667.425781 511.425781 656.660156 515.0625 Z M 656.660156 515.0625 " fill-opacity="1" fill-rule="nonzero"/></svg>