<svg xmlns="http://www.w3.org/2000/svg" xmlns:xlink="http://www.w3.org/1999/xlink" width="1080" zoomAndPan="magnify" viewBox="0 0 810 809.999993" height="1080" preserveAspectRatio="xMidYMid meet" version="1.0"><defs><clipPath id="8b0c9cefe9"><path d="M 0 182.292969 L 810 182.292969 L 810 627.792969 L 0 627.792969 Z M 0 182.292969 " clip-rule="nonzero"/></clipPath></defs><path fill="#00bc46" d="M 379.753906 599.703125 C 379.753906 599.703125 301.066406 633.660156 278.714844 603.023438 C 261.988281 580.09375 212.027344 592.828125 187.9375 600.691406 C 178.699219 603.710938 168.738281 603.554688 159.574219 600.328125 C 91.820312 576.539062 -164.492188 475.472656 219.089844 427.433594 C 219.089844 427.433594 237.304688 426.605469 238.964844 404.238281 C 238.964844 404.238281 244.761719 322.25 261.332031 294.089844 C 261.332031 294.089844 291.152344 236.9375 330.070312 215.402344 C 330.070312 215.402344 374.804688 182.277344 441.882812 191.375 C 441.882812 191.375 497.375 198.832031 515.589844 209.589844 L 525.003906 216.230469 C 533.742188 222.402344 541.996094 229.214844 549.984375 236.324219 C 556.3125 241.949219 567.792969 249.371094 585.976562 251.832031 C 585.976562 251.832031 576.859375 228.636719 591.769531 210.421875 C 591.769531 210.421875 612.476562 191.375 645.601562 216.214844 C 645.601562 216.214844 664.648438 230.296875 664.648438 279.992188 C 664.648438 279.992188 712.683594 304.832031 718.476562 314.777344 C 718.476562 314.777344 733.386719 324.722656 741.671875 346.242188 L 750.789062 357.832031 C 750.789062 357.832031 774.8125 307.308594 754.921875 361.152344 C 754.921875 361.152344 797.996094 294.902344 757.414062 366.117188 C 757.414062 366.117188 841.894531 272.519531 760.734375 370.253906 C 760.734375 370.253906 797.179688 395.5625 745.824219 402.785156 C 745.824219 402.785156 773.152344 495.769531 739.199219 402.785156 C 739.199219 402.785156 749.957031 485.839844 732.574219 402.785156 C 732.574219 402.785156 725.949219 469.269531 724.289062 402.785156 C 724.289062 402.785156 704.414062 401.71875 696.128906 411.664062 C 696.128906 411.664062 659.683594 423.253906 637.316406 408.34375 C 637.316406 408.34375 631.519531 401.71875 608.324219 410.832031 C 608.324219 410.832031 567.746094 422.421875 594.246094 420.777344 C 594.246094 420.777344 626.539062 419.949219 598.378906 425.742188 C 598.378906 425.742188 629.03125 440.65625 580.996094 434.859375 C 580.996094 434.859375 606.664062 447.28125 569.40625 439.824219 C 569.40625 439.824219 543.734375 431.539062 506.460938 437.335938 L 471.671875 438.996094 C 471.671875 438.996094 471.671875 445.621094 475.808594 445.621094 C 475.808594 445.621094 476.636719 448.941406 465.863281 448.941406 C 465.863281 448.941406 491.535156 475.441406 450.953125 456.394531 C 450.953125 456.394531 428.585938 446.449219 441.835938 461.359375 C 441.835938 461.359375 449.292969 496.976562 430.246094 465.496094 C 430.246094 465.496094 414.507812 448.109375 325.058594 454.734375 C 325.058594 454.734375 298.558594 449.769531 313.46875 438.996094 C 313.46875 438.996094 258.808594 434.859375 240.578125 442.316406 C 240.578125 442.316406 174.875 449.535156 153.496094 455.800781 C 146.808594 457.757812 140.011719 459.246094 133.152344 460.453125 C 111.304688 464.320312 70.019531 472.699219 43.957031 484.757812 C 43.0625 485.167969 42.28125 485.761719 41.621094 486.480469 C 40.792969 487.40625 39.507812 488.847656 38.097656 490.507812 C 32.226562 497.382812 32.085938 507.4375 37.660156 514.5625 C 47.511719 527.140625 70.207031 547.4375 122.140625 570.679688 C 122.140625 570.679688 146.996094 584.480469 164.679688 591.355469 C 170.664062 593.6875 177.226562 594.066406 183.445312 592.484375 C 207.21875 586.453125 274.363281 571.714844 281.160156 595.523438 C 289.476562 624.558594 379.753906 599.703125 379.753906 599.703125 Z M 379.753906 599.703125 " fill-opacity="1" fill-rule="nonzero"/><g clip-path="url(#8b0c9cefe9)"><path stroke-linecap="butt" transform="matrix(1.566214, 0, 0, 1.566214, 12.083865, 189.026523)" fill="none" stroke-linejoin="miter" d="M 234.75089 262.209827 C 234.75089 262.209827 184.510298 283.890798 170.239216 264.329789 C 159.559599 249.689584 127.660414 257.82026 112.27947 262.840827 C 106.380989 264.768745 100.021105 264.668982 94.170011 262.608879 C 50.910327 247.419978 -112.740721 182.890846 132.169697 152.218745 C 132.169697 152.218745 143.799556 151.690001 144.859536 137.408943 C 144.859536 137.408943 148.56074 85.06086 159.140594 67.081092 C 159.140594 67.081092 178.180342 30.590321 203.028785 16.8405 C 203.028785 16.8405 231.590901 -4.309233 274.41911 1.499461 C 274.41911 1.499461 309.849901 6.260645 321.479761 13.12932 L 327.490475 17.369243 C 333.069715 21.309878 338.339689 25.65954 343.440067 30.198751 C 347.480464 33.790215 354.810543 38.528953 366.420449 40.100218 C 366.420449 40.100218 360.599285 25.290417 370.119159 13.660558 C 370.119159 13.660558 383.340236 1.499461 404.489969 17.359267 C 404.489969 17.359267 416.651065 26.350398 416.651065 58.079986 C 416.651065 58.079986 447.320673 73.939791 451.019382 80.289699 C 451.019382 80.289699 460.539256 86.639607 465.829183 100.379452 L 471.650348 107.779364 C 471.650348 107.779364 486.988893 75.521033 474.289076 109.899326 C 474.289076 109.899326 501.791212 67.599859 475.880294 113.069292 C 475.880294 113.069292 529.819596 53.308825 478.000256 115.710514 C 478.000256 115.710514 501.26995 131.869609 468.480382 136.481148 C 468.480382 136.481148 485.928912 195.850045 464.250435 136.481148 C 464.250435 136.481148 471.11911 189.510114 460.020489 136.481148 C 460.020489 136.481148 455.790542 178.930259 454.730561 136.481148 C 454.730561 136.481148 442.040721 135.800267 436.750794 142.150175 C 436.750794 142.150175 413.4811 149.550087 399.200042 140.030213 C 399.200042 140.030213 395.498838 135.800267 380.689037 141.618937 C 380.689037 141.618937 354.780614 149.01885 371.7004 147.968845 C 371.7004 147.968845 392.318896 147.440102 374.339129 151.138811 C 374.339129 151.138811 393.910114 160.661179 363.240507 156.959976 C 363.240507 156.959976 379.629056 164.891126 355.840595 160.129942 C 355.840595 160.129942 339.449551 154.840015 315.651114 158.541218 L 293.438906 159.601199 C 293.438906 159.601199 293.438906 163.831145 296.080128 163.831145 C 296.080128 163.831145 296.608872 165.951107 289.73022 165.951107 C 289.73022 165.951107 306.121263 182.870893 280.210346 170.709797 C 280.210346 170.709797 265.929288 164.359888 274.389181 173.879762 C 274.389181 173.879762 279.150365 196.620714 266.989269 176.520985 C 266.989269 176.520985 256.940652 165.419869 199.82889 169.649816 C 199.82889 169.649816 182.909104 166.47985 192.428977 159.601199 C 192.428977 159.601199 157.529424 156.959976 145.889588 161.72116 C 145.889588 161.72116 103.939292 166.330206 90.289235 170.330698 C 86.019383 171.580228 81.679697 172.530469 77.300106 173.301138 C 63.35076 175.770269 36.990909 181.120054 20.350459 188.819256 C 19.779317 189.081133 19.280502 189.460232 18.859004 189.919141 C 18.330261 190.510237 17.509711 191.430549 16.609351 192.49053 C 12.86076 196.880097 12.770973 203.299839 16.330015 207.849027 C 22.620065 215.87994 37.110625 228.83914 70.269316 243.67887 C 70.269316 243.67887 86.139098 252.490427 97.429764 256.879995 C 101.250682 258.368956 105.440724 258.610881 109.411287 257.600781 C 124.590211 253.749934 167.46082 244.339799 171.800505 259.54117 C 177.110385 278.079609 234.75089 262.209827 234.75089 262.209827 Z M 234.75089 262.209827 " stroke="#050405" stroke-width="1" stroke-opacity="1" stroke-miterlimit="10"/></g></svg>