<svg xmlns="http://www.w3.org/2000/svg" xmlns:xlink="http://www.w3.org/1999/xlink" width="1080" zoomAndPan="magnify" viewBox="0 0 810 809.999993" height="1080" preserveAspectRatio="xMidYMid meet" version="1.0"><defs><clipPath id="385bf87dd2"><path d="M 583 488 L 742 488 L 742 646.519531 L 583 646.519531 Z M 583 488 " clip-rule="nonzero"/></clipPath><clipPath id="c6f3fce4be"><path d="M 224 488 L 382 488 L 382 646.519531 L 224 646.519531 Z M 224 488 " clip-rule="nonzero"/></clipPath><clipPath id="42fda8d05c"><path d="M 87 163.519531 L 553 163.519531 L 553 269 L 87 269 Z M 87 163.519531 " clip-rule="nonzero"/></clipPath></defs><path fill="#00bc46" d="M 587.191406 581.546875 L 375.332031 581.546875 C 367.589844 581.546875 361.328125 575.28125 361.328125 567.542969 C 361.328125 559.804688 367.589844 553.535156 375.332031 553.535156 L 587.191406 553.535156 C 594.9375 553.535156 601.199219 559.804688 601.199219 567.542969 C 601.199219 575.28125 594.9375 581.546875 587.191406 581.546875 " fill-opacity="1" fill-rule="nonzero"/><path fill="#00bc46" d="M 795.753906 581.546875 L 740.742188 581.546875 C 733 581.546875 726.734375 575.285156 726.734375 567.542969 C 726.734375 559.804688 733 553.535156 740.742188 553.535156 L 781.746094 553.535156 L 781.746094 476.269531 C 781.746094 374.355469 709.394531 285.664062 609.710938 265.363281 C 595.585938 262.492188 581.070312 261.046875 566.507812 261.046875 L 546.949219 261.046875 C 539.207031 261.046875 532.945312 254.78125 532.945312 247.039062 C 532.945312 239.292969 539.207031 233.027344 546.949219 233.027344 L 566.507812 233.027344 C 582.917969 233.027344 599.335938 234.675781 615.285156 237.929688 C 727.964844 260.867188 809.761719 361.097656 809.761719 476.269531 L 809.761719 567.542969 C 809.761719 575.285156 803.496094 581.546875 795.753906 581.546875 " fill-opacity="1" fill-rule="nonzero"/><path fill="#00bc46" d="M 230.808594 581.546875 L 165.125 581.546875 C 157.382812 581.546875 151.117188 575.28125 151.117188 567.542969 C 151.117188 559.804688 157.382812 553.535156 165.125 553.535156 L 230.808594 553.535156 C 238.550781 553.535156 244.8125 559.804688 244.8125 567.542969 C 244.8125 575.28125 238.550781 581.546875 230.808594 581.546875 " fill-opacity="1" fill-rule="nonzero"/><path fill="#00bc46" d="M 790.125 440.59375 L 615.097656 440.59375 C 607.351562 440.59375 601.089844 434.328125 601.089844 426.585938 L 601.089844 251.640625 C 601.089844 243.90625 607.351562 237.632812 615.097656 237.632812 C 622.839844 237.632812 629.105469 243.90625 629.105469 251.640625 L 629.105469 412.578125 L 790.125 412.578125 C 797.867188 412.578125 804.128906 418.847656 804.128906 426.585938 C 804.128906 434.328125 797.867188 440.59375 790.125 440.59375 " fill-opacity="1" fill-rule="nonzero"/><g clip-path="url(#385bf87dd2)"><path fill="#00bc46" d="M 662.726562 516.683594 C 634.6875 516.683594 611.871094 539.503906 611.871094 567.542969 C 611.871094 595.597656 634.6875 618.414062 662.726562 618.414062 C 690.765625 618.414062 713.578125 595.597656 713.578125 567.542969 C 713.578125 539.503906 690.765625 516.683594 662.726562 516.683594 Z M 662.726562 646.425781 C 619.226562 646.425781 583.855469 611.039062 583.855469 567.542969 C 583.855469 524.058594 619.226562 488.671875 662.726562 488.671875 C 706.21875 488.671875 741.59375 524.058594 741.59375 567.542969 C 741.59375 611.039062 706.21875 646.425781 662.726562 646.425781 " fill-opacity="1" fill-rule="nonzero"/></g><g clip-path="url(#c6f3fce4be)"><path fill="#00bc46" d="M 303.070312 516.683594 C 275.027344 516.683594 252.214844 539.503906 252.214844 567.542969 C 252.214844 595.597656 275.027344 618.414062 303.070312 618.414062 C 331.125 618.414062 353.941406 595.597656 353.941406 567.542969 C 353.941406 539.503906 331.125 516.683594 303.070312 516.683594 Z M 303.070312 646.425781 C 259.589844 646.425781 224.203125 611.039062 224.203125 567.542969 C 224.203125 524.058594 259.589844 488.671875 303.070312 488.671875 C 346.566406 488.671875 381.953125 524.058594 381.953125 567.542969 C 381.953125 611.039062 346.566406 646.425781 303.070312 646.425781 " fill-opacity="1" fill-rule="nonzero"/></g><path fill="#00bc46" d="M 538.335938 482.207031 L 165.125 482.207031 C 157.382812 482.207031 151.117188 475.941406 151.117188 468.199219 C 151.117188 460.457031 157.382812 454.191406 165.125 454.191406 L 524.332031 454.191406 L 524.332031 247.035156 C 524.332031 239.292969 530.59375 233.027344 538.335938 233.027344 C 546.074219 233.027344 552.34375 239.292969 552.34375 247.035156 L 552.34375 468.199219 C 552.34375 475.941406 546.074219 482.207031 538.335938 482.207031 " fill-opacity="1" fill-rule="nonzero"/><g clip-path="url(#42fda8d05c)"><path fill="#00bc46" d="M 538.335938 268.90625 C 530.59375 268.90625 524.332031 262.644531 524.332031 254.902344 L 524.332031 191.511719 L 101.070312 191.511719 C 93.328125 191.511719 87.0625 185.25 87.0625 177.507812 C 87.0625 169.769531 93.328125 163.5 101.070312 163.5 L 538.335938 163.5 C 546.074219 163.5 552.34375 169.769531 552.34375 177.507812 L 552.34375 254.902344 C 552.34375 262.644531 546.074219 268.90625 538.335938 268.90625 " fill-opacity="1" fill-rule="nonzero"/></g><path fill="#00bc46" d="M 191.496094 482.207031 L 165.125 482.207031 C 157.382812 482.207031 151.117188 475.941406 151.117188 468.199219 C 151.117188 460.457031 157.382812 454.191406 165.125 454.191406 L 191.496094 454.191406 C 199.238281 454.191406 205.503906 460.457031 205.503906 468.199219 C 205.503906 475.941406 199.238281 482.207031 191.496094 482.207031 " fill-opacity="1" fill-rule="nonzero"/><path fill="#00bc46" d="M 243.339844 265.648438 L 43.800781 265.648438 C 36.058594 265.648438 29.792969 259.386719 29.792969 251.640625 C 29.792969 243.90625 36.058594 237.632812 43.800781 237.632812 L 243.339844 237.632812 C 251.078125 237.632812 257.34375 243.90625 257.34375 251.640625 C 257.34375 259.386719 251.078125 265.648438 243.339844 265.648438 " fill-opacity="1" fill-rule="nonzero"/><path fill="#00bc46" d="M 211.316406 340.683594 L 82.402344 340.683594 C 74.660156 340.683594 68.394531 334.421875 68.394531 326.679688 C 68.394531 318.941406 74.660156 312.679688 82.402344 312.679688 L 211.316406 312.679688 C 219.058594 312.679688 225.324219 318.941406 225.324219 326.679688 C 225.324219 334.421875 219.058594 340.683594 211.316406 340.683594 " fill-opacity="1" fill-rule="nonzero"/><path fill="#00bc46" d="M 283.566406 418.96875 L 14.242188 418.96875 C 6.5 418.96875 0.234375 412.707031 0.234375 404.964844 C 0.234375 397.21875 6.5 390.957031 14.242188 390.957031 L 283.566406 390.957031 C 291.308594 390.957031 297.570312 397.21875 297.570312 404.964844 C 297.570312 412.707031 291.308594 418.96875 283.566406 418.96875 " fill-opacity="1" fill-rule="nonzero"/><path fill="#00bc46" d="M 165.125 532.019531 L 69.253906 532.019531 C 61.511719 532.019531 55.246094 525.757812 55.246094 518.011719 C 55.246094 510.269531 61.511719 504.007812 69.253906 504.007812 L 165.125 504.007812 C 172.867188 504.007812 179.132812 510.269531 179.132812 518.011719 C 179.132812 525.757812 172.867188 532.019531 165.125 532.019531 " fill-opacity="1" fill-rule="nonzero"/></svg>