<svg xmlns="http://www.w3.org/2000/svg" xmlns:xlink="http://www.w3.org/1999/xlink" width="1080" zoomAndPan="magnify" viewBox="0 0 810 809.999993" height="1080" preserveAspectRatio="xMidYMid meet" version="1.0"><defs><clipPath id="77a8859ece"><path d="M 520 267 L 748.785156 267 L 748.785156 745 L 520 745 Z M 520 267 " clip-rule="nonzero"/></clipPath><clipPath id="7758c9102e"><path d="M 61.035156 267 L 289 267 L 289 745 L 61.035156 745 Z M 61.035156 267 " clip-rule="nonzero"/></clipPath></defs><path fill="#00bc46" d="M 317.953125 504.660156 L 325.71875 504.660156 L 325.71875 735.046875 C 325.71875 740.222656 330.25 744.753906 335.425781 744.753906 C 340.605469 744.753906 345.132812 740.222656 345.132812 735.046875 L 345.132812 359.695312 L 360.667969 359.695312 C 365.84375 359.695312 370.375 355.164062 370.375 349.988281 L 370.375 328.632812 L 438.972656 328.632812 L 438.972656 349.988281 C 438.972656 355.164062 443.503906 359.695312 448.679688 359.695312 L 464.210938 359.695312 L 464.210938 735.046875 C 464.210938 740.222656 468.742188 744.753906 473.917969 744.753906 C 479.09375 744.753906 483.625 740.222656 483.625 735.046875 L 483.625 504.660156 L 491.390625 504.660156 C 515.335938 504.660156 534.75 485.242188 534.75 461.300781 L 534.75 287.863281 C 534.75 263.917969 515.335938 244.503906 491.390625 244.503906 L 317.953125 244.503906 C 294.007812 244.503906 275.242188 263.917969 275.242188 287.863281 L 275.242188 461.300781 C 274.59375 485.242188 294.007812 504.660156 317.953125 504.660156 Z M 458.386719 263.917969 L 491.390625 263.917969 C 504.335938 263.917969 515.335938 274.269531 515.335938 287.863281 L 515.335938 461.300781 C 515.335938 474.242188 504.980469 485.242188 491.390625 485.242188 L 483.625 485.242188 L 483.625 349.988281 C 483.625 344.8125 479.09375 340.28125 473.917969 340.28125 L 458.386719 340.28125 Z M 370.375 263.917969 L 438.972656 263.917969 L 438.972656 309.21875 L 370.375 309.21875 Z M 294.007812 287.863281 C 294.007812 274.917969 304.363281 263.917969 317.308594 263.917969 L 350.3125 263.917969 L 350.3125 340.28125 L 334.78125 340.28125 C 329.601562 340.28125 325.074219 344.8125 325.074219 349.988281 L 325.074219 485.242188 L 317.308594 485.242188 C 304.363281 485.242188 293.363281 474.890625 293.363281 461.300781 L 293.363281 287.863281 Z M 294.007812 287.863281 " fill-opacity="1" fill-rule="nonzero"/><path fill="#00bc46" d="M 414.378906 735.046875 L 414.378906 524.71875 C 414.378906 519.542969 409.851562 515.011719 404.671875 515.011719 C 399.496094 515.011719 394.964844 519.542969 394.964844 524.71875 L 394.964844 735.046875 C 394.964844 740.222656 399.496094 744.753906 404.671875 744.753906 C 409.851562 744.753906 414.378906 740.222656 414.378906 735.046875 Z M 414.378906 735.046875 " fill-opacity="1" fill-rule="nonzero"/><path fill="#00bc46" d="M 323.132812 144.839844 L 339.308594 144.839844 C 330.898438 181.082031 353.546875 216.675781 389.140625 225.085938 C 424.734375 233.5 460.976562 210.851562 469.386719 175.257812 C 471.976562 165.550781 471.976562 154.546875 469.386719 144.839844 L 488.15625 144.839844 C 493.332031 144.839844 497.863281 140.308594 497.863281 135.132812 C 497.863281 129.957031 493.980469 125.425781 488.15625 125.425781 L 464.859375 125.425781 L 464.859375 74.949219 C 465.503906 69.769531 460.976562 65.242188 455.796875 65.242188 L 352.902344 65.242188 C 347.722656 65.242188 343.191406 69.769531 343.191406 74.949219 L 343.191406 125.425781 L 323.132812 125.425781 C 317.953125 125.425781 313.425781 129.957031 313.425781 135.132812 C 313.425781 140.308594 317.953125 144.839844 323.132812 144.839844 Z M 362.609375 84.65625 L 445.445312 84.65625 L 445.445312 125.425781 L 362.609375 125.425781 Z M 359.371094 144.839844 L 449.328125 144.839844 C 451.269531 150.019531 451.914062 155.195312 451.914062 160.371094 C 451.914062 186.90625 430.558594 208.261719 404.671875 208.261719 C 378.785156 208.261719 356.785156 186.90625 356.785156 161.019531 C 356.785156 155.195312 358.078125 150.019531 359.371094 144.839844 Z M 359.371094 144.839844 " fill-opacity="1" fill-rule="nonzero"/><g clip-path="url(#77a8859ece)"><path fill="#00bc46" d="M 541.222656 267.152344 L 541.222656 286.566406 L 572.285156 286.566406 L 572.285156 358.402344 L 557.402344 358.402344 C 552.222656 358.402344 547.695312 362.929688 547.695312 368.109375 L 547.695312 496.246094 L 540.574219 496.246094 C 536.691406 496.246094 532.808594 494.953125 529.574219 493.007812 L 520.511719 509.835938 C 526.984375 513.71875 534.105469 515.660156 541.222656 515.660156 L 548.339844 515.660156 L 548.339844 735.046875 C 548.339844 740.222656 552.871094 744.753906 558.046875 744.753906 C 563.226562 744.753906 567.753906 740.222656 567.753906 735.046875 L 567.753906 377.816406 L 582.640625 377.816406 C 587.816406 377.816406 592.347656 373.285156 592.347656 368.109375 L 592.347656 348.046875 L 657.0625 348.046875 L 657.0625 368.109375 C 657.0625 373.285156 661.59375 377.816406 666.769531 377.816406 L 681.007812 377.816406 L 681.007812 735.046875 C 681.007812 740.222656 685.539062 744.753906 690.714844 744.753906 C 695.890625 744.753906 700.421875 740.222656 700.421875 735.046875 L 700.421875 515.660156 L 707.542969 515.660156 C 730.191406 515.660156 748.960938 496.894531 748.960938 474.242188 L 748.960938 308.570312 C 748.960938 285.921875 730.191406 267.152344 707.542969 267.152344 Z M 656.417969 329.28125 L 591.699219 329.28125 L 591.699219 287.214844 L 656.417969 287.214844 Z M 728.898438 308.570312 L 728.898438 474.242188 C 728.898438 486.539062 719.191406 496.246094 706.894531 496.246094 L 699.777344 496.246094 L 699.777344 368.109375 C 699.777344 362.929688 695.246094 358.402344 690.066406 358.402344 L 675.832031 358.402344 L 675.832031 286.566406 L 706.894531 286.566406 C 718.542969 286.566406 728.898438 296.921875 728.898438 308.570312 Z M 728.898438 308.570312 " fill-opacity="1" fill-rule="nonzero"/></g><path fill="#00bc46" d="M 633.765625 735.046875 L 633.765625 534.425781 C 633.765625 529.25 629.234375 524.71875 624.058594 524.71875 C 618.882812 524.71875 614.351562 529.25 614.351562 534.425781 L 614.351562 735.046875 C 614.351562 740.222656 618.882812 744.753906 624.058594 744.753906 C 629.234375 744.753906 633.765625 740.222656 633.765625 735.046875 Z M 633.765625 735.046875 " fill-opacity="1" fill-rule="nonzero"/><path fill="#00bc46" d="M 546.398438 173.316406 L 561.285156 173.316406 C 553.519531 208.261719 574.875 242.5625 609.820312 250.328125 C 644.765625 258.09375 679.066406 236.738281 686.832031 201.789062 C 688.773438 192.082031 688.773438 182.375 686.832031 173.316406 L 703.660156 173.316406 C 708.835938 173.316406 713.367188 168.785156 713.367188 163.609375 C 713.367188 158.429688 708.835938 153.902344 703.660156 153.902344 L 682.300781 153.902344 L 682.300781 106.011719 C 682.300781 100.832031 677.773438 96.304688 672.59375 96.304688 L 574.875 96.304688 C 569.699219 96.304688 565.167969 100.832031 565.167969 106.011719 L 565.167969 153.902344 L 546.398438 153.902344 C 541.222656 153.902344 536.691406 158.429688 536.691406 163.609375 C 536.691406 168.785156 541.222656 173.316406 546.398438 173.316406 Z M 584.582031 115.71875 L 662.886719 115.71875 L 662.886719 153.902344 L 584.582031 153.902344 Z M 581.347656 173.316406 L 666.769531 173.316406 C 674.535156 196.613281 661.59375 222.5 638.296875 230.265625 C 615 238.03125 589.113281 225.085938 581.347656 201.789062 C 578.109375 192.082031 578.109375 182.375 581.347656 173.316406 Z M 581.347656 173.316406 " fill-opacity="1" fill-rule="nonzero"/><g clip-path="url(#7758c9102e)"><path fill="#00bc46" d="M 102.453125 515.660156 L 109.570312 515.660156 L 109.570312 735.046875 C 109.570312 740.222656 114.101562 744.753906 119.277344 744.753906 C 124.453125 744.753906 128.984375 740.222656 128.984375 735.046875 L 128.984375 377.816406 L 143.222656 377.816406 C 148.398438 377.816406 152.929688 373.285156 152.929688 368.109375 L 152.929688 348.046875 L 217.644531 348.046875 L 217.644531 368.109375 C 217.644531 373.285156 222.175781 377.816406 227.351562 377.816406 L 242.238281 377.816406 L 242.238281 735.046875 C 242.238281 740.222656 246.765625 744.753906 251.945312 744.753906 C 257.121094 744.753906 261.652344 740.222656 261.652344 735.046875 L 261.652344 515.660156 L 268.125 515.660156 C 275.242188 515.660156 283.007812 513.71875 288.832031 509.835938 L 279.125 493.007812 C 275.890625 494.953125 272.007812 496.246094 268.125 496.246094 L 261.003906 496.246094 L 261.003906 368.109375 C 261.003906 362.929688 256.472656 358.402344 251.296875 358.402344 L 236.414062 358.402344 L 236.414062 286.566406 L 268.125 286.566406 L 268.125 267.152344 L 102.453125 267.152344 C 79.800781 267.152344 61.035156 285.921875 61.035156 308.570312 L 61.035156 474.242188 C 61.035156 496.894531 79.800781 515.660156 102.453125 515.660156 Z M 152.929688 286.566406 L 217.644531 286.566406 L 217.644531 328.632812 L 152.929688 328.632812 Z M 80.449219 308.570312 C 80.449219 296.273438 90.15625 286.566406 102.453125 286.566406 L 133.515625 286.566406 L 133.515625 358.402344 L 119.277344 358.402344 C 114.101562 358.402344 109.570312 362.929688 109.570312 368.109375 L 109.570312 496.246094 L 102.453125 496.246094 C 90.15625 496.246094 80.449219 486.539062 80.449219 474.242188 Z M 80.449219 308.570312 " fill-opacity="1" fill-rule="nonzero"/></g><path fill="#00bc46" d="M 194.996094 735.046875 L 194.996094 534.425781 C 194.996094 529.25 190.464844 524.71875 185.289062 524.71875 C 180.109375 524.71875 175.578125 529.25 175.578125 534.425781 L 175.578125 735.046875 C 175.578125 740.222656 180.109375 744.753906 185.289062 744.753906 C 190.464844 744.753906 194.996094 740.222656 194.996094 735.046875 Z M 194.996094 735.046875 " fill-opacity="1" fill-rule="nonzero"/><path fill="#00bc46" d="M 105.6875 173.316406 L 122.511719 173.316406 C 114.746094 207.613281 136.75 241.914062 171.050781 250.328125 C 205.347656 258.738281 240.296875 236.089844 248.0625 201.789062 C 250.003906 192.730469 250.003906 183.023438 248.0625 173.316406 L 262.945312 173.316406 C 268.125 173.316406 272.652344 168.785156 272.652344 163.609375 C 272.652344 158.429688 268.125 153.902344 262.945312 153.902344 L 244.179688 153.902344 L 244.179688 106.011719 C 244.179688 100.832031 239.648438 96.304688 234.472656 96.304688 L 136.75 96.304688 C 131.574219 96.304688 127.042969 100.832031 127.042969 106.011719 L 127.042969 153.902344 L 105.6875 153.902344 C 100.511719 153.902344 95.980469 158.429688 95.980469 163.609375 C 95.980469 168.785156 99.863281 173.316406 105.6875 173.316406 Z M 146.457031 115.71875 L 224.765625 115.71875 L 224.765625 153.902344 L 146.457031 153.902344 Z M 142.574219 173.316406 L 228 173.316406 C 235.765625 196.613281 223.46875 222.5 199.523438 230.265625 C 175.578125 238.03125 150.339844 225.734375 142.574219 201.789062 C 139.339844 192.730469 139.339844 182.375 142.574219 173.316406 Z M 142.574219 173.316406 " fill-opacity="1" fill-rule="nonzero"/></svg>