<svg xmlns="http://www.w3.org/2000/svg" xmlns:xlink="http://www.w3.org/1999/xlink" width="1080" zoomAndPan="magnify" viewBox="0 0 810 809.999993" height="1080" preserveAspectRatio="xMidYMid meet" version="1.0"><defs><clipPath id="a773b9ad07"><path d="M 537 129.910156 L 567 129.910156 L 567 192 L 537 192 Z M 537 129.910156 " clip-rule="nonzero"/></clipPath><clipPath id="36e8875f04"><path d="M 691 315 L 752.585938 315 L 752.585938 345 L 691 345 Z M 691 315 " clip-rule="nonzero"/></clipPath><clipPath id="7826f87048"><path d="M 57.335938 212 L 752.585938 212 L 752.585938 680.410156 L 57.335938 680.410156 Z M 57.335938 212 " clip-rule="nonzero"/></clipPath></defs><g clip-path="url(#a773b9ad07)"><path fill="#00b242" d="M 566.800781 176.800781 L 566.800781 144.464844 C 566.800781 136.46875 560.320312 129.984375 552.324219 129.984375 C 544.328125 129.984375 537.847656 136.46875 537.847656 144.464844 L 537.847656 176.800781 C 537.847656 184.796875 544.328125 191.277344 552.324219 191.277344 C 560.320312 191.277344 566.800781 184.796875 566.800781 176.800781 Z M 566.800781 176.800781 " fill-opacity="1" fill-rule="nonzero"/></g><g clip-path="url(#36e8875f04)"><path fill="#00b242" d="M 737.996094 315.664062 L 705.667969 315.664062 C 697.671875 315.664062 691.191406 322.148438 691.191406 330.144531 C 691.191406 338.136719 697.671875 344.621094 705.667969 344.621094 L 737.996094 344.621094 C 745.992188 344.621094 752.472656 338.136719 752.472656 330.144531 C 752.472656 322.148438 745.992188 315.664062 737.996094 315.664062 Z M 737.996094 315.664062 " fill-opacity="1" fill-rule="nonzero"/></g><path fill="#00b242" d="M 475.664062 211.820312 C 478.117188 211.820312 480.605469 211.199219 482.886719 209.886719 C 489.808594 205.882812 492.183594 197.03125 488.191406 190.105469 L 472.03125 162.101562 C 468.023438 155.179688 459.175781 152.785156 452.25 156.800781 C 445.328125 160.800781 442.953125 169.652344 446.949219 176.582031 L 463.109375 204.582031 C 465.792969 209.226562 470.660156 211.820312 475.664062 211.820312 Z M 475.664062 211.820312 " fill-opacity="1" fill-rule="nonzero"/><path fill="#00b242" d="M 685.136719 267.945312 C 687.589844 267.945312 690.078125 267.324219 692.363281 266.007812 L 720.363281 249.847656 C 727.285156 245.847656 729.660156 236.996094 725.667969 230.066406 C 721.664062 223.148438 712.828125 220.75 705.886719 224.765625 L 677.886719 240.925781 C 670.964844 244.929688 668.589844 253.777344 672.582031 260.707031 C 675.269531 265.351562 680.132812 267.945312 685.136719 267.945312 Z M 685.136719 267.945312 " fill-opacity="1" fill-rule="nonzero"/><path fill="#00b242" d="M 628.976562 211.820312 C 633.984375 211.820312 638.847656 209.226562 641.535156 204.582031 L 657.703125 176.582031 C 661.695312 169.660156 659.328125 160.800781 652.398438 156.800781 C 645.441406 152.785156 636.613281 155.179688 632.621094 162.101562 L 616.453125 190.105469 C 612.457031 197.027344 614.824219 205.882812 621.753906 209.886719 C 624.035156 211.199219 626.523438 211.820312 628.976562 211.820312 Z M 628.976562 211.820312 " fill-opacity="1" fill-rule="nonzero"/><path fill="#00b242" d="M 677.886719 419.359375 L 705.886719 435.519531 C 708.171875 436.835938 710.660156 437.457031 713.113281 437.457031 C 718.117188 437.457031 722.988281 434.863281 725.667969 430.21875 C 729.660156 423.289062 727.285156 414.4375 720.363281 410.4375 L 692.363281 394.277344 C 685.398438 390.269531 676.578125 392.652344 672.582031 399.578125 C 668.589844 406.507812 670.964844 415.359375 677.886719 419.359375 Z M 677.886719 419.359375 " fill-opacity="1" fill-rule="nonzero"/><path fill="#00b242" d="M 412.285156 266.007812 C 414.570312 267.324219 417.058594 267.945312 419.511719 267.945312 C 424.515625 267.945312 429.386719 265.351562 432.066406 260.707031 C 436.0625 253.777344 433.683594 244.929688 426.765625 240.925781 L 398.761719 224.765625 C 391.820312 220.75 382.96875 223.148438 378.980469 230.066406 C 374.988281 236.996094 377.363281 245.847656 384.285156 249.847656 Z M 412.285156 266.007812 " fill-opacity="1" fill-rule="nonzero"/><g clip-path="url(#7826f87048)"><path fill="#00b242" d="M 628.816406 435.144531 C 627.328125 431.261719 625.640625 427.480469 623.828125 423.773438 C 652.773438 401.59375 670.328125 366.902344 670.328125 330.144531 C 670.328125 265.070312 617.390625 212.132812 552.324219 212.132812 C 490.90625 212.132812 440.355469 259.304688 434.863281 319.3125 C 406.378906 291.609375 367.195312 275.199219 325.277344 275.199219 C 240.660156 275.199219 171.820312 340.605469 171.820312 421.007812 C 171.820312 425.871094 172.09375 430.789062 172.640625 435.738281 C 108.023438 442.242188 57.519531 494.378906 57.519531 557.53125 C 57.519531 625.066406 115.292969 680.007812 186.296875 680.007812 L 623.703125 680.007812 C 694.710938 680.007812 752.472656 625.066406 752.472656 557.53125 C 752.472656 491.625 697.460938 437.710938 628.816406 435.144531 Z M 552.324219 241.089844 C 601.421875 241.089844 641.371094 281.039062 641.371094 330.144531 C 641.371094 356.914062 629.042969 382.292969 608.503906 399.085938 C 607.609375 397.921875 606.554688 396.90625 605.625 395.773438 C 603.632812 393.355469 601.601562 390.972656 599.457031 388.679688 C 597.6875 386.777344 595.875 384.9375 594.007812 383.132812 C 592.308594 381.492188 590.539062 379.929688 588.761719 378.367188 C 581.039062 371.574219 572.660156 365.585938 563.699219 360.445312 C 561.941406 359.433594 560.183594 358.425781 558.382812 357.480469 C 555.734375 356.09375 553.0625 354.777344 550.332031 353.539062 C 548.195312 352.570312 546.011719 351.699219 543.828125 350.820312 C 541.269531 349.796875 538.742188 348.710938 536.125 347.820312 C 531.667969 346.292969 527.121094 344.984375 522.511719 343.851562 C 520.3125 343.3125 518.074219 342.925781 515.847656 342.484375 C 512.734375 341.859375 509.613281 341.296875 506.449219 340.859375 C 504.1875 340.546875 501.925781 340.277344 499.640625 340.0625 C 496.175781 339.734375 492.679688 339.558594 489.167969 339.460938 C 487.679688 339.417969 486.222656 339.207031 484.726562 339.207031 C 484.339844 339.207031 483.917969 339.289062 483.53125 339.292969 C 477.121094 339.34375 470.652344 339.875 464.160156 340.722656 C 464.085938 340.734375 464.015625 340.730469 463.941406 340.738281 C 463.496094 337.175781 463.269531 333.636719 463.269531 330.144531 C 463.269531 281.039062 503.21875 241.089844 552.324219 241.089844 Z M 623.703125 651.054688 L 186.296875 651.054688 C 131.253906 651.054688 86.476562 609.097656 86.476562 557.53125 C 86.476562 505.996094 131.191406 464.066406 187.238281 464.066406 C 187.5 464.066406 189.089844 464.160156 189.28125 464.164062 C 193.753906 464.320312 198.089844 462.339844 200.9375 458.847656 C 203.789062 455.363281 204.855469 450.746094 203.816406 446.363281 C 201.800781 437.824219 200.777344 429.292969 200.777344 421.007812 C 200.777344 356.574219 256.625 304.15625 325.277344 304.15625 C 371.175781 304.15625 413.226562 327.769531 435 365.773438 C 438.253906 371.449219 444.898438 374.25 451.230469 372.582031 C 452.605469 372.21875 453.972656 372.027344 455.347656 371.710938 C 455.496094 371.679688 455.640625 371.730469 455.792969 371.695312 C 460.53125 370.621094 465.019531 369.867188 469.40625 369.285156 C 470.492188 369.160156 471.585938 369.023438 472.671875 368.921875 C 475.351562 368.636719 477.941406 368.527344 480.527344 368.425781 C 482.785156 368.351562 485.042969 368.28125 487.28125 368.324219 C 490.597656 368.390625 493.878906 368.632812 497.152344 368.945312 C 499.753906 369.195312 502.332031 369.507812 504.890625 369.910156 C 508.214844 370.429688 511.515625 371.019531 514.765625 371.789062 C 516.890625 372.292969 518.976562 372.902344 521.0625 373.507812 C 523.558594 374.234375 526.019531 375.027344 528.453125 375.894531 C 530.5625 376.648438 532.675781 377.394531 534.730469 378.25 C 537.398438 379.359375 539.984375 380.617188 542.5625 381.898438 C 545.484375 383.351562 548.335938 384.914062 551.128906 386.578125 C 553.460938 387.96875 555.78125 389.371094 558.011719 390.90625 C 559.832031 392.152344 561.578125 393.484375 563.324219 394.820312 C 565.414062 396.429688 567.445312 398.101562 569.421875 399.839844 C 570.902344 401.128906 572.402344 402.402344 573.8125 403.761719 C 576.996094 406.839844 580.058594 410.039062 582.886719 413.453125 C 583.496094 414.183594 584.019531 414.984375 584.609375 415.730469 C 587.046875 418.824219 589.347656 422.035156 591.46875 425.378906 C 597.074219 434.164062 601.601562 443.671875 604.601562 453.867188 C 606.492188 460.234375 612.515625 464.546875 619.082031 464.242188 L 621.363281 464.117188 C 622.140625 464.066406 622.914062 464.011719 623.703125 464.011719 C 678.738281 464.011719 723.519531 505.960938 723.519531 557.53125 C 723.519531 609.097656 678.738281 651.054688 623.703125 651.054688 Z M 623.703125 651.054688 " fill-opacity="1" fill-rule="nonzero"/></g></svg>