<svg xmlns="http://www.w3.org/2000/svg" xmlns:xlink="http://www.w3.org/1999/xlink" width="1080" zoomAndPan="magnify" viewBox="0 0 810 809.999993" height="1080" preserveAspectRatio="xMidYMid meet" version="1.0"><defs><clipPath id="7825346c7a"><path d="M 214 214.648438 L 596 214.648438 L 596 595.648438 L 214 595.648438 Z M 214 214.648438 " clip-rule="nonzero"/></clipPath><clipPath id="2b31b39dd1"><path d="M 291.6875 364.292969 L 318.96875 364.292969 L 318.96875 464 L 291.6875 464 Z M 291.6875 364.292969 " clip-rule="nonzero"/></clipPath><clipPath id="f5cd57f3b4"><path d="M 407 267.378906 L 452 267.378906 L 452 311 L 407 311 Z M 407 267.378906 " clip-rule="nonzero"/></clipPath><clipPath id="7b5d605244"><path d="M 423 282 L 472.828125 282 L 472.828125 303 L 423 303 Z M 423 282 " clip-rule="nonzero"/></clipPath><clipPath id="1a6dfa505c"><path d="M 312.097656 465.515625 L 326 465.515625 L 326 542.628906 L 312.097656 542.628906 Z M 312.097656 465.515625 " clip-rule="nonzero"/></clipPath></defs><path fill="#084d22" d="M 211.191406 575.878906 C 171.003906 530.328125 146.609375 470.507812 146.609375 405.007812 C 146.609375 339.5 171.007812 279.675781 211.203125 234.125 C 194.730469 240.785156 178.773438 248.265625 163.410156 256.511719 C 95.605469 292.894531 39.195312 344.117188 0 405 C 39.195312 465.890625 95.605469 517.113281 163.40625 553.496094 C 178.773438 561.738281 194.722656 569.222656 211.191406 575.878906 Z M 211.191406 575.878906 " fill-opacity="1" fill-rule="nonzero"/><path fill="#084d22" d="M 598.804688 234.125 C 638.996094 279.675781 663.398438 339.5 663.398438 405.007812 C 663.398438 470.507812 639.003906 530.328125 598.816406 575.878906 C 615.289062 569.222656 631.242188 561.738281 646.597656 553.496094 C 714.402344 517.113281 770.8125 465.890625 810.011719 405 C 770.8125 344.117188 714.402344 292.898438 646.597656 256.511719 C 631.230469 248.265625 615.28125 240.785156 598.804688 234.125 Z M 598.804688 234.125 " fill-opacity="1" fill-rule="nonzero"/><g clip-path="url(#7825346c7a)"><path fill="#00bc46" d="M 473.535156 356.25 C 486.140625 356.25 496.367188 366.480469 496.367188 379.09375 C 496.367188 391.703125 486.140625 401.929688 473.535156 401.929688 C 460.917969 401.929688 450.683594 391.703125 450.683594 379.09375 C 450.683594 366.480469 460.917969 356.25 473.535156 356.25 Z M 405.003906 214.824219 C 442.53125 214.824219 477.527344 225.703125 507.007812 244.476562 C 490.125 251.039062 478.160156 267.441406 478.160156 286.636719 C 478.160156 311.605469 498.402344 331.855469 523.371094 331.855469 C 542.570312 331.855469 558.972656 319.886719 565.539062 303.007812 C 584.304688 332.488281 595.1875 367.476562 595.1875 405.007812 C 595.1875 510.027344 510.019531 595.191406 405.003906 595.191406 C 299.988281 595.191406 214.820312 510.027344 214.820312 405.007812 C 214.820312 299.992188 299.988281 214.824219 405.003906 214.824219 Z M 405.003906 214.824219 " fill-opacity="1" fill-rule="evenodd"/></g><g clip-path="url(#2b31b39dd1)"><path fill="#ffebad" d="M 318.054688 430.039062 C 315.65625 422.992188 299.480469 409.480469 297.453125 398.589844 C 301.027344 383.328125 313.042969 364.679688 313.117188 364.816406 C 301.160156 381.902344 297.246094 395.746094 297.214844 395.648438 C 296.722656 395.375 286.9375 428.140625 294.628906 442.9375 C 301.820312 458.261719 315.355469 463.839844 315.242188 463.859375 C 314.867188 463.671875 319.949219 438.105469 318.054688 430.039062 " fill-opacity="1" fill-rule="nonzero"/></g><path fill="#ffebad" d="M 328.320312 431.273438 C 334.355469 424.964844 356.558594 420.363281 364.753906 416.257812 C 370.570312 407.121094 376.289062 394.613281 376.40625 394.609375 C 371.320312 406.699219 366.851562 414.878906 366.765625 414.898438 C 366.464844 414.816406 356.882812 434.589844 345.226562 445.25 C 332.738281 455.992188 318.335938 463.746094 318.3125 463.683594 C 317.847656 463.675781 321.179688 437.847656 328.320312 431.273438 " fill-opacity="1" fill-rule="nonzero"/><path fill="#ffebad" d="M 331.359375 395.671875 C 330.398438 389.085938 318.894531 374.089844 318.710938 364.15625 C 323.902344 351.292969 336.667969 336.445312 336.714844 336.558594 C 324.203125 350.054688 318.933594 361.597656 318.921875 361.515625 C 318.410156 361.183594 303.40625 392.308594 308.121094 406.324219 C 312.257812 420.632812 323.78125 424.40625 323.644531 424.464844 C 323.386719 424.285156 331.78125 403.105469 331.359375 395.671875 " fill-opacity="1" fill-rule="nonzero"/><path fill="#ffebad" d="M 339.863281 398.511719 C 345.953125 394.007812 365.707031 393.300781 373.386719 390.933594 C 379.851562 383.679688 386.75 373.164062 386.847656 373.171875 C 380.566406 383.410156 375.398438 390.035156 375.328125 390.042969 C 375.097656 389.9375 363.679688 406.097656 352.042969 413.328125 C 339.734375 420.503906 326.253906 424.914062 326.246094 424.871094 C 325.894531 424.816406 332.84375 403.113281 339.863281 398.511719 " fill-opacity="1" fill-rule="nonzero"/><path fill="#ffebad" d="M 347.765625 367.457031 C 347.882812 361.40625 340.398438 345.804688 341.59375 336.824219 C 347.792969 326.046875 360.757812 314.3125 360.785156 314.40625 C 348.210938 324.96875 342.132812 334.542969 342.132812 334.476562 C 341.738281 334.160156 324.40625 360.0625 326.417969 373.152344 C 327.886719 386.441406 337.066406 391.699219 336.945312 391.734375 C 336.765625 391.566406 347.078125 374.214844 347.765625 367.457031 " fill-opacity="1" fill-rule="nonzero"/><path fill="#ffebad" d="M 354.632812 371.347656 C 360.503906 368.277344 377.792969 370.390625 384.800781 369.375 C 391.519531 363.734375 399.121094 355.007812 399.203125 355.027344 C 392.1875 363.585938 386.679688 368.851562 386.621094 368.847656 C 386.375 368.675781 372.410156 384.351562 361.40625 389.1875 C 349.765625 393.890625 339.066406 392.621094 339.089844 392.527344 C 338.820312 392.457031 347.972656 374.398438 354.632812 371.347656 " fill-opacity="1" fill-rule="nonzero"/><path fill="#ffebad" d="M 365.839844 344.496094 C 366.777344 339.003906 362.726562 323.398438 364.964844 315.339844 C 371.765625 306.339844 384.59375 297.167969 384.609375 297.25 C 372.265625 305.410156 365.742188 313.3125 365.742188 313.261719 C 365.429688 312.964844 346.734375 334.40625 346.679688 346.460938 C 346.121094 358.644531 353.214844 364.792969 353.109375 364.804688 C 352.984375 364.65625 364.324219 350.578125 365.839844 344.496094 " fill-opacity="1" fill-rule="nonzero"/><path fill="#ffebad" d="M 371.234375 349.042969 C 376.746094 347.101562 391.6875 351.230469 397.972656 351.246094 C 404.691406 346.976562 412.667969 339.835938 412.738281 339.855469 C 405.304688 346.925781 399.695312 351.019531 399.644531 351.011719 C 399.453125 350.839844 384.734375 363.566406 374.519531 366.269531 C 363.785156 368.777344 354.808594 365.929688 354.835938 365.859375 C 354.625 365.773438 365.058594 350.882812 371.234375 349.042969 " fill-opacity="1" fill-rule="nonzero"/><path fill="#ffebad" d="M 384.675781 325.988281 C 386.230469 321.042969 385.105469 305.835938 388.132812 298.648438 C 395.265625 291.175781 407.757812 284.105469 407.765625 284.171875 C 395.820312 290.367188 389.082031 296.859375 389.089844 296.816406 C 388.839844 296.542969 369.402344 314.171875 367.757812 325.164062 C 365.644531 336.234375 370.917969 342.855469 370.832031 342.859375 C 370.746094 342.726562 382.53125 331.417969 384.675781 325.988281 " fill-opacity="1" fill-rule="nonzero"/><path fill="#ffebad" d="M 388.761719 330.90625 C 393.839844 329.84375 406.636719 335.382812 412.195312 336.1875 C 418.746094 333.058594 426.875 327.300781 426.929688 327.324219 C 419.304688 333.085938 413.75 336.1875 413.703125 336.175781 C 413.554688 336.003906 398.519531 346.167969 389.226562 347.21875 C 379.515625 348.039062 372.144531 344.121094 372.175781 344.066406 C 372.007812 343.976562 383.121094 331.804688 388.761719 330.90625 " fill-opacity="1" fill-rule="nonzero"/><path fill="#ffebad" d="M 403.679688 311.226562 C 405.707031 306.804688 407.054688 292.269531 410.6875 285.890625 C 417.972656 279.71875 430.011719 274.382812 430.011719 274.4375 C 418.566406 279.027344 411.765625 284.320312 411.773438 284.285156 C 411.570312 284.027344 391.808594 298.402344 388.9375 308.351562 C 385.625 318.335938 389.332031 325.140625 389.253906 325.136719 C 389.195312 325.019531 401.058594 316.050781 403.679688 311.226562 " fill-opacity="1" fill-rule="nonzero"/><path fill="#ffebad" d="M 406.625 316.304688 C 411.25 315.9375 422.101562 322.441406 426.957031 323.824219 C 433.253906 321.648438 441.371094 317.082031 441.421875 317.109375 C 433.753906 321.730469 428.351562 324 428.308594 323.984375 C 428.191406 323.824219 413.128906 331.769531 404.800781 331.546875 C 396.132812 331.082031 390.234375 326.472656 390.269531 326.429688 C 390.132812 326.34375 401.523438 316.488281 406.625 316.304688 " fill-opacity="1" fill-rule="nonzero"/><g clip-path="url(#f5cd57f3b4)"><path fill="#ffebad" d="M 422.472656 299.617188 C 424.855469 295.6875 428.308594 281.996094 432.394531 276.359375 C 439.710938 271.304688 451.242188 267.394531 451.242188 267.441406 C 440.332031 270.710938 433.570312 274.988281 433.578125 274.957031 C 433.410156 274.71875 413.597656 286.304688 409.773438 295.257812 C 405.542969 304.210938 407.898438 310.996094 407.832031 310.988281 C 407.789062 310.886719 419.5 303.878906 422.472656 299.617188 " fill-opacity="1" fill-rule="nonzero"/></g><path fill="#ffebad" d="M 424.421875 304.714844 C 428.597656 304.875 437.726562 312.003906 441.921875 313.8125 C 447.902344 312.425781 455.90625 308.890625 455.945312 308.914062 C 448.347656 312.550781 443.15625 314.121094 443.121094 314.105469 C 443.023438 313.953125 428.125 319.992188 420.75 318.804688 C 413.105469 317.371094 408.519531 312.347656 408.554688 312.316406 C 408.445312 312.234375 419.847656 304.339844 424.421875 304.714844 " fill-opacity="1" fill-rule="nonzero"/><g clip-path="url(#7b5d605244)"><path fill="#ffebad" d="M 458.398438 287.074219 C 463.050781 285.253906 467.808594 283.589844 472.679688 282.082031 C 467.824219 283.183594 463.035156 284.449219 458.308594 285.863281 C 459.390625 285.949219 441.824219 277.296875 423.855469 301.9375 C 448.3125 303.195312 457.582031 287.335938 458.398438 287.074219 " fill-opacity="1" fill-rule="nonzero"/></g><g clip-path="url(#1a6dfa505c)"><path fill="#ffebad" d="M 323.121094 542.253906 C 321.222656 543.136719 319.324219 542.492188 318.90625 540.808594 C 312.890625 516.664062 311.183594 492.441406 313.300781 468.96875 C 313.449219 467.332031 315.011719 465.917969 316.769531 465.796875 C 318.53125 465.679688 319.832031 466.855469 319.707031 468.421875 C 317.867188 491.125 319.734375 514.5 325.773438 537.75 C 326.191406 539.355469 325.015625 541.371094 323.121094 542.253906 " fill-opacity="1" fill-rule="nonzero"/></g></svg>