<svg xmlns="http://www.w3.org/2000/svg" xmlns:xlink="http://www.w3.org/1999/xlink" width="1080" zoomAndPan="magnify" viewBox="0 0 810 809.999993" height="1080" preserveAspectRatio="xMidYMid meet" version="1.0"><defs><clipPath id="44ed1c41ad"><path d="M 198.796875 122.53125 L 611 122.53125 L 611 639 L 198.796875 639 Z M 198.796875 122.53125 " clip-rule="nonzero"/></clipPath></defs><g clip-path="url(#44ed1c41ad)"><path fill="#64e3eb" d="M 538.992188 350.5 C 536.773438 346.867188 530.824219 346.867188 528.507812 350.5 C 528.40625 350.699219 516.207031 370.160156 501.988281 395.367188 C 460.449219 314.90625 398.441406 225.375 397.835938 224.464844 C 396.625 222.753906 394.8125 221.84375 392.796875 221.84375 C 382.007812 224.667969 247 430.152344 245.386719 502.542969 C 246.800781 637.550781 433.226562 687.457031 513.382812 580.378906 C 561.476562 594.699219 611.183594 555.78125 610.578125 505.367188 C 610.578125 464.429688 542.015625 355.136719 538.992188 350.5 Z M 533.851562 570.902344 C 498.863281 571.207031 469.019531 540.757812 469.523438 505.367188 C 469.523438 489.636719 482.933594 456.367188 507.332031 411.597656 C 517.820312 392.339844 528.003906 375.300781 533.851562 365.621094 C 555.730469 401.414062 598.175781 476.832031 598.175781 505.367188 C 598.175781 541.5625 569.242188 570.902344 533.851562 570.902344 Z M 295.398438 220.9375 C 295.398438 195.730469 256.78125 132.511719 252.34375 125.457031 C 251.238281 123.640625 249.21875 122.53125 247.101562 122.53125 C 244.984375 122.53125 242.96875 123.640625 241.859375 125.457031 C 237.421875 132.613281 198.808594 195.832031 198.808594 220.9375 C 201.226562 286.976562 292.976562 286.976562 295.398438 220.9375 Z M 211.207031 220.9375 C 211.207031 205.007812 233.691406 163.46875 247.101562 140.679688 C 260.511719 163.46875 282.996094 205.007812 282.996094 220.9375 C 281.484375 270.441406 212.722656 270.441406 211.207031 220.9375 Z M 211.207031 220.9375 " fill-opacity="1" fill-rule="nonzero"/></g></svg>