<svg xmlns="http://www.w3.org/2000/svg" xmlns:xlink="http://www.w3.org/1999/xlink" width="1080" zoomAndPan="magnify" viewBox="0 0 810 809.999993" height="1080" preserveAspectRatio="xMidYMid meet" version="1.0"><defs><clipPath id="bbd38f3192"><path d="M 291.691406 121.988281 L 481.699219 121.988281 L 481.699219 687.960938 L 291.691406 687.960938 Z M 291.691406 121.988281 " clip-rule="nonzero"/></clipPath><clipPath id="fdaeefbf8a"><path d="M 459 336 L 518.191406 336 L 518.191406 352 L 459 352 Z M 459 336 " clip-rule="nonzero"/></clipPath><clipPath id="d0867ee06f"><path d="M 459 459 L 518.191406 459 L 518.191406 475 L 459 475 Z M 459 459 " clip-rule="nonzero"/></clipPath><clipPath id="91a31e9872"><path d="M 459 212 L 518.191406 212 L 518.191406 228 L 459 228 Z M 459 212 " clip-rule="nonzero"/></clipPath></defs><g clip-path="url(#bbd38f3192)"><path fill="#00bc46" d="M 426.265625 525.390625 C 450.179688 539.453125 465.03125 565.398438 465.03125 593.089844 C 465.03125 636.363281 429.828125 671.5625 386.550781 671.5625 C 343.285156 671.5625 308.082031 636.363281 308.082031 593.089844 C 308.082031 565.398438 322.933594 539.453125 346.847656 525.390625 C 349.339844 523.925781 350.890625 521.222656 350.890625 518.332031 L 350.890625 174.039062 C 350.890625 154.375 366.886719 138.371094 386.550781 138.371094 C 406.226562 138.371094 422.226562 154.375 422.226562 174.039062 L 422.226562 518.332031 C 422.226562 521.222656 423.773438 523.925781 426.265625 525.390625 Z M 468.503906 545.273438 C 461.136719 532.671875 450.820312 521.808594 438.617188 513.78125 L 438.617188 174.039062 C 438.617188 145.332031 415.261719 121.980469 386.550781 121.980469 C 357.851562 121.980469 334.496094 145.332031 334.496094 174.039062 L 334.496094 513.78125 C 322.292969 521.808594 311.984375 532.671875 304.609375 545.273438 C 296.15625 559.722656 291.691406 576.265625 291.691406 593.089844 C 291.691406 645.402344 334.25 687.953125 386.550781 687.953125 C 438.863281 687.953125 481.421875 645.402344 481.421875 593.089844 C 481.421875 576.265625 476.953125 559.722656 468.503906 545.273438 " fill-opacity="1" fill-rule="nonzero"/></g><path fill="#00bc46" d="M 404.890625 538.976562 L 404.890625 414.480469 C 404.890625 404.511719 396.8125 396.433594 386.84375 396.433594 C 376.882812 396.433594 368.800781 404.511719 368.800781 414.480469 L 368.800781 538.785156 C 345.335938 546.296875 328.347656 568.285156 328.347656 594.234375 C 328.347656 626.390625 354.40625 652.449219 386.558594 652.449219 C 418.707031 652.449219 444.765625 626.390625 444.765625 594.234375 C 444.765625 568.496094 428.054688 546.65625 404.890625 538.976562 " fill-opacity="1" fill-rule="nonzero"/><path fill="#00bc46" d="M 493.964844 450.371094 L 464.785156 450.371094 C 462.035156 450.371094 459.800781 448.140625 459.800781 445.386719 C 459.800781 442.636719 462.035156 440.402344 464.785156 440.402344 L 493.964844 440.402344 C 496.722656 440.402344 498.949219 442.636719 498.949219 445.386719 C 498.949219 448.140625 496.722656 450.371094 493.964844 450.371094 " fill-opacity="1" fill-rule="nonzero"/><path fill="#00bc46" d="M 493.964844 494.539062 L 464.785156 494.539062 C 462.035156 494.539062 459.800781 492.304688 459.800781 489.554688 C 459.800781 486.800781 462.035156 484.570312 464.785156 484.570312 L 493.964844 484.570312 C 496.722656 484.570312 498.949219 486.800781 498.949219 489.554688 C 498.949219 492.304688 496.722656 494.539062 493.964844 494.539062 " fill-opacity="1" fill-rule="nonzero"/><path fill="#00bc46" d="M 493.964844 430.503906 L 464.785156 430.503906 C 462.035156 430.503906 459.800781 428.269531 459.800781 425.511719 C 459.800781 422.761719 462.035156 420.535156 464.785156 420.535156 L 493.964844 420.535156 C 496.722656 420.535156 498.949219 422.761719 498.949219 425.511719 C 498.949219 428.269531 496.722656 430.503906 493.964844 430.503906 " fill-opacity="1" fill-rule="nonzero"/><path fill="#00bc46" d="M 493.964844 410.625 L 464.785156 410.625 C 462.035156 410.625 459.800781 408.390625 459.800781 405.640625 C 459.800781 402.890625 462.035156 400.65625 464.785156 400.65625 L 493.964844 400.65625 C 496.722656 400.65625 498.949219 402.890625 498.949219 405.640625 C 498.949219 408.390625 496.722656 410.625 493.964844 410.625 " fill-opacity="1" fill-rule="nonzero"/><path fill="#00bc46" d="M 493.964844 390.75 L 464.785156 390.75 C 462.035156 390.75 459.800781 388.523438 459.800781 385.765625 C 459.800781 383.011719 462.035156 380.78125 464.785156 380.78125 L 493.964844 380.78125 C 496.722656 380.78125 498.949219 383.011719 498.949219 385.765625 C 498.949219 388.523438 496.722656 390.75 493.964844 390.75 " fill-opacity="1" fill-rule="nonzero"/><path fill="#00bc46" d="M 493.964844 370.878906 L 464.785156 370.878906 C 462.035156 370.878906 459.800781 368.644531 459.800781 365.894531 C 459.800781 363.144531 462.035156 360.910156 464.785156 360.910156 L 493.964844 360.910156 C 496.722656 360.910156 498.949219 363.144531 498.949219 365.894531 C 498.949219 368.644531 496.722656 370.878906 493.964844 370.878906 " fill-opacity="1" fill-rule="nonzero"/><g clip-path="url(#fdaeefbf8a)"><path fill="#00bc46" d="M 510.832031 351.289062 L 467.058594 351.289062 C 462.933594 351.289062 459.582031 347.9375 459.582031 343.8125 C 459.582031 339.683594 462.933594 336.335938 467.058594 336.335938 L 510.832031 336.335938 C 514.957031 336.335938 518.308594 339.683594 518.308594 343.8125 C 518.308594 347.9375 514.957031 351.289062 510.832031 351.289062 " fill-opacity="1" fill-rule="nonzero"/></g><g clip-path="url(#d0867ee06f)"><path fill="#00bc46" d="M 510.832031 474.949219 L 467.058594 474.949219 C 462.933594 474.949219 459.582031 471.597656 459.582031 467.46875 C 459.582031 463.34375 462.933594 459.992188 467.058594 459.992188 L 510.832031 459.992188 C 514.957031 459.992188 518.308594 463.34375 518.308594 467.46875 C 518.308594 471.597656 514.957031 474.949219 510.832031 474.949219 " fill-opacity="1" fill-rule="nonzero"/></g><path fill="#00bc46" d="M 493.964844 326.714844 L 464.785156 326.714844 C 462.035156 326.714844 459.800781 324.480469 459.800781 321.730469 C 459.800781 318.976562 462.035156 316.746094 464.785156 316.746094 L 493.964844 316.746094 C 496.722656 316.746094 498.949219 318.976562 498.949219 321.730469 C 498.949219 324.480469 496.722656 326.714844 493.964844 326.714844 " fill-opacity="1" fill-rule="nonzero"/><path fill="#00bc46" d="M 493.964844 306.835938 L 464.785156 306.835938 C 462.035156 306.835938 459.800781 304.609375 459.800781 301.851562 C 459.800781 299.101562 462.035156 296.867188 464.785156 296.867188 L 493.964844 296.867188 C 496.722656 296.867188 498.949219 299.101562 498.949219 301.851562 C 498.949219 304.609375 496.722656 306.835938 493.964844 306.835938 " fill-opacity="1" fill-rule="nonzero"/><path fill="#00bc46" d="M 493.964844 286.96875 L 464.785156 286.96875 C 462.035156 286.96875 459.800781 284.734375 459.800781 281.980469 C 459.800781 279.222656 462.035156 276.996094 464.785156 276.996094 L 493.964844 276.996094 C 496.722656 276.996094 498.949219 279.222656 498.949219 281.980469 C 498.949219 284.734375 496.722656 286.96875 493.964844 286.96875 " fill-opacity="1" fill-rule="nonzero"/><path fill="#00bc46" d="M 493.964844 267.089844 L 464.785156 267.089844 C 462.035156 267.089844 459.800781 264.855469 459.800781 262.105469 C 459.800781 259.355469 462.035156 257.121094 464.785156 257.121094 L 493.964844 257.121094 C 496.722656 257.121094 498.949219 259.355469 498.949219 262.105469 C 498.949219 264.855469 496.722656 267.089844 493.964844 267.089844 " fill-opacity="1" fill-rule="nonzero"/><path fill="#00bc46" d="M 493.964844 247.21875 L 464.785156 247.21875 C 462.035156 247.21875 459.800781 244.988281 459.800781 242.230469 C 459.800781 239.476562 462.035156 237.25 464.785156 237.25 L 493.964844 237.25 C 496.722656 237.25 498.949219 239.476562 498.949219 242.230469 C 498.949219 244.988281 496.722656 247.21875 493.964844 247.21875 " fill-opacity="1" fill-rule="nonzero"/><g clip-path="url(#91a31e9872)"><path fill="#00bc46" d="M 510.832031 227.628906 L 467.058594 227.628906 C 462.933594 227.628906 459.582031 224.28125 459.582031 220.152344 C 459.582031 216.019531 462.933594 212.675781 467.058594 212.675781 L 510.832031 212.675781 C 514.957031 212.675781 518.308594 216.019531 518.308594 220.152344 C 518.308594 224.28125 514.957031 227.628906 510.832031 227.628906 " fill-opacity="1" fill-rule="nonzero"/></g><path fill="#00bc46" d="M 493.964844 203.054688 L 464.785156 203.054688 C 462.035156 203.054688 459.800781 200.820312 459.800781 198.070312 C 459.800781 195.3125 462.035156 193.085938 464.785156 193.085938 L 493.964844 193.085938 C 496.722656 193.085938 498.949219 195.3125 498.949219 198.070312 C 498.949219 200.820312 496.722656 203.054688 493.964844 203.054688 " fill-opacity="1" fill-rule="nonzero"/></svg>