<svg xmlns="http://www.w3.org/2000/svg" xmlns:xlink="http://www.w3.org/1999/xlink" width="1080" zoomAndPan="magnify" viewBox="0 0 810 809.999993" height="1080" preserveAspectRatio="xMidYMid meet" version="1.0"><defs><clipPath id="bcdde4e3b7"><path d="M 403 290.21875 L 414 290.21875 L 414 322 L 403 322 Z M 403 290.21875 " clip-rule="nonzero"/></clipPath><clipPath id="c9e0d8649f"><path d="M 372 354 L 626.453125 354 L 626.453125 497 L 372 497 Z M 372 354 " clip-rule="nonzero"/></clipPath><clipPath id="8f6f4344f9"><path d="M 183.203125 373 L 485 373 L 485 519.71875 L 183.203125 519.71875 Z M 183.203125 373 " clip-rule="nonzero"/></clipPath></defs><path fill="#f0f8ff" d="M 409.671875 437.257812 C 409.398438 437.273438 409.117188 437.28125 408.839844 437.28125 L 229.515625 437.28125 C 229.394531 437.28125 229.269531 437.28125 229.148438 437.277344 C 229.019531 437.28125 228.894531 437.28125 228.769531 437.28125 C 214.375 437.28125 202.710938 425.609375 202.710938 411.214844 C 202.710938 396.8125 214.375 385.140625 228.769531 385.140625 C 231.914062 385.140625 234.925781 385.699219 237.714844 386.722656 C 239.570312 368.5 254.953125 354.277344 273.652344 354.277344 C 274.265625 354.277344 274.882812 354.296875 275.492188 354.324219 C 282.734375 337.722656 299.285156 326.121094 318.546875 326.121094 C 340.527344 326.121094 358.980469 341.234375 364.097656 361.636719 C 367.507812 360.570312 371.128906 359.996094 374.890625 359.996094 C 394.203125 359.996094 409.976562 375.160156 410.96875 394.238281 C 422.734375 394.367188 432.234375 403.953125 432.234375 415.757812 C 432.234375 427.644531 422.597656 437.28125 410.722656 437.28125 C 410.367188 437.28125 410.023438 437.273438 409.671875 437.257812 Z M 409.671875 437.257812 " fill-opacity="1" fill-rule="evenodd"/><path fill="#ffc44f" d="M 408.785156 330.503906 C 439.667969 330.503906 464.707031 355.550781 464.707031 386.449219 C 464.707031 417.351562 439.667969 442.398438 408.785156 442.398438 C 377.898438 442.398438 352.863281 417.351562 352.863281 386.449219 C 352.863281 355.550781 377.902344 330.503906 408.785156 330.503906 Z M 408.785156 330.503906 " fill-opacity="1" fill-rule="evenodd"/><path fill="#ffe66b" d="M 408.785156 330.503906 C 439.667969 330.503906 464.707031 355.550781 464.707031 386.449219 C 464.707031 386.890625 464.695312 387.332031 464.6875 387.777344 C 456.367188 399.667969 442.566406 407.449219 426.945312 407.449219 C 401.519531 407.449219 380.910156 386.828125 380.910156 361.390625 C 380.910156 350.988281 384.355469 341.390625 390.167969 333.683594 C 395.992188 331.625 402.257812 330.503906 408.785156 330.503906 Z M 408.785156 330.503906 " fill-opacity="1" fill-rule="evenodd"/><g clip-path="url(#bcdde4e3b7)"><path fill="#ffc44f" d="M 408.785156 290.226562 C 411.421875 290.226562 413.578125 292.382812 413.578125 295.023438 L 413.578125 317.054688 C 413.578125 319.691406 411.421875 321.851562 408.785156 321.851562 C 406.148438 321.851562 403.988281 319.695312 403.988281 317.054688 L 403.988281 295.023438 C 403.992188 292.382812 406.148438 290.226562 408.785156 290.226562 Z M 408.785156 290.226562 " fill-opacity="1" fill-rule="evenodd"/></g><path fill="#ffc44f" d="M 360.699219 303.117188 C 362.984375 301.800781 365.929688 302.589844 367.25 304.875 L 378.253906 323.953125 C 379.578125 326.238281 378.785156 329.1875 376.5 330.503906 C 374.21875 331.828125 371.269531 331.035156 369.949219 328.75 L 358.941406 309.675781 C 357.621094 307.390625 358.414062 304.441406 360.699219 303.117188 Z M 360.699219 303.117188 " fill-opacity="1" fill-rule="evenodd"/><path fill="#ffc44f" d="M 325.496094 338.335938 C 326.816406 336.050781 329.761719 335.261719 332.046875 336.582031 L 351.117188 347.597656 C 353.398438 348.914062 354.1875 351.863281 352.871094 354.148438 C 351.546875 356.433594 348.601562 357.222656 346.316406 355.910156 L 327.253906 344.894531 C 324.96875 343.570312 324.175781 340.621094 325.496094 338.335938 Z M 325.496094 338.335938 " fill-opacity="1" fill-rule="evenodd"/><path fill="#ffc44f" d="M 312.613281 386.449219 C 312.613281 383.8125 314.769531 381.652344 317.410156 381.652344 L 339.425781 381.652344 C 342.0625 381.652344 344.21875 383.808594 344.21875 386.449219 C 344.21875 389.089844 342.066406 391.25 339.425781 391.25 L 317.40625 391.25 C 314.769531 391.25 312.613281 389.089844 312.613281 386.449219 Z M 312.613281 386.449219 " fill-opacity="1" fill-rule="evenodd"/><path fill="#ffc44f" d="M 325.496094 434.558594 C 324.175781 432.273438 324.96875 429.324219 327.25 428.007812 L 346.316406 416.996094 C 348.597656 415.671875 351.546875 416.464844 352.867188 418.75 C 354.183594 421.035156 353.398438 423.984375 351.109375 425.304688 L 332.042969 436.320312 C 329.761719 437.636719 326.816406 436.84375 325.496094 434.558594 Z M 325.496094 434.558594 " fill-opacity="1" fill-rule="evenodd"/><path fill="#ffc44f" d="M 360.699219 469.785156 C 358.414062 468.460938 357.625 465.511719 358.941406 463.226562 L 369.949219 444.15625 C 371.269531 441.871094 374.214844 441.078125 376.5 442.394531 C 378.785156 443.71875 379.574219 446.664062 378.253906 448.949219 L 367.246094 468.023438 C 365.929688 470.308594 362.984375 471.101562 360.699219 469.785156 Z M 360.699219 469.785156 " fill-opacity="1" fill-rule="evenodd"/><path fill="#ffc44f" d="M 408.785156 482.675781 C 406.148438 482.675781 403.984375 480.511719 403.984375 477.875 L 403.984375 455.851562 C 403.984375 453.210938 406.148438 451.050781 408.785156 451.050781 C 411.421875 451.050781 413.578125 453.210938 413.578125 455.851562 L 413.578125 477.875 C 413.578125 480.511719 411.421875 482.675781 408.785156 482.675781 Z M 408.785156 482.675781 " fill-opacity="1" fill-rule="evenodd"/><path fill="#ffc44f" d="M 456.871094 469.785156 C 454.585938 471.101562 451.640625 470.308594 450.320312 468.023438 L 439.3125 448.949219 C 437.996094 446.664062 438.785156 443.714844 441.070312 442.394531 C 443.355469 441.078125 446.300781 441.871094 447.621094 444.15625 L 458.628906 463.226562 C 459.945312 465.511719 459.15625 468.460938 456.871094 469.785156 Z M 456.871094 469.785156 " fill-opacity="1" fill-rule="evenodd"/><path fill="#ffc44f" d="M 492.074219 434.558594 C 490.753906 436.851562 487.804688 437.636719 485.519531 436.320312 L 466.457031 425.304688 C 464.171875 423.988281 463.382812 421.035156 464.703125 418.75 C 466.019531 416.464844 468.964844 415.675781 471.253906 416.996094 L 490.320312 428.007812 C 492.601562 429.324219 493.394531 432.273438 492.074219 434.558594 Z M 492.074219 434.558594 " fill-opacity="1" fill-rule="evenodd"/><path fill="#ffc44f" d="M 504.957031 386.449219 C 504.957031 389.089844 502.800781 391.25 500.160156 391.25 L 478.144531 391.25 C 475.507812 391.25 473.351562 389.089844 473.351562 386.449219 C 473.351562 383.8125 475.503906 381.652344 478.144531 381.652344 L 500.160156 381.652344 C 502.800781 381.652344 504.957031 383.808594 504.957031 386.449219 Z M 504.957031 386.449219 " fill-opacity="1" fill-rule="evenodd"/><path fill="#ffc44f" d="M 492.074219 338.335938 C 493.394531 340.621094 492.601562 343.570312 490.320312 344.894531 L 471.253906 355.90625 C 468.972656 357.222656 466.019531 356.433594 464.703125 354.148438 C 463.378906 351.863281 464.171875 348.914062 466.457031 347.59375 L 485.519531 336.582031 C 487.800781 335.261719 490.753906 336.050781 492.074219 338.335938 Z M 492.074219 338.335938 " fill-opacity="1" fill-rule="evenodd"/><path fill="#ffc44f" d="M 456.871094 303.117188 C 459.15625 304.441406 459.945312 307.390625 458.625 309.675781 L 447.621094 328.746094 C 446.300781 331.03125 443.351562 331.824219 441.070312 330.503906 C 438.785156 329.183594 437.996094 326.238281 439.308594 323.949219 L 450.316406 304.871094 C 451.640625 302.589844 454.585938 301.800781 456.871094 303.117188 Z M 456.871094 303.117188 " fill-opacity="1" fill-rule="evenodd"/><g clip-path="url(#c9e0d8649f)"><path fill="#a1c6e6" d="M 603.152344 496.160156 C 601.417969 496.660156 599.59375 496.925781 597.707031 496.925781 L 410.097656 496.925781 C 409.925781 496.925781 409.753906 496.925781 409.578125 496.921875 C 409.402344 496.921875 409.226562 496.925781 409.050781 496.925781 C 388.917969 496.925781 372.605469 480.605469 372.605469 460.464844 C 372.605469 440.324219 388.917969 423.996094 409.050781 423.996094 C 413.445312 423.996094 417.660156 424.777344 421.5625 426.210938 C 424.15625 400.722656 445.667969 380.832031 471.832031 380.832031 C 475.042969 380.832031 478.183594 381.132812 481.230469 381.707031 C 493.152344 365.097656 512.625 354.273438 534.625 354.273438 C 570.90625 354.273438 600.316406 383.699219 600.316406 419.992188 C 600.316406 425.792969 599.558594 431.417969 598.148438 436.773438 C 613.9375 437.695312 626.457031 450.792969 626.457031 466.824219 C 626.457031 481.113281 616.5 493.078125 603.152344 496.160156 Z M 603.152344 496.160156 " fill-opacity="1" fill-rule="evenodd"/></g><g clip-path="url(#8f6f4344f9)"><path fill="#c6e0f7" d="M 212.855469 519.683594 C 213.21875 519.703125 213.582031 519.710938 213.949219 519.710938 L 449.636719 519.710938 C 449.796875 519.710938 449.953125 519.710938 450.117188 519.707031 C 450.28125 519.710938 450.449219 519.710938 450.617188 519.710938 C 469.527344 519.710938 484.859375 504.375 484.859375 485.453125 C 484.859375 466.53125 469.527344 451.1875 450.617188 451.1875 C 446.484375 451.1875 442.523438 451.921875 438.859375 453.261719 C 436.421875 429.3125 416.203125 410.625 391.621094 410.625 C 390.816406 410.625 390.007812 410.644531 389.210938 410.683594 C 379.6875 388.867188 357.9375 373.617188 332.621094 373.617188 C 303.730469 373.617188 279.480469 393.476562 272.753906 420.296875 C 268.273438 418.894531 263.507812 418.136719 258.570312 418.136719 C 233.191406 418.136719 212.460938 438.066406 211.152344 463.136719 C 195.691406 463.308594 183.203125 475.90625 183.203125 491.421875 C 183.203125 507.046875 195.863281 519.710938 211.476562 519.710938 C 211.941406 519.710938 212.398438 519.703125 212.855469 519.683594 Z M 212.855469 519.683594 " fill-opacity="1" fill-rule="evenodd"/></g></svg>