<svg xmlns="http://www.w3.org/2000/svg" xmlns:xlink="http://www.w3.org/1999/xlink" width="1080" zoomAndPan="magnify" viewBox="0 0 810 809.999993" height="1080" preserveAspectRatio="xMidYMid meet" version="1.0"><defs><clipPath id="3c97524962"><path d="M 486 233.414062 L 506 233.414062 L 506 283 L 486 283 Z M 486 233.414062 " clip-rule="nonzero"/></clipPath><clipPath id="269d83e19a"><path d="M 594 371 L 644.726562 371 L 644.726562 392 L 594 392 Z M 594 371 " clip-rule="nonzero"/></clipPath><clipPath id="78e05878ea"><path d="M 166 352 L 553 352 L 553 576.914062 L 166 576.914062 Z M 166 352 " clip-rule="nonzero"/></clipPath></defs><path fill="#ffcc00" d="M 571.554688 381.855469 C 571.554688 383.089844 571.523438 384.328125 571.464844 385.5625 C 571.402344 386.796875 571.3125 388.03125 571.191406 389.261719 C 571.070312 390.492188 570.917969 391.71875 570.738281 392.945312 C 570.554688 394.167969 570.34375 395.386719 570.105469 396.597656 C 569.863281 397.8125 569.59375 399.019531 569.292969 400.21875 C 568.992188 401.417969 568.660156 402.609375 568.300781 403.792969 C 567.945312 404.980469 567.554688 406.152344 567.140625 407.316406 C 566.722656 408.480469 566.277344 409.636719 565.804688 410.777344 C 565.332031 411.921875 564.832031 413.050781 564.300781 414.171875 C 563.773438 415.289062 563.21875 416.394531 562.636719 417.484375 C 562.050781 418.574219 561.441406 419.652344 560.808594 420.710938 C 560.171875 421.773438 559.511719 422.816406 558.824219 423.847656 C 558.136719 424.875 557.425781 425.886719 556.6875 426.878906 C 555.953125 427.875 555.191406 428.847656 554.40625 429.804688 C 553.625 430.761719 552.816406 431.695312 551.984375 432.613281 C 551.15625 433.53125 550.304688 434.425781 549.429688 435.300781 C 548.554688 436.175781 547.660156 437.027344 546.742188 437.859375 C 545.828125 438.6875 544.890625 439.496094 543.933594 440.28125 C 542.980469 441.066406 542.003906 441.828125 541.011719 442.5625 C 540.019531 443.300781 539.007812 444.011719 537.980469 444.699219 C 536.953125 445.386719 535.910156 446.050781 534.847656 446.683594 C 533.789062 447.320312 532.710938 447.929688 531.621094 448.511719 C 530.53125 449.097656 529.425781 449.652344 528.308594 450.179688 C 527.191406 450.710938 526.0625 451.210938 524.917969 451.683594 C 523.777344 452.160156 522.625 452.601562 521.460938 453.019531 C 520.296875 453.4375 519.121094 453.824219 517.9375 454.183594 C 516.757812 454.542969 515.566406 454.871094 514.367188 455.171875 C 513.167969 455.472656 511.960938 455.746094 510.746094 455.984375 C 509.535156 456.226562 508.316406 456.4375 507.09375 456.621094 C 505.871094 456.800781 504.644531 456.953125 503.414062 457.074219 C 502.183594 457.195312 500.953125 457.285156 499.714844 457.347656 C 498.480469 457.410156 497.246094 457.4375 496.007812 457.4375 C 494.773438 457.4375 493.539062 457.410156 492.300781 457.347656 C 491.066406 457.285156 489.835938 457.195312 488.605469 457.074219 C 487.375 456.953125 486.148438 456.800781 484.925781 456.621094 C 483.703125 456.4375 482.484375 456.226562 481.269531 455.984375 C 480.058594 455.746094 478.851562 455.472656 477.652344 455.171875 C 476.453125 454.871094 475.261719 454.542969 474.078125 454.183594 C 472.898438 453.824219 471.722656 453.4375 470.558594 453.019531 C 469.394531 452.601562 468.242188 452.160156 467.097656 451.683594 C 465.957031 451.210938 464.828125 450.710938 463.710938 450.179688 C 462.59375 449.652344 461.488281 449.097656 460.398438 448.511719 C 459.308594 447.929688 458.230469 447.320312 457.171875 446.683594 C 456.109375 446.050781 455.066406 445.386719 454.039062 444.699219 C 453.011719 444.011719 452 443.300781 451.007812 442.5625 C 450.015625 441.828125 449.039062 441.066406 448.082031 440.28125 C 447.128906 439.496094 446.191406 438.6875 445.277344 437.859375 C 444.359375 437.027344 443.464844 436.175781 442.589844 435.300781 C 441.714844 434.425781 440.863281 433.53125 440.035156 432.613281 C 439.203125 431.695312 438.394531 430.761719 437.613281 429.804688 C 436.828125 428.847656 436.066406 427.875 435.332031 426.878906 C 434.59375 425.886719 433.882812 424.875 433.195312 423.847656 C 432.507812 422.816406 431.847656 421.773438 431.210938 420.710938 C 430.574219 419.652344 429.964844 418.574219 429.382812 417.484375 C 428.800781 416.394531 428.246094 415.289062 427.714844 414.171875 C 427.1875 413.050781 426.6875 411.921875 426.214844 410.777344 C 425.742188 409.636719 425.296875 408.480469 424.878906 407.316406 C 424.464844 406.152344 424.074219 404.980469 423.714844 403.792969 C 423.359375 402.609375 423.027344 401.417969 422.726562 400.21875 C 422.425781 399.019531 422.15625 397.8125 421.914062 396.597656 C 421.675781 395.386719 421.460938 394.167969 421.28125 392.945312 C 421.101562 391.71875 420.949219 390.492188 420.828125 389.261719 C 420.707031 388.03125 420.617188 386.796875 420.554688 385.5625 C 420.492188 384.328125 420.464844 383.089844 420.464844 381.855469 C 420.464844 380.617188 420.492188 379.378906 420.554688 378.144531 C 420.617188 376.910156 420.707031 375.675781 420.828125 374.445312 C 420.949219 373.214844 421.101562 371.988281 421.28125 370.761719 C 421.460938 369.539062 421.675781 368.320312 421.914062 367.109375 C 422.15625 365.894531 422.425781 364.6875 422.726562 363.488281 C 423.027344 362.289062 423.359375 361.097656 423.714844 359.914062 C 424.074219 358.730469 424.464844 357.554688 424.878906 356.390625 C 425.296875 355.226562 425.742188 354.070312 426.214844 352.929688 C 426.6875 351.785156 427.1875 350.65625 427.714844 349.535156 C 428.246094 348.417969 428.800781 347.3125 429.382812 346.222656 C 429.964844 345.132812 430.574219 344.054688 431.210938 342.996094 C 431.847656 341.933594 432.507812 340.890625 433.195312 339.859375 C 433.882812 338.832031 434.59375 337.820312 435.332031 336.828125 C 436.066406 335.835938 436.828125 334.859375 437.613281 333.902344 C 438.394531 332.945312 439.203125 332.011719 440.035156 331.09375 C 440.863281 330.175781 441.714844 329.28125 442.589844 328.40625 C 443.464844 327.53125 444.359375 326.679688 445.277344 325.847656 C 446.191406 325.019531 447.128906 324.210938 448.082031 323.425781 C 449.039062 322.640625 450.015625 321.878906 451.007812 321.144531 C 452 320.40625 453.011719 319.695312 454.039062 319.007812 C 455.066406 318.320312 456.109375 317.660156 457.171875 317.023438 C 458.230469 316.386719 459.308594 315.777344 460.398438 315.195312 C 461.488281 314.609375 462.59375 314.054688 463.710938 313.527344 C 464.828125 312.996094 465.957031 312.496094 467.097656 312.023438 C 468.242188 311.550781 469.394531 311.105469 470.558594 310.6875 C 471.722656 310.269531 472.898438 309.882812 474.078125 309.523438 C 475.261719 309.164062 476.453125 308.835938 477.652344 308.535156 C 478.851562 308.234375 480.058594 307.960938 481.269531 307.722656 C 482.484375 307.480469 483.703125 307.269531 484.925781 307.085938 C 486.148438 306.90625 487.375 306.753906 488.605469 306.632812 C 489.835938 306.511719 491.066406 306.421875 492.300781 306.359375 C 493.539062 306.300781 494.773438 306.269531 496.007812 306.269531 C 497.246094 306.269531 498.480469 306.300781 499.714844 306.359375 C 500.953125 306.421875 502.183594 306.511719 503.414062 306.632812 C 504.644531 306.753906 505.871094 306.90625 507.09375 307.085938 C 508.316406 307.269531 509.535156 307.480469 510.746094 307.722656 C 511.960938 307.960938 513.167969 308.234375 514.367188 308.535156 C 515.566406 308.835938 516.757812 309.164062 517.9375 309.523438 C 519.121094 309.882812 520.296875 310.269531 521.460938 310.6875 C 522.625 311.105469 523.777344 311.550781 524.917969 312.023438 C 526.0625 312.496094 527.191406 312.996094 528.308594 313.527344 C 529.425781 314.054688 530.53125 314.609375 531.621094 315.195312 C 532.710938 315.777344 533.789062 316.386719 534.847656 317.023438 C 535.910156 317.660156 536.953125 318.320312 537.980469 319.007812 C 539.007812 319.695312 540.019531 320.40625 541.011719 321.144531 C 542.003906 321.878906 542.980469 322.640625 543.933594 323.425781 C 544.890625 324.210938 545.828125 325.019531 546.742188 325.847656 C 547.660156 326.679688 548.554688 327.53125 549.429688 328.40625 C 550.304688 329.28125 551.15625 330.175781 551.984375 331.09375 C 552.816406 332.011719 553.625 332.945312 554.40625 333.902344 C 555.191406 334.859375 555.953125 335.835938 556.6875 336.828125 C 557.425781 337.820312 558.136719 338.832031 558.824219 339.859375 C 559.511719 340.890625 560.171875 341.933594 560.808594 342.996094 C 561.441406 344.054688 562.050781 345.132812 562.636719 346.222656 C 563.21875 347.3125 563.773438 348.417969 564.300781 349.535156 C 564.832031 350.65625 565.332031 351.785156 565.804688 352.929688 C 566.277344 354.070312 566.722656 355.226562 567.140625 356.390625 C 567.554688 357.554688 567.945312 358.730469 568.300781 359.914062 C 568.660156 361.097656 568.992188 362.289062 569.292969 363.488281 C 569.59375 364.6875 569.863281 365.894531 570.105469 367.109375 C 570.34375 368.320312 570.554688 369.539062 570.738281 370.761719 C 570.917969 371.988281 571.070312 373.214844 571.191406 374.445312 C 571.3125 375.675781 571.402344 376.910156 571.464844 378.144531 C 571.523438 379.378906 571.554688 380.617188 571.554688 381.855469 Z M 571.554688 381.855469 " fill-opacity="1" fill-rule="nonzero"/><g clip-path="url(#3c97524962)"><path fill="#ffcc00" d="M 496.007812 233.378906 C 490.527344 233.378906 486.117188 238.679688 486.117188 245.257812 L 486.117188 270.996094 C 486.117188 277.574219 490.527344 282.871094 496.007812 282.871094 C 501.488281 282.871094 505.902344 277.574219 505.902344 270.996094 L 505.902344 245.257812 C 505.902344 238.679688 501.488281 233.378906 496.007812 233.378906 Z M 496.007812 233.378906 " fill-opacity="1" fill-rule="nonzero"/></g><path fill="#ffcc00" d="M 600.941406 276.867188 C 597.066406 272.992188 590.203125 273.613281 585.550781 278.269531 L 567.363281 296.464844 C 562.710938 301.117188 562.089844 307.984375 565.964844 311.863281 C 569.839844 315.742188 576.703125 315.117188 581.355469 310.464844 L 599.542969 292.265625 C 604.195312 287.613281 604.816406 280.746094 600.941406 276.867188 Z M 600.941406 276.867188 " fill-opacity="1" fill-rule="nonzero"/><g clip-path="url(#269d83e19a)"><path fill="#ffcc00" d="M 644.40625 381.855469 C 644.40625 376.371094 639.113281 371.957031 632.535156 371.957031 L 606.8125 371.957031 C 600.234375 371.957031 594.941406 376.371094 594.941406 381.855469 C 594.941406 387.339844 600.234375 391.753906 606.8125 391.753906 L 632.535156 391.753906 C 639.113281 391.753906 644.40625 387.339844 644.40625 381.855469 Z M 644.40625 381.855469 " fill-opacity="1" fill-rule="nonzero"/></g><path fill="#ffcc00" d="M 600.941406 486.84375 C 604.816406 482.964844 604.195312 476.097656 599.542969 471.445312 L 581.355469 453.246094 C 576.703125 448.59375 569.839844 447.96875 565.964844 451.847656 C 562.089844 455.722656 562.710938 462.59375 567.363281 467.246094 L 585.550781 485.441406 C 590.203125 490.097656 597.066406 490.71875 600.941406 486.84375 Z M 600.941406 486.84375 " fill-opacity="1" fill-rule="nonzero"/><path fill="#ffcc00" d="M 496.007812 530.328125 C 501.488281 530.328125 505.902344 525.03125 505.902344 518.453125 L 505.902344 492.714844 C 505.902344 486.136719 501.488281 480.839844 496.007812 480.839844 C 490.527344 480.839844 486.117188 486.136719 486.117188 492.714844 L 486.117188 518.453125 C 486.117188 525.03125 490.527344 530.328125 496.007812 530.328125 Z M 496.007812 530.328125 " fill-opacity="1" fill-rule="nonzero"/><path fill="#ffcc00" d="M 391.074219 486.84375 C 394.949219 490.71875 401.816406 490.097656 406.464844 485.441406 L 424.652344 467.246094 C 429.304688 462.59375 429.929688 455.722656 426.054688 451.847656 C 422.179688 447.96875 415.3125 448.59375 410.664062 453.246094 L 392.476562 471.445312 C 387.824219 476.097656 387.199219 482.964844 391.074219 486.84375 Z M 391.074219 486.84375 " fill-opacity="1" fill-rule="nonzero"/><path fill="#ffcc00" d="M 347.609375 381.855469 C 347.609375 387.339844 352.90625 391.753906 359.484375 391.753906 L 385.203125 391.753906 C 391.78125 391.753906 397.078125 387.339844 397.078125 381.855469 C 397.078125 376.371094 391.78125 371.957031 385.203125 371.957031 L 359.484375 371.957031 C 352.90625 371.957031 347.609375 376.371094 347.609375 381.855469 Z M 347.609375 381.855469 " fill-opacity="1" fill-rule="nonzero"/><path fill="#ffcc00" d="M 391.074219 276.867188 C 387.199219 280.746094 387.824219 287.613281 392.476562 292.265625 L 410.664062 310.464844 C 415.3125 315.117188 422.179688 315.742188 426.054688 311.863281 C 429.929688 307.984375 429.304688 301.117188 424.652344 296.464844 L 406.464844 278.269531 C 401.816406 273.613281 394.949219 272.992188 391.074219 276.867188 Z M 391.074219 276.867188 " fill-opacity="1" fill-rule="nonzero"/><g clip-path="url(#78e05878ea)"><path fill="#c6e0f7" d="M 308.246094 352.683594 C 306.835938 352.683594 305.429688 352.71875 304.023438 352.789062 C 302.617188 352.859375 301.214844 352.960938 299.8125 353.097656 C 298.410156 353.238281 297.011719 353.410156 295.621094 353.617188 C 294.226562 353.824219 292.839844 354.0625 291.460938 354.339844 C 290.078125 354.613281 288.707031 354.921875 287.339844 355.265625 C 285.972656 355.605469 284.617188 355.984375 283.269531 356.390625 C 281.921875 356.800781 280.585938 357.242188 279.257812 357.71875 C 277.933594 358.191406 276.621094 358.699219 275.320312 359.238281 C 274.019531 359.777344 272.730469 360.347656 271.460938 360.949219 C 270.1875 361.550781 268.929688 362.1875 267.6875 362.851562 C 266.445312 363.515625 265.21875 364.207031 264.011719 364.933594 C 262.804688 365.65625 261.617188 366.410156 260.445312 367.191406 C 259.273438 367.976562 258.125 368.785156 256.992188 369.625 C 255.863281 370.464844 254.75 371.332031 253.664062 372.226562 C 252.574219 373.121094 251.507812 374.039062 250.464844 374.984375 C 249.421875 375.929688 248.402344 376.902344 247.40625 377.898438 C 246.410156 378.894531 245.441406 379.914062 244.496094 380.957031 C 243.550781 382.003906 242.628906 383.070312 241.738281 384.15625 C 240.84375 385.246094 239.976562 386.355469 239.140625 387.488281 C 238.300781 388.621094 237.488281 389.773438 236.707031 390.941406 C 235.925781 392.113281 235.171875 393.304688 234.449219 394.511719 C 233.722656 395.722656 233.03125 396.945312 232.367188 398.1875 C 231.703125 399.429688 231.070312 400.6875 230.46875 401.960938 C 229.867188 403.238281 229.296875 404.523438 228.757812 405.824219 C 228.21875 407.128906 227.710938 408.441406 227.238281 409.765625 C 226.761719 411.09375 226.320312 412.429688 225.910156 413.777344 C 225.503906 415.128906 225.128906 416.484375 224.785156 417.851562 C 224.445312 419.21875 224.136719 420.59375 223.859375 421.972656 C 223.585938 423.355469 223.34375 424.742188 223.136719 426.136719 C 222.933594 427.53125 222.757812 428.929688 222.621094 430.328125 C 222.484375 431.730469 222.378906 433.136719 222.3125 434.542969 C 222.242188 435.949219 222.207031 437.359375 222.207031 438.765625 C 222.226562 441.953125 222.421875 445.128906 222.792969 448.296875 C 190.34375 454.125 166 480.347656 166 512.007812 C 166 547.972656 197.421875 576.929688 236.453125 576.929688 L 487.84375 576.929688 C 523.792969 576.929688 552.734375 550.015625 552.734375 516.582031 C 552.734375 483.359375 524.148438 456.585938 488.511719 456.253906 C 488.230469 454.023438 487.847656 451.8125 487.367188 449.621094 C 486.886719 447.429688 486.304688 445.261719 485.628906 443.121094 C 484.949219 440.980469 484.179688 438.875 483.3125 436.804688 C 482.441406 434.734375 481.484375 432.707031 480.433594 430.722656 C 479.382812 428.738281 478.246094 426.804688 477.019531 424.925781 C 475.792969 423.042969 474.488281 421.222656 473.097656 419.460938 C 471.707031 417.695312 470.242188 416 468.699219 414.371094 C 467.15625 412.738281 465.542969 411.183594 463.859375 409.695312 C 462.175781 408.210938 460.429688 406.808594 458.617188 405.480469 C 456.808594 404.152344 454.941406 402.910156 453.019531 401.753906 C 451.09375 400.597656 449.125 399.527344 447.105469 398.546875 C 445.085938 397.566406 443.027344 396.683594 440.925781 395.886719 C 438.828125 395.09375 436.699219 394.398438 434.535156 393.796875 C 432.371094 393.195312 430.1875 392.695312 427.980469 392.289062 C 425.773438 391.886719 423.550781 391.585938 421.316406 391.382812 C 419.082031 391.179688 416.84375 391.078125 414.597656 391.078125 C 409.300781 391.085938 404.0625 391.652344 398.886719 392.777344 C 393.710938 393.902344 388.710938 395.5625 383.886719 397.753906 C 382.96875 396.0625 381.996094 394.398438 380.96875 392.769531 C 379.9375 391.140625 378.855469 389.546875 377.71875 387.992188 C 376.582031 386.4375 375.394531 384.921875 374.15625 383.445312 C 372.921875 381.96875 371.632812 380.535156 370.300781 379.144531 C 368.964844 377.753906 367.585938 376.410156 366.164062 375.113281 C 364.738281 373.816406 363.273438 372.566406 361.765625 371.367188 C 360.253906 370.171875 358.710938 369.023438 357.125 367.929688 C 355.539062 366.832031 353.917969 365.792969 352.265625 364.808594 C 350.609375 363.820312 348.921875 362.890625 347.207031 362.019531 C 345.488281 361.144531 343.746094 360.332031 341.972656 359.578125 C 340.199219 358.820312 338.40625 358.125 336.585938 357.492188 C 334.769531 356.855469 332.929688 356.28125 331.074219 355.769531 C 329.214844 355.257812 327.34375 354.8125 325.457031 354.425781 C 323.570312 354.039062 321.671875 353.71875 319.761719 353.460938 C 317.855469 353.203125 315.9375 353.007812 314.015625 352.878906 C 312.09375 352.75 310.171875 352.683594 308.246094 352.683594 Z M 308.246094 352.683594 " fill-opacity="1" fill-rule="nonzero"/></g></svg>