<svg xmlns="http://www.w3.org/2000/svg" xmlns:xlink="http://www.w3.org/1999/xlink" width="1080" zoomAndPan="magnify" viewBox="0 0 810 809.999993" height="1080" preserveAspectRatio="xMidYMid meet" version="1.0"><defs><clipPath id="c504400972"><path d="M 398 214.105469 L 417 214.105469 L 417 273 L 398 273 Z M 398 214.105469 " clip-rule="nonzero"/></clipPath><clipPath id="ef59af8a1e"><path d="M 525 381 L 583.671875 381 L 583.671875 400 L 525 400 Z M 525 381 " clip-rule="nonzero"/></clipPath><clipPath id="3cd9d8fdc5"><path d="M 226.671875 214.105469 L 358 214.105469 L 358 595.855469 L 226.671875 595.855469 Z M 226.671875 214.105469 " clip-rule="nonzero"/></clipPath></defs><path fill="#ffc44f" d="M 407.300781 287.917969 C 463.933594 287.917969 509.84375 333.777344 509.84375 390.351562 C 509.84375 446.929688 463.933594 492.789062 407.300781 492.789062 C 350.664062 492.789062 304.753906 446.929688 304.753906 390.351562 C 304.753906 333.777344 350.664062 287.917969 407.300781 287.917969 Z M 407.300781 287.917969 " fill-opacity="1" fill-rule="evenodd"/><path fill="#ffe66b" d="M 407.300781 287.917969 C 463.933594 287.917969 509.84375 333.777344 509.84375 390.351562 C 509.84375 391.164062 509.835938 391.972656 509.816406 392.777344 C 494.546875 414.558594 469.246094 428.804688 440.609375 428.804688 C 393.984375 428.804688 356.179688 391.042969 356.179688 344.46875 C 356.179688 325.425781 362.5 307.855469 373.160156 293.738281 C 383.839844 289.972656 395.328125 287.917969 407.300781 287.917969 Z M 407.300781 287.917969 " fill-opacity="1" fill-rule="evenodd"/><g clip-path="url(#c504400972)"><path fill="#ffc44f" d="M 407.300781 214.179688 C 412.136719 214.179688 416.097656 218.132812 416.097656 222.96875 L 416.097656 263.292969 C 416.097656 268.125 412.136719 272.078125 407.300781 272.078125 C 402.460938 272.078125 398.503906 268.125 398.503906 263.292969 L 398.503906 222.96875 C 398.503906 218.132812 402.460938 214.179688 407.300781 214.179688 Z M 407.300781 214.179688 " fill-opacity="1" fill-rule="evenodd"/></g><path fill="#ffc44f" d="M 407.300781 566.527344 C 402.460938 566.527344 398.503906 562.570312 398.503906 557.738281 L 398.503906 517.414062 C 398.503906 512.578125 402.460938 508.625 407.300781 508.625 C 412.136719 508.625 416.097656 512.578125 416.097656 517.414062 L 416.097656 557.738281 C 416.097656 562.570312 412.136719 566.527344 407.300781 566.527344 Z M 407.300781 566.527344 " fill-opacity="1" fill-rule="evenodd"/><path fill="#ffc44f" d="M 495.480469 542.921875 C 491.292969 545.339844 485.886719 543.890625 483.464844 539.707031 L 463.28125 504.78125 C 460.863281 500.601562 462.3125 495.199219 466.5 492.78125 C 470.691406 490.363281 476.097656 491.8125 478.515625 495.996094 L 498.703125 530.921875 C 501.121094 535.105469 499.671875 540.503906 495.480469 542.921875 Z M 495.480469 542.921875 " fill-opacity="1" fill-rule="evenodd"/><path fill="#ffc44f" d="M 560.035156 478.4375 C 557.617188 482.625 552.210938 484.070312 548.019531 481.65625 L 513.058594 461.492188 C 508.871094 459.074219 507.417969 453.671875 509.839844 449.488281 C 512.257812 445.300781 517.664062 443.855469 521.851562 446.273438 L 556.816406 466.433594 C 561.003906 468.855469 562.453125 474.257812 560.035156 478.4375 Z M 560.035156 478.4375 " fill-opacity="1" fill-rule="evenodd"/><g clip-path="url(#ef59af8a1e)"><path fill="#ffc44f" d="M 583.664062 390.351562 L 583.664062 390.355469 C 583.664062 395.183594 579.707031 399.140625 574.867188 399.140625 L 534.496094 399.140625 C 529.660156 399.140625 525.703125 395.1875 525.703125 390.355469 L 525.703125 390.351562 C 525.703125 385.523438 529.660156 381.566406 534.496094 381.566406 L 574.867188 381.566406 C 579.703125 381.566406 583.664062 385.519531 583.664062 390.351562 Z M 583.664062 390.351562 " fill-opacity="1" fill-rule="evenodd"/></g><path fill="#ffc44f" d="M 560.035156 302.269531 C 562.453125 306.449219 561.003906 311.851562 556.816406 314.269531 L 521.859375 334.429688 C 517.667969 336.847656 512.261719 335.402344 509.84375 331.21875 C 507.421875 327.035156 508.871094 321.636719 513.058594 319.214844 L 548.019531 299.050781 C 552.210938 296.632812 557.617188 298.082031 560.035156 302.269531 Z M 560.035156 302.269531 " fill-opacity="1" fill-rule="evenodd"/><path fill="#ffc44f" d="M 495.480469 237.78125 C 499.671875 240.199219 501.121094 245.597656 498.703125 249.785156 L 478.515625 284.707031 C 476.097656 288.894531 470.691406 290.339844 466.5 287.925781 L 466.5 287.921875 C 462.3125 285.507812 460.859375 280.105469 463.28125 275.921875 L 483.46875 241 C 485.886719 236.8125 491.292969 235.367188 495.480469 237.78125 Z M 495.480469 237.78125 " fill-opacity="1" fill-rule="evenodd"/><g clip-path="url(#3cd9d8fdc5)"><path fill="#ff4d3d" d="M 292.027344 214.238281 C 313.246094 214.238281 330.609375 231.578125 330.609375 252.773438 L 330.609375 477.789062 C 346.84375 489.671875 357.390625 508.847656 357.390625 530.492188 C 357.390625 566.554688 328.128906 595.785156 292.027344 595.785156 C 255.933594 595.785156 226.667969 566.554688 226.667969 530.492188 C 226.667969 508.847656 237.214844 489.667969 253.449219 477.789062 L 253.449219 252.773438 C 253.449219 231.578125 270.8125 214.238281 292.027344 214.238281 Z M 292.027344 214.238281 " fill-opacity="1" fill-rule="evenodd"/></g><path fill="#f0f8ff" d="M 311 497.132812 C 316.175781 500.082031 320.601562 504.203125 323.921875 509.136719 C 328.042969 515.261719 330.449219 522.609375 330.449219 530.496094 C 330.449219 541.09375 326.144531 550.6875 319.195312 557.632812 C 312.246094 564.574219 302.636719 568.871094 292.027344 568.871094 C 281.421875 568.871094 271.816406 564.574219 264.863281 557.632812 C 257.910156 550.6875 253.613281 541.09375 253.613281 530.496094 C 253.613281 522.609375 256.015625 515.261719 260.136719 509.136719 C 263.453125 504.203125 267.882812 500.082031 273.0625 497.132812 L 273.0625 267.425781 C 273.0625 262.207031 275.191406 257.46875 278.625 254.035156 C 282.0625 250.605469 286.804688 248.476562 292.027344 248.476562 C 297.253906 248.476562 302 250.605469 305.429688 254.035156 C 308.867188 257.46875 311 262.207031 311 267.425781 Z M 312.042969 517.082031 C 309.453125 513.238281 305.765625 510.175781 301.421875 508.34375 C 298.640625 507.351562 296.652344 504.699219 296.652344 501.589844 L 296.652344 267.425781 C 296.652344 266.164062 296.128906 265.007812 295.289062 264.167969 C 294.449219 263.332031 293.292969 262.804688 292.027344 262.804688 C 290.765625 262.804688 289.609375 263.332031 288.765625 264.167969 C 287.929688 265.007812 287.402344 266.164062 287.402344 267.425781 L 287.402344 501.589844 L 287.398438 501.589844 C 287.398438 504.417969 285.707031 507.09375 282.921875 508.21875 C 278.453125 510.042969 274.660156 513.15625 272.015625 517.082031 C 269.453125 520.894531 267.957031 525.507812 267.957031 530.496094 C 267.957031 537.136719 270.652344 543.148438 275.007812 547.5 C 279.363281 551.851562 285.378906 554.542969 292.027344 554.542969 C 298.675781 554.542969 304.691406 551.851562 309.050781 547.5 C 313.40625 543.148438 316.097656 537.136719 316.097656 530.496094 C 316.101562 525.507812 314.605469 520.894531 312.042969 517.082031 Z M 312.042969 517.082031 " fill-opacity="1" fill-rule="nonzero"/><path fill="#ffc44f" d="M 303.828125 501.589844 C 315.234375 506.234375 323.277344 517.425781 323.277344 530.496094 C 323.277344 547.730469 309.285156 561.710938 292.027344 561.710938 C 274.769531 561.710938 260.78125 547.730469 260.78125 530.496094 C 260.78125 517.425781 268.820312 506.234375 280.230469 501.589844 L 280.230469 267.425781 C 280.230469 260.945312 285.539062 255.640625 292.023438 255.640625 C 298.515625 255.640625 303.824219 260.945312 303.824219 267.425781 L 303.824219 501.589844 Z M 303.828125 501.589844 " fill-opacity="1" fill-rule="evenodd"/><path fill="#ffe66b" d="M 258.226562 267.105469 L 268.011719 267.105469 C 269.542969 267.105469 270.800781 268.363281 270.800781 269.894531 C 270.800781 271.425781 269.542969 272.679688 268.011719 272.679688 L 258.226562 272.679688 C 256.695312 272.679688 255.4375 271.425781 255.4375 269.894531 C 255.4375 268.363281 256.695312 267.105469 258.226562 267.105469 Z M 258.226562 267.105469 " fill-opacity="1" fill-rule="evenodd"/><path fill="#ffe66b" d="M 258.226562 286.851562 L 268.011719 286.851562 C 269.542969 286.851562 270.800781 288.109375 270.800781 289.640625 C 270.800781 291.175781 269.542969 292.425781 268.011719 292.425781 L 258.226562 292.425781 C 256.695312 292.425781 255.4375 291.175781 255.4375 289.640625 C 255.4375 288.109375 256.695312 286.851562 258.226562 286.851562 Z M 258.226562 286.851562 " fill-opacity="1" fill-rule="evenodd"/><path fill="#ffe66b" d="M 258.226562 306.601562 L 268.011719 306.601562 C 269.542969 306.601562 270.800781 307.855469 270.800781 309.390625 C 270.800781 310.917969 269.542969 312.171875 268.011719 312.171875 L 258.226562 312.171875 C 256.695312 312.171875 255.4375 310.917969 255.4375 309.390625 C 255.4375 307.855469 256.695312 306.601562 258.226562 306.601562 Z M 258.226562 306.601562 " fill-opacity="1" fill-rule="evenodd"/><path fill="#ffe66b" d="M 258.226562 326.347656 L 268.011719 326.347656 C 269.542969 326.347656 270.800781 327.597656 270.800781 329.132812 C 270.800781 330.664062 269.542969 331.921875 268.011719 331.921875 L 258.226562 331.921875 C 256.695312 331.921875 255.4375 330.664062 255.4375 329.132812 C 255.4375 327.597656 256.695312 326.347656 258.226562 326.347656 Z M 258.226562 326.347656 " fill-opacity="1" fill-rule="evenodd"/><path fill="#ffe66b" d="M 258.226562 346.09375 L 268.011719 346.09375 C 269.542969 346.09375 270.800781 347.351562 270.800781 348.878906 C 270.800781 350.410156 269.542969 351.667969 268.011719 351.667969 L 258.226562 351.667969 C 256.695312 351.667969 255.4375 350.410156 255.4375 348.878906 C 255.4375 347.351562 256.695312 346.09375 258.226562 346.09375 Z M 258.226562 346.09375 " fill-opacity="1" fill-rule="evenodd"/><path fill="#ffe66b" d="M 258.226562 365.839844 L 268.011719 365.839844 C 269.542969 365.839844 270.800781 367.09375 270.800781 368.625 C 270.800781 370.160156 269.542969 371.414062 268.011719 371.414062 L 258.226562 371.414062 C 256.695312 371.414062 255.4375 370.160156 255.4375 368.625 C 255.4375 367.09375 256.695312 365.839844 258.226562 365.839844 Z M 258.226562 365.839844 " fill-opacity="1" fill-rule="evenodd"/><path fill="#ffe66b" d="M 258.226562 385.589844 L 268.011719 385.589844 C 269.542969 385.589844 270.800781 386.839844 270.800781 388.371094 C 270.800781 389.90625 269.542969 391.160156 268.011719 391.160156 L 258.226562 391.160156 C 256.695312 391.160156 255.4375 389.90625 255.4375 388.371094 C 255.4375 386.839844 256.695312 385.589844 258.226562 385.589844 Z M 258.226562 385.589844 " fill-opacity="1" fill-rule="evenodd"/><path fill="#ffe66b" d="M 258.226562 405.335938 L 268.011719 405.335938 C 269.542969 405.335938 270.800781 406.585938 270.800781 408.121094 C 270.800781 409.652344 269.542969 410.910156 268.011719 410.910156 L 258.226562 410.910156 C 256.695312 410.910156 255.4375 409.652344 255.4375 408.121094 C 255.4375 406.585938 256.695312 405.335938 258.226562 405.335938 Z M 258.226562 405.335938 " fill-opacity="1" fill-rule="evenodd"/><path fill="#ffe66b" d="M 258.226562 425.082031 L 268.011719 425.082031 C 269.542969 425.082031 270.800781 426.335938 270.800781 427.867188 C 270.800781 429.398438 269.542969 430.65625 268.011719 430.65625 L 258.226562 430.65625 C 256.695312 430.65625 255.4375 429.398438 255.4375 427.867188 C 255.4375 426.335938 256.695312 425.082031 258.226562 425.082031 Z M 258.226562 425.082031 " fill-opacity="1" fill-rule="evenodd"/><path fill="#ffe66b" d="M 258.226562 444.828125 L 268.011719 444.828125 C 269.542969 444.828125 270.800781 446.082031 270.800781 447.613281 C 270.800781 449.148438 269.542969 450.398438 268.011719 450.398438 L 258.226562 450.398438 C 256.695312 450.398438 255.4375 449.148438 255.4375 447.613281 C 255.4375 446.082031 256.695312 444.828125 258.226562 444.828125 Z M 258.226562 444.828125 " fill-opacity="1" fill-rule="evenodd"/></svg>