<svg xmlns="http://www.w3.org/2000/svg" xmlns:xlink="http://www.w3.org/1999/xlink" width="1080" zoomAndPan="magnify" viewBox="0 0 810 809.999993" height="1080" preserveAspectRatio="xMidYMid meet" version="1.0"><path fill="#86a3bf" d="M 400.609375 225.265625 C 399.183594 225.265625 397.761719 225.300781 396.335938 225.371094 C 394.914062 225.441406 393.496094 225.542969 392.078125 225.683594 C 390.660156 225.824219 389.246094 226 387.835938 226.207031 C 386.425781 226.417969 385.023438 226.660156 383.625 226.9375 C 382.226562 227.214844 380.839844 227.527344 379.457031 227.875 C 378.074219 228.21875 376.703125 228.601562 375.339844 229.015625 C 373.972656 229.425781 372.621094 229.875 371.28125 230.355469 C 369.9375 230.835938 368.609375 231.347656 367.292969 231.890625 C 365.976562 232.4375 364.675781 233.015625 363.386719 233.625 C 362.101562 234.234375 360.828125 234.871094 359.570312 235.542969 C 358.3125 236.214844 357.074219 236.917969 355.851562 237.648438 C 354.632812 238.382812 353.425781 239.144531 352.242188 239.9375 C 351.058594 240.726562 349.894531 241.546875 348.75 242.394531 C 347.605469 243.246094 346.480469 244.121094 345.382812 245.023438 C 344.28125 245.929688 343.199219 246.859375 342.144531 247.816406 C 341.089844 248.773438 340.058594 249.753906 339.050781 250.761719 C 338.042969 251.769531 337.0625 252.800781 336.105469 253.855469 C 335.148438 254.910156 334.21875 255.988281 333.3125 257.089844 C 332.410156 258.191406 331.535156 259.316406 330.683594 260.460938 C 329.835938 261.605469 329.015625 262.769531 328.222656 263.953125 C 327.433594 265.136719 326.671875 266.339844 325.9375 267.5625 C 325.207031 268.785156 324.503906 270.023438 323.832031 271.28125 C 323.160156 272.535156 322.519531 273.808594 321.910156 275.097656 C 321.300781 276.382812 320.722656 277.6875 320.179688 279.003906 C 319.632812 280.316406 319.121094 281.648438 318.640625 282.988281 C 318.160156 284.328125 317.714844 285.683594 317.300781 287.046875 C 316.886719 288.410156 316.507812 289.78125 316.160156 291.164062 C 315.816406 292.542969 315.503906 293.933594 315.226562 295.332031 C 314.949219 296.730469 314.703125 298.132812 314.496094 299.542969 C 314.285156 300.949219 314.113281 302.363281 313.972656 303.78125 C 313.832031 305.199219 313.726562 306.621094 313.65625 308.042969 C 313.585938 309.464844 313.550781 310.890625 313.550781 312.3125 C 313.570312 315.535156 313.769531 318.75 314.144531 321.949219 C 281.3125 327.84375 256.679688 354.359375 256.679688 386.375 C 256.679688 422.746094 288.472656 452.027344 327.964844 452.027344 L 582.332031 452.027344 C 618.710938 452.027344 647.992188 424.808594 647.992188 391.003906 C 647.992188 357.40625 619.070312 330.332031 583.011719 329.996094 C 582.726562 327.742188 582.339844 325.507812 581.851562 323.289062 C 581.363281 321.070312 580.777344 318.882812 580.09375 316.714844 C 579.40625 314.550781 578.625 312.421875 577.75 310.328125 C 576.871094 308.234375 575.898438 306.183594 574.835938 304.179688 C 573.773438 302.171875 572.621094 300.21875 571.382812 298.316406 C 570.144531 296.414062 568.820312 294.570312 567.414062 292.789062 C 566.007812 291.007812 564.523438 289.289062 562.960938 287.640625 C 561.402344 285.992188 559.769531 284.417969 558.066406 282.917969 C 556.363281 281.417969 554.59375 279.996094 552.761719 278.652344 C 550.929688 277.3125 549.042969 276.054688 547.097656 274.886719 C 545.152344 273.714844 543.15625 272.632812 541.113281 271.644531 C 539.070312 270.652344 536.988281 269.753906 534.863281 268.953125 C 532.738281 268.152344 530.582031 267.445312 528.394531 266.839844 C 526.207031 266.230469 523.996094 265.722656 521.761719 265.316406 C 519.527344 264.90625 517.28125 264.601562 515.019531 264.394531 C 512.757812 264.191406 510.492188 264.089844 508.222656 264.089844 C 502.863281 264.097656 497.5625 264.671875 492.324219 265.808594 C 487.085938 266.945312 482.027344 268.625 477.148438 270.839844 C 476.21875 269.128906 475.234375 267.449219 474.191406 265.800781 C 473.152344 264.152344 472.054688 262.542969 470.90625 260.96875 C 469.757812 259.394531 468.554688 257.863281 467.300781 256.371094 C 466.050781 254.875 464.75 253.425781 463.398438 252.019531 C 462.050781 250.617188 460.652344 249.257812 459.210938 247.945312 C 457.769531 246.632812 456.289062 245.371094 454.761719 244.160156 C 453.234375 242.945312 451.671875 241.785156 450.066406 240.679688 C 448.464844 239.574219 446.824219 238.519531 445.148438 237.523438 C 443.476562 236.527344 441.769531 235.585938 440.03125 234.703125 C 438.292969 233.820312 436.527344 232.996094 434.734375 232.234375 C 432.941406 231.46875 431.125 230.765625 429.285156 230.125 C 427.445312 229.484375 425.585938 228.902344 423.707031 228.386719 C 421.828125 227.867188 419.933594 227.414062 418.023438 227.027344 C 416.117188 226.636719 414.195312 226.308594 412.261719 226.050781 C 410.332031 225.789062 408.394531 225.59375 406.449219 225.460938 C 404.503906 225.332031 402.558594 225.265625 400.609375 225.265625 Z M 400.609375 225.265625 " fill-opacity="1" fill-rule="nonzero"/><path fill="#c6e0f7" d="M 305.964844 258.023438 C 304.542969 258.023438 303.117188 258.058594 301.695312 258.128906 C 300.269531 258.199219 298.851562 258.304688 297.433594 258.441406 C 296.015625 258.582031 294.601562 258.757812 293.191406 258.964844 C 291.78125 259.175781 290.378906 259.417969 288.980469 259.695312 C 287.585938 259.972656 286.195312 260.285156 284.8125 260.632812 C 283.429688 260.976562 282.058594 261.359375 280.695312 261.773438 C 279.332031 262.183594 277.980469 262.632812 276.636719 263.113281 C 275.296875 263.59375 273.96875 264.105469 272.652344 264.648438 C 271.335938 265.195312 270.03125 265.773438 268.746094 266.382812 C 267.457031 266.992188 266.183594 267.632812 264.925781 268.300781 C 263.671875 268.972656 262.433594 269.675781 261.210938 270.410156 C 259.988281 271.140625 258.785156 271.902344 257.601562 272.695312 C 256.414062 273.484375 255.25 274.304688 254.105469 275.15625 C 252.960938 276.003906 251.839844 276.878906 250.738281 277.78125 C 249.636719 278.6875 248.558594 279.617188 247.503906 280.574219 C 246.445312 281.53125 245.414062 282.511719 244.40625 283.519531 C 243.398438 284.527344 242.417969 285.558594 241.460938 286.613281 C 240.503906 287.667969 239.574219 288.75 238.671875 289.847656 C 237.765625 290.949219 236.890625 292.074219 236.042969 293.21875 C 235.191406 294.363281 234.371094 295.527344 233.582031 296.710938 C 232.789062 297.894531 232.027344 299.097656 231.292969 300.320312 C 230.5625 301.542969 229.859375 302.78125 229.1875 304.039062 C 228.515625 305.292969 227.875 306.566406 227.265625 307.855469 C 226.660156 309.140625 226.082031 310.445312 225.535156 311.761719 C 224.992188 313.078125 224.476562 314.40625 224 315.746094 C 223.519531 317.085938 223.070312 318.441406 222.65625 319.804688 C 222.246094 321.167969 221.863281 322.539062 221.519531 323.921875 C 221.171875 325.304688 220.859375 326.691406 220.582031 328.089844 C 220.304688 329.488281 220.058594 330.890625 219.851562 332.300781 C 219.640625 333.707031 219.46875 335.121094 219.328125 336.539062 C 219.1875 337.957031 219.085938 339.378906 219.015625 340.800781 C 218.945312 342.222656 218.910156 343.648438 218.910156 345.070312 C 218.929688 348.292969 219.125 351.507812 219.503906 354.707031 C 186.667969 360.601562 162.035156 387.117188 162.035156 419.132812 C 162.035156 455.503906 193.832031 484.785156 233.324219 484.785156 L 487.691406 484.785156 C 524.066406 484.785156 553.351562 457.566406 553.351562 423.761719 C 553.351562 390.164062 524.425781 363.089844 488.367188 362.753906 C 488.082031 360.5 487.695312 358.265625 487.207031 356.046875 C 486.722656 353.832031 486.136719 351.640625 485.449219 349.476562 C 484.765625 347.308594 483.984375 345.179688 483.105469 343.085938 C 482.226562 340.992188 481.257812 338.941406 480.191406 336.9375 C 479.128906 334.929688 477.980469 332.976562 476.738281 331.074219 C 475.5 329.171875 474.175781 327.328125 472.769531 325.546875 C 471.363281 323.765625 469.878906 322.046875 468.320312 320.398438 C 466.757812 318.75 465.125 317.175781 463.421875 315.675781 C 461.71875 314.175781 459.949219 312.753906 458.117188 311.410156 C 456.289062 310.070312 454.398438 308.8125 452.453125 307.644531 C 450.507812 306.472656 448.511719 305.390625 446.46875 304.402344 C 444.425781 303.410156 442.34375 302.515625 440.21875 301.710938 C 438.09375 300.910156 435.9375 300.203125 433.75 299.597656 C 431.5625 298.988281 429.351562 298.480469 427.117188 298.074219 C 424.886719 297.664062 422.636719 297.359375 420.375 297.15625 C 418.113281 296.949219 415.847656 296.847656 413.578125 296.847656 C 408.21875 296.855469 402.917969 297.429688 397.679688 298.566406 C 392.441406 299.703125 387.382812 301.382812 382.503906 303.597656 C 381.574219 301.886719 380.589844 300.207031 379.550781 298.558594 C 378.507812 296.910156 377.410156 295.300781 376.261719 293.726562 C 375.113281 292.152344 373.910156 290.621094 372.660156 289.128906 C 371.40625 287.632812 370.105469 286.183594 368.753906 284.777344 C 367.40625 283.375 366.011719 282.015625 364.570312 280.703125 C 363.128906 279.390625 361.644531 278.128906 360.117188 276.917969 C 358.59375 275.703125 357.027344 274.542969 355.425781 273.4375 C 353.820312 272.332031 352.179688 271.277344 350.507812 270.28125 C 348.832031 269.285156 347.125 268.34375 345.386719 267.460938 C 343.652344 266.578125 341.886719 265.753906 340.09375 264.992188 C 338.300781 264.226562 336.484375 263.523438 334.644531 262.882812 C 332.804688 262.242188 330.941406 261.660156 329.0625 261.144531 C 327.183594 260.625 325.289062 260.171875 323.382812 259.785156 C 321.472656 259.394531 319.550781 259.066406 317.621094 258.808594 C 315.6875 258.546875 313.75 258.351562 311.804688 258.21875 C 309.863281 258.089844 307.914062 258.023438 305.964844 258.023438 Z M 305.964844 258.023438 " fill-opacity="1" fill-rule="nonzero"/><path fill="#3981bf" d="M 263.945312 443.484375 C 257.335938 450.941406 239.433594 465.882812 234.035156 486.226562 C 233.882812 486.789062 233.761719 487.359375 233.664062 487.9375 C 233.570312 488.511719 233.503906 489.09375 233.464844 489.675781 C 233.425781 490.257812 233.417969 490.839844 233.4375 491.425781 C 233.457031 492.007812 233.503906 492.589844 233.578125 493.167969 C 233.65625 493.746094 233.761719 494.320312 233.890625 494.890625 C 234.023438 495.457031 234.183594 496.019531 234.371094 496.570312 C 234.5625 497.125 234.773438 497.667969 235.015625 498.199219 C 235.257812 498.730469 235.523438 499.25 235.816406 499.753906 C 236.109375 500.261719 236.421875 500.75 236.761719 501.226562 C 237.105469 501.699219 237.464844 502.15625 237.851562 502.597656 C 238.238281 503.035156 238.640625 503.453125 239.066406 503.851562 C 239.496094 504.253906 239.9375 504.628906 240.402344 504.984375 C 240.867188 505.339844 241.34375 505.671875 241.839844 505.980469 C 242.335938 506.289062 242.847656 506.574219 243.371094 506.832031 C 243.894531 507.089844 244.429688 507.320312 244.976562 507.527344 C 245.523438 507.730469 246.078125 507.910156 246.640625 508.0625 C 247.207031 508.210938 247.777344 508.335938 248.351562 508.429688 C 248.929688 508.527344 249.507812 508.59375 250.089844 508.632812 C 250.671875 508.667969 251.257812 508.679688 251.839844 508.660156 C 252.421875 508.640625 253.003906 508.59375 253.582031 508.515625 C 254.164062 508.441406 254.738281 508.335938 255.304688 508.203125 C 255.875 508.070312 256.433594 507.910156 256.988281 507.722656 C 257.539062 507.535156 258.082031 507.320312 258.613281 507.078125 C 259.148438 506.839844 259.664062 506.574219 260.171875 506.28125 C 260.675781 505.988281 261.167969 505.671875 261.640625 505.332031 C 262.117188 504.992188 262.574219 504.628906 263.011719 504.246094 C 263.453125 503.859375 263.871094 503.453125 264.269531 503.027344 C 264.667969 502.601562 265.046875 502.15625 265.402344 501.695312 C 265.757812 501.230469 266.089844 500.75 266.398438 500.253906 C 266.707031 499.757812 266.988281 499.25 267.246094 498.726562 C 267.507812 498.203125 267.738281 497.667969 267.945312 497.121094 C 268.148438 496.574219 268.328125 496.019531 268.480469 495.457031 C 268.519531 495.308594 268.558594 495.160156 268.59375 495.011719 C 274.128906 473.644531 265.929688 453.179688 263.945312 443.484375 Z M 263.945312 443.484375 " fill-opacity="1" fill-rule="nonzero"/><path fill="#3981bf" d="M 345.457031 443.484375 C 338.84375 450.941406 320.945312 465.882812 315.542969 486.226562 C 315.390625 486.789062 315.269531 487.359375 315.171875 487.9375 C 315.078125 488.511719 315.011719 489.09375 314.972656 489.675781 C 314.933594 490.257812 314.925781 490.839844 314.945312 491.425781 C 314.964844 492.007812 315.011719 492.589844 315.089844 493.167969 C 315.164062 493.746094 315.269531 494.320312 315.402344 494.890625 C 315.535156 495.457031 315.695312 496.019531 315.882812 496.570312 C 316.070312 497.125 316.285156 497.667969 316.523438 498.199219 C 316.765625 498.730469 317.03125 499.25 317.324219 499.753906 C 317.617188 500.261719 317.933594 500.75 318.273438 501.226562 C 318.613281 501.699219 318.976562 502.15625 319.359375 502.597656 C 319.746094 503.035156 320.152344 503.453125 320.578125 503.851562 C 321.003906 504.253906 321.449219 504.628906 321.910156 504.984375 C 322.375 505.339844 322.855469 505.671875 323.351562 505.980469 C 323.847656 506.289062 324.355469 506.574219 324.878906 506.832031 C 325.402344 507.089844 325.9375 507.320312 326.484375 507.527344 C 327.03125 507.730469 327.585938 507.910156 328.152344 508.0625 C 328.714844 508.210938 329.285156 508.335938 329.859375 508.429688 C 330.4375 508.527344 331.015625 508.59375 331.597656 508.632812 C 332.183594 508.667969 332.765625 508.679688 333.347656 508.660156 C 333.933594 508.640625 334.515625 508.59375 335.09375 508.515625 C 335.671875 508.441406 336.246094 508.335938 336.8125 508.203125 C 337.382812 508.070312 337.945312 507.910156 338.496094 507.722656 C 339.050781 507.535156 339.59375 507.320312 340.125 507.078125 C 340.65625 506.839844 341.175781 506.574219 341.679688 506.28125 C 342.1875 505.988281 342.675781 505.671875 343.152344 505.332031 C 343.625 504.992188 344.082031 504.628906 344.523438 504.246094 C 344.960938 503.859375 345.378906 503.453125 345.777344 503.027344 C 346.179688 502.601562 346.554688 502.15625 346.910156 501.695312 C 347.265625 501.230469 347.597656 500.75 347.90625 500.253906 C 348.214844 499.757812 348.5 499.25 348.757812 498.726562 C 349.015625 498.203125 349.246094 497.667969 349.453125 497.121094 C 349.660156 496.574219 349.835938 496.019531 349.988281 495.457031 C 350.027344 495.308594 350.066406 495.160156 350.101562 495.011719 C 355.636719 473.644531 347.441406 453.179688 345.457031 443.484375 Z M 345.457031 443.484375 " fill-opacity="1" fill-rule="nonzero"/><path fill="#3981bf" d="M 427.097656 445.660156 C 420.484375 453.117188 402.585938 468.0625 397.1875 488.402344 C 397.035156 488.96875 396.910156 489.539062 396.816406 490.113281 C 396.722656 490.691406 396.65625 491.269531 396.617188 491.851562 C 396.578125 492.433594 396.570312 493.015625 396.585938 493.601562 C 396.605469 494.183594 396.65625 494.765625 396.730469 495.34375 C 396.808594 495.921875 396.910156 496.496094 397.042969 497.066406 C 397.175781 497.636719 397.335938 498.195312 397.523438 498.75 C 397.710938 499.300781 397.925781 499.84375 398.167969 500.375 C 398.410156 500.90625 398.675781 501.425781 398.964844 501.933594 C 399.257812 502.4375 399.574219 502.925781 399.914062 503.402344 C 400.253906 503.878906 400.617188 504.332031 401.003906 504.773438 C 401.386719 505.210938 401.792969 505.632812 402.21875 506.03125 C 402.644531 506.429688 403.089844 506.804688 403.554688 507.160156 C 404.015625 507.515625 404.496094 507.847656 404.992188 508.15625 C 405.488281 508.464844 406 508.75 406.523438 509.007812 C 407.046875 509.265625 407.582031 509.496094 408.128906 509.703125 C 408.675781 509.910156 409.230469 510.085938 409.792969 510.238281 C 410.355469 510.390625 410.925781 510.511719 411.503906 510.609375 C 412.078125 510.703125 412.660156 510.769531 413.242188 510.808594 C 413.824219 510.847656 414.40625 510.855469 414.992188 510.835938 C 415.574219 510.816406 416.15625 510.769531 416.734375 510.695312 C 417.3125 510.617188 417.886719 510.511719 418.457031 510.378906 C 419.027344 510.246094 419.585938 510.085938 420.140625 509.898438 C 420.691406 509.710938 421.234375 509.496094 421.765625 509.257812 C 422.296875 509.015625 422.816406 508.75 423.324219 508.457031 C 423.828125 508.164062 424.320312 507.847656 424.792969 507.507812 C 425.269531 507.167969 425.726562 506.808594 426.164062 506.421875 C 426.601562 506.035156 427.023438 505.632812 427.421875 505.203125 C 427.820312 504.777344 428.199219 504.335938 428.554688 503.871094 C 428.910156 503.40625 429.242188 502.929688 429.550781 502.433594 C 429.859375 501.9375 430.140625 501.425781 430.398438 500.902344 C 430.65625 500.378906 430.890625 499.84375 431.09375 499.296875 C 431.300781 498.75 431.480469 498.195312 431.628906 497.632812 C 431.671875 497.484375 431.707031 497.335938 431.742188 497.1875 C 437.28125 475.820312 429.082031 455.355469 427.097656 445.660156 Z M 427.097656 445.660156 " fill-opacity="1" fill-rule="nonzero"/><path fill="#3981bf" d="M 304.769531 517.707031 C 298.15625 525.160156 280.257812 540.105469 274.855469 560.449219 C 274.703125 561.011719 274.582031 561.582031 274.484375 562.15625 C 274.390625 562.734375 274.324219 563.3125 274.285156 563.894531 C 274.246094 564.480469 274.238281 565.0625 274.257812 565.644531 C 274.277344 566.230469 274.324219 566.808594 274.402344 567.390625 C 274.476562 567.96875 274.582031 568.542969 274.714844 569.109375 C 274.847656 569.679688 275.007812 570.238281 275.195312 570.792969 C 275.382812 571.347656 275.597656 571.886719 275.835938 572.421875 C 276.078125 572.953125 276.34375 573.472656 276.636719 573.976562 C 276.929688 574.480469 277.246094 574.972656 277.585938 575.445312 C 277.925781 575.921875 278.289062 576.378906 278.671875 576.816406 C 279.058594 577.257812 279.464844 577.675781 279.890625 578.074219 C 280.316406 578.472656 280.761719 578.851562 281.222656 579.207031 C 281.6875 579.5625 282.167969 579.894531 282.664062 580.203125 C 283.160156 580.511719 283.667969 580.792969 284.191406 581.050781 C 284.714844 581.308594 285.25 581.542969 285.796875 581.746094 C 286.34375 581.953125 286.898438 582.132812 287.464844 582.28125 C 288.027344 582.433594 288.597656 582.558594 289.171875 582.652344 C 289.75 582.746094 290.328125 582.8125 290.910156 582.851562 C 291.496094 582.890625 292.078125 582.898438 292.660156 582.878906 C 293.246094 582.863281 293.828125 582.8125 294.40625 582.738281 C 294.984375 582.660156 295.558594 582.558594 296.125 582.425781 C 296.695312 582.292969 297.257812 582.132812 297.808594 581.945312 C 298.363281 581.757812 298.90625 581.542969 299.4375 581.300781 C 299.96875 581.058594 300.488281 580.792969 300.992188 580.5 C 301.5 580.210938 301.988281 579.894531 302.464844 579.554688 C 302.9375 579.214844 303.394531 578.851562 303.835938 578.464844 C 304.273438 578.082031 304.691406 577.675781 305.089844 577.25 C 305.492188 576.824219 305.867188 576.378906 306.222656 575.914062 C 306.578125 575.453125 306.910156 574.972656 307.21875 574.476562 C 307.527344 573.980469 307.8125 573.472656 308.070312 572.949219 C 308.328125 572.421875 308.558594 571.886719 308.765625 571.34375 C 308.972656 570.796875 309.148438 570.242188 309.300781 569.675781 C 309.339844 569.527344 309.378906 569.378906 309.414062 569.230469 C 314.949219 547.867188 306.753906 527.402344 304.769531 517.703125 Z M 304.769531 517.707031 " fill-opacity="1" fill-rule="nonzero"/><path fill="#3981bf" d="M 386.277344 517.707031 C 379.664062 525.160156 361.765625 540.105469 356.363281 560.449219 C 356.214844 561.011719 356.089844 561.582031 355.996094 562.15625 C 355.898438 562.734375 355.832031 563.3125 355.796875 563.894531 C 355.757812 564.480469 355.746094 565.0625 355.765625 565.644531 C 355.785156 566.230469 355.832031 566.808594 355.910156 567.390625 C 355.984375 567.96875 356.089844 568.542969 356.222656 569.109375 C 356.355469 569.679688 356.515625 570.238281 356.703125 570.792969 C 356.890625 571.347656 357.105469 571.886719 357.347656 572.421875 C 357.585938 572.953125 357.855469 573.472656 358.144531 573.976562 C 358.4375 574.480469 358.753906 574.972656 359.09375 575.445312 C 359.433594 575.921875 359.796875 576.378906 360.179688 576.816406 C 360.566406 577.257812 360.972656 577.675781 361.398438 578.074219 C 361.824219 578.472656 362.269531 578.851562 362.734375 579.207031 C 363.195312 579.5625 363.675781 579.894531 364.171875 580.203125 C 364.667969 580.511719 365.175781 580.792969 365.699219 581.050781 C 366.222656 581.308594 366.757812 581.542969 367.304688 581.746094 C 367.851562 581.953125 368.40625 582.132812 368.972656 582.28125 C 369.535156 582.433594 370.105469 582.558594 370.683594 582.652344 C 371.257812 582.746094 371.839844 582.8125 372.421875 582.851562 C 373.003906 582.890625 373.585938 582.898438 374.171875 582.882812 C 374.753906 582.863281 375.335938 582.8125 375.914062 582.738281 C 376.492188 582.660156 377.066406 582.558594 377.636719 582.425781 C 378.203125 582.292969 378.765625 582.132812 379.316406 581.945312 C 379.871094 581.757812 380.414062 581.542969 380.945312 581.300781 C 381.476562 581.058594 381.996094 580.792969 382.5 580.503906 C 383.007812 580.210938 383.496094 579.894531 383.972656 579.554688 C 384.445312 579.214844 384.902344 578.851562 385.34375 578.464844 C 385.78125 578.082031 386.199219 577.675781 386.601562 577.25 C 387 576.824219 387.375 576.378906 387.730469 575.914062 C 388.085938 575.453125 388.417969 574.972656 388.726562 574.476562 C 389.035156 573.980469 389.320312 573.472656 389.578125 572.949219 C 389.835938 572.425781 390.070312 571.890625 390.273438 571.34375 C 390.480469 570.796875 390.65625 570.242188 390.808594 569.675781 C 390.847656 569.527344 390.886719 569.378906 390.921875 569.230469 C 396.460938 547.867188 388.261719 527.402344 386.277344 517.703125 Z M 386.277344 517.707031 " fill-opacity="1" fill-rule="nonzero"/></svg>