<svg xmlns="http://www.w3.org/2000/svg" xmlns:xlink="http://www.w3.org/1999/xlink" width="1080" zoomAndPan="magnify" viewBox="0 0 810 809.999993" height="1080" preserveAspectRatio="xMidYMid meet" version="1.0"><defs><clipPath id="25f94e7c62"><path d="M 489 175.4375 L 510 175.4375 L 510 227 L 489 227 Z M 489 175.4375 " clip-rule="nonzero"/></clipPath><clipPath id="9a6a9f504e"><path d="M 602 319 L 653.96875 319 L 653.96875 340 L 602 340 Z M 602 319 " clip-rule="nonzero"/></clipPath></defs><path fill="#ffcc00" d="M 577.757812 329.425781 C 577.757812 330.710938 577.722656 331.992188 577.660156 333.273438 C 577.597656 334.554688 577.503906 335.835938 577.378906 337.113281 C 577.253906 338.390625 577.09375 339.664062 576.90625 340.933594 C 576.71875 342.203125 576.5 343.464844 576.25 344.722656 C 576 345.984375 575.71875 347.234375 575.40625 348.480469 C 575.09375 349.722656 574.75 350.960938 574.378906 352.1875 C 574.007812 353.417969 573.605469 354.636719 573.171875 355.84375 C 572.738281 357.050781 572.277344 358.25 571.785156 359.433594 C 571.296875 360.621094 570.777344 361.792969 570.226562 362.953125 C 569.679688 364.113281 569.101562 365.257812 568.496094 366.390625 C 567.890625 367.523438 567.257812 368.636719 566.597656 369.738281 C 565.9375 370.839844 565.253906 371.921875 564.539062 372.988281 C 563.828125 374.058594 563.089844 375.105469 562.324219 376.136719 C 561.558594 377.167969 560.769531 378.179688 559.957031 379.171875 C 559.140625 380.164062 558.304688 381.132812 557.441406 382.085938 C 556.578125 383.035156 555.695312 383.964844 554.789062 384.871094 C 553.878906 385.777344 552.949219 386.664062 552 387.527344 C 551.046875 388.386719 550.078125 389.226562 549.085938 390.039062 C 548.09375 390.851562 547.082031 391.644531 546.050781 392.40625 C 545.019531 393.171875 543.96875 393.910156 542.902344 394.625 C 541.835938 395.335938 540.753906 396.023438 539.652344 396.683594 C 538.550781 397.34375 537.433594 397.972656 536.300781 398.578125 C 535.171875 399.183594 534.023438 399.761719 532.863281 400.308594 C 531.703125 400.859375 530.53125 401.378906 529.34375 401.867188 C 528.160156 402.359375 526.960938 402.820312 525.753906 403.253906 C 524.546875 403.6875 523.328125 404.089844 522.101562 404.460938 C 520.871094 404.832031 519.636719 405.175781 518.390625 405.488281 C 517.144531 405.800781 515.894531 406.082031 514.632812 406.332031 C 513.375 406.582031 512.113281 406.800781 510.84375 406.988281 C 509.574219 407.175781 508.300781 407.335938 507.023438 407.460938 C 505.746094 407.585938 504.464844 407.679688 503.183594 407.742188 C 501.902344 407.804688 500.617188 407.835938 499.335938 407.835938 C 498.050781 407.835938 496.769531 407.804688 495.488281 407.742188 C 494.207031 407.679688 492.925781 407.585938 491.648438 407.460938 C 490.371094 407.335938 489.097656 407.175781 487.828125 406.988281 C 486.558594 406.800781 485.292969 406.582031 484.035156 406.332031 C 482.777344 406.082031 481.527344 405.800781 480.28125 405.488281 C 479.035156 405.175781 477.800781 404.832031 476.570312 404.460938 C 475.34375 404.089844 474.125 403.6875 472.914062 403.253906 C 471.707031 402.820312 470.511719 402.359375 469.324219 401.867188 C 468.140625 401.378906 466.964844 400.859375 465.804688 400.308594 C 464.644531 399.761719 463.5 399.183594 462.367188 398.578125 C 461.234375 397.972656 460.121094 397.339844 459.019531 396.683594 C 457.917969 396.023438 456.835938 395.335938 455.765625 394.621094 C 454.699219 393.910156 453.652344 393.171875 452.621094 392.40625 C 451.589844 391.644531 450.578125 390.851562 449.585938 390.039062 C 448.59375 389.226562 447.621094 388.386719 446.671875 387.527344 C 445.71875 386.664062 444.789062 385.777344 443.882812 384.871094 C 442.976562 383.964844 442.089844 383.035156 441.230469 382.085938 C 440.367188 381.132812 439.53125 380.164062 438.714844 379.171875 C 437.902344 378.179688 437.113281 377.167969 436.347656 376.136719 C 435.582031 375.105469 434.84375 374.058594 434.128906 372.988281 C 433.417969 371.921875 432.730469 370.839844 432.070312 369.738281 C 431.410156 368.636719 430.777344 367.519531 430.175781 366.390625 C 429.570312 365.257812 428.992188 364.113281 428.445312 362.953125 C 427.894531 361.792969 427.375 360.621094 426.882812 359.433594 C 426.394531 358.25 425.929688 357.050781 425.5 355.84375 C 425.066406 354.632812 424.664062 353.417969 424.292969 352.1875 C 423.917969 350.960938 423.578125 349.722656 423.265625 348.480469 C 422.953125 347.234375 422.671875 345.984375 422.421875 344.722656 C 422.171875 343.464844 421.953125 342.203125 421.761719 340.933594 C 421.574219 339.664062 421.417969 338.390625 421.292969 337.113281 C 421.167969 335.835938 421.070312 334.554688 421.007812 333.273438 C 420.945312 331.992188 420.914062 330.710938 420.914062 329.425781 C 420.914062 328.144531 420.945312 326.863281 421.007812 325.578125 C 421.070312 324.296875 421.167969 323.019531 421.292969 321.742188 C 421.417969 320.464844 421.574219 319.191406 421.761719 317.921875 C 421.953125 316.652344 422.171875 315.390625 422.421875 314.128906 C 422.671875 312.871094 422.953125 311.621094 423.265625 310.375 C 423.578125 309.128906 423.917969 307.894531 424.292969 306.667969 C 424.664062 305.4375 425.066406 304.21875 425.5 303.011719 C 425.929688 301.804688 426.394531 300.605469 426.882812 299.421875 C 427.375 298.234375 427.894531 297.0625 428.445312 295.902344 C 428.992188 294.742188 429.570312 293.597656 430.175781 292.464844 C 430.78125 291.332031 431.410156 290.21875 432.070312 289.117188 C 432.730469 288.015625 433.417969 286.933594 434.128906 285.863281 C 434.84375 284.796875 435.582031 283.75 436.347656 282.71875 C 437.113281 281.6875 437.902344 280.675781 438.714844 279.683594 C 439.53125 278.691406 440.367188 277.722656 441.230469 276.769531 C 442.089844 275.820312 442.976562 274.890625 443.882812 273.984375 C 444.789062 273.074219 445.71875 272.191406 446.671875 271.328125 C 447.621094 270.46875 448.59375 269.628906 449.585938 268.816406 C 450.578125 268 451.589844 267.210938 452.621094 266.449219 C 453.652344 265.683594 454.699219 264.945312 455.765625 264.230469 C 456.835938 263.519531 457.917969 262.832031 459.019531 262.171875 C 460.121094 261.511719 461.234375 260.882812 462.367188 260.277344 C 463.5 259.671875 464.644531 259.09375 465.804688 258.546875 C 466.964844 257.996094 468.140625 257.476562 469.324219 256.984375 C 470.511719 256.496094 471.707031 256.035156 472.917969 255.601562 C 474.125 255.167969 475.34375 254.765625 476.570312 254.394531 C 477.800781 254.019531 479.035156 253.679688 480.28125 253.367188 C 481.527344 253.054688 482.777344 252.773438 484.035156 252.523438 C 485.292969 252.273438 486.558594 252.054688 487.828125 251.867188 C 489.097656 251.679688 490.371094 251.519531 491.648438 251.394531 C 492.925781 251.269531 494.207031 251.175781 495.488281 251.113281 C 496.769531 251.050781 498.050781 251.015625 499.335938 251.015625 C 500.617188 251.015625 501.902344 251.050781 503.183594 251.113281 C 504.464844 251.175781 505.746094 251.269531 507.023438 251.394531 C 508.300781 251.519531 509.574219 251.679688 510.84375 251.867188 C 512.113281 252.054688 513.375 252.273438 514.632812 252.523438 C 515.894531 252.773438 517.144531 253.054688 518.390625 253.367188 C 519.636719 253.679688 520.871094 254.019531 522.101562 254.394531 C 523.328125 254.765625 524.546875 255.167969 525.753906 255.601562 C 526.960938 256.035156 528.160156 256.496094 529.34375 256.984375 C 530.53125 257.476562 531.703125 257.996094 532.863281 258.546875 C 534.023438 259.09375 535.171875 259.671875 536.300781 260.277344 C 537.433594 260.882812 538.550781 261.511719 539.652344 262.171875 C 540.753906 262.832031 541.835938 263.519531 542.902344 264.230469 C 543.96875 264.945312 545.019531 265.683594 546.050781 266.449219 C 547.082031 267.210938 548.09375 268 549.085938 268.816406 C 550.078125 269.628906 551.046875 270.46875 552 271.328125 C 552.949219 272.191406 553.878906 273.074219 554.789062 273.984375 C 555.695312 274.890625 556.578125 275.820312 557.441406 276.769531 C 558.304688 277.722656 559.140625 278.691406 559.957031 279.683594 C 560.769531 280.675781 561.558594 281.6875 562.324219 282.71875 C 563.089844 283.75 563.828125 284.796875 564.539062 285.863281 C 565.253906 286.933594 565.9375 288.015625 566.597656 289.117188 C 567.257812 290.21875 567.890625 291.332031 568.496094 292.464844 C 569.101562 293.597656 569.679688 294.742188 570.226562 295.902344 C 570.777344 297.0625 571.296875 298.234375 571.785156 299.421875 C 572.277344 300.605469 572.738281 301.804688 573.171875 303.011719 C 573.605469 304.21875 574.007812 305.4375 574.378906 306.667969 C 574.75 307.894531 575.09375 309.128906 575.40625 310.375 C 575.71875 311.621094 576 312.871094 576.25 314.128906 C 576.5 315.390625 576.71875 316.652344 576.90625 317.921875 C 577.097656 319.191406 577.253906 320.464844 577.378906 321.742188 C 577.503906 323.019531 577.597656 324.296875 577.660156 325.578125 C 577.722656 326.863281 577.757812 328.144531 577.757812 329.425781 Z M 577.757812 329.425781 " fill-opacity="1" fill-rule="nonzero"/><g clip-path="url(#25f94e7c62)"><path fill="#ffcc00" d="M 499.335938 175.40625 C 493.644531 175.40625 489.066406 180.902344 489.066406 187.726562 L 489.066406 214.425781 C 489.066406 221.25 493.644531 226.746094 499.335938 226.746094 C 505.023438 226.746094 509.605469 221.25 509.605469 214.425781 L 509.605469 187.726562 C 509.605469 180.902344 505.023438 175.40625 499.335938 175.40625 Z M 499.335938 175.40625 " fill-opacity="1" fill-rule="nonzero"/></g><path fill="#ffcc00" d="M 608.261719 220.519531 C 604.238281 216.496094 597.113281 217.144531 592.285156 221.96875 L 573.402344 240.847656 C 568.578125 245.675781 567.929688 252.796875 571.953125 256.820312 C 575.976562 260.84375 583.101562 260.195312 587.925781 255.367188 L 606.808594 236.492188 C 611.636719 231.664062 612.28125 224.539062 608.261719 220.519531 Z M 608.261719 220.519531 " fill-opacity="1" fill-rule="nonzero"/><g clip-path="url(#9a6a9f504e)"><path fill="#ffcc00" d="M 653.378906 329.425781 C 653.378906 323.738281 647.882812 319.160156 641.054688 319.160156 L 614.355469 319.160156 C 607.527344 319.160156 602.03125 323.738281 602.03125 329.425781 C 602.03125 335.117188 607.527344 339.695312 614.355469 339.695312 L 641.054688 339.695312 C 647.882812 339.695312 653.378906 335.117188 653.378906 329.425781 Z M 653.378906 329.425781 " fill-opacity="1" fill-rule="nonzero"/></g><path fill="#ffcc00" d="M 608.261719 438.335938 C 612.28125 434.316406 611.636719 427.191406 606.808594 422.363281 L 587.925781 403.484375 C 583.101562 398.660156 575.976562 398.011719 571.953125 402.035156 C 567.929688 406.054688 568.578125 413.179688 573.402344 418.007812 L 592.285156 436.886719 C 597.113281 441.710938 604.238281 442.359375 608.261719 438.335938 Z M 608.261719 438.335938 " fill-opacity="1" fill-rule="nonzero"/><path fill="#ffcc00" d="M 499.335938 483.449219 C 505.023438 483.449219 509.605469 477.953125 509.605469 471.128906 L 509.605469 444.429688 C 509.605469 437.605469 505.023438 432.109375 499.335938 432.109375 C 493.644531 432.109375 489.066406 437.605469 489.066406 444.429688 L 489.066406 471.128906 C 489.066406 477.953125 493.644531 483.449219 499.335938 483.449219 Z M 499.335938 483.449219 " fill-opacity="1" fill-rule="nonzero"/><path fill="#ffcc00" d="M 390.410156 438.335938 C 394.433594 442.359375 401.558594 441.710938 406.386719 436.886719 L 425.265625 418.007812 C 430.09375 413.179688 430.742188 406.054688 426.71875 402.035156 C 422.695312 398.011719 415.570312 398.660156 410.742188 403.484375 L 391.863281 422.363281 C 387.035156 427.191406 386.386719 434.316406 390.410156 438.335938 Z M 390.410156 438.335938 " fill-opacity="1" fill-rule="nonzero"/><path fill="#ffcc00" d="M 345.292969 329.425781 C 345.292969 335.117188 350.789062 339.695312 357.617188 339.695312 L 384.316406 339.695312 C 391.144531 339.695312 396.640625 335.117188 396.640625 329.425781 C 396.640625 323.738281 391.144531 319.160156 384.316406 319.160156 L 357.617188 319.160156 C 350.789062 319.160156 345.292969 323.738281 345.292969 329.425781 Z M 345.292969 329.425781 " fill-opacity="1" fill-rule="nonzero"/><path fill="#ffcc00" d="M 390.410156 220.519531 C 386.386719 224.539062 387.035156 231.664062 391.863281 236.492188 L 410.742188 255.367188 C 415.570312 260.195312 422.695312 260.84375 426.71875 256.820312 C 430.742188 252.796875 430.09375 245.675781 425.265625 240.847656 L 406.386719 221.96875 C 401.558594 217.144531 394.433594 216.496094 390.410156 220.519531 Z M 390.410156 220.519531 " fill-opacity="1" fill-rule="nonzero"/><path fill="#c6e0f7" d="M 304.429688 299.164062 C 302.964844 299.164062 301.503906 299.199219 300.046875 299.273438 C 298.585938 299.34375 297.128906 299.453125 295.675781 299.59375 C 294.21875 299.738281 292.769531 299.917969 291.324219 300.132812 C 289.878906 300.347656 288.4375 300.59375 287.003906 300.878906 C 285.570312 301.164062 284.144531 301.484375 282.726562 301.839844 C 281.308594 302.195312 279.902344 302.585938 278.503906 303.011719 C 277.101562 303.433594 275.714844 303.894531 274.339844 304.386719 C 272.964844 304.878906 271.601562 305.402344 270.25 305.960938 C 268.898438 306.523438 267.5625 307.113281 266.242188 307.738281 C 264.921875 308.363281 263.617188 309.019531 262.328125 309.710938 C 261.039062 310.398438 259.765625 311.117188 258.511719 311.871094 C 257.257812 312.621094 256.023438 313.402344 254.808594 314.214844 C 253.59375 315.027344 252.398438 315.867188 251.226562 316.738281 C 250.050781 317.609375 248.898438 318.507812 247.769531 319.433594 C 246.640625 320.363281 245.535156 321.316406 244.449219 322.296875 C 243.367188 323.28125 242.308594 324.285156 241.277344 325.320312 C 240.242188 326.355469 239.234375 327.410156 238.253906 328.496094 C 237.269531 329.578125 236.316406 330.683594 235.390625 331.8125 C 234.460938 332.941406 233.5625 334.09375 232.691406 335.269531 C 231.820312 336.441406 230.980469 337.636719 230.167969 338.851562 C 229.355469 340.066406 228.574219 341.300781 227.824219 342.554688 C 227.070312 343.808594 226.351562 345.078125 225.664062 346.367188 C 224.972656 347.65625 224.316406 348.960938 223.691406 350.285156 C 223.066406 351.605469 222.476562 352.941406 221.914062 354.289062 C 221.355469 355.640625 220.832031 357.003906 220.335938 358.378906 C 219.84375 359.757812 219.386719 361.144531 218.960938 362.542969 C 218.539062 363.941406 218.148438 365.347656 217.792969 366.765625 C 217.4375 368.183594 217.117188 369.609375 216.832031 371.042969 C 216.546875 372.476562 216.296875 373.914062 216.082031 375.359375 C 215.871094 376.804688 215.691406 378.257812 215.546875 379.710938 C 215.402344 381.164062 215.296875 382.621094 215.226562 384.082031 C 215.152344 385.542969 215.117188 387 215.117188 388.464844 C 215.136719 391.769531 215.339844 395.0625 215.726562 398.347656 C 182.042969 404.394531 156.773438 431.597656 156.773438 464.4375 C 156.773438 501.75 189.390625 531.789062 229.90625 531.789062 L 490.855469 531.789062 C 528.175781 531.789062 558.214844 503.867188 558.214844 469.1875 C 558.214844 434.722656 528.542969 406.949219 491.550781 406.601562 C 491.257812 404.289062 490.863281 401.996094 490.363281 399.722656 C 489.863281 397.449219 489.261719 395.199219 488.558594 392.980469 C 487.855469 390.757812 487.054688 388.574219 486.152344 386.425781 C 485.253906 384.28125 484.257812 382.175781 483.164062 380.117188 C 482.074219 378.058594 480.894531 376.054688 479.621094 374.105469 C 478.351562 372.152344 476.992188 370.261719 475.550781 368.433594 C 474.109375 366.605469 472.585938 364.84375 470.984375 363.152344 C 469.382812 361.460938 467.707031 359.847656 465.960938 358.308594 C 464.214844 356.765625 462.398438 355.308594 460.519531 353.933594 C 458.640625 352.558594 456.703125 351.269531 454.707031 350.066406 C 452.710938 348.867188 450.664062 347.757812 448.570312 346.742188 C 446.472656 345.726562 444.335938 344.804688 442.15625 343.980469 C 439.976562 343.160156 437.765625 342.4375 435.523438 341.8125 C 433.277344 341.1875 431.007812 340.667969 428.71875 340.25 C 426.425781 339.832031 424.121094 339.515625 421.800781 339.308594 C 419.480469 339.097656 417.15625 338.992188 414.828125 338.992188 C 409.328125 339 403.890625 339.589844 398.515625 340.753906 C 393.144531 341.921875 387.953125 343.644531 382.945312 345.917969 C 381.996094 344.160156 380.984375 342.4375 379.914062 340.746094 C 378.847656 339.058594 377.722656 337.40625 376.542969 335.792969 C 375.363281 334.175781 374.132812 332.605469 372.847656 331.074219 C 371.5625 329.539062 370.226562 328.054688 368.84375 326.613281 C 367.457031 325.171875 366.027344 323.777344 364.546875 322.429688 C 363.070312 321.085938 361.546875 319.789062 359.980469 318.546875 C 358.417969 317.304688 356.8125 316.113281 355.167969 314.976562 C 353.519531 313.839844 351.839844 312.761719 350.121094 311.738281 C 348.402344 310.714844 346.652344 309.753906 344.871094 308.847656 C 343.089844 307.941406 341.277344 307.097656 339.4375 306.3125 C 337.597656 305.53125 335.734375 304.808594 333.847656 304.148438 C 331.960938 303.492188 330.050781 302.898438 328.125 302.367188 C 326.195312 301.835938 324.253906 301.371094 322.292969 300.96875 C 320.335938 300.570312 318.363281 300.238281 316.382812 299.96875 C 314.402344 299.703125 312.414062 299.5 310.417969 299.367188 C 308.425781 299.230469 306.425781 299.164062 304.429688 299.164062 Z M 304.429688 299.164062 " fill-opacity="1" fill-rule="nonzero"/><path fill="#3981bf" d="M 261.320312 489.417969 C 254.535156 497.070312 236.175781 512.398438 230.632812 533.265625 C 230.480469 533.84375 230.351562 534.429688 230.253906 535.019531 C 230.15625 535.613281 230.089844 536.207031 230.050781 536.804688 C 230.011719 537.402344 230 538 230.019531 538.597656 C 230.039062 539.199219 230.089844 539.792969 230.167969 540.386719 C 230.246094 540.980469 230.351562 541.570312 230.488281 542.152344 C 230.625 542.738281 230.789062 543.3125 230.980469 543.878906 C 231.171875 544.445312 231.394531 545.003906 231.640625 545.546875 C 231.886719 546.09375 232.160156 546.625 232.460938 547.144531 C 232.761719 547.664062 233.085938 548.167969 233.433594 548.652344 C 233.78125 549.140625 234.15625 549.609375 234.550781 550.058594 C 234.945312 550.507812 235.359375 550.941406 235.796875 551.347656 C 236.234375 551.757812 236.691406 552.144531 237.167969 552.511719 C 237.640625 552.875 238.132812 553.214844 238.644531 553.53125 C 239.152344 553.847656 239.675781 554.136719 240.210938 554.402344 C 240.75 554.667969 241.296875 554.90625 241.859375 555.117188 C 242.417969 555.328125 242.988281 555.511719 243.566406 555.667969 C 244.148438 555.820312 244.730469 555.949219 245.324219 556.046875 C 245.914062 556.144531 246.507812 556.210938 247.105469 556.25 C 247.703125 556.289062 248.300781 556.300781 248.902344 556.28125 C 249.5 556.261719 250.09375 556.210938 250.691406 556.132812 C 251.285156 556.054688 251.871094 555.949219 252.457031 555.8125 C 253.039062 555.675781 253.613281 555.511719 254.183594 555.320312 C 254.75 555.125 255.304688 554.90625 255.851562 554.660156 C 256.398438 554.414062 256.929688 554.140625 257.449219 553.839844 C 257.964844 553.539062 258.46875 553.214844 258.957031 552.867188 C 259.445312 552.519531 259.914062 552.144531 260.363281 551.75 C 260.8125 551.355469 261.242188 550.941406 261.652344 550.503906 C 262.0625 550.066406 262.449219 549.609375 262.8125 549.132812 C 263.179688 548.660156 263.519531 548.167969 263.835938 547.660156 C 264.152344 547.148438 264.441406 546.625 264.707031 546.089844 C 264.972656 545.550781 265.210938 545.003906 265.421875 544.441406 C 265.632812 543.882812 265.816406 543.3125 265.96875 542.734375 C 266.011719 542.582031 266.050781 542.429688 266.085938 542.277344 C 271.765625 520.359375 263.355469 499.367188 261.320312 489.417969 Z M 261.320312 489.417969 " fill-opacity="1" fill-rule="nonzero"/><path fill="#3981bf" d="M 344.941406 489.417969 C 338.15625 497.070312 319.792969 512.398438 314.253906 533.265625 C 314.097656 533.84375 313.972656 534.429688 313.875 535.019531 C 313.777344 535.613281 313.707031 536.207031 313.667969 536.804688 C 313.628906 537.402344 313.621094 538 313.640625 538.597656 C 313.660156 539.199219 313.707031 539.792969 313.785156 540.386719 C 313.863281 540.980469 313.972656 541.570312 314.109375 542.152344 C 314.242188 542.738281 314.40625 543.3125 314.601562 543.878906 C 314.792969 544.445312 315.011719 545.003906 315.261719 545.546875 C 315.507812 546.09375 315.78125 546.625 316.082031 547.144531 C 316.378906 547.664062 316.703125 548.167969 317.054688 548.652344 C 317.402344 549.140625 317.773438 549.609375 318.167969 550.058594 C 318.5625 550.507812 318.980469 550.941406 319.417969 551.347656 C 319.855469 551.757812 320.3125 552.144531 320.785156 552.511719 C 321.261719 552.875 321.753906 553.214844 322.261719 553.53125 C 322.769531 553.847656 323.292969 554.136719 323.832031 554.402344 C 324.367188 554.667969 324.917969 554.90625 325.476562 555.117188 C 326.039062 555.328125 326.609375 555.511719 327.1875 555.667969 C 327.765625 555.820312 328.351562 555.949219 328.941406 556.046875 C 329.53125 556.144531 330.128906 556.210938 330.726562 556.25 C 331.324219 556.289062 331.921875 556.300781 332.519531 556.28125 C 333.117188 556.261719 333.714844 556.210938 334.308594 556.132812 C 334.902344 556.054688 335.492188 555.949219 336.074219 555.8125 C 336.660156 555.675781 337.234375 555.511719 337.800781 555.320312 C 338.367188 555.125 338.925781 554.90625 339.46875 554.660156 C 340.015625 554.414062 340.546875 554.140625 341.066406 553.839844 C 341.585938 553.539062 342.089844 553.214844 342.574219 552.867188 C 343.0625 552.519531 343.53125 552.144531 343.980469 551.75 C 344.433594 551.355469 344.863281 550.941406 345.273438 550.503906 C 345.679688 550.066406 346.066406 549.609375 346.433594 549.132812 C 346.796875 548.660156 347.136719 548.167969 347.453125 547.660156 C 347.769531 547.148438 348.0625 546.625 348.328125 546.089844 C 348.589844 545.550781 348.828125 545.003906 349.039062 544.441406 C 349.25 543.882812 349.433594 543.3125 349.589844 542.734375 C 349.628906 542.582031 349.667969 542.429688 349.707031 542.277344 C 355.386719 520.359375 346.976562 499.367188 344.941406 489.417969 Z M 344.941406 489.417969 " fill-opacity="1" fill-rule="nonzero"/><path fill="#3981bf" d="M 428.695312 491.652344 C 421.914062 499.300781 403.550781 514.632812 398.007812 535.5 C 397.855469 536.078125 397.726562 536.664062 397.628906 537.253906 C 397.53125 537.84375 397.464844 538.441406 397.425781 539.039062 C 397.386719 539.636719 397.375 540.234375 397.394531 540.832031 C 397.414062 541.429688 397.464844 542.027344 397.542969 542.621094 C 397.621094 543.214844 397.726562 543.804688 397.863281 544.386719 C 398 544.96875 398.164062 545.546875 398.355469 546.113281 C 398.550781 546.679688 398.769531 547.234375 399.015625 547.78125 C 399.261719 548.328125 399.535156 548.859375 399.835938 549.378906 C 400.136719 549.898438 400.460938 550.398438 400.808594 550.886719 C 401.15625 551.375 401.53125 551.84375 401.925781 552.292969 C 402.320312 552.742188 402.734375 553.171875 403.171875 553.582031 C 403.609375 553.992188 404.066406 554.378906 404.542969 554.742188 C 405.015625 555.109375 405.507812 555.449219 406.019531 555.765625 C 406.527344 556.082031 407.050781 556.371094 407.585938 556.636719 C 408.125 556.902344 408.671875 557.140625 409.234375 557.351562 C 409.796875 557.5625 410.363281 557.746094 410.941406 557.898438 C 411.523438 558.054688 412.105469 558.179688 412.699219 558.277344 C 413.289062 558.375 413.882812 558.445312 414.480469 558.484375 C 415.078125 558.523438 415.675781 558.53125 416.277344 558.511719 C 416.875 558.492188 417.472656 558.445312 418.066406 558.367188 C 418.660156 558.289062 419.246094 558.179688 419.832031 558.046875 C 420.414062 557.910156 420.988281 557.746094 421.558594 557.550781 C 422.125 557.359375 422.679688 557.140625 423.226562 556.890625 C 423.773438 556.644531 424.304688 556.371094 424.824219 556.074219 C 425.34375 555.773438 425.84375 555.449219 426.332031 555.101562 C 426.820312 554.75 427.289062 554.378906 427.738281 553.984375 C 428.1875 553.589844 428.617188 553.171875 429.027344 552.734375 C 429.4375 552.296875 429.824219 551.84375 430.1875 551.367188 C 430.554688 550.890625 430.894531 550.398438 431.210938 549.890625 C 431.527344 549.382812 431.816406 548.859375 432.082031 548.324219 C 432.347656 547.785156 432.585938 547.238281 432.796875 546.675781 C 433.007812 546.117188 433.191406 545.546875 433.347656 544.96875 C 433.386719 544.816406 433.425781 544.664062 433.460938 544.511719 C 439.140625 522.59375 430.730469 501.597656 428.695312 491.652344 Z M 428.695312 491.652344 " fill-opacity="1" fill-rule="nonzero"/><path fill="#3981bf" d="M 303.199219 565.558594 C 296.414062 573.207031 278.050781 588.539062 272.511719 609.40625 C 272.355469 609.984375 272.230469 610.570312 272.132812 611.160156 C 272.035156 611.753906 271.96875 612.347656 271.929688 612.945312 C 271.886719 613.542969 271.878906 614.140625 271.898438 614.738281 C 271.917969 615.335938 271.96875 615.933594 272.046875 616.527344 C 272.125 617.121094 272.230469 617.710938 272.367188 618.292969 C 272.503906 618.875 272.667969 619.453125 272.859375 620.019531 C 273.050781 620.585938 273.273438 621.144531 273.519531 621.6875 C 273.765625 622.234375 274.039062 622.765625 274.339844 623.285156 C 274.640625 623.804688 274.964844 624.304688 275.3125 624.792969 C 275.660156 625.28125 276.03125 625.75 276.429688 626.199219 C 276.824219 626.648438 277.238281 627.078125 277.675781 627.488281 C 278.113281 627.898438 278.570312 628.285156 279.046875 628.648438 C 279.519531 629.015625 280.011719 629.355469 280.519531 629.671875 C 281.03125 629.988281 281.554688 630.277344 282.089844 630.542969 C 282.628906 630.808594 283.175781 631.046875 283.738281 631.257812 C 284.296875 631.46875 284.867188 631.652344 285.445312 631.804688 C 286.023438 631.960938 286.609375 632.085938 287.199219 632.183594 C 287.792969 632.28125 288.386719 632.351562 288.984375 632.390625 C 289.582031 632.429688 290.179688 632.4375 290.777344 632.417969 C 291.378906 632.398438 291.972656 632.351562 292.566406 632.273438 C 293.160156 632.195312 293.75 632.085938 294.332031 631.953125 C 294.917969 631.816406 295.492188 631.652344 296.058594 631.457031 C 296.628906 631.265625 297.183594 631.046875 297.730469 630.800781 C 298.273438 630.550781 298.808594 630.277344 299.324219 629.980469 C 299.84375 629.679688 300.347656 629.355469 300.835938 629.007812 C 301.320312 628.65625 301.789062 628.285156 302.242188 627.890625 C 302.691406 627.496094 303.121094 627.078125 303.53125 626.644531 C 303.941406 626.207031 304.328125 625.75 304.691406 625.273438 C 305.054688 624.796875 305.398438 624.308594 305.714844 623.796875 C 306.03125 623.289062 306.320312 622.765625 306.585938 622.230469 C 306.851562 621.691406 307.089844 621.144531 307.300781 620.582031 C 307.511719 620.023438 307.695312 619.453125 307.847656 618.875 C 307.890625 618.722656 307.929688 618.570312 307.964844 618.417969 C 313.644531 596.5 305.234375 575.507812 303.199219 565.558594 Z M 303.199219 565.558594 " fill-opacity="1" fill-rule="nonzero"/><path fill="#3981bf" d="M 386.820312 565.558594 C 380.035156 573.207031 361.671875 588.539062 356.132812 609.40625 C 355.976562 609.984375 355.851562 610.570312 355.753906 611.160156 C 355.65625 611.753906 355.585938 612.347656 355.546875 612.945312 C 355.507812 613.542969 355.496094 614.140625 355.519531 614.738281 C 355.539062 615.335938 355.585938 615.933594 355.664062 616.527344 C 355.742188 617.121094 355.847656 617.710938 355.984375 618.292969 C 356.121094 618.875 356.285156 619.453125 356.476562 620.019531 C 356.671875 620.585938 356.890625 621.144531 357.136719 621.6875 C 357.386719 622.234375 357.660156 622.765625 357.957031 623.285156 C 358.257812 623.804688 358.582031 624.304688 358.929688 624.792969 C 359.28125 625.28125 359.652344 625.75 360.046875 626.199219 C 360.441406 626.648438 360.859375 627.078125 361.296875 627.488281 C 361.734375 627.898438 362.1875 628.285156 362.664062 628.648438 C 363.140625 629.015625 363.632812 629.355469 364.140625 629.671875 C 364.648438 629.988281 365.171875 630.277344 365.710938 630.542969 C 366.246094 630.808594 366.796875 631.046875 367.355469 631.257812 C 367.917969 631.46875 368.488281 631.652344 369.066406 631.804688 C 369.644531 631.960938 370.230469 632.085938 370.820312 632.183594 C 371.410156 632.28125 372.003906 632.351562 372.601562 632.390625 C 373.199219 632.429688 373.800781 632.4375 374.398438 632.417969 C 374.996094 632.398438 375.59375 632.351562 376.1875 632.273438 C 376.78125 632.195312 377.371094 632.085938 377.953125 631.953125 C 378.535156 631.816406 379.113281 631.652344 379.679688 631.457031 C 380.246094 631.265625 380.804688 631.046875 381.347656 630.800781 C 381.894531 630.550781 382.425781 630.277344 382.945312 629.980469 C 383.464844 629.679688 383.96875 629.355469 384.453125 629.007812 C 384.941406 628.65625 385.410156 628.285156 385.859375 627.890625 C 386.308594 627.496094 386.742188 627.078125 387.148438 626.644531 C 387.558594 626.207031 387.945312 625.75 388.3125 625.273438 C 388.675781 624.800781 389.015625 624.308594 389.332031 623.796875 C 389.648438 623.289062 389.941406 622.765625 390.203125 622.230469 C 390.46875 621.691406 390.707031 621.144531 390.917969 620.582031 C 391.128906 620.023438 391.3125 619.453125 391.46875 618.875 C 391.507812 618.722656 391.546875 618.570312 391.585938 618.417969 C 397.265625 596.5 388.855469 575.507812 386.816406 565.558594 Z M 386.820312 565.558594 " fill-opacity="1" fill-rule="nonzero"/></svg>