<svg xmlns="http://www.w3.org/2000/svg" xmlns:xlink="http://www.w3.org/1999/xlink" width="1080" zoomAndPan="magnify" viewBox="0 0 810 809.999993" height="1080" preserveAspectRatio="xMidYMid meet" version="1.0"><defs><clipPath id="ad2dcc0923"><path d="M 143.355469 218.46875 L 361 218.46875 L 361 324 L 143.355469 324 Z M 143.355469 218.46875 " clip-rule="nonzero"/></clipPath><clipPath id="bfc3aafcca"><path d="M 450 486 L 666.855469 486 L 666.855469 591.21875 L 450 591.21875 Z M 450 486 " clip-rule="nonzero"/></clipPath></defs><g clip-path="url(#ad2dcc0923)"><path fill="#f0f8ff" d="M 164.789062 323.234375 C 165.050781 323.246094 165.316406 323.257812 165.578125 323.257812 L 334.902344 323.257812 C 335.019531 323.257812 335.132812 323.257812 335.25 323.25 C 335.367188 323.25 335.488281 323.257812 335.605469 323.257812 C 349.195312 323.257812 360.207031 312.253906 360.207031 298.683594 C 360.207031 285.117188 349.195312 274.109375 335.605469 274.109375 C 332.636719 274.109375 329.792969 274.636719 327.160156 275.597656 C 325.410156 258.417969 310.882812 245.019531 293.222656 245.019531 C 292.644531 245.019531 292.070312 245.03125 291.492188 245.058594 C 284.652344 229.417969 269.023438 218.476562 250.832031 218.476562 C 230.078125 218.476562 212.65625 232.722656 207.824219 251.957031 C 204.605469 250.949219 201.183594 250.410156 197.636719 250.410156 C 179.398438 250.410156 164.507812 264.699219 163.566406 282.683594 C 152.457031 282.808594 143.488281 291.839844 143.488281 302.96875 C 143.488281 314.175781 152.585938 323.257812 163.800781 323.257812 C 164.132812 323.257812 164.464844 323.253906 164.789062 323.234375 Z M 164.789062 323.234375 " fill-opacity="1" fill-rule="evenodd"/></g><path fill="#f0f8ff" d="M 483.589844 324.066406 C 483.765625 324.078125 483.9375 324.085938 484.113281 324.085938 L 595.875 324.085938 C 595.953125 324.085938 596.027344 324.085938 596.101562 324.078125 C 596.183594 324.085938 596.261719 324.085938 596.339844 324.085938 C 605.308594 324.085938 612.582031 316.824219 612.582031 307.863281 C 612.582031 298.910156 605.308594 291.648438 596.339844 291.648438 C 594.378906 291.648438 592.5 291.996094 590.761719 292.625 C 589.609375 281.292969 580.023438 272.441406 568.367188 272.441406 C 567.984375 272.441406 567.601562 272.453125 567.21875 272.46875 C 562.710938 262.144531 552.394531 254.921875 540.390625 254.921875 C 526.6875 254.921875 515.191406 264.328125 512 277.023438 C 509.878906 276.355469 507.617188 276.003906 505.273438 276.003906 C 493.234375 276.003906 483.410156 285.433594 482.792969 297.304688 C 475.457031 297.386719 469.539062 303.347656 469.539062 310.695312 C 469.539062 318.089844 475.539062 324.085938 482.945312 324.085938 C 483.164062 324.085938 483.375 324.078125 483.589844 324.066406 Z M 483.589844 324.066406 " fill-opacity="1" fill-rule="evenodd"/><path fill="#ffc44f" d="M 415.253906 323.003906 C 461.488281 323.003906 498.964844 360.433594 498.964844 406.609375 C 498.964844 452.789062 461.488281 490.222656 415.253906 490.222656 C 369.015625 490.222656 331.539062 452.789062 331.539062 406.609375 C 331.539062 360.433594 369.015625 323.003906 415.253906 323.003906 Z M 415.253906 323.003906 " fill-opacity="1" fill-rule="evenodd"/><path fill="#ffe66b" d="M 415.253906 323.003906 C 461.488281 323.003906 498.964844 360.433594 498.964844 406.609375 C 498.964844 407.269531 498.953125 407.929688 498.941406 408.589844 C 486.480469 426.367188 465.816406 437.992188 442.445312 437.992188 C 404.378906 437.992188 373.523438 407.175781 373.523438 369.152344 C 373.523438 353.617188 378.683594 339.273438 387.378906 327.75 C 396.101562 324.675781 405.476562 323.003906 415.253906 323.003906 Z M 415.253906 323.003906 " fill-opacity="1" fill-rule="evenodd"/><path fill="#ffc44f" d="M 415.253906 262.816406 C 419.203125 262.816406 422.433594 266.042969 422.433594 269.984375 L 422.433594 302.898438 C 422.433594 306.84375 419.203125 310.066406 415.253906 310.066406 C 411.304688 310.066406 408.070312 306.84375 408.070312 302.898438 L 408.070312 269.984375 C 408.070312 266.042969 411.304688 262.816406 415.253906 262.816406 Z M 415.253906 262.816406 " fill-opacity="1" fill-rule="evenodd"/><path fill="#ffc44f" d="M 343.265625 282.078125 C 346.683594 280.109375 351.097656 281.289062 353.074219 284.703125 L 369.550781 313.207031 C 371.527344 316.625 370.34375 321.035156 366.921875 323.007812 C 363.503906 324.976562 359.085938 323.792969 357.117188 320.378906 L 340.636719 291.878906 C 338.664062 288.460938 339.847656 284.054688 343.265625 282.078125 Z M 343.265625 282.078125 " fill-opacity="1" fill-rule="evenodd"/><path fill="#ffc44f" d="M 290.566406 334.710938 L 290.574219 334.710938 C 292.546875 331.296875 296.957031 330.113281 300.378906 332.089844 L 328.917969 348.542969 C 332.339844 350.519531 333.523438 354.925781 331.546875 358.339844 C 329.574219 361.757812 325.15625 362.933594 321.742188 360.964844 L 293.199219 344.503906 C 289.777344 342.539062 288.59375 338.128906 290.566406 334.710938 Z M 290.566406 334.710938 " fill-opacity="1" fill-rule="evenodd"/><path fill="#ffc44f" d="M 271.28125 406.609375 C 271.28125 402.667969 274.511719 399.441406 278.457031 399.441406 L 311.417969 399.441406 C 315.367188 399.441406 318.597656 402.667969 318.597656 406.609375 C 318.597656 410.554688 315.367188 413.78125 311.417969 413.78125 L 278.457031 413.78125 C 274.511719 413.78125 271.28125 410.554688 271.28125 406.609375 Z M 271.28125 406.609375 " fill-opacity="1" fill-rule="evenodd"/><path fill="#ffc44f" d="M 290.566406 478.507812 C 288.59375 475.09375 289.777344 470.679688 293.199219 468.714844 L 321.742188 452.253906 C 325.15625 450.285156 329.574219 451.464844 331.546875 454.878906 C 333.523438 458.292969 332.339844 462.703125 328.917969 464.675781 L 300.378906 481.136719 C 296.957031 483.105469 292.542969 481.921875 290.566406 478.507812 Z M 290.566406 478.507812 " fill-opacity="1" fill-rule="evenodd"/><path fill="#ffc44f" d="M 343.265625 531.140625 C 339.847656 529.171875 338.664062 524.761719 340.636719 521.347656 L 357.117188 492.839844 C 359.089844 489.425781 363.503906 488.242188 366.921875 490.21875 C 370.34375 492.1875 371.527344 496.59375 369.550781 500.011719 L 353.074219 528.515625 C 351.097656 531.933594 346.683594 533.117188 343.265625 531.140625 Z M 343.265625 531.140625 " fill-opacity="1" fill-rule="evenodd"/><path fill="#ffc44f" d="M 415.253906 550.410156 L 415.25 550.410156 C 411.300781 550.410156 408.070312 547.175781 408.070312 543.234375 L 408.070312 510.320312 C 408.070312 506.375 411.300781 503.152344 415.25 503.152344 L 415.253906 503.152344 C 419.199219 503.152344 422.433594 506.375 422.433594 510.320312 L 422.433594 543.234375 C 422.433594 547.175781 419.199219 550.410156 415.253906 550.410156 Z M 415.253906 550.410156 " fill-opacity="1" fill-rule="evenodd"/><path fill="#ffc44f" d="M 487.238281 531.140625 C 483.816406 533.117188 479.402344 531.933594 477.425781 528.515625 L 460.953125 500.011719 C 458.976562 496.59375 460.160156 492.183594 463.582031 490.21875 C 467 488.242188 471.414062 489.425781 473.386719 492.839844 L 489.863281 521.347656 C 491.835938 524.761719 490.65625 529.171875 487.238281 531.140625 Z M 487.238281 531.140625 " fill-opacity="1" fill-rule="evenodd"/><path fill="#ffc44f" d="M 539.9375 478.507812 C 537.960938 481.921875 533.546875 483.105469 530.125 481.136719 L 501.585938 464.675781 C 498.164062 462.699219 496.980469 458.292969 498.960938 454.882812 L 498.960938 454.878906 C 500.933594 451.464844 505.351562 450.285156 508.765625 452.253906 L 537.304688 468.714844 C 540.726562 470.679688 541.90625 475.09375 539.9375 478.507812 Z M 539.9375 478.507812 " fill-opacity="1" fill-rule="evenodd"/><path fill="#ffc44f" d="M 559.222656 406.609375 C 559.222656 410.554688 555.992188 413.78125 552.046875 413.78125 L 519.085938 413.78125 C 515.136719 413.78125 511.910156 410.554688 511.910156 406.609375 C 511.910156 402.667969 515.136719 399.441406 519.085938 399.441406 L 552.046875 399.441406 C 555.992188 399.4375 559.222656 402.664062 559.222656 406.609375 Z M 559.222656 406.609375 " fill-opacity="1" fill-rule="evenodd"/><path fill="#ffc44f" d="M 539.9375 334.710938 C 541.910156 338.128906 540.726562 342.539062 537.304688 344.503906 L 508.765625 360.964844 C 505.347656 362.941406 500.9375 361.757812 498.960938 358.339844 C 496.988281 354.925781 498.164062 350.515625 501.585938 348.542969 L 530.125 332.089844 C 533.546875 330.117188 537.960938 331.296875 539.9375 334.710938 Z M 539.9375 334.710938 " fill-opacity="1" fill-rule="evenodd"/><path fill="#ffc44f" d="M 487.238281 282.078125 C 490.660156 284.054688 491.835938 288.460938 489.863281 291.878906 L 473.386719 320.378906 C 471.414062 323.792969 467 324.976562 463.582031 323.007812 C 460.160156 321.03125 458.976562 316.625 460.953125 313.207031 L 477.425781 284.703125 C 479.40625 281.292969 483.816406 280.109375 487.238281 282.078125 Z M 487.238281 282.078125 " fill-opacity="1" fill-rule="evenodd"/><g clip-path="url(#bfc3aafcca)"><path fill="#f0f8ff" d="M 471.304688 591.1875 C 471.566406 591.207031 471.828125 591.214844 472.09375 591.214844 L 641.414062 591.214844 C 641.53125 591.214844 641.648438 591.210938 641.761719 591.210938 C 641.878906 591.210938 642 591.214844 642.125 591.214844 C 655.710938 591.214844 666.726562 580.210938 666.726562 566.644531 C 666.726562 553.070312 655.707031 542.070312 642.125 542.070312 C 639.15625 542.070312 636.308594 542.597656 633.675781 543.558594 C 631.921875 526.378906 617.398438 512.972656 599.742188 512.972656 C 599.15625 512.972656 598.582031 512.988281 598.007812 513.019531 C 591.164062 497.371094 575.539062 486.4375 557.351562 486.4375 C 536.59375 486.4375 519.167969 500.675781 514.339844 519.910156 C 511.121094 518.910156 507.699219 518.363281 504.152344 518.363281 C 485.914062 518.363281 471.023438 532.65625 470.089844 550.640625 C 458.972656 550.765625 450.003906 559.796875 450.003906 570.921875 C 450.003906 582.128906 459.101562 591.21875 470.324219 591.21875 C 470.648438 591.214844 470.972656 591.203125 471.304688 591.1875 Z M 471.304688 591.1875 " fill-opacity="1" fill-rule="evenodd"/></g></svg>