<svg xmlns="http://www.w3.org/2000/svg" xmlns:xlink="http://www.w3.org/1999/xlink" width="1080" zoomAndPan="magnify" viewBox="0 0 810 809.999993" height="1080" preserveAspectRatio="xMidYMid meet" version="1.0"><defs><clipPath id="330f02afba"><path d="M 197.03125 236 L 417 236 L 417 343 L 197.03125 343 Z M 197.03125 236 " clip-rule="nonzero"/></clipPath><clipPath id="52894a7cdd"><path d="M 389 224 L 613.28125 224 L 613.28125 351 L 389 351 Z M 389 224 " clip-rule="nonzero"/></clipPath><clipPath id="efd2febcad"><path d="M 223 217.828125 L 591 217.828125 L 591 396 L 223 396 Z M 223 217.828125 " clip-rule="nonzero"/></clipPath><clipPath id="5c38b1604b"><path d="M 333 553 L 356 553 L 356 592.078125 L 333 592.078125 Z M 333 553 " clip-rule="nonzero"/></clipPath></defs><path fill="#ffe66b" d="M 316.414062 381.640625 L 342.550781 381.640625 L 329.609375 424.339844 C 336.734375 424.339844 343.859375 424.339844 350.984375 424.339844 L 306.9375 502.910156 L 325.445312 441.421875 L 305.480469 441.421875 C 309.125 421.492188 312.769531 401.566406 316.414062 381.640625 Z M 316.414062 381.640625 " fill-opacity="1" fill-rule="evenodd"/><path fill="#ffe66b" d="M 382.054688 381.640625 L 415.082031 381.640625 L 398.730469 435.589844 C 407.734375 435.589844 416.734375 435.589844 425.738281 435.589844 L 370.085938 534.871094 L 393.46875 457.175781 L 368.242188 457.175781 C 372.84375 431.996094 377.453125 406.816406 382.054688 381.640625 Z M 382.054688 381.640625 " fill-opacity="1" fill-rule="evenodd"/><path fill="#ffe66b" d="M 454.894531 381.640625 L 481.027344 381.640625 L 468.09375 424.339844 C 475.21875 424.339844 482.335938 424.339844 489.460938 424.339844 L 445.417969 502.910156 L 463.921875 441.421875 L 443.960938 441.421875 C 447.601562 421.492188 451.246094 401.566406 454.894531 381.640625 Z M 454.894531 381.640625 " fill-opacity="1" fill-rule="evenodd"/><g clip-path="url(#330f02afba)"><path fill="#a1c6e6" d="M 395.28125 342.816406 C 395.019531 342.828125 394.753906 342.839844 394.484375 342.839844 L 222.773438 342.839844 C 222.652344 342.839844 222.539062 342.839844 222.425781 342.835938 C 222.300781 342.835938 222.179688 342.839844 222.058594 342.839844 C 208.28125 342.839844 197.109375 331.679688 197.109375 317.914062 C 197.109375 304.148438 208.28125 292.988281 222.058594 292.988281 C 225.070312 292.988281 227.953125 293.523438 230.628906 294.5 C 232.398438 277.074219 247.132812 263.480469 265.039062 263.480469 C 265.628906 263.480469 266.214844 263.496094 266.792969 263.523438 C 273.734375 247.652344 289.582031 236.5625 308.023438 236.5625 C 329.074219 236.5625 346.746094 251.007812 351.644531 270.515625 C 354.910156 269.5 358.375 268.949219 361.976562 268.949219 C 380.46875 268.949219 395.570312 283.449219 396.519531 301.683594 C 407.789062 301.808594 416.882812 310.972656 416.882812 322.261719 C 416.882812 333.625 407.660156 342.839844 396.285156 342.839844 C 395.949219 342.839844 395.617188 342.828125 395.28125 342.816406 Z M 395.28125 342.816406 " fill-opacity="1" fill-rule="evenodd"/></g><g clip-path="url(#52894a7cdd)"><path fill="#a1c6e6" d="M 592.710938 349.414062 C 591.191406 349.851562 589.582031 350.089844 587.925781 350.089844 L 422.957031 350.089844 C 422.804688 350.089844 422.65625 350.085938 422.503906 350.082031 C 422.347656 350.085938 422.195312 350.089844 422.039062 350.089844 C 404.339844 350.089844 389.988281 335.753906 389.988281 318.074219 C 389.988281 300.394531 404.339844 286.058594 422.039062 286.058594 C 425.902344 286.058594 429.609375 286.742188 433.039062 287.996094 C 435.316406 265.617188 454.238281 248.15625 477.246094 248.15625 C 480.066406 248.15625 482.828125 248.421875 485.503906 248.925781 C 495.988281 234.34375 513.113281 224.839844 532.457031 224.839844 C 564.355469 224.839844 590.210938 250.671875 590.210938 282.542969 C 590.210938 287.632812 589.554688 292.566406 588.3125 297.269531 C 602.195312 298.082031 613.203125 309.582031 613.203125 323.65625 C 613.203125 336.199219 604.453125 346.707031 592.710938 349.414062 Z M 592.710938 349.414062 " fill-opacity="1" fill-rule="evenodd"/></g><g clip-path="url(#efd2febcad)"><path fill="#c6e0f7" d="M 554.242188 395.21875 C 553.796875 395.25 553.355469 395.261719 552.902344 395.261719 L 266.230469 395.261719 C 266.03125 395.261719 265.839844 395.257812 265.640625 395.253906 C 265.441406 395.257812 265.238281 395.261719 265.039062 395.261719 C 242.03125 395.261719 223.382812 376.628906 223.382812 353.648438 C 223.382812 330.664062 242.03125 312.035156 265.039062 312.035156 C 270.0625 312.035156 274.878906 312.925781 279.339844 314.554688 C 282.300781 285.46875 306.894531 262.773438 336.792969 262.773438 C 337.777344 262.773438 338.753906 262.796875 339.726562 262.847656 C 351.3125 236.347656 377.765625 217.824219 408.5625 217.824219 C 443.703125 217.824219 473.203125 241.945312 481.382812 274.519531 C 486.828125 272.820312 492.621094 271.902344 498.628906 271.902344 C 529.507812 271.902344 554.722656 296.101562 556.304688 326.550781 C 575.117188 326.761719 590.304688 342.0625 590.304688 360.902344 C 590.304688 379.882812 574.90625 395.265625 555.910156 395.265625 C 555.351562 395.261719 554.792969 395.25 554.242188 395.21875 Z M 554.242188 395.21875 " fill-opacity="1" fill-rule="evenodd"/></g><path fill="#78b1e3" d="M 274.582031 403.558594 C 274.582031 403.558594 299.4375 442.222656 274.574219 442.214844 C 249.710938 442.210938 274.582031 403.558594 274.582031 403.558594 Z M 274.582031 403.558594 " fill-opacity="1" fill-rule="evenodd"/><path fill="#78b1e3" d="M 276.507812 463.488281 C 276.507812 463.488281 301.363281 502.152344 276.5 502.144531 C 251.640625 502.136719 276.507812 463.488281 276.507812 463.488281 Z M 276.507812 463.488281 " fill-opacity="1" fill-rule="evenodd"/><path fill="#78b1e3" d="M 346.160156 477.414062 C 346.160156 477.414062 371.015625 516.074219 346.148438 516.070312 C 321.292969 516.066406 346.160156 477.414062 346.160156 477.414062 Z M 346.160156 477.414062 " fill-opacity="1" fill-rule="evenodd"/><path fill="#78b1e3" d="M 304.148438 520.257812 C 304.148438 520.257812 329.003906 558.921875 304.140625 558.917969 C 279.277344 558.914062 304.148438 520.257812 304.148438 520.257812 Z M 304.148438 520.257812 " fill-opacity="1" fill-rule="evenodd"/><path fill="#78b1e3" d="M 421.011719 491.667969 C 421.011719 491.667969 445.867188 530.332031 421 530.320312 C 396.136719 530.316406 421.011719 491.667969 421.011719 491.667969 Z M 421.011719 491.667969 " fill-opacity="1" fill-rule="evenodd"/><path fill="#78b1e3" d="M 484.308594 499.113281 C 484.308594 499.113281 509.164062 537.777344 484.300781 537.769531 C 459.441406 537.765625 484.308594 499.113281 484.308594 499.113281 Z M 484.308594 499.113281 " fill-opacity="1" fill-rule="evenodd"/><path fill="#78b1e3" d="M 504.816406 446.933594 C 504.816406 446.933594 529.671875 485.597656 504.808594 485.59375 C 479.945312 485.589844 504.816406 446.933594 504.816406 446.933594 Z M 504.816406 446.933594 " fill-opacity="1" fill-rule="evenodd"/><path fill="#78b1e3" d="M 539.667969 404.140625 C 539.667969 404.140625 564.523438 442.800781 539.660156 442.796875 C 514.796875 442.789062 539.667969 404.140625 539.667969 404.140625 Z M 539.667969 404.140625 " fill-opacity="1" fill-rule="evenodd"/><path fill="#78b1e3" d="M 544.695312 466.390625 C 544.695312 466.390625 569.550781 505.054688 544.6875 505.046875 C 519.820312 505.039062 544.695312 466.390625 544.695312 466.390625 Z M 544.695312 466.390625 " fill-opacity="1" fill-rule="evenodd"/><path fill="#78b1e3" d="M 522.242188 527.863281 C 522.242188 527.863281 547.097656 566.527344 522.234375 566.523438 C 497.375 566.515625 522.242188 527.863281 522.242188 527.863281 Z M 522.242188 527.863281 " fill-opacity="1" fill-rule="evenodd"/><path fill="#78b1e3" d="M 449.101562 540.242188 C 449.101562 540.242188 473.957031 578.90625 449.09375 578.902344 C 424.226562 578.898438 449.101562 540.242188 449.101562 540.242188 Z M 449.101562 540.242188 " fill-opacity="1" fill-rule="evenodd"/><path fill="#78b1e3" d="M 390.277344 538.324219 C 390.277344 538.324219 415.132812 576.984375 390.265625 576.980469 C 365.402344 576.972656 390.277344 538.324219 390.277344 538.324219 Z M 390.277344 538.324219 " fill-opacity="1" fill-rule="evenodd"/><g clip-path="url(#5c38b1604b)"><path fill="#78b1e3" d="M 344.222656 553.410156 C 344.222656 553.410156 369.078125 592.070312 344.210938 592.066406 C 319.347656 592.058594 344.222656 553.410156 344.222656 553.410156 Z M 344.222656 553.410156 " fill-opacity="1" fill-rule="evenodd"/></g></svg>