<svg xmlns="http://www.w3.org/2000/svg" xmlns:xlink="http://www.w3.org/1999/xlink" width="1080" zoomAndPan="magnify" viewBox="0 0 810 809.999993" height="1080" preserveAspectRatio="xMidYMid meet" version="1.0"><defs><clipPath id="962038b665"><path d="M 362 411 L 429 411 L 429 588.316406 L 362 588.316406 Z M 362 411 " clip-rule="nonzero"/></clipPath><clipPath id="f4ea6ba60e"><path d="M 164.429688 243 L 419 243 L 419 367 L 164.429688 367 Z M 164.429688 243 " clip-rule="nonzero"/></clipPath><clipPath id="88d95724a7"><path d="M 387 229 L 645.929688 229 L 645.929688 375 L 387 375 Z M 387 229 " clip-rule="nonzero"/></clipPath><clipPath id="c13f14e327"><path d="M 194 221.566406 L 620 221.566406 L 620 427 L 194 427 Z M 194 221.566406 " clip-rule="nonzero"/></clipPath></defs><path fill="#ffe66b" d="M 302.519531 411.054688 L 332.757812 411.054688 L 317.789062 460.445312 C 326.03125 460.445312 334.273438 460.445312 342.515625 460.445312 L 291.558594 551.335938 L 312.96875 480.207031 L 289.871094 480.207031 C 294.089844 457.15625 298.304688 434.101562 302.519531 411.054688 Z M 302.519531 411.054688 " fill-opacity="1" fill-rule="evenodd"/><g clip-path="url(#962038b665)"><path fill="#ffe66b" d="M 378.457031 411.054688 L 416.664062 411.054688 L 397.746094 473.460938 C 408.164062 473.460938 418.578125 473.460938 428.992188 473.460938 L 364.609375 588.308594 L 391.660156 498.433594 L 362.480469 498.433594 C 367.804688 469.304688 373.132812 440.175781 378.457031 411.054688 Z M 378.457031 411.054688 " fill-opacity="1" fill-rule="evenodd"/></g><path fill="#ffe66b" d="M 462.722656 411.054688 L 492.953125 411.054688 L 477.988281 460.445312 C 486.234375 460.445312 494.46875 460.445312 502.710938 460.445312 L 451.761719 551.335938 L 473.167969 480.207031 L 450.074219 480.207031 C 454.289062 457.15625 458.503906 434.101562 462.722656 411.054688 Z M 462.722656 411.054688 " fill-opacity="1" fill-rule="evenodd"/><g clip-path="url(#f4ea6ba60e)"><path fill="#a1c6e6" d="M 393.761719 366.144531 C 393.457031 366.160156 393.148438 366.167969 392.839844 366.167969 L 194.195312 366.167969 C 194.054688 366.167969 193.921875 366.167969 193.789062 366.164062 C 193.644531 366.164062 193.507812 366.167969 193.367188 366.167969 C 177.429688 366.167969 164.503906 353.257812 164.503906 337.335938 C 164.503906 321.414062 177.429688 308.5 193.367188 308.5 C 196.851562 308.5 200.1875 309.121094 203.28125 310.25 C 205.328125 290.09375 222.371094 274.371094 243.085938 274.371094 C 243.769531 274.371094 244.449219 274.386719 245.121094 274.417969 C 253.148438 256.0625 271.484375 243.230469 292.816406 243.230469 C 317.167969 243.230469 337.613281 259.941406 343.277344 282.507812 C 347.054688 281.332031 351.066406 280.695312 355.230469 280.695312 C 376.621094 280.695312 394.09375 297.464844 395.191406 318.5625 C 408.230469 318.707031 418.75 329.304688 418.75 342.367188 C 418.75 355.511719 408.082031 366.167969 394.921875 366.167969 C 394.53125 366.167969 394.148438 366.160156 393.761719 366.144531 Z M 393.761719 366.144531 " fill-opacity="1" fill-rule="evenodd"/></g><g clip-path="url(#88d95724a7)"><path fill="#a1c6e6" d="M 622.15625 373.773438 C 620.398438 374.28125 618.535156 374.558594 616.621094 374.558594 L 425.773438 374.558594 C 425.597656 374.558594 425.429688 374.550781 425.25 374.546875 C 425.070312 374.550781 424.894531 374.558594 424.714844 374.558594 C 404.238281 374.558594 387.636719 357.976562 387.636719 337.523438 C 387.636719 317.070312 404.238281 300.484375 424.714844 300.484375 C 429.183594 300.484375 433.472656 301.277344 437.441406 302.730469 C 440.074219 276.839844 461.964844 256.644531 488.578125 256.644531 C 491.84375 256.644531 495.039062 256.949219 498.132812 257.535156 C 510.261719 240.664062 530.070312 229.671875 552.449219 229.671875 C 589.351562 229.671875 619.265625 259.554688 619.265625 296.417969 C 619.265625 302.308594 618.503906 308.015625 617.066406 313.457031 C 633.128906 314.394531 645.863281 327.699219 645.863281 343.980469 C 645.863281 358.488281 635.738281 370.644531 622.15625 373.773438 Z M 622.15625 373.773438 " fill-opacity="1" fill-rule="evenodd"/></g><g clip-path="url(#c13f14e327)"><path fill="#c6e0f7" d="M 577.652344 426.765625 C 577.140625 426.796875 576.628906 426.8125 576.105469 426.8125 L 244.46875 426.8125 C 244.238281 426.8125 244.015625 426.808594 243.785156 426.800781 C 243.554688 426.808594 243.320312 426.8125 243.085938 426.8125 C 216.472656 426.8125 194.898438 405.257812 194.898438 378.671875 C 194.898438 352.085938 216.472656 330.539062 243.085938 330.539062 C 248.902344 330.539062 254.46875 331.566406 259.632812 333.453125 C 263.058594 299.808594 291.507812 273.550781 326.097656 273.550781 C 327.234375 273.550781 328.367188 273.578125 329.492188 273.636719 C 342.894531 242.984375 373.496094 221.558594 409.121094 221.558594 C 449.777344 221.558594 483.902344 249.460938 493.367188 287.140625 C 499.667969 285.175781 506.367188 284.113281 513.316406 284.113281 C 549.039062 284.113281 578.207031 312.105469 580.039062 347.328125 C 601.800781 347.574219 619.371094 365.269531 619.371094 387.066406 C 619.371094 409.023438 601.558594 426.816406 579.582031 426.816406 C 578.9375 426.8125 578.289062 426.796875 577.652344 426.765625 Z M 577.652344 426.765625 " fill-opacity="1" fill-rule="evenodd"/></g></svg>