<svg xmlns="http://www.w3.org/2000/svg" xmlns:xlink="http://www.w3.org/1999/xlink" width="1080" zoomAndPan="magnify" viewBox="0 0 810 809.999993" height="1080" preserveAspectRatio="xMidYMid meet" version="1.0"><defs><clipPath id="e53c711eac"><path d="M 199.191406 199.191406 L 610.941406 199.191406 L 610.941406 610.941406 L 199.191406 610.941406 Z M 199.191406 199.191406 " clip-rule="nonzero"/></clipPath><clipPath id="88ea14f5fd"><path d="M 556 367 L 610.941406 367 L 610.941406 422 L 556 422 Z M 556 367 " clip-rule="nonzero"/></clipPath></defs><path fill="#39b54a" d="M 347.640625 300.40625 C 347.640625 274.34375 326.46875 253.171875 300.40625 253.171875 C 274.34375 253.171875 253.171875 274.34375 253.171875 300.40625 C 253.171875 326.46875 274.34375 347.640625 300.40625 347.640625 C 326.46875 347.640625 347.640625 326.46875 347.640625 300.40625 Z M 266.667969 300.40625 C 266.667969 281.765625 281.765625 266.667969 300.40625 266.667969 C 319.046875 266.667969 334.144531 281.765625 334.144531 300.40625 C 334.144531 319.046875 319.046875 334.144531 300.40625 334.144531 C 281.765625 334.144531 266.667969 319.046875 266.667969 300.40625 Z M 266.667969 300.40625 " fill-opacity="1" fill-rule="nonzero"/><g clip-path="url(#e53c711eac)"><path fill="#39b54a" d="M 570.3125 273.582031 L 570.3125 273.414062 C 570.3125 243.640625 546.105469 219.433594 516.332031 219.433594 C 491.363281 219.433594 470.277344 236.472656 464.207031 259.582031 C 444.46875 250.808594 423.464844 246.421875 401.621094 246.421875 C 392.765625 246.421875 383.90625 247.183594 375.21875 248.699219 L 381.125 228.035156 C 381.800781 225.675781 381.125 223.144531 379.4375 221.371094 C 377.667969 219.601562 375.136719 219.011719 372.773438 219.6875 L 329.84375 231.917969 L 305.636719 201.71875 C 304.371094 200.117188 302.429688 199.191406 300.40625 199.191406 C 298.382812 199.191406 296.441406 200.117188 295.175781 201.71875 L 270.96875 231.917969 L 228.035156 219.6875 C 225.675781 219.011719 223.144531 219.6875 221.371094 221.371094 C 219.601562 223.144531 219.011719 225.675781 219.6875 228.035156 L 231.917969 270.96875 L 201.71875 295.175781 C 200.117188 296.441406 199.191406 298.382812 199.191406 300.40625 C 199.191406 302.429688 200.117188 304.371094 201.71875 305.636719 L 231.917969 329.84375 L 219.6875 372.773438 C 219.011719 375.136719 219.6875 377.667969 221.371094 379.4375 C 223.144531 381.207031 225.675781 381.800781 228.035156 381.125 L 248.699219 375.21875 C 247.183594 383.90625 246.421875 392.765625 246.421875 401.621094 C 246.421875 435.359375 257.050781 467.410156 277.210938 494.402344 C 295.175781 518.441406 320.226562 537.082031 348.230469 547.371094 C 347.386719 549.226562 347.46875 551.335938 348.398438 553.191406 C 349.578125 555.46875 351.855469 556.816406 354.386719 556.816406 L 381.378906 556.816406 L 381.378906 604.050781 C 381.378906 606.917969 383.148438 609.449219 385.847656 610.378906 C 386.605469 610.628906 387.367188 610.800781 388.125 610.800781 C 390.066406 610.800781 392.003906 609.957031 393.269531 608.351562 L 440.925781 551.082031 C 441.261719 551.167969 441.683594 551.167969 442.023438 551.167969 C 442.613281 551.167969 443.289062 551.082031 443.878906 550.914062 C 475.761719 541.886719 504.4375 522.40625 524.765625 496.003906 C 545.683594 468.761719 556.816406 436.035156 556.816406 401.621094 C 556.816406 387.871094 555.046875 374.292969 551.503906 361.132812 L 566.9375 361.132812 C 591.148438 361.132812 610.800781 341.480469 610.800781 317.273438 C 610.800781 294.25 592.917969 275.269531 570.3125 273.582031 Z M 235.964844 364.847656 L 246.085938 329.25 C 246.84375 326.636719 245.917969 323.855469 243.808594 322.167969 L 216.734375 300.40625 L 243.894531 278.644531 C 246.003906 276.957031 246.929688 274.171875 246.171875 271.558594 L 236.050781 235.964844 L 271.644531 246.085938 C 274.257812 246.84375 277.042969 245.917969 278.726562 243.808594 L 300.40625 216.734375 L 322.167969 243.894531 C 323.855469 246.003906 326.636719 246.929688 329.25 246.171875 L 364.847656 236.050781 L 354.722656 271.644531 C 353.964844 274.257812 354.894531 277.042969 357 278.726562 L 384.160156 300.488281 L 356.917969 322.167969 C 354.808594 323.855469 353.878906 326.636719 354.640625 329.25 L 364.761719 364.847656 L 329.167969 354.722656 C 326.550781 353.964844 323.769531 354.894531 322.082031 357 L 300.40625 384.078125 L 278.644531 356.917969 C 277.378906 355.316406 275.355469 354.386719 273.414062 354.386719 C 272.824219 354.386719 272.148438 354.472656 271.558594 354.640625 Z M 394.871094 585.410156 L 394.871094 550.070312 C 394.871094 546.359375 391.835938 543.324219 388.125 543.324219 L 367.460938 543.324219 L 393.609375 506.800781 C 395.042969 504.777344 395.292969 502.078125 394.113281 499.800781 C 392.933594 497.523438 390.65625 496.171875 388.125 496.171875 L 346.710938 496.171875 L 378.171875 448.9375 L 439.238281 448.9375 L 410.308594 477.871094 C 408.367188 479.808594 407.777344 482.675781 408.875 485.207031 C 409.972656 487.738281 412.417969 489.339844 415.117188 489.339844 L 439.324219 489.339844 L 410.394531 518.273438 C 408.453125 520.210938 407.863281 523.078125 408.957031 525.609375 C 410.054688 528.140625 412.5 529.742188 415.199219 529.742188 L 441.261719 529.742188 Z M 456.78125 532.1875 L 460.746094 527.382812 C 462.433594 525.355469 462.773438 522.574219 461.675781 520.210938 C 460.578125 517.851562 458.21875 516.332031 455.601562 516.332031 L 431.394531 516.332031 L 460.324219 487.402344 C 462.265625 485.460938 462.855469 482.59375 461.757812 480.0625 C 460.664062 477.53125 458.21875 475.929688 455.519531 475.929688 L 431.3125 475.929688 L 460.242188 447 C 462.179688 445.058594 462.773438 442.191406 461.675781 439.660156 C 460.578125 437.128906 458.132812 435.527344 455.433594 435.527344 L 374.460938 435.527344 C 372.183594 435.527344 370.074219 436.625 368.808594 438.5625 L 328.324219 499.292969 C 326.972656 501.402344 326.804688 504.015625 327.988281 506.210938 C 329.167969 508.402344 331.445312 509.753906 333.976562 509.753906 L 374.882812 509.753906 L 356.074219 536.070312 C 298.464844 516.414062 259.917969 462.855469 259.917969 401.621094 C 259.917969 391.332031 261.015625 381.039062 263.207031 371.085938 L 270.882812 368.894531 L 295.089844 399.089844 C 296.355469 400.691406 298.296875 401.621094 300.320312 401.621094 C 302.34375 401.621094 304.285156 400.691406 305.550781 399.089844 L 329.757812 368.894531 L 372.691406 381.125 C 375.050781 381.800781 377.582031 381.125 379.351562 379.4375 C 381.125 377.667969 381.714844 375.136719 381.039062 372.773438 L 368.808594 329.84375 L 399.007812 305.636719 C 400.609375 304.371094 401.535156 302.429688 401.535156 300.40625 C 401.535156 298.382812 400.609375 296.441406 399.007812 295.175781 L 368.808594 270.96875 L 371.003906 263.292969 C 380.957031 261.101562 391.246094 260.003906 401.535156 260.003906 C 422.875 260.003906 443.203125 264.558594 462.265625 273.667969 C 439.660156 275.4375 421.78125 294.332031 421.78125 317.359375 C 421.78125 341.566406 441.433594 361.21875 465.640625 361.21875 L 537.332031 361.21875 C 539.609375 368.808594 541.214844 376.484375 542.140625 384.328125 L 527.71875 369.90625 C 525.101562 367.292969 520.800781 367.292969 518.1875 369.90625 L 502.160156 385.933594 C 498.195312 389.898438 496.003906 395.210938 496.003906 400.863281 C 496.003906 412.5 505.449219 421.949219 517.089844 421.949219 L 528.984375 421.949219 C 534.128906 421.949219 538.769531 420.09375 542.480469 417.054688 C 536.910156 467.917969 503.847656 512.28125 456.78125 532.1875 Z M 536.574219 400.777344 C 536.574219 404.910156 533.199219 408.367188 528.984375 408.367188 L 517.175781 408.367188 C 513.042969 408.367188 509.582031 404.996094 509.582031 400.777344 C 509.582031 398.753906 523.078125 384.160156 523.078125 384.160156 C 523.078125 384.160156 536.574219 398.753906 536.574219 400.777344 Z M 566.9375 347.640625 L 465.722656 347.640625 C 448.9375 347.640625 435.359375 334.058594 435.359375 317.273438 C 435.359375 300.488281 448.9375 286.910156 465.722656 286.910156 L 469.097656 286.910156 C 489.425781 286.910156 509.5 293.65625 525.777344 305.804688 C 528.730469 307.996094 532.949219 307.40625 535.226562 304.453125 C 537.503906 301.5 536.828125 297.285156 533.875 295.007812 C 517.089844 282.441406 496.761719 274.933594 475.84375 273.667969 L 475.84375 273.414062 C 475.84375 251.0625 493.980469 232.929688 516.332031 232.929688 C 538.683594 232.929688 556.816406 251.0625 556.816406 273.414062 L 556.816406 280.164062 C 556.816406 283.875 559.855469 286.910156 563.566406 286.910156 L 566.9375 286.910156 C 583.722656 286.910156 597.304688 300.488281 597.304688 317.273438 C 597.304688 334.058594 583.722656 347.640625 566.9375 347.640625 Z M 566.9375 347.640625 " fill-opacity="1" fill-rule="nonzero"/></g><path fill="#39b54a" d="M 467.15625 369.820312 C 464.542969 367.207031 460.242188 367.207031 457.625 369.820312 L 441.601562 385.847656 C 437.636719 389.8125 435.445312 395.125 435.445312 400.777344 C 435.445312 412.417969 444.890625 421.863281 456.53125 421.863281 L 468.253906 421.863281 C 479.894531 421.863281 489.339844 412.417969 489.339844 400.777344 C 489.339844 395.125 487.148438 389.898438 483.183594 385.847656 Z M 468.253906 408.367188 L 456.445312 408.367188 C 452.3125 408.367188 448.855469 404.996094 448.855469 400.777344 C 448.855469 398.753906 462.351562 384.160156 462.351562 384.160156 C 462.351562 384.160156 475.84375 398.753906 475.84375 400.777344 C 475.84375 404.996094 472.472656 408.367188 468.253906 408.367188 Z M 468.253906 408.367188 " fill-opacity="1" fill-rule="nonzero"/><g clip-path="url(#88ea14f5fd)"><path fill="#39b54a" d="M 588.617188 369.820312 C 586 367.207031 581.699219 367.207031 579.085938 369.820312 L 563.058594 385.847656 C 559.09375 389.8125 556.902344 395.125 556.902344 400.777344 C 556.902344 412.417969 566.347656 421.863281 577.988281 421.863281 L 589.710938 421.863281 C 601.351562 421.863281 610.800781 412.417969 610.800781 400.777344 C 610.800781 395.125 608.605469 389.898438 604.640625 385.847656 Z M 589.710938 408.367188 L 577.902344 408.367188 C 573.769531 408.367188 570.3125 404.996094 570.3125 400.777344 C 570.3125 398.753906 583.808594 384.160156 583.808594 384.160156 C 583.808594 384.160156 597.304688 398.753906 597.304688 400.777344 C 597.304688 404.996094 593.929688 408.367188 589.710938 408.367188 Z M 589.710938 408.367188 " fill-opacity="1" fill-rule="nonzero"/></g></svg>