<svg xmlns="http://www.w3.org/2000/svg" xmlns:xlink="http://www.w3.org/1999/xlink" width="1080" zoomAndPan="magnify" viewBox="0 0 810 809.999993" height="1080" preserveAspectRatio="xMidYMid meet" version="1.0"><defs><clipPath id="b91f5759bf"><path d="M 296 267.699219 L 667 267.699219 L 667 483 L 296 483 Z M 296 267.699219 " clip-rule="nonzero"/></clipPath><clipPath id="2682c585ec"><path d="M 162 469 L 386 469 L 386 542.199219 L 162 542.199219 Z M 162 469 " clip-rule="nonzero"/></clipPath></defs><g clip-path="url(#b91f5759bf)"><path fill="#86a3bf" d="M 432.875 267.84375 C 431.523438 267.84375 430.175781 267.875 428.832031 267.941406 C 427.484375 268.007812 426.140625 268.109375 424.796875 268.238281 C 423.457031 268.371094 422.117188 268.535156 420.785156 268.734375 C 419.449219 268.933594 418.121094 269.164062 416.800781 269.425781 C 415.476562 269.6875 414.164062 269.984375 412.855469 270.3125 C 411.546875 270.636719 410.246094 270.996094 408.957031 271.390625 C 407.667969 271.78125 406.386719 272.203125 405.117188 272.65625 C 403.847656 273.109375 402.589844 273.59375 401.34375 274.109375 C 400.097656 274.625 398.867188 275.171875 397.648438 275.746094 C 396.429688 276.324219 395.222656 276.929688 394.035156 277.566406 C 392.847656 278.199219 391.671875 278.863281 390.515625 279.554688 C 389.359375 280.25 388.222656 280.96875 387.101562 281.71875 C 385.980469 282.464844 384.878906 283.242188 383.792969 284.042969 C 382.710938 284.847656 381.648438 285.675781 380.605469 286.53125 C 379.5625 287.386719 378.542969 288.265625 377.542969 289.167969 C 376.546875 290.074219 375.570312 291.003906 374.617188 291.957031 C 373.660156 292.90625 372.734375 293.882812 371.828125 294.882812 C 370.921875 295.878906 370.039062 296.898438 369.1875 297.941406 C 368.332031 298.984375 367.5 300.042969 366.699219 301.125 C 365.894531 302.207031 365.117188 303.308594 364.371094 304.429688 C 363.621094 305.550781 362.898438 306.6875 362.207031 307.84375 C 361.511719 309 360.847656 310.171875 360.210938 311.359375 C 359.578125 312.546875 358.972656 313.75 358.394531 314.96875 C 357.816406 316.1875 357.273438 317.417969 356.753906 318.660156 C 356.238281 319.90625 355.753906 321.164062 355.300781 322.433594 C 354.847656 323.699219 354.421875 324.980469 354.03125 326.269531 C 353.640625 327.558594 353.28125 328.855469 352.953125 330.164062 C 352.625 331.46875 352.332031 332.785156 352.066406 334.105469 C 351.804688 335.425781 351.574219 336.753906 351.375 338.085938 C 351.179688 339.417969 351.011719 340.753906 350.882812 342.09375 C 350.75 343.4375 350.648438 344.78125 350.582031 346.125 C 350.515625 347.46875 350.484375 348.816406 350.484375 350.164062 C 350.503906 353.210938 350.691406 356.25 351.046875 359.277344 C 319.972656 364.851562 296.660156 389.925781 296.660156 420.203125 C 296.660156 454.597656 326.75 482.289062 364.125 482.289062 L 604.855469 482.289062 C 639.277344 482.289062 666.992188 456.550781 666.992188 424.578125 C 666.992188 392.808594 639.621094 367.203125 605.496094 366.886719 C 605.226562 364.753906 604.859375 362.640625 604.398438 360.542969 C 603.9375 358.445312 603.382812 356.375 602.734375 354.328125 C 602.085938 352.28125 601.34375 350.269531 600.515625 348.289062 C 599.683594 346.308594 598.765625 344.367188 597.757812 342.472656 C 596.753906 340.574219 595.664062 338.726562 594.488281 336.925781 C 593.316406 335.128906 592.066406 333.386719 590.734375 331.699219 C 589.402344 330.015625 588 328.390625 586.523438 326.832031 C 585.042969 325.273438 583.5 323.785156 581.886719 322.363281 C 580.273438 320.945312 578.601562 319.601562 576.867188 318.332031 C 575.132812 317.0625 573.347656 315.875 571.507812 314.769531 C 569.664062 313.660156 567.777344 312.640625 565.84375 311.703125 C 563.910156 310.765625 561.9375 309.917969 559.929688 309.160156 C 557.917969 308.398438 555.878906 307.734375 553.808594 307.160156 C 551.738281 306.585938 549.644531 306.105469 547.53125 305.71875 C 545.417969 305.332031 543.289062 305.042969 541.148438 304.847656 C 539.007812 304.65625 536.863281 304.558594 534.714844 304.558594 C 529.644531 304.566406 524.628906 305.109375 519.671875 306.183594 C 514.714844 307.261719 509.925781 308.847656 505.308594 310.945312 C 503.546875 307.699219 501.578125 304.589844 499.402344 301.609375 C 497.222656 298.628906 494.855469 295.808594 492.296875 293.148438 C 489.738281 290.484375 487.015625 288.007812 484.121094 285.710938 C 481.230469 283.414062 478.199219 281.324219 475.027344 279.4375 C 471.851562 277.546875 468.566406 275.878906 465.171875 274.433594 C 461.773438 272.988281 458.292969 271.773438 454.734375 270.796875 C 451.171875 269.816406 447.5625 269.078125 443.902344 268.585938 C 440.242188 268.089844 436.566406 267.84375 432.875 267.84375 Z M 432.875 267.84375 " fill-opacity="1" fill-rule="nonzero"/></g><path fill="#c6e0f7" d="M 343.304688 298.824219 C 341.957031 298.824219 340.609375 298.855469 339.261719 298.921875 C 337.914062 298.988281 336.570312 299.085938 335.230469 299.21875 C 333.886719 299.351562 332.550781 299.515625 331.214844 299.714844 C 329.882812 299.910156 328.554688 300.140625 327.230469 300.40625 C 325.910156 300.667969 324.59375 300.960938 323.285156 301.289062 C 321.976562 301.617188 320.679688 301.976562 319.386719 302.367188 C 318.097656 302.757812 316.816406 303.179688 315.546875 303.636719 C 314.277344 304.089844 313.019531 304.574219 311.777344 305.089844 C 310.53125 305.605469 309.296875 306.152344 308.078125 306.726562 C 306.859375 307.304688 305.65625 307.910156 304.464844 308.542969 C 303.277344 309.179688 302.105469 309.84375 300.949219 310.535156 C 299.792969 311.226562 298.652344 311.949219 297.53125 312.695312 C 296.410156 313.445312 295.308594 314.222656 294.226562 315.023438 C 293.140625 315.824219 292.078125 316.65625 291.039062 317.507812 C 289.996094 318.363281 288.972656 319.242188 287.976562 320.148438 C 286.976562 321.054688 286 321.980469 285.046875 322.933594 C 284.09375 323.886719 283.164062 324.863281 282.257812 325.859375 C 281.351562 326.859375 280.472656 327.878906 279.617188 328.921875 C 278.761719 329.960938 277.933594 331.023438 277.128906 332.105469 C 276.324219 333.1875 275.550781 334.289062 274.800781 335.410156 C 274.050781 336.527344 273.332031 337.667969 272.636719 338.824219 C 271.945312 339.976562 271.28125 341.148438 270.644531 342.339844 C 270.007812 343.527344 269.402344 344.730469 268.824219 345.945312 C 268.25 347.164062 267.703125 348.394531 267.1875 349.640625 C 266.671875 350.886719 266.1875 352.140625 265.730469 353.410156 C 265.277344 354.679688 264.855469 355.957031 264.464844 357.246094 C 264.070312 358.535156 263.710938 359.835938 263.382812 361.140625 C 263.058594 362.449219 262.761719 363.761719 262.5 365.082031 C 262.234375 366.40625 262.003906 367.730469 261.808594 369.0625 C 261.609375 370.398438 261.445312 371.734375 261.3125 373.074219 C 261.179688 374.414062 261.082031 375.757812 261.015625 377.105469 C 260.949219 378.449219 260.914062 379.796875 260.914062 381.144531 C 260.933594 384.191406 261.121094 387.226562 261.476562 390.253906 C 230.402344 395.832031 207.089844 420.90625 207.089844 451.183594 C 207.089844 485.578125 237.179688 513.269531 274.558594 513.269531 L 515.285156 513.269531 C 549.710938 513.269531 577.425781 487.527344 577.425781 455.558594 C 577.425781 423.785156 550.050781 398.183594 515.925781 397.863281 C 515.65625 395.734375 515.289062 393.621094 514.828125 391.523438 C 514.367188 389.425781 513.8125 387.355469 513.164062 385.308594 C 512.515625 383.261719 511.777344 381.246094 510.945312 379.265625 C 510.113281 377.285156 509.195312 375.347656 508.191406 373.449219 C 507.183594 371.554688 506.09375 369.703125 504.921875 367.90625 C 503.75 366.105469 502.496094 364.363281 501.164062 362.679688 C 499.835938 360.992188 498.429688 359.371094 496.953125 357.8125 C 495.476562 356.253906 493.929688 354.761719 492.320312 353.34375 C 490.707031 351.925781 489.035156 350.578125 487.300781 349.3125 C 485.566406 348.042969 483.777344 346.855469 481.9375 345.746094 C 480.097656 344.640625 478.207031 343.617188 476.273438 342.679688 C 474.339844 341.746094 472.371094 340.898438 470.359375 340.136719 C 468.347656 339.378906 466.308594 338.710938 464.238281 338.136719 C 462.167969 337.5625 460.074219 337.082031 457.960938 336.699219 C 455.847656 336.3125 453.71875 336.023438 451.582031 335.828125 C 449.441406 335.632812 447.296875 335.539062 445.148438 335.539062 C 440.074219 335.546875 435.058594 336.085938 430.101562 337.164062 C 425.144531 338.238281 420.355469 339.828125 415.738281 341.921875 C 413.980469 338.679688 412.011719 335.566406 409.832031 332.585938 C 407.652344 329.609375 405.285156 326.785156 402.726562 324.125 C 400.167969 321.464844 397.445312 318.984375 394.554688 316.691406 C 391.660156 314.394531 388.628906 312.300781 385.457031 310.414062 C 382.285156 308.527344 379 306.859375 375.601562 305.414062 C 372.203125 303.964844 368.726562 302.753906 365.164062 301.773438 C 361.605469 300.792969 357.992188 300.058594 354.332031 299.5625 C 350.675781 299.070312 346.996094 298.824219 343.304688 298.824219 Z M 343.304688 298.824219 " fill-opacity="1" fill-rule="nonzero"/><path fill="#3981bf" d="M 320.546875 354.601562 C 299.097656 354.601562 281.511719 371.984375 281.511719 393.324219 C 281.511719 393.75 281.554688 394.167969 281.636719 394.585938 C 281.71875 395 281.84375 395.402344 282.003906 395.792969 C 282.167969 396.1875 282.367188 396.558594 282.601562 396.910156 C 282.835938 397.261719 283.105469 397.589844 283.40625 397.890625 C 283.703125 398.1875 284.03125 398.457031 284.382812 398.691406 C 284.734375 398.925781 285.109375 399.125 285.5 399.289062 C 285.890625 399.449219 286.296875 399.574219 286.710938 399.65625 C 287.128906 399.738281 287.546875 399.777344 287.972656 399.777344 C 288.394531 399.777344 288.816406 399.738281 289.230469 399.65625 C 289.648438 399.574219 290.050781 399.449219 290.445312 399.289062 C 290.835938 399.125 291.207031 398.925781 291.5625 398.691406 C 291.914062 398.457031 292.238281 398.1875 292.539062 397.890625 C 292.839844 397.589844 293.105469 397.261719 293.34375 396.910156 C 293.578125 396.558594 293.777344 396.1875 293.941406 395.792969 C 294.101562 395.402344 294.222656 395 294.308594 394.585938 C 294.390625 394.167969 294.429688 393.75 294.429688 393.324219 C 294.429688 379.019531 306.019531 367.507812 320.546875 367.507812 C 335.078125 367.507812 346.664062 379.019531 346.664062 393.324219 C 346.664062 407.628906 335.078125 419.140625 320.546875 419.140625 L 150.203125 419.140625 C 149.78125 419.140625 149.359375 419.183594 148.945312 419.265625 C 148.527344 419.347656 148.125 419.46875 147.730469 419.632812 C 147.339844 419.792969 146.96875 419.992188 146.613281 420.226562 C 146.261719 420.464844 145.9375 420.730469 145.636719 421.03125 C 145.335938 421.332031 145.070312 421.65625 144.832031 422.007812 C 144.597656 422.363281 144.398438 422.734375 144.234375 423.125 C 144.074219 423.515625 143.953125 423.921875 143.867188 424.335938 C 143.785156 424.75 143.746094 425.171875 143.746094 425.59375 C 143.746094 426.019531 143.785156 426.4375 143.867188 426.855469 C 143.949219 427.269531 144.074219 427.671875 144.234375 428.066406 C 144.398438 428.457031 144.597656 428.828125 144.832031 429.179688 C 145.070312 429.53125 145.335938 429.859375 145.636719 430.160156 C 145.9375 430.457031 146.261719 430.726562 146.613281 430.960938 C 146.96875 431.195312 147.339844 431.394531 147.730469 431.558594 C 148.125 431.71875 148.527344 431.84375 148.945312 431.925781 C 149.359375 432.007812 149.78125 432.046875 150.203125 432.046875 L 320.546875 432.046875 C 342 432.046875 359.582031 414.664062 359.582031 393.324219 C 359.582031 371.984375 342 354.601562 320.546875 354.601562 Z M 320.546875 354.601562 " fill-opacity="1" fill-rule="nonzero"/><path fill="#3981bf" d="M 399.828125 392.460938 C 381.542969 392.460938 366.289062 406.816406 366.289062 424.730469 C 366.289062 425.15625 366.332031 425.574219 366.414062 425.988281 C 366.496094 426.40625 366.621094 426.808594 366.78125 427.199219 C 366.945312 427.59375 367.144531 427.964844 367.378906 428.316406 C 367.613281 428.667969 367.882812 428.996094 368.183594 429.292969 C 368.484375 429.59375 368.808594 429.863281 369.160156 430.097656 C 369.515625 430.332031 369.886719 430.53125 370.277344 430.695312 C 370.671875 430.855469 371.074219 430.976562 371.488281 431.0625 C 371.90625 431.144531 372.328125 431.183594 372.75 431.183594 C 373.175781 431.183594 373.59375 431.144531 374.011719 431.0625 C 374.425781 430.976562 374.832031 430.855469 375.222656 430.695312 C 375.613281 430.53125 375.984375 430.332031 376.339844 430.097656 C 376.691406 429.863281 377.019531 429.59375 377.316406 429.292969 C 377.617188 428.996094 377.886719 428.667969 378.121094 428.316406 C 378.355469 427.964844 378.554688 427.59375 378.71875 427.199219 C 378.878906 426.808594 379.003906 426.40625 379.085938 425.988281 C 379.167969 425.574219 379.210938 425.15625 379.210938 424.730469 C 379.210938 414.128906 388.203125 405.367188 399.828125 405.367188 C 411.449219 405.367188 420.445312 414.128906 420.445312 424.730469 C 420.445312 435.332031 411.449219 444.09375 399.828125 444.09375 L 184.65625 444.09375 C 184.230469 444.09375 183.8125 444.132812 183.394531 444.214844 C 182.980469 444.300781 182.574219 444.421875 182.183594 444.582031 C 181.792969 444.746094 181.417969 444.945312 181.066406 445.179688 C 180.714844 445.414062 180.386719 445.683594 180.085938 445.984375 C 179.789062 446.28125 179.519531 446.609375 179.285156 446.960938 C 179.050781 447.3125 178.851562 447.683594 178.6875 448.078125 C 178.523438 448.46875 178.402344 448.871094 178.320312 449.289062 C 178.238281 449.703125 178.195312 450.121094 178.195312 450.546875 C 178.195312 450.96875 178.238281 451.390625 178.320312 451.804688 C 178.402344 452.222656 178.523438 452.625 178.6875 453.015625 C 178.851562 453.40625 179.050781 453.78125 179.285156 454.132812 C 179.519531 454.484375 179.789062 454.808594 180.085938 455.109375 C 180.386719 455.410156 180.714844 455.675781 181.066406 455.914062 C 181.417969 456.148438 181.792969 456.347656 182.183594 456.507812 C 182.574219 456.671875 182.980469 456.792969 183.394531 456.875 C 183.8125 456.960938 184.230469 457 184.65625 457 L 399.828125 457 C 418.113281 457 433.363281 442.644531 433.363281 424.730469 C 433.363281 406.816406 418.113281 392.460938 399.828125 392.460938 Z M 399.828125 392.460938 " fill-opacity="1" fill-rule="nonzero"/><g clip-path="url(#2682c585ec)"><path fill="#3981bf" d="M 169.148438 469.050781 C 168.726562 469.050781 168.304688 469.09375 167.890625 469.175781 C 167.472656 469.257812 167.070312 469.378906 166.675781 469.542969 C 166.285156 469.703125 165.914062 469.902344 165.5625 470.136719 C 165.207031 470.375 164.882812 470.640625 164.582031 470.941406 C 164.28125 471.242188 164.015625 471.566406 163.777344 471.917969 C 163.542969 472.269531 163.34375 472.644531 163.179688 473.035156 C 163.019531 473.425781 162.898438 473.828125 162.8125 474.246094 C 162.730469 474.660156 162.691406 475.082031 162.691406 475.503906 C 162.691406 475.929688 162.730469 476.347656 162.8125 476.765625 C 162.898438 477.179688 163.019531 477.582031 163.179688 477.972656 C 163.34375 478.367188 163.542969 478.738281 163.777344 479.089844 C 164.015625 479.441406 164.28125 479.769531 164.582031 480.066406 C 164.882812 480.367188 165.207031 480.636719 165.5625 480.871094 C 165.914062 481.105469 166.285156 481.304688 166.675781 481.46875 C 167.070312 481.628906 167.472656 481.75 167.890625 481.835938 C 168.304688 481.917969 168.726562 481.957031 169.148438 481.957031 L 348.445312 481.957031 C 362.058594 481.957031 372.832031 492.59375 372.832031 505.734375 C 372.832031 518.878906 362.058594 529.519531 348.445312 529.519531 C 334.832031 529.519531 324.058594 518.878906 324.058594 505.734375 C 324.058594 505.3125 324.015625 504.890625 323.933594 504.476562 C 323.851562 504.058594 323.726562 503.65625 323.566406 503.265625 C 323.402344 502.875 323.203125 502.5 322.96875 502.148438 C 322.734375 501.796875 322.464844 501.472656 322.164062 501.171875 C 321.867188 500.871094 321.539062 500.605469 321.1875 500.367188 C 320.835938 500.132812 320.460938 499.933594 320.070312 499.773438 C 319.679688 499.609375 319.273438 499.488281 318.859375 499.40625 C 318.441406 499.324219 318.023438 499.28125 317.597656 499.28125 C 317.175781 499.28125 316.753906 499.324219 316.339844 499.40625 C 315.921875 499.488281 315.519531 499.609375 315.125 499.773438 C 314.734375 499.933594 314.363281 500.132812 314.007812 500.367188 C 313.65625 500.605469 313.332031 500.871094 313.03125 501.171875 C 312.730469 501.472656 312.464844 501.796875 312.226562 502.148438 C 311.992188 502.5 311.792969 502.875 311.628906 503.265625 C 311.46875 503.65625 311.347656 504.058594 311.261719 504.476562 C 311.179688 504.890625 311.140625 505.3125 311.140625 505.734375 C 311.140625 525.988281 327.984375 542.425781 348.445312 542.425781 C 368.90625 542.425781 385.75 525.988281 385.75 505.734375 C 385.75 485.480469 368.90625 469.050781 348.445312 469.050781 Z M 169.148438 469.050781 " fill-opacity="1" fill-rule="nonzero"/></g></svg>